<svg id="kleidung_3_Bild" data-name="kleidung #3 Bild" xmlns="http://www.w3.org/2000/svg" viewBox="0 0 194.93 575.54"><defs><style>.cls-1{fill:#6193be;}.cls-2{fill:#dfaf89;}.cls-3{fill:#595959;}.cls-4{fill:#4e4e4e;}.cls-5{fill:#bd4b03;}.cls-6{fill:#dfaf88;}.cls-7{fill:#343434;}.cls-8{fill:#492a0b;}.cls-9{fill:#87accc;}.cls-10{fill:#191919;}.cls-11{fill:#333;}.cls-12{fill:#603e19;}.cls-13{fill:#050403;}.cls-14{fill:#cbcbcb;}.cls-15{fill:#aaa;}.cls-16{fill:#232323;}.cls-17{fill:#553410;}.cls-18{fill:#303458;}.cls-19{fill:#803939;}.cls-20{fill:#c75858;}.cls-21{fill:#b48d6d;}.cls-22{fill:#66431c;}.cls-23{fill:#fafafb;}.cls-24{fill:#dcad87;}.cls-25{fill:#25170c;}.cls-26{fill:#030202;}.cls-27{fill:#fbfbfb;}.cls-28{fill:#060403;}.cls-29{fill:#5f3d19;}.cls-30{fill:#65431c;}.cls-31{fill:#b58e6e;}.cls-32{fill:#b48d6e;}.cls-33{fill:#b48e6e;}.cls-34{fill:#ddae87;}.cls-35{fill:#dbac86;}.cls-36{fill:#26180d;}.cls-37{fill:#b38c6d;}.cls-38{fill:#24160b;}.cls-39{fill:#25160b;}.cls-40{fill:#f9f9f9;}.cls-41{fill:#f7f7f7;}</style></defs><title>hauptcharakter_uhr</title><path class="cls-1" d="M47.28,131.87a3.08,3.08,0,0,0,.35,1.42,35.85,35.85,0,0,1,.9,3.72,19.89,19.89,0,0,1,.18,3.75q0,22.32,0,44.64v1.17H48.56c0-.2-0.06-0.4-0.07-0.6a30.79,30.79,0,0,0-.29-3.85c-0.14-.74,0-1.48-0.22-2.18-0.23-.93-0.05-1.89-0.25-2.78-0.41-1.89-.08-3.78-0.21-5.67-0.09-1.36-.2-2.71-0.31-4.17A10.94,10.94,0,0,0,45.87,169a14.6,14.6,0,0,1-1.59,2.2c-0.91,1.14-1.61,2.4-2.48,3.56A26.17,26.17,0,0,0,40.32,177c-0.46.77-1,1.53-1.41,2.3-1,1.66-1.79,3.41-2.67,5.13-0.57,1.12-1.16,2.24-1.67,3.39-0.71,1.58-1.37,3.19-2.06,4.79-0.85,2-1.56,4-2.27,6-0.38,1.08-.71,2.19-1,3.29q-0.59,2-1.13,4a38.78,38.78,0,0,0-1,4.15c-0.46.41-.08,1-0.41,1.52a8.12,8.12,0,0,0-.29,1.55c-0.37,1-.24,2.18-0.7,3.19a8,8,0,0,1-.25,2.06,7.85,7.85,0,0,1-.23,1.22,1.53,1.53,0,0,1-.24,1.22,0.25,0.25,0,0,0,0,.12c-0.08.93-.15,1.85-0.24,2.78-0.06.57-.15,1.13-0.24,1.7a11.15,11.15,0,0,1-.18,1.72,23.64,23.64,0,0,0-.08,2.5,47.74,47.74,0,0,0-.21,7.22c-0.05,2.44,0,4.88,0,7.32a41.38,41.38,0,0,1,.23,4.46c0.38,0.78.09,1.64,0.28,2.41a13.51,13.51,0,0,1,.21,1.95c0.06,0.65.17,1.3,0.27,1.94,0.17,1.05.26,2.12,0.48,3.16a10.76,10.76,0,0,0,.23,1.46c0.18,0.5.07,1,.23,1.46,0.43,1.21.47,2.49,0.86,3.72,0.25,0.77.35,1.61,0.55,2.42,0.32,1.27.62,2.54,1,3.8s0.73,2.73,1.19,4.07c0.82,2.42,1.59,4.85,2.58,7.21,0.64,1.54,1.19,3.11,2,4.59,0.15,0.29.13,0.67,0.27,1,0.66,1.33,1.35,2.64,2,4a1.21,1.21,0,0,0,.19.23c0.77,0.13,1.25-.76,1.92-0.47l5,7.7c0,0.56-.61.38-0.89,0.51l0.17,0.67a9,9,0,0,0-4.33.85l-3.53,1.31-2.72,1-3.22,1.2-4,1.44-1.33.29-4.94-6,1.85-.85C20,298.7,19.48,297.86,19,297s-1.08-1.95-1.61-2.93c-0.83-1.57-1.74-3.11-2.46-4.74-0.84-1.89-1.75-3.74-2.49-5.68-0.38-1-.82-2-1.24-3-0.68-1.6-1.24-3.24-1.8-4.89s-1-3.1-1.49-4.66c-0.43-1.35-.85-2.7-1.16-4.07a11.9,11.9,0,0,0-.56-2.17c-0.31-.7-0.17-1.5-0.64-2.13A37.64,37.64,0,0,0,4.76,259a15.07,15.07,0,0,0-.65-3,8.84,8.84,0,0,1-.27-1.93c-0.06-.37-0.16-0.73-0.23-1.1a2.51,2.51,0,0,0-.17-1c-0.26-.44.12-1.08-0.31-1.55,0.18-.87-0.28-1.67-0.26-2.54a8.86,8.86,0,0,0-.22-1.58c-0.08-.53.2-1.11-0.24-1.58a0.18,0.18,0,0,1,0-.12,18.82,18.82,0,0,0-.25-3.14c0-1.69-.37-3.36-0.24-5.06a0.6,0.6,0,0,0-.23-0.19v-16.8a0.6,0.6,0,0,0,.23-0.19c-0.15-1.74.25-3.45,0.25-5.18a18.66,18.66,0,0,0,.24-3,0.18,0.18,0,0,1,0-.12c0.45-.47.15-1.06,0.24-1.58a8.66,8.66,0,0,0,.23-1.58c0-.86.43-1.67,0.26-2.54a1.24,1.24,0,0,0,.25-1c0-.37.17-0.73,0.23-1.1,0.09-.56.16-1.13,0.24-1.7a6.31,6.31,0,0,1,.27-1.68c0.21-.46.08-0.93,0.24-1.34a14.42,14.42,0,0,0,.65-3c0.16-.89.45-1.75,0.63-2.63,0.29-1.42.75-2.81,1.08-4.22s0.73-2.66,1.11-4c0.46-1.6,1-3.19,1.54-4.76s1.13-3.29,1.82-4.88c0.43-1,.85-2,1.24-3s0.71-1.71,1.05-2.56,0.78-1.75,1.18-2.63a31,31,0,0,1,1.83-3.56c0.71-1.14,1.3-2.36,1.95-3.52,0.93-1.66,1.94-3.27,2.94-4.89a56.4,56.4,0,0,1,3.25-4.77c1.06-1.37,2.12-2.75,3.26-4.07s2.19-2.64,3.42-3.85a6.48,6.48,0,0,0,1-1.15,5.15,5.15,0,0,1,1.42-1.44,8.25,8.25,0,0,0,2.79-3.1c1.79-.8,3.61-1.61,5.47-2.33,1.34-.52,2.64-1.16,3.94-1.78a1.31,1.31,0,0,0,.91-0.54h0.48Z" transform="translate(-1.68 -1.29)"/><path class="cls-1" d="M153.94,132.08a2.89,2.89,0,0,0,.51.5c1.15,0.61,2.31,1.18,3.46,1.79s2.48,1.36,3.7,2.06a1.52,1.52,0,0,1,.52.48,10.6,10.6,0,0,0,2.52,2.55,4,4,0,0,1,1.48,1.65,1.79,1.79,0,0,0,.49.51,32.53,32.53,0,0,1,3.75,4.2c0.38,0.53.89,1,1.28,1.51,0.8,1.13,1.72,2.16,2.52,3.28,1,1.41,1.95,2.87,2.89,4.32s1.83,2.82,2.64,4.31c1.27,2.35,2.63,4.65,3.73,7.09,0.41,0.91.88,1.8,1.26,2.72s0.75,1.86,1.15,2.76c0.49,1.08.92,2.18,1.37,3.27,0.62,1.51,1.16,3,1.68,4.58s1,3.11,1.49,4.66c0.43,1.35.78,2.72,1.17,4.08,0.51,1.75.83,3.55,1.4,5.3,0.29,0.89.25,1.89,0.53,2.79s0.28,2,.67,3a8.6,8.6,0,0,1,.27,1.93c0.06,0.37.16,0.73,0.23,1.1a2.87,2.87,0,0,0,.18,1,9.06,9.06,0,0,1,.25,1.57,14.93,14.93,0,0,1,.29,2.65c0.06,0.53.16,1.05,0.23,1.58a2.18,2.18,0,0,0,.24,1.46,0.18,0.18,0,0,1,0,.12,17,17,0,0,0,.26,3.26c0,1.57.31,3.12,0.22,4.7a11.59,11.59,0,0,1,.23,4c0,3.2-.05,6.4,0,9.6,0.06,2.26-.39,4.49-0.26,6.74a9.14,9.14,0,0,0-.25,2.9,8.23,8.23,0,0,0-.25,1.46,1.58,1.58,0,0,1-.21,1.35,0.79,0.79,0,0,0,0,.35,30.65,30.65,0,0,1-.27,3.14,7.58,7.58,0,0,0-.21,1.7c-1,.19-17.63.25-21.36,0.08a7.82,7.82,0,0,1,.19-1.67c0.17-.76-0.07-1.61.06-2.39a47.39,47.39,0,0,0,.21-7.22c0.05-2.44,0-4.88,0-7.32a41.49,41.49,0,0,1-.23-4.46,10.39,10.39,0,0,1-.27-2.41,16.28,16.28,0,0,1-.22-1.95,12.41,12.41,0,0,0-.27-1.93,36.09,36.09,0,0,0-.65-3.68,13.48,13.48,0,0,1-.28-2.17,35.72,35.72,0,0,0-.76-3.77c-0.25-.86-0.38-1.75-0.65-2.61-0.44-1.42-.7-2.89-1.15-4.32-0.3-1-.48-2-0.81-2.91-0.7-2-1.33-4-2.06-6-0.67-1.8-1.39-3.59-2.12-5.37-0.84-2.05-1.87-4-2.86-6-0.81-1.63-1.65-3.25-2.55-4.82-1.1-1.92-2.32-3.77-3.55-5.61s-2.57-3.68-4-5.43c-0.19-.23-0.34-0.5-0.51-0.74a1.71,1.71,0,0,0-.26-0.23c-0.11,1.44-.23,2.83-0.31,4.23a16.09,16.09,0,0,0,0,2.16,42.3,42.3,0,0,1-.3,5.42,14.24,14.24,0,0,1-.23,2.41c-0.19.82,0,1.66-.24,2.42-0.25.93-.11,1.85-0.36,2.78a4.08,4.08,0,0,1-.08-0.57q0-21.24,0-42.48a11.38,11.38,0,0,1,.58-3.23,37.77,37.77,0,0,1,1.35-4.12A17.35,17.35,0,0,1,153.94,132.08Z" transform="translate(-1.68 -1.29)"/><path class="cls-2" d="M25,306.11l4-1.44,3.22-1.2,2.72-1,3.53-1.31a9,9,0,0,1,4.33-.85,1.08,1.08,0,0,1,.69.85c0.53,0.94,1.34,1.73,1.47,2.87a10.73,10.73,0,0,1,1.46,3.6,0.84,0.84,0,0,0,.35.36,2.21,2.21,0,0,0,0,.49,39.23,39.23,0,0,1,1.11,4.23,15.75,15.75,0,0,0,.65,2.84c0.19,0.48-.1,1.09.28,1.57-0.18,1,.39,1.93.23,2.9-0.28,1.68-.07,3.39-0.27,5.06a10.85,10.85,0,0,1-1.12,4,3.62,3.62,0,0,1-1.66,1.74,2.38,2.38,0,0,1-2.7-1.67,17.55,17.55,0,0,1-1-3.2,17.28,17.28,0,0,1-.2-3.15c0-.43,0-0.86,0-1.42l-1.92,1.56V324c0,6.8,0,13.6,0,20.4a7.82,7.82,0,0,1-.52,2.67,4.07,4.07,0,0,1-.89,1.26,5.44,5.44,0,0,1-.88.66l-2,.65c0,0.44,0,1,0,1.46a6.7,6.7,0,0,1-.51,2.68,3.08,3.08,0,0,1-.72,1.13,3.05,3.05,0,0,1-1.19.84,4.54,4.54,0,0,1-2.55.49,5.43,5.43,0,0,1-1.73-.75,4.3,4.3,0,0,1-2-3.74c0-.23,0-0.47,0-0.73a17.26,17.26,0,0,1-1.73-.25,4.62,4.62,0,0,1-3.08-4.17q0-14.58,0-29.16a4.13,4.13,0,0,1,.79-2.44,2.69,2.69,0,0,0,.4-1.15,35,35,0,0,1,1.82-6.81,2.74,2.74,0,0,1,.13-0.28Z" transform="translate(-1.68 -1.29)"/><path class="cls-3" d="M89,573.95v2.88H30v-2.88H89Z" transform="translate(-1.68 -1.29)"/><path class="cls-4" d="M109.2,576.83v-1.44h58.85a0.21,0.21,0,0,0,.1,0l0.08-.08v-1.08a0.76,0.76,0,0,1,.23.3c0,0.78,0,1.56,0,2.34H109.2Z" transform="translate(-1.68 -1.29)"/><path class="cls-5" d="M110.64,551.63v-0.41a5.38,5.38,0,0,1-3.58-2.13v-1.37a6.49,6.49,0,0,1,3.58-2.32c0-1.9,0-3.73,0-5.56a9.62,9.62,0,0,1,.42-2.46c0.16-.55-0.09-1.17.28-1.68,0-1.32.41-2.57,0.52-3.88,0.09-1.13.36-2.25,0.47-3.4s0.3-2.19.48-3.28a15,15,0,0,1,.24-2.05c0.23-.71,0-1.43.23-2.06s0-1.52.27-2.17,0-1.43.2-2.08,0-1.58.26-2.29,0-1.58.23-2.3,0.06-1.72.24-2.54,0-1.89.25-2.78,0-1.81.22-2.66c0.24-1.09,0-2.21.26-3.26s0-2.12.22-3.14c0.25-1.29,0-2.61.26-3.86s0-2.36.22-3.51c0.29-1.61,0-3.24.26-4.82s0-3.24.22-4.82c0.33-2.05,0-4.12.25-6.14,0.36-2.58-.06-5.16.23-7.7,0.37-3.25.13-6.5,0.19-9.74s0-6.56,0-9.84v-9.72c0-3.28.17-6.57-.05-9.84-0.2-2.81.05-5.63-.24-8.42-0.2-1.9,0-3.79-.22-5.66s0-3.64-.26-5.42c-0.2-1.42,0-2.84-.22-4.22s0-2.84-.27-4.22c-0.19-1.14,0-2.28-.22-3.38s0-2.44-.26-3.62a28,28,0,0,1-.2-2.79c0-.53-0.19-1.05-0.23-1.58a6.79,6.79,0,0,0,0-1.67,7,7,0,0,1-.2-2.31,12.92,12.92,0,0,1-.27-1.82,2.23,2.23,0,0,0-.21-1.7,0.55,0.55,0,0,1,0-.24c-0.08-1.21-.14-2.42-0.25-3.62a8.29,8.29,0,0,1-.24-1.58,5.21,5.21,0,0,0-.19-1.59,25.6,25.6,0,0,1-.28-3c0-.49-0.15-1-0.24-1.46s0.22-1-.21-1.36a0.73,0.73,0,0,1,0-.35,22.25,22.25,0,0,0-.26-2.54c-0.24-1.13-.26-2.28-0.48-3.4s-0.28-2.12-.5-3.16a10.82,10.82,0,0,0-.23-1.46,11.15,11.15,0,0,0-.25-1.45c-0.38-.61,0-1.27-0.4-1.89a7.74,7.74,0,0,1-.3-1.91c-0.38-1.62-.68-3.25-1-4.88a12.89,12.89,0,0,0-.57-2.15,8.53,8.53,0,0,0-.59-2,48,48,0,0,0-2.18-7.5,28.88,28.88,0,0,0-2-4.33A8.76,8.76,0,0,0,101,327.5a1.73,1.73,0,0,1-.27-0.26H97.6c-0.39.3-.81,0.58-1.18,0.91a14.3,14.3,0,0,0-3.06,4.61,38.82,38.82,0,0,0-2.13,5.6c-0.69,2.09-1.22,4.23-1.72,6.37-0.34,1.46-.7,2.92-1,4.4-0.21,1.14-.41,2.3-0.71,3.42a22.8,22.8,0,0,1-.69,3.19,5,5,0,0,1-.27,2.05,5.92,5.92,0,0,1-.44,2.21,0.82,0.82,0,0,0,0,.36,3.66,3.66,0,0,1-.21,1.47c-0.17.4,0.12,0.93-.26,1.34a0.71,0.71,0,0,0,0,.35,5,5,0,0,1-.21,1.71c-0.18.48,0.12,1.09-.27,1.57,0.18,0.87-.29,1.67-0.26,2.54a8.61,8.61,0,0,1-.22,1.58c-0.08.53,0.2,1.11-.24,1.58a0.27,0.27,0,0,0,0,.12c-0.08,1-.15,2.09-0.24,3.14-0.05.57-.17,1.13-0.23,1.7A2.67,2.67,0,0,1,84,379a0.18,0.18,0,0,0,0,.12c0.18,1.22-.38,2.41-0.23,3.62a15.18,15.18,0,0,1-.26,1.7,4.77,4.77,0,0,1,0,1.78,6.89,6.89,0,0,0-.2,2c-0.08.65-.19,1.29-0.23,1.94a8.63,8.63,0,0,1,0,2,11.83,11.83,0,0,0-.2,2.67c-0.07.69-.19,1.37-0.23,2.06a10.47,10.47,0,0,1,0,2.15c-0.33,1.18,0,2.36-.23,3.51-0.29,1.61,0,3.24-.26,4.82s0,3.24-.22,4.82c-0.33,2.05,0,4.12-.25,6.14-0.36,2.58.06,5.16-.23,7.7-0.37,3.25-.13,6.5-0.19,9.74s0,6.56,0,9.84v9.72c0,3.28-.17,6.57.05,9.84,0.2,2.81-.05,5.63.24,8.42,0.2,1.9.06,3.78,0.19,5.67a20.17,20.17,0,0,1,.25,2.66,10,10,0,0,0,0,2.75c0.32,1.46,0,2.92.24,4.34s0,2.76.26,4.1c0.2,1.14,0,2.28.22,3.38s0,2.44.26,3.62c0.19,1,0,2,.22,2.9s0.05,2.12.26,3.14c0.16,0.78.05,1.56,0.22,2.3,0.22,1,.07,2,0.27,3a20.24,20.24,0,0,1,.2,2.07c0.05,0.49.15,1,.24,1.46s-0.23,1,.23,1.47a0.53,0.53,0,0,1,0,.35c-0.17,1.15.3,2.24,0.26,3.38a13.72,13.72,0,0,1,.24,1.46,2,2,0,0,0,.23,1.46c-0.18.95,0.3,1.84,0.26,2.78a5.91,5.91,0,0,0,.22,1.22,1.41,1.41,0,0,0,.23,1.11,1.24,1.24,0,0,1,0,.47,3.22,3.22,0,0,0,.2,1.48c0.24,0.38,0,.95.24,1.46s-0.14,1.16.28,1.68a13.71,13.71,0,0,0,.52,3.63c0.67,2.92.31,5.87,0.46,8.78a6,6,0,0,1,3.35,2.2,11.19,11.19,0,0,1-.08,1.46c-0.13.74-.86,0.9-1.37,1.26a6.21,6.21,0,0,0-1,.51c-0.28.3-.79,0-0.95,0.46v1H69.12l0.28-2.1a2.25,2.25,0,0,0-.63-0.29,9,9,0,0,1-3.35-1.47,2.78,2.78,0,0,1-.61-0.91v-1.34a5.71,5.71,0,0,1,3.31-2.11,2.46,2.46,0,0,0-.18-1.43,7.27,7.27,0,0,0-.19-1.49c-0.26-.48.07-1.15-0.31-1.67a19.86,19.86,0,0,0-.53-3.63,21.25,21.25,0,0,0-.64-3.44,8.77,8.77,0,0,1-.22-1.81c-0.14-1.22-.37-2.43-0.58-3.63a21.21,21.21,0,0,0-.64-3.44,21.51,21.51,0,0,1-.29-2.17,6.7,6.7,0,0,1-.22-1.94c-0.53-.52.06-1.33-0.48-1.84a10.1,10.1,0,0,0-.21-1.7,31.06,31.06,0,0,0-.56-3.63,35.4,35.4,0,0,0-.64-3.68,15,15,0,0,1-.27-2.17c-0.05-.37-0.16-0.73-0.23-1.1s-0.17-.81-0.24-1.22a1.92,1.92,0,0,0-.21-1.13,2.41,2.41,0,0,1,0-.93,5.63,5.63,0,0,1-.22-0.86c0-.78-0.41-1.51-0.25-2.3-0.47-.58,0-1.39-0.48-2,0.17-.72-0.25-1.36-0.25-2.06A6.2,6.2,0,0,0,60,494a5.92,5.92,0,0,0-.19-1.12c-0.19-.5-0.13-1.12-0.27-1.69s-0.08-1.48-.29-2.17c-0.37-1.2-.26-2.48-0.67-3.68-0.24-.71-0.08-1.56-0.3-2.28C58,482,58,480.79,57.63,479.67a12.23,12.23,0,0,1-.28-2.29c0-.37-0.16-0.73-0.23-1.1a3.75,3.75,0,0,0-.2-1.12,15.33,15.33,0,0,1-.25-1.57,12.81,12.81,0,0,1-.28-2.17c-0.05-.37-0.16-0.73-0.23-1.1s-0.17-.81-0.24-1.22A1.45,1.45,0,0,0,55.7,468a0.9,0.9,0,0,1,0-.46,3.09,3.09,0,0,0-.22-1.35c-0.19-.39,0-0.87-0.22-1.35a4.66,4.66,0,0,1-.24-1.56c-0.11-1.23-.45-2.41-0.57-3.63a4.53,4.53,0,0,0-.31-1.77c-0.31-.54,0-1.11-0.32-1.68s0.07-1.22-.29-1.79a27.89,27.89,0,0,0-.52-3.64A4.53,4.53,0,0,0,52.7,449c-0.31-.54.19-1.21-0.37-1.65a6.89,6.89,0,0,0-.25-2.06,11,11,0,0,0-.43-2.45c-0.16-.54-0.05-1.12-0.24-1.7s-0.09-1.47-.3-2.16c-0.35-1.13-.26-2.32-0.67-3.44-0.19-.52,0-1.12-0.22-1.7a12,12,0,0,1-.28-2.65,4.19,4.19,0,0,0,0-1.54,3.58,3.58,0,0,1-.19-1.6,7.35,7.35,0,0,0,0-1.55,16.63,16.63,0,0,1-.23-2.79,43.92,43.92,0,0,1-.21-7,63.2,63.2,0,0,1,0-7.07c0.3-3.25.14-6.5,0.19-9.74s0-6.48,0-9.72-0.2-6.57.06-9.83,0.11-6.42.17-9.62,0-6.48,0-9.72-0.18-6.49.05-9.71,0.13-6.5.18-9.74,0-6.48,0-9.72,0-6.56,0-9.84a8.44,8.44,0,0,1,.23-1.34,4.16,4.16,0,0,1,.19-1.24,4.83,4.83,0,0,0,.24-1.68c0.07-1.31.56-2.56,0.53-3.88a3.91,3.91,0,0,0,.26-1.58c0.11-.53.11-1.09,0.26-1.57s0.08-1.09.23-1.58,0.13-1,.23-1.46c0.22-1,.36-2.1.49-3.16s0.39-2.09.49-3.16a10.2,10.2,0,0,0,.2-1.22H93.23c0.64-1.7,1.93-2.92,2.81-4.41s2-2.83,3-4.26l0.11,0.27c0,0.18-.12.46,0.24,0.48-0.13,1.54.54,3,.49,4.56h2.06c0.27,0.59.53,1.21,0.82,1.81a8,8,0,0,0,1.09,1.55H145a3.81,3.81,0,0,0,.25,1.46,1.69,1.69,0,0,0,.23,1.34,7.27,7.27,0,0,0,.24,1.94,3.26,3.26,0,0,0,.22,1.35c0.18,0.36,0,.79.21,1.23s0,1.15.29,1.67c-0.08,1.4.57,2.72,0.48,4.12,0.45,1.1.28,2.32,0.7,3.43a4.75,4.75,0,0,1,0,1.07,4.15,4.15,0,0,1,.21,1,6.58,6.58,0,0,0,.27,1.34,2.12,2.12,0,0,0,.2,1.36,2,2,0,0,1,0,.94v26.87c0.47,3.24.18,6.49,0.23,9.74s0,6.64,0,10-0.2,6.57.06,9.83,0.11,6.42.17,9.62,0,6.4,0,9.6-0.16,6.49.05,9.71c0.16,2.37.15,4.73,0.18,7.1s0,4.72,0,7.08c0,0.65-.18,1.29-0.22,1.94a8.15,8.15,0,0,1-.05,2,8.61,8.61,0,0,0-.2,2.19,4.83,4.83,0,0,1-.11,1.39,4,4,0,0,0-.13,1.39,6.32,6.32,0,0,1,0,1.43c-0.4,1.2-.22,2.49-0.7,3.67a8.26,8.26,0,0,1-.25,2.06,6.23,6.23,0,0,1-.22,1.1,5.84,5.84,0,0,1-.19,1.12c-0.19.5-.12,1.12-0.27,1.69s-0.08,1.48-.29,2.17c-0.37,1.2-.26,2.48-0.67,3.68-0.24.71-.08,1.56-0.3,2.28-0.33,1.13-.29,2.31-0.67,3.44a12.23,12.23,0,0,0-.28,2.29c0,0.37-.16.73-0.23,1.1a3.74,3.74,0,0,1-.2,1.12,15.24,15.24,0,0,0-.25,1.57,12.79,12.79,0,0,0-.28,2.17c-0.05.37-.16,0.73-0.23,1.1s-0.17.81-.24,1.22a4,4,0,0,1-.19,1.12c-0.22.49,0,1.15-.29,1.68a29,29,0,0,1-.52,3.88,5.53,5.53,0,0,1-.23,1.45c-0.19.5-.08,1-0.24,1.46s-0.06,1-.24,1.46,0,1.15-.25,1.57a5.87,5.87,0,0,0-.2,1.48c-0.4,1.11-.32,2.31-0.68,3.43a12.89,12.89,0,0,0-.27,2.17c-0.05.37-.18,0.73-0.23,1.1a1.24,1.24,0,0,1-.25,1,6.9,6.9,0,0,1-.25,2.06,11,11,0,0,1-.43,2.46c-0.16.54-.05,1.12-0.24,1.7s-0.09,1.47-.3,2.16c-0.34,1.13-.29,2.31-0.67,3.44a12.24,12.24,0,0,0-.28,2.29c0,0.37-.16.73-0.23,1.1a3.77,3.77,0,0,1-.2,1.12,15.37,15.37,0,0,0-.25,1.57,12.89,12.89,0,0,0-.28,2.17c-0.05.37-.16,0.73-0.23,1.1s-0.17.81-.24,1.22a1.44,1.44,0,0,1-.22,1.12,0.89,0.89,0,0,0,0,.46,3.11,3.11,0,0,1-.22,1.35c-0.19.39,0,.87-0.21,1.35a6.33,6.33,0,0,0-.27,1.68,30.5,30.5,0,0,1-.56,3.63,35.44,35.44,0,0,1-.64,3.68,15,15,0,0,0-.27,2.17c-0.05.37-.16,0.73-0.23,1.1s-0.17.81-.24,1.22a3.38,3.38,0,0,1-.19,1.12c-0.22.44-.07,1-0.25,1.57s-0.11,1.46-.3,2.16c-0.33,1.25-.27,2.55-0.68,3.79a12.35,12.35,0,0,0-.27,2.17c-0.05.37-.18,0.73-0.23,1.1s-0.16.69-.2,1c-0.07.61-.17,1.21-0.29,1.82a21.25,21.25,0,0,1-.48,2.92,1.69,1.69,0,0,0,0,.5c0.63,0.28,1.27.54,1.9,0.85a9.53,9.53,0,0,1,1.36.76,1.32,1.32,0,0,1,.57,1.07c0,0.36,0,.72,0,1.08a2,2,0,0,1-1.12,1.19,6.88,6.88,0,0,1-3,1.18,4,4,0,0,0-.93.29v2.06c-4,.16-17.19.1-18.24-0.08v-0.84Z" transform="translate(-1.68 -1.29)"/><path class="cls-1" d="M145,300.11H103.82a8,8,0,0,1-1.09-1.55c-0.28-.6-0.55-1.21-0.82-1.81h-0.39a5.73,5.73,0,0,0-.73-1.93,14.79,14.79,0,0,0-1.43-2.63c0-.18.12-0.46-0.24-0.48L99,291.44c-1,1.44-2.11,2.78-3,4.26s-2.17,2.7-2.81,4.41H53.28c0.11-.52.19-1.05,0.29-1.57s0.16-1,.2-1.46A10.32,10.32,0,0,1,54,296a1.29,1.29,0,0,1,.2-1,0.51,0.51,0,0,0,0-.33,25.36,25.36,0,0,1,.53-3.86,20.52,20.52,0,0,1,.46-3c0.32-1.21.24-2.47,0.66-3.67a20.44,20.44,0,0,0,.29-2.28,7.75,7.75,0,0,1,.44-2.21,0.82,0.82,0,0,0,0-.35,7.84,7.84,0,0,1,0-1,4.23,4.23,0,0,1,.23-0.74,12.39,12.39,0,0,0,.22-1.81,17.67,17.67,0,0,0-.18-3.37,27.89,27.89,0,0,1-.28-3.95c-0.08-1.11-.16-2.22-0.25-3.33a2.44,2.44,0,0,0-.13-0.3,3.38,3.38,0,0,1,.06-2l-0.4-.58a12.13,12.13,0,0,0-.19-2c-0.21-.84-0.07-1.76-0.26-2.65s0-1.68-.24-2.54-0.07-1.6-.24-2.42,0-1.6-.24-2.42-0.06-1.52-.23-2.3-0.09-1.84-.25-2.77a35.31,35.31,0,0,1-.27-3.85,0.54,0.54,0,0,0,0-.24,2.72,2.72,0,0,1-.24-1.58c-0.07-.57-0.19-1.13-0.23-1.7-0.1-1.32-.17-2.65-0.25-4a0.28,0.28,0,0,0,0-.12,2.29,2.29,0,0,1-.23-1.58,8.88,8.88,0,0,0-.24-1.58c-0.11-1.36-.17-2.73-0.25-4.1a0.54,0.54,0,0,0,0-.24,2.09,2.09,0,0,1-.22-1.58,9.6,9.6,0,0,0-.25-1.58c0-.52,0-1,0-1.56a0.8,0.8,0,0,0-.23-0.31c0-.56,0-1.12,0-1.68a14.51,14.51,0,0,1-.21-1.7c0.06-1.26-.44-2.47-0.26-3.73a0.18,0.18,0,0,0,0-.12,2,2,0,0,1-.22-1.58,9,9,0,0,0-.26-1.58,7.57,7.57,0,0,0-.21-2.19,6.14,6.14,0,0,1,0-1.54c0-.49-0.18-1-0.22-1.46-0.1-1.24-.17-2.49-0.25-3.73a0.28,0.28,0,0,0,0-.12,2.28,2.28,0,0,1-.22-1.58,8.46,8.46,0,0,0-.24-1.58,15.64,15.64,0,0,0-.21-2.54c-0.2-.76-0.1-1.6-0.24-2.41a42,42,0,0,1-.28-4.2,0.52,0.52,0,0,0-.12-0.19H48.48c0.16-.77.35-1.54,0.47-2.32a14.35,14.35,0,0,1,.28-2.29c0.48-1.44.54-3,.89-4.42,0.24-1,.36-2,0.57-3,0.27-1.27.65-2.55,0.86-3.82s0.75-2.45.86-3.75a13.87,13.87,0,0,1,.63-2.37c0.29-1.08.55-2.17,0.87-3.24,0.27-.89.52-1.78,0.78-2.67s0.53-2.09.91-3.11a16.83,16.83,0,0,1,1-3c-0.14-.76.67-1.31,0.48-2.08a5.85,5.85,0,0,0,.77-2,17.83,17.83,0,0,1,.76-2c0.54-1.25,1.08-2.52,1.53-3.8,0.37-1.05.88-2,1.27-3.08s1-2.08,1.42-3.13a93.14,93.14,0,0,1,4.33-8.28c0.31-.55.69-1.07,1-1.61,0.84-1.35,1.76-2.64,2.7-3.93A3.68,3.68,0,0,1,72,124.19a0.64,0.64,0,0,1,.62.25c0.84,0.93,1.77,1.77,2.56,2.76,0.92,1.17,2.11,2.11,3,3.3s1.87,1.89,2.72,2.94c1.19,1.47,2.57,2.78,3.87,4.16l3.72,4a2.81,2.81,0,0,1,.27.37,9.77,9.77,0,0,0,2.27,2.2l5.49-5.49a1.64,1.64,0,0,0,.33-0.34,6.93,6.93,0,0,1,2-2.1,5.28,5.28,0,0,1-.21,1.59c-0.16.49-.09,1-0.23,1.58s-0.08,1.36-.25,2.06-0.1,1.44-.24,2.18a31.48,31.48,0,0,0-.28,3.61,0.58,0.58,0,0,1,0,.24,2.32,2.32,0,0,0-.22,1.58,8.84,8.84,0,0,1-.24,1.58,24.83,24.83,0,0,1-.21,2.55c-0.19,1-.06,2-0.25,3s0,2.16-.23,3.26,0,2.32-.25,3.5,0,2.48-.23,3.74c-0.25,1.54,0,3.12-.25,4.7s0,3.12-.23,4.7c-0.29,2,0,4.08-.24,6.14-0.3,2.46.11,5-.25,7.46A30.56,30.56,0,0,0,95,194c0,1.4-.07,2.8,0,4.2s-0.27,2.81-.26,4.22c0,2.68,0,5.36,0,8s0,5.36,0,8-0.13,5.29.18,7.94c0.23,1.93,0,3.91.05,5.87a58.73,58.73,0,0,0,.19,5.9c0.29,2.42-.1,4.88.24,7.34,0.28,2-.08,4,0.24,6,0.25,1.54,0,3.12.23,4.7s0,3.13.25,4.7c0.22,1.18-.16,2.43.27,3.61-0.18,1.5.28,3,.23,4.46s0.43,2.88.25,4.34a0.19,0.19,0,0,0,0,.12,2.46,2.46,0,0,1,.22,1.7,14,14,0,0,0,.24,1.7c0.13,1.28.18,2.57,0.25,3.86a0.52,0.52,0,0,0,0,.24,2.46,2.46,0,0,1,.24,1.58,11,11,0,0,1,.22,1.7c0,1,.43,1.91.26,2.9a0.17,0.17,0,0,0,0,.12c0.46,0.38.16,0.9,0.23,1.34a3.63,3.63,0,0,1,.25,1.46,3,3,0,0,0,0,.67,2.18,2.18,0,0,0,.24-1.13q0-3.42,0-6.84v-6.84c0-2.28,0-4.56,0-6.84s-0.25-4.5.21-6.74a5.08,5.08,0,0,0-.21-1.1,20.5,20.5,0,0,0-.21-2.91c-0.2-1,0-2.08-.24-3.14s0-2.24-.24-3.38,0-2.56-.24-3.86,0-2.88-.24-4.34c-0.25-1.7,0-3.44-.25-5.18-0.27-2,0-4.08-.23-6.14a32.06,32.06,0,0,1,0-5.63c0.09-1.86-.33-3.68-0.27-5.54s0-3.76,0-5.64v-5.76c0-1.88.07-3.76,0-5.64s0.35-3.76.27-5.66c-0.05-1.24,0-2.48,0-3.72a22.35,22.35,0,0,1,.19-3.63,15.37,15.37,0,0,0,0-3.35,25,25,0,0,1,.24-3.38c0.14-1.48-.16-3,0.22-4.47a7.11,7.11,0,0,0,0-2.39,16.65,16.65,0,0,1,.27-2.42,19,19,0,0,1,.18-3.27c0.24-1.16,0-2.4.26-3.61,0.2-.94,0-1.92.22-2.9s0-2,.25-3,0-1.84.23-2.78c0.19-.77,0-1.61.26-2.42s-0.08-1.52.21-2.31,0-1.59.26-2.41,0-1.6.23-2.42c0.16-.65.15-1.37,0.26-2.05s0.08-1.37.23-2.06a22.92,22.92,0,0,0,.27-3,0.53,0.53,0,0,1,0-.23c0.45-.48,0-1.11.26-1.57a4.35,4.35,0,0,0,.21-1.71,0.7,0.7,0,0,1,.7.34l4.23,4.23c0.19,0.19.39,0.36,0.63,0.57,1.15-1.34,2.49-2.38,3.52-3.75,0.89-1.19,2.11-2.1,3-3.29s2-2,2.88-3.12,2-2,2.88-3.12,2-2,2.88-3.12c1.14-1.4,2.45-2.67,3.71-4a0.69,0.69,0,0,0,.25-0.62c0.18,0.22.37,0.44,0.54,0.67,0.54,0.73,1.09,1.47,1.61,2.21s1.29,1.77,1.85,2.71,1,2,1.7,2.9a12.5,12.5,0,0,1,1,1.74q1.58,3.24,3.12,6.51c0.52,1.1,1,2.23,1.48,3.34a3.5,3.5,0,0,1,.2.4c0.55,1.85,1.4,3.58,2.05,5.39a12.11,12.11,0,0,0,1.31,3.29c-0.2.74,0.38,1.29,0.53,1.95a16.1,16.1,0,0,0,.65,2c0.45,1.22.81,2.47,1.16,3.72,0.41,1.47.92,2.92,1.22,4.41,0.22,1.07.6,2.09,0.82,3.16a23.32,23.32,0,0,0,.66,2.83,20.35,20.35,0,0,1,.53,2.07,16.06,16.06,0,0,0,.35,1.64,15.16,15.16,0,0,1,.56,2.65,14.65,14.65,0,0,1,.49,2.92c0.53,0.34,0,1,.4,1.4s-0.14,1.09.32,1.54a5.25,5.25,0,0,0,.23,1.46,21,21,0,0,0,.49,2.68,0.49,0.49,0,0,0-.2.08c0,0.43,0,.87-0.05,1.3s-0.19.89-.22,1.34a13.75,13.75,0,0,1-.21,2.18c-0.2.81-.1,1.68-0.24,2.53a39.44,39.44,0,0,0-.28,4.08,0.54,0.54,0,0,1,0,.24,2.15,2.15,0,0,0-.22,1.58,7.74,7.74,0,0,1-.25,1.58,4.85,4.85,0,0,1-.25,2.17c0.17,1.14-.28,2.24-0.24,3.37s-0.42,2.31-.24,3.49a0.18,0.18,0,0,1,0,.12c-0.45.51-.15,1.13-0.24,1.7s-0.17,1.13-.24,1.7a6.25,6.25,0,0,1-.2,1.83,5.82,5.82,0,0,0,0,1.66c0,0.53-.18,1-0.22,1.58s0,1,0,1.56a0.5,0.5,0,0,0-.2.09c0,0.47,0,1-.05,1.42s-0.19,1-.22,1.46a16.71,16.71,0,0,1-.21,2.19c-0.19.9-.08,1.84-0.25,2.78a35.07,35.07,0,0,0-.27,3.85,0.54,0.54,0,0,1,0,.24,2.72,2.72,0,0,0-.24,1.58c-0.06.57-.19,1.13-0.23,1.7-0.1,1.32-.17,2.65-0.25,4a0.51,0.51,0,0,1,0,.23c-0.44.48-.15,1.06-0.23,1.58s-0.17,1.13-.24,1.7a6.48,6.48,0,0,1-.21,2,5.45,5.45,0,0,0,0,1.54c0,0.49-.18,1-0.22,1.46-0.1,1.24-.17,2.49-0.25,3.74a0.53,0.53,0,0,1,0,.24,2,2,0,0,0-.21,1.58,10.22,10.22,0,0,1-.27,1.58,16.13,16.13,0,0,1-.19,2.43,32,32,0,0,0-.28,4,1.52,1.52,0,0,0-.23.5c0,0.55,0,1.11,0,1.67s-0.18,1.12-.22,1.69,0,1.11,0,1.67c-0.33,0-.23.26-0.24,0.43a4.91,4.91,0,0,1,0,1.78,5.6,5.6,0,0,0-.19,1.72c-0.09.6-.19,1.21-0.23,1.82a15.3,15.3,0,0,0,0,1.92c0,0.65.15,1.29,0.23,1.94a6.19,6.19,0,0,1,.23.86,2.88,2.88,0,0,0,0,.94c0.37,0.62.11,1.33,0.41,2a5.83,5.83,0,0,1,.24,1.8c0.12,1.3.41,2.57,0.58,3.86a27.31,27.31,0,0,0,.64,3.78c0.2,0.69.09,1.47,0.28,2.16,0.34,1.24.26,2.55,0.67,3.78,0.18,0.56.08,1.2,0.22,1.82S144.85,299.59,145,300.11ZM113.54,196.62H138c0.18-4.56.1-28.91-.08-29.92H113.54v29.92ZM90.92,145.81c-0.62.36-1.36,0.48-1.62,1.13a2.72,2.72,0,0,0-.43,1.92c0.51,1.63,1.3,2.22,2.86,2.19,0.62-.36,1.36-0.48,1.62-1.13a2.72,2.72,0,0,0,.43-1.92C93.27,146.36,92.48,145.77,90.92,145.81Zm-2,36.46a2.29,2.29,0,0,0-1.73.49,2.17,2.17,0,0,0-.73.69,2.66,2.66,0,0,0,2.1,4.1,2,2,0,0,0,1.23-.48,2.68,2.68,0,0,0,1.2-2.39c-0.29-.91-0.55-1.91-1.71-2.16A1.47,1.47,0,0,1,88.88,182.27Zm-1.3,39.13a3.09,3.09,0,0,0-1.63,1.12,2.72,2.72,0,0,0-.44,1.92c0.49,1.63,1.29,2.23,2.85,2.21A3.09,3.09,0,0,0,90,225.53a2.72,2.72,0,0,0,.44-1.92C89.93,222,89.14,221.38,87.57,221.4Zm1.7,38.41c-1.49,0-2.25.55-2.81,2.18a2.37,2.37,0,0,0,.23,1.53A2.53,2.53,0,0,0,88.58,265c1.49,0,2.25-.55,2.81-2.18a2.37,2.37,0,0,0-.23-1.53A2.53,2.53,0,0,0,89.27,259.81Z" transform="translate(-1.68 -1.29)"/><path class="cls-6" d="M134.64,56.75a8.38,8.38,0,0,1,2.19.2,4,4,0,0,1,1.42.64,4.32,4.32,0,0,0,.86.45,2.55,2.55,0,0,0,.47.87,3.2,3.2,0,0,1,.76,1.85,3.54,3.54,0,0,1-.09,2.08c-0.22.62-.28,1.3-0.51,1.95a19.35,19.35,0,0,1-1.37,2.79,16.93,16.93,0,0,1-2.49,3.16,5.75,5.75,0,0,1-1,.77,0.58,0.58,0,0,0-.25.62,12,12,0,0,1-1.89,1.24,9.48,9.48,0,0,1-1.95.94v8.86c0,1-.06,1.92,0,2.88a16.9,16.9,0,0,1-.31,4A21.7,21.7,0,0,1,129,95.36c-0.42,1-.85,1.89-1.35,2.8a17.88,17.88,0,0,1-2.72,3.91,18.65,18.65,0,0,1-1.46,1.66,32.45,32.45,0,0,1-4.29,3.22,24,24,0,0,1-5.37,2.4,1.28,1.28,0,0,0-.33.32v13.8H112.8l-0.87.51-3,1.78c-1.57.93-3.15,1.86-4.71,2.8-1.34.81-2.65,1.66-4,2.39a4.8,4.8,0,0,0-1,1.08,4.06,4.06,0,0,0-1.89-1.42c-1.07-.51-2.11-1.1-3.12-1.71-1.72-1-3.55-1.9-5.24-3-0.89-.58-1.92-1-2.86-1.47a13.49,13.49,0,0,1-1.34-.95V109.58L84,109.31a25.81,25.81,0,0,1-8.43-4.85,14.33,14.33,0,0,1-1.56-1.39,25.91,25.91,0,0,1-4.51-6.88A23.14,23.14,0,0,1,68.16,92c-0.22-1-.36-2.1-0.53-3.15A22.12,22.12,0,0,1,67.45,86c0-1,0-1.92,0-2.88V74.27a9.25,9.25,0,0,1-1.95-.92,12.45,12.45,0,0,1-1.89-1.24,1.08,1.08,0,0,0-.18-0.52,12.58,12.58,0,0,1-2.21-2.17,14.79,14.79,0,0,1-2.38-3.71,6.7,6.7,0,0,1-.78-2.56c0-.48-0.22-0.95-0.24-1.46a11,11,0,0,1,.25-1.58,2.4,2.4,0,0,1,.67-1.29,2.2,2.2,0,0,0,.3-0.68,6.21,6.21,0,0,1,4.56-1.4,6,6,0,0,0,.84.23,12.64,12.64,0,0,1,3,1l0.24,0.19c0.42,0.36,0,1,.47,1.36a14.67,14.67,0,0,0,1,3.2c0.36,1,.67,2,1.1,2.9a9.35,9.35,0,0,0,3.11,3.35,4.92,4.92,0,0,0,1.95.81,9.66,9.66,0,0,1,1.45.24,6.76,6.76,0,0,0,2.58.44c2.88,0,5.75,0,8.63,0a3.68,3.68,0,0,0,1.88-.4,2.11,2.11,0,0,1,.59-0.12c0.79-.79,1.59-1.63,2.43-2.42C94.42,66,95.15,64,96,62.09c0.38-.85.28-1.85,0.81-2.66a2.3,2.3,0,0,0,1-.76h3.46v0.62a9,9,0,0,0-2.14,3.16v2.38c2.28,0.58,3.45.94,4.78,3.63,0,0.4,0,.8,0,1.2a4,4,0,0,1-.78,2.45,3.79,3.79,0,0,1-1,1,5.64,5.64,0,0,1-3.72,1.42A9.92,9.92,0,0,1,95,74.27a1.92,1.92,0,0,0,.93,1.5c1.35,0.9,2.72,1.79,4.49,1.62a9.91,9.91,0,0,0,2.42-.24,7.67,7.67,0,0,0,3.92-3.11,4,4,0,0,0,.69-1.86,8.62,8.62,0,0,0-.15-3.28c-0.08-.22-0.25-0.54.18-0.65l2.09,1.91a1.1,1.1,0,0,1,.45,0,3.76,3.76,0,0,0,2.1.45c2,0,4,0,6,0,1,0,2,0,3,0a16.55,16.55,0,0,0,2.91-.54,4.86,4.86,0,0,0,2.48-.91c0.39-.31.75-0.67,1.17-1a7.14,7.14,0,0,0,2.11-2.68,16.93,16.93,0,0,0,.88-2.39,20,20,0,0,0,.8-2.18,29.22,29.22,0,0,1,1-3.51,9.68,9.68,0,0,0,1.22-.3,3.43,3.43,0,0,0,.53-0.46A0.74,0.74,0,0,1,134.64,56.75ZM112.8,97.07a3.14,3.14,0,0,0,.53-0.17A25.3,25.3,0,0,0,118,93.41a23.22,23.22,0,0,0,1.71-1.92A18.51,18.51,0,0,0,122,87.91a11.41,11.41,0,0,0,1-2.69,22.84,22.84,0,0,0,.52-3.14c0-.35-0.24-0.74-0.2-1.1,0.09-1-.41-1.89-0.24-3a9.92,9.92,0,0,0-1.65.44c-1.61.76-3.35,1.15-5,1.81-1,.4-2.1.59-3,1-1.62.75-3.37,1.11-5,1.85-1.27.58-2.66,0.88-4,1.43s-2.73.89-4.08,1.44c-1,.41-2.13.65-3.15,1.08a31.1,31.1,0,0,1-3.13,1.12c-0.85.25-1.64,0.69-2.48,0.95-2,.62-4,1.41-6,2.07-0.63.21-1.25,0.46-1.95,0.72a3.34,3.34,0,0,0,.18.84,10,10,0,0,0,1.61,2.57,14.21,14.21,0,0,0,3.53,3,4,4,0,0,0,2.4.86v0.36a2.54,2.54,0,0,0,.58.33,4.17,4.17,0,0,0,.79.06l0.34,0.37a32.51,32.51,0,0,0,4.43.7,1.15,1.15,0,0,1,.63-0.11c0.46,0.46.85,0.06,1.2,0l0.39,0.3,0.54-.29,0.32,0.22,2.19-.4,0.24,0.22,1.36-.49,0.36,0.22a29.81,29.81,0,0,1,3.55-1.25c1.17-.27,2.22-1,3.44-1.23,0.08-.58.68-0.47,1-0.75V97.07Zm16.8-26.53,0.11,0.21c0.76-.11,1.52-0.16,2.26-0.33a10,10,0,0,0,1.77-.65,9.36,9.36,0,0,0,3.34-2.6,5.26,5.26,0,0,0,.93-1.65,7.12,7.12,0,0,0,.24-2.54,3.56,3.56,0,0,0-.43-1.74,7.87,7.87,0,0,0-2.64-3,0.55,0.55,0,0,0-.25,0,7.42,7.42,0,0,1,.93,4c0,0.44,0,.88,0,1.32a1.89,1.89,0,0,1-.07.57,11.64,11.64,0,0,1-1.13,2.53,8.94,8.94,0,0,1-3.16,3C130.88,70,130.23,70.23,129.6,70.54ZM63.78,58.4a1,1,0,0,0-.37.1c-0.53.54-1.12,1-1.62,1.57a5,5,0,0,0-1.33,3.3,4.73,4.73,0,0,0,.37,1.77,3.9,3.9,0,0,1,.38,1.65,7.77,7.77,0,0,0,3.49,3.12,7.53,7.53,0,0,0,4.51.92l-1.33-.64a9.41,9.41,0,0,1-3.72-3.13,6.26,6.26,0,0,1-1.24-2.95c-0.1-1.48-.35-3,0.42-4.48A8.28,8.28,0,0,0,63.78,58.4Z" transform="translate(-1.68 -1.29)"/><path class="cls-7" d="M72,124.19a3.68,3.68,0,0,0-1.07,1.16c-0.94,1.28-1.85,2.58-2.7,3.93-0.34.54-.71,1.06-1,1.61a93.14,93.14,0,0,0-4.33,8.28c-0.46,1-1,2.06-1.42,3.13s-0.9,2-1.27,3.08c-0.45,1.28-1,2.55-1.53,3.8a17.83,17.83,0,0,0-.76,2,5.85,5.85,0,0,1-.77,2c0.18,0.77-.62,1.32-0.48,2.08a16.83,16.83,0,0,0-1,3c-0.37,1-.61,2.07-0.91,3.11s-0.51,1.78-.78,2.67c-0.32,1.07-.58,2.16-0.87,3.24a13.87,13.87,0,0,0-.63,2.37c-0.11,1.3-.65,2.47-0.86,3.75s-0.59,2.55-.86,3.82c-0.21,1-.34,2-0.57,3-0.35,1.46-.41,3-0.89,4.42a14.35,14.35,0,0,0-.28,2.29c-0.12.78-.31,1.55-0.47,2.32a12.33,12.33,0,0,1-.29,2.64,16.51,16.51,0,0,1-.25,1.81,5.22,5.22,0,0,0-.18,1.84,1.24,1.24,0,0,1,0,.47c-0.45.56,0,1.26-.29,1.8a5,5,0,0,0-.17,1.85,1.86,1.86,0,0,1,0,.59c-0.51.88-.15,1.88-0.41,2.82a18.27,18.27,0,0,0-.25,3.24c-0.23,2.59-.21,5.2-0.29,7.8,0,0.4,0,.8,0,1.2a2,2,0,0,1-.21,1.24,1.26,1.26,0,0,0,.16.72,5,5,0,0,0-.18.85c0,1,0,1.92,0,2.87a1,1,0,0,0,.06.57c0.49,0.43,0,.77-0.06,1a5.46,5.46,0,0,1,.24,2.25H35.76v-4.2a6,6,0,0,1,.05-2.14,6.3,6.3,0,0,0,.17-2.08,13.83,13.83,0,0,1,0-2.15c0.27-1.05,0-2.13.24-3.14s0-2,.23-3,0-2,.26-3a15.26,15.26,0,0,1,.28-2.27c0.31-.79,0-1.57.16-2.33,0.24-1.12.38-2.26,0.52-3.4,0.09-.69.08-1.39,0.21-2.06,0.22-1.17.27-2.36,0.5-3.52,0.11-.53.09-1.08,0.23-1.58s0.11-1,.24-1.46c0.42-1.53.51-3.12,0.88-4.66,0.24-1,.37-2,0.57-3a28.51,28.51,0,0,1,1.14-5.28,4.28,4.28,0,0,1,.27-1.33,8.82,8.82,0,0,1,.68-3,3.18,3.18,0,0,1,.12-1c0.38-.44,0-1,0.36-1.44a3.44,3.44,0,0,0,.28-1.43,4.17,4.17,0,0,1,.25-1c0.45-1,.49-2,0.84-3s0.48-1.95.81-2.9,0.42-2,.77-2.92c0.2-.53.24-1.09,0.44-1.61s0.34-1.06.55-1.57,0.27-1.11.46-1.61c0.38-1,.64-2,1.05-3a11.32,11.32,0,0,0,.35-1.18h0.11a6.33,6.33,0,0,1,.63-1.9c0.49-1.12.8-2.3,1.28-3.43,0.3-.7.63-1.42,0.87-2.16a24.79,24.79,0,0,1,1.51-3.68c0.59-1.15,1.06-2.37,1.68-3.51,0.4-.73.73-1.54,1.13-2.28a28.53,28.53,0,0,1,1.85-3.32,2.09,2.09,0,0,0,.54-1.33,0.66,0.66,0,0,0,.28-0.17A18.66,18.66,0,0,1,60,124.38a17.25,17.25,0,0,1,1.38-2,32.81,32.81,0,0,1,4.15-4.63,15.52,15.52,0,0,1,3.74-2.55,10.83,10.83,0,0,1,3-.89,6.36,6.36,0,0,1,3.41.74,4.52,4.52,0,0,1,1.85,1.33,10.52,10.52,0,0,0,.95.94,1.21,1.21,0,0,1-.75.83,6.51,6.51,0,0,1-.79.66,10.86,10.86,0,0,0-2.57,2.46,2.22,2.22,0,0,0-.3.24Q73,122.75,72,124A0.45,0.45,0,0,0,72,124.19Z" transform="translate(-1.68 -1.29)"/><path class="cls-7" d="M149.76,187.07a21,21,0,0,1-.49-2.68,5.25,5.25,0,0,1-.23-1.46c-0.47-.45,0-1.13-0.32-1.54s0.14-1.06-.4-1.4a14.65,14.65,0,0,0-.49-2.92,15.16,15.16,0,0,0-.56-2.65,16.06,16.06,0,0,1-.35-1.64,20.35,20.35,0,0,0-.53-2.07,23.32,23.32,0,0,1-.66-2.83c-0.22-1.07-.6-2.09-0.82-3.16-0.3-1.49-.81-2.94-1.22-4.41-0.35-1.24-.7-2.5-1.16-3.72a16.1,16.1,0,0,1-.65-2c-0.15-.66-0.73-1.21-0.53-1.95a12.11,12.11,0,0,1-1.31-3.29c-0.65-1.81-1.51-3.54-2.05-5.39a3.5,3.5,0,0,0-.2-0.4c-0.49-1.11-1-2.24-1.48-3.34q-1.54-3.26-3.12-6.51a12.5,12.5,0,0,0-1-1.74c-0.65-.92-1.13-1.93-1.7-2.9s-1.22-1.82-1.85-2.71-1.07-1.48-1.61-2.21c-0.17-.23-0.36-0.44-0.54-0.67l-1.4-1.68H124.8a0.66,0.66,0,0,0-.24-0.61q-1.11-1.06-2.17-2.16a3.41,3.41,0,0,0-1.19-.82,5.83,5.83,0,0,0-.45-0.48c-0.26-.22-0.53-0.41-0.88-0.68a12.14,12.14,0,0,1,2.28-2.09,13.21,13.21,0,0,1,2.7-1c1-.32,2,0.2,2.9.2a4.25,4.25,0,0,0,.66.33,12.55,12.55,0,0,1,3.57,2.1,16.87,16.87,0,0,1,3.08,2.92,20.54,20.54,0,0,1,2.77,3.63,10.43,10.43,0,0,1,.9,1.31,8.25,8.25,0,0,1,.71.91c0.74,1.25,1.45,2.51,2.16,3.78a13.4,13.4,0,0,0,.7,1.38,10.16,10.16,0,0,1,1.12,2.18,19.77,19.77,0,0,1,1.17,2.52,4.23,4.23,0,0,0,.51,1.22,10.58,10.58,0,0,1,1.06,2.32,6.29,6.29,0,0,1,.73,2.1c0.74,0.63.55,1.71,1.16,2.4,0,0.53.51,0.91,0.48,1.34-0.06.72,0.63,1.15,0.54,1.83,0.53,0.46.37,1.19,0.69,1.76,0.47,0.84.48,1.86,1,2.72a2.27,2.27,0,0,1,0,.47,0.6,0.6,0,0,0,.23.19c0.27,1.47.89,2.84,1.27,4.27s0.72,2.66,1.13,4,0.63,2.45,1,3.67c0.25,0.82.41,1.66,0.66,2.48a26.84,26.84,0,0,1,.88,3.7c0.21,1.35.93,2.59,0.82,4,0.46,1.11.44,2.34,0.91,3.46a8.27,8.27,0,0,1,.24,1.69c0.14,0.74.28,1.5,0.39,2.25s0.27,1.49.42,2.23,0.35,1.7.49,2.56a8.23,8.23,0,0,0,.23,1.46c0.18,0.5.06,1,.24,1.46s0.07,1.1.24,1.58,0.07,1,.24,1.46c0.26,0.69,0,1.45.26,2.05a19,19,0,0,1,.22,2,10.25,10.25,0,0,1,.24,1.82,10.55,10.55,0,0,0,.26,1.69,9.51,9.51,0,0,1,.2,2.07c0.05,0.49.16,1,.23,1.46a2.24,2.24,0,0,0,.24,1.46,0.5,0.5,0,0,1,0,.23c0.08,1.57.11,3.14,0.26,4.7,0.11,1.17.09,2.36,0.27,3.49,0.25,1.54,0,3.08.23,4.58a24,24,0,0,1,.19,3.51c0,1.16,0,2.32,0,3.48H152.16a4.44,4.44,0,0,1,.28-2.25,0.57,0.57,0,0,1-.18-0.87,1.09,1.09,0,0,0,.13-0.54c0-1,0-2.08,0-3.11a2.83,2.83,0,0,0-.23-0.74,1.63,1.63,0,0,0,.17-0.83c0-.22-0.15-0.43-0.17-0.64A52.76,52.76,0,0,0,152,209c-0.24-1.38.07-2.8-.23-4.21a29.29,29.29,0,0,1-.22-3.13,17,17,0,0,1-.3-3.85,0.69,0.69,0,0,0,0-.35,9.83,9.83,0,0,1-.44-2.57c-0.16-1-.07-2-0.3-3a10.78,10.78,0,0,0-.25-1.8c-0.24-.52,0-1-0.21-1.47A4.06,4.06,0,0,1,149.76,187.07Z" transform="translate(-1.68 -1.29)"/><path class="cls-8" d="M67.44,57.95a12.64,12.64,0,0,0-3-1,6,6,0,0,1-.84-0.23c0-8.92,0-17.83,0-26.75,0-.64.3-1.19,0.27-1.82a9,9,0,0,1,.4-1.74,21.11,21.11,0,0,1,1.58-4.63,18.27,18.27,0,0,1,1.84-3.07,13.88,13.88,0,0,1,2-2.53c0.33-.31.52-0.79,0.87-1.07a28.1,28.1,0,0,1,5.14-3.78,12,12,0,0,1,1.89-1c0.7-.2,1.31-0.75,2-0.9S80.95,9,81.67,8.94a22,22,0,0,0,2.2-.47,14.16,14.16,0,0,1,3.63-.19c7.56,0,15.11,0,22.67,0a0.57,0.57,0,0,1,.23.19c0,0.28,0,.56,0,0.84a9.7,9.7,0,0,1-.71,4.26,0.92,0.92,0,0,0,0,.38c-0.72.59-1.26,1.2-1.92,1.7a23.91,23.91,0,0,1-4.82,2.86,15.47,15.47,0,0,1-2.44,1,9.72,9.72,0,0,1-2.7.73,17.52,17.52,0,0,1-5,1.14,16.64,16.64,0,0,1-4,.31c-1.11-.08-2.24,0-3.36,0a9.36,9.36,0,0,0-2.06-1.39,12.89,12.89,0,0,0-2.08-.78c-0.78-.13-1.54-0.39-2.32-0.46a10.68,10.68,0,0,0-4,.47,11.72,11.72,0,0,0-5.12,3,12.11,12.11,0,0,0-2.44,3.78,14.36,14.36,0,0,0-1,3.92c-0.15,1,.31,2,0.25,3a0.61,0.61,0,0,0,.08.2,17.22,17.22,0,0,0,1.34,3.16A8.9,8.9,0,0,0,71,39.81a0.55,0.55,0,0,1,.25.61c0,2.39,0,4.78,0,7.17,0,1.05-.42,2.06-0.25,3.13a0.28,0.28,0,0,1-.06.21c-0.36.38,0,.87-0.19,1.24a2.6,2.6,0,0,0-.22,1.22c-0.64,0-1.28,0-1.91,0s-1.2.19-1.95,0.31l-1.41.91V56L66,56.91l1.4,0.41v0.63Z" transform="translate(-1.68 -1.29)"/><path class="cls-9" d="M124.8,121.79h0.28l1.4,1.68a0.69,0.69,0,0,1-.25.62c-1.25,1.31-2.56,2.58-3.71,4-0.9,1.11-2,2-2.88,3.12s-2,2-2.88,3.12-2,2-2.88,3.12-2.15,2.1-3,3.29c-1,1.37-2.37,2.41-3.52,3.75-0.24-.22-0.45-0.39-0.63-0.57l-4.23-4.23a0.7,0.7,0,0,0-.7-0.34v-0.86L99.28,136a0.65,0.65,0,0,0-.26-0.05l-0.14.25a6.93,6.93,0,0,0-2,2.1,1.64,1.64,0,0,1-.33.34l-5.49,5.49a9.77,9.77,0,0,1-2.27-2.2,2.81,2.81,0,0,0-.27-0.37l-3.72-4c-1.3-1.38-2.68-2.69-3.87-4.16-0.85-1-1.9-1.89-2.72-2.94s-2.11-2.13-3-3.3c-0.79-1-1.72-1.83-2.56-2.76a0.64,0.64,0,0,0-.62-0.25,0.45,0.45,0,0,1,0-.23q1-1.21,2.09-2.41a2.22,2.22,0,0,1,.3-0.24c1.52,0,3,0,4.56,0a7.66,7.66,0,0,0,1.13-.2l2,1.16a0.54,0.54,0,0,0,.24,0c0.55,0.55,1.35.69,1.93,1.19a0.91,0.91,0,0,0,.47,0,13.49,13.49,0,0,0,1.34.95c0.94,0.52,2,.89,2.86,1.47,1.69,1.1,3.52,2,5.24,3,1,0.61,2.05,1.2,3.12,1.71A4.06,4.06,0,0,1,99.17,132a4.8,4.8,0,0,1,1-1.08c1.39-.73,2.7-1.59,4-2.39,1.57-.94,3.14-1.86,4.71-2.8l3-1.78,0.87-.51h0.72a2.62,2.62,0,0,0,1.24-.15c0.68-.48,1.62-0.52,2.12-1.29a0.67,0.67,0,0,0,.35,0,2.17,2.17,0,0,1,1.83-.47c1,0,1.91.07,2.86,0S123.83,121.87,124.8,121.79Z" transform="translate(-1.68 -1.29)"/><path class="cls-10" d="M69.12,552.59H87.6v-1h1.32a0.57,0.57,0,0,1,.08.08,0.2,0.2,0,0,1,0,.1q0,10,0,20H43.92v-13.2c0.6,0.08,1.2.17,1.81,0.24a7.52,7.52,0,0,1,1.82.2,6,6,0,0,0,1.89,0v4.32c-0.66-.12-0.64.54-0.95,0.85a2,2,0,0,0,1.45,2.28,1.8,1.8,0,0,0,2-1.16,1.53,1.53,0,0,0-1-2.21v-4.08a8.7,8.7,0,0,0,2.26,0,13.08,13.08,0,0,1,2.78-.2v3.6h-0.6l-0.65,1.3L55.28,565l1.25,0.6,1.24-.61,0.61-1.26-0.65-1.3H57.36v-4.08c1.16,0.15,2.2-.4,3.31-0.56a13.21,13.21,0,0,0,1.49-.4V561H61.8l-0.65,1.3,0.61,1.28,1.25,0.6,1.24-.61,0.61-1.27L64.21,561H63.6v-4.32l1-.31V550.7h3.32v3.5ZM83,565a6,6,0,0,0-1.82-4.28,7.45,7.45,0,0,0-4.6-1.9,5,5,0,0,0-1.7.21,6.91,6.91,0,0,0-3.16,1.61A6.29,6.29,0,0,0,70,563.76a5.14,5.14,0,0,0,.24,3.23c1.07,2.69,3.28,3.79,6,4.07a5.92,5.92,0,0,0,2.67-.5A6,6,0,0,0,83,565Z" transform="translate(-1.68 -1.29)"/><path class="cls-10" d="M110.64,551.63v0.84c1,0.18,14.2.24,18.24,0.08v-1.4c0.4,0,.17.36,0.24,0.55a6.58,6.58,0,0,0,1.37,2.39,8.42,8.42,0,0,0,.06-1.67c0-.55,0-1.11,0-1.7h3.35v5.72l0.73,0.24V561H134l-0.65,1.3,0.61,1.28,1.25,0.6,1.24-.61,0.61-1.26-0.65-1.3h-0.37v-3.6a17.72,17.72,0,0,1,2.6.58,7.68,7.68,0,0,0,2.2.38v4.08h-0.37l-0.65,1.3,0.61,1.28,1.25,0.6L143,565l0.61-1.27-0.65-1.3h-0.6v-3.6a8.7,8.7,0,0,1,2.26,0,13.08,13.08,0,0,0,2.78.2v4.08a1.53,1.53,0,0,0-1,2.21,1.78,1.78,0,0,0,1.93,1.16,2,2,0,0,0,1.51-2.29c-0.31-.31-0.29-1-0.95-0.85v-4.32c0.52,0,1,0,1.55,0s1-.18,1.45-0.22a12.84,12.84,0,0,0,1.54,0,3.07,3.07,0,0,1,1-.21v13.2H109.44V551.63h1.2Zm11.19,7.18a7.91,7.91,0,0,0-1.47.23,6.42,6.42,0,0,0-3.18,1.57,6.17,6.17,0,0,0-1.8,3.09,5,5,0,0,0,.18,3.24c1.17,2.86,3.37,3.81,6,4.12a6,6,0,0,0,2.56-.47,5.87,5.87,0,0,0,4.26-4.8A5.46,5.46,0,0,0,126.8,561,7.4,7.4,0,0,0,121.83,558.81Z" transform="translate(-1.68 -1.29)"/><path class="cls-11" d="M46.56,270.83c-0.3,1.31-.56,2.63-0.95,3.92a15.51,15.51,0,0,1-2.23,4.58,10,10,0,0,1-3.3,2.94,6.64,6.64,0,0,1-1.7.51,1.93,1.93,0,0,1-1.81-.19,4.93,4.93,0,0,1-3-1.63,10.33,10.33,0,0,1-2.88-4.08,0.64,0.64,0,0,0-.17-0.17c0-.24,0-0.48,0-0.75a7,7,0,0,0,.91-0.66,8.86,8.86,0,0,0,2-3c0.17-.41.44-0.77,0.64-1.17a8.91,8.91,0,0,0,.45-1.13,4.4,4.4,0,0,1,.37-1.28c0.29-.38-0.11-0.91.38-1.17,0.08-.81.23-1.61,0.23-2.42q0-16,0-32h11v16.42c0,2.72,0,5.43,0,8.15a56.67,56.67,0,0,0,.22,8.17,7.28,7.28,0,0,1,0,1.68,5.84,5.84,0,0,1-.12,1.62A6.07,6.07,0,0,0,46.56,270.83Z" transform="translate(-1.68 -1.29)"/><path class="cls-11" d="M162.72,232.67a12.94,12.94,0,0,1,0,2.15,49.31,49.31,0,0,0-.21,7.45c0,2.52,0,5,0,7.55v7.43c0,2.52,0,5,0,7.55a14.92,14.92,0,0,0,1.1,5.54,19.27,19.27,0,0,0,1.58,3.41,5.2,5.2,0,0,0,2.25,2.33,1.4,1.4,0,0,1-.16,1.36,12.25,12.25,0,0,1-3.48,4.42,4.63,4.63,0,0,1-2.1,1,4.94,4.94,0,0,1-1.46.22,5.66,5.66,0,0,1-3.76-1.61,12.61,12.61,0,0,1-2-2.26,18.84,18.84,0,0,1-2.26-5.18c-0.24-1.06-.5-2.11-0.69-3.18H152c-0.11-.93-0.24-1.77-0.3-2.61a17.6,17.6,0,0,1,0-2.16c0-.73.22-1.45,0.22-2.18q0-14.8,0-29.59c0-.32,0-0.64,0-1a0.57,0.57,0,0,0-.23-0.19v-0.48h11Z" transform="translate(-1.68 -1.29)"/><path class="cls-8" d="M123.12,11.63A36.93,36.93,0,0,1,127,14.56a24.44,24.44,0,0,1,3.85,4.51,23.8,23.8,0,0,1,1.35,2.19c0.25,0.45.38,1,.58,1.43s0.51,1,.68,1.51a3.7,3.7,0,0,0,.51,1.46c0,1,.62,1.89.48,2.91a5.47,5.47,0,0,1,.23,2.65q0,11.79,0,23.58c-0.25-.16-0.51-0.31-0.75-0.48a5.05,5.05,0,0,0-2.67-.69c-1.34-.09-2.68,0-4,0a10.92,10.92,0,0,0-.3-2.51,7.7,7.7,0,0,1-.18-1.36,8.5,8.5,0,0,1-.23-1.46c0-3.07,0-6.15,0-9.22a1.33,1.33,0,0,1,0-.7,1.87,1.87,0,0,0,.16-1.36,9.4,9.4,0,0,1-3.52,3,10.16,10.16,0,0,1-6.09,1.58,12.47,12.47,0,0,0,3.67-3,10.4,10.4,0,0,0,2-3.38,11,11,0,0,0,.89-4.67,10.8,10.8,0,0,1,0-1.68,8.74,8.74,0,0,0-.49-3,14,14,0,0,0-2.85-5.17,4.24,4.24,0,0,0-.54-0.41c-0.16-.14-0.3-0.32-0.45-0.48a0.66,0.66,0,0,1,.24-0.62,11.58,11.58,0,0,0,1.7-1.91,9.43,9.43,0,0,0,1.54-3A8.86,8.86,0,0,0,123.12,11.63Z" transform="translate(-1.68 -1.29)"/><path class="cls-12" d="M123.12,11.63a8.86,8.86,0,0,1-.35,2.59,9.43,9.43,0,0,1-1.54,3,11.58,11.58,0,0,1-1.7,1.91,0.66,0.66,0,0,0-.24.62,4.26,4.26,0,0,0-1,.67,15,15,0,0,1-3.16,1.9,19.55,19.55,0,0,1-2.75,1.15,19.67,19.67,0,0,1-3.39,1c-1.06.15-2.07,0.48-3.14,0.59s-2,.34-3,0.38c-2.35.1-4.71,0-7.06,0a1.39,1.39,0,0,1-.7,0,1.46,1.46,0,0,0-1.23-.2,13.12,13.12,0,0,1-1.34-.25c-1.05.07-2-.61-3-0.5a5.25,5.25,0,0,0-2.11-.67,10.35,10.35,0,0,0-2.2-.76c-0.25-.4-0.87-0.25-1.07-0.71a0.84,0.84,0,0,1,.31-0.23c0.38,0,.76,0,1.13-0.05V21.71c1.12,0,2.24-.06,3.36,0a16.64,16.64,0,0,0,4-.31,17.52,17.52,0,0,0,5-1.14,9.72,9.72,0,0,0,2.7-.73,15.47,15.47,0,0,0,2.44-1,23.91,23.91,0,0,0,4.82-2.86c0.66-.5,1.2-1.11,1.92-1.7a0.92,0.92,0,0,1,0-.38,9.7,9.7,0,0,0,.71-4.26c0-.28,0-0.56,0-0.84a0.57,0.57,0,0,0-.23-0.19,14.4,14.4,0,0,0-.48-2.2,15,15,0,0,1,3.5,1.71c0.62-1,.26-2.12.33-3.2a5.84,5.84,0,0,0-.61-3.29c0.32,0.07.48,0.1,0.63,0.15a3.89,3.89,0,0,0,1.55.59c1,0.62,2.09,1.18,3,1.88A24.73,24.73,0,0,1,120.5,6a9.66,9.66,0,0,1,2.26,3.49A4.21,4.21,0,0,1,123.12,11.63Z" transform="translate(-1.68 -1.29)"/><path class="cls-13" d="M127.2,53.63c1.34,0,2.69-.07,4,0a5.05,5.05,0,0,1,2.67.69c0.24,0.17.5,0.32,0.75,0.48v1.92a0.74,0.74,0,0,0-.35,0,3.43,3.43,0,0,1-.53.46,9.68,9.68,0,0,1-1.22.3,29.22,29.22,0,0,0-1,3.51,20,20,0,0,1-.8,2.18,16.93,16.93,0,0,1-.88,2.39,7.14,7.14,0,0,1-2.11,2.68c-0.41.28-.77,0.64-1.17,1a4.86,4.86,0,0,1-2.48.91,16.55,16.55,0,0,1-2.91.54c-1-.06-2,0-3,0-2,0-4,0-6,0a3.76,3.76,0,0,1-2.1-.45,1.1,1.1,0,0,0-.45,0l-2.09-1.91-0.82-.94-0.86-1a3.29,3.29,0,0,0-.17-0.52c-0.44-.85-0.86-1.7-1.33-2.53a10.93,10.93,0,0,1-.9-3.19l-1.58-1.44h-4a2.3,2.3,0,0,1-1,.76c-0.53.81-.43,1.81-0.81,2.66C95.15,64,94.42,66,92.83,67.49c-0.84.79-1.64,1.63-2.43,2.42a2.11,2.11,0,0,0-.59.12,3.68,3.68,0,0,1-1.88.4c-2.88,0-5.75,0-8.63,0A6.76,6.76,0,0,1,76.72,70a9.66,9.66,0,0,0-1.45-.24,4.92,4.92,0,0,1-1.95-.81,9.35,9.35,0,0,1-3.11-3.35c-0.42-.93-0.74-1.93-1.1-2.9a14.67,14.67,0,0,1-1-3.2c-0.44-.36-0.05-1-0.47-1.36l-0.24-.19V57.32L66,56.91,65.29,56V54.61l1.41-.91c0.74-.12,1.34-0.26,1.95-0.31s1.27,0,1.91,0h8.16a9.61,9.61,0,0,1,1.7.22,47.53,47.53,0,0,1,5.53.24,29.8,29.8,0,0,0,3.25.26,0.55,0.55,0,0,1,.23,0,11.28,11.28,0,0,0,2.44.75c0.85,0.27,1.73.46,2.58,0.72a16.06,16.06,0,0,0,4.42.91,1,1,0,0,1,.41.2,5.52,5.52,0,0,1,1-.2c1,0,1.92,0,2.87,0a1.87,1.87,0,0,0,.71,0A33.13,33.13,0,0,1,108,55.21a12.71,12.71,0,0,0,2.24-.65c0.81-.42,1.65-0.09,2.47-0.39a16.86,16.86,0,0,1,2.52-.26,10.87,10.87,0,0,1,2.87,0c1,0.09,1.93-.26,2.9-0.26a3.59,3.59,0,0,0,.29.23,1.32,1.32,0,0,1,1.08-.23h4.88ZM112.08,56a8.93,8.93,0,0,0-2.41.27,3.11,3.11,0,0,0-1.57.51,22.47,22.47,0,0,0-2,1.76,5.83,5.83,0,0,1,0,.84c0,0.25-.21.49-0.22,0.74a6.15,6.15,0,0,0,.6,3.34c0.59,1.07,1.18,2.15,1.74,3.24a3.8,3.8,0,0,0,1.52,1.54,4.88,4.88,0,0,1,.68.36,3.74,3.74,0,0,0,2.65.84c2.36,0,4.71,0,7.07,0,0.44,0,.88,0,1.32,0a9.88,9.88,0,0,0,1.34-.24,5.73,5.73,0,0,0,1.92-.54,8.21,8.21,0,0,0,2.74-2.39c0.54-.9,1-1.82,1.48-2.75a11.59,11.59,0,0,0,.67-3.19,3.87,3.87,0,0,0-.3-2.62,1,1,0,0,1-.72-0.74A3.2,3.2,0,0,0,127,55.25c-0.23-.12-0.45-0.26-0.72-0.42h-7.84a1.4,1.4,0,0,0-.7,0c-0.5.4-1.08,0.09-1.58,0.23a4.62,4.62,0,0,1-1.69.23l-1.56.47-0.22-.21-0.38.22ZM86.16,69.23h2c0.7-.41,1.39-0.78,2-1.21a2.79,2.79,0,0,0,1.24-.93c0.68-1.32,1.42-2.6,2.08-3.93a4,4,0,0,0,.55-2.29C94,60,93.9,59.12,93.8,58.24c-0.62-.54-1.23-1.09-1.87-1.59A2.3,2.3,0,0,0,91,56.28,3.57,3.57,0,0,0,89.44,56c-0.35-.47-0.91-0.06-1.3-0.32a3.17,3.17,0,0,0-1.49-.16H86.27l-0.22-.48H85.2A6.28,6.28,0,0,1,84,54.86a20.15,20.15,0,0,0-3-.26c-1.15,0-2.31,0-3.46,0H73.62a9.19,9.19,0,0,0-1.18.73,7.39,7.39,0,0,0-1.6,1.57,4.64,4.64,0,0,0-.5,1.93A4,4,0,0,0,70.56,61c-0.15,1.2.51,2.17,0.88,3.23A10,10,0,0,0,72.9,66.6a5.42,5.42,0,0,0,2.56,1.87,10.26,10.26,0,0,0,4,.77c1.83-.07,3.67,0,5.5,0A0.83,0.83,0,0,0,86.16,69.23Z" transform="translate(-1.68 -1.29)"/><path class="cls-14" d="M109.44,571.79h44.88v-13.2a0.59,0.59,0,0,1,.19-0.23,4.66,4.66,0,0,1,2.88.57,35.17,35.17,0,0,1,3.43,1.84,22.13,22.13,0,0,1,3.86,3.7,16.5,16.5,0,0,1,2.31,3.86,7.85,7.85,0,0,1,1,3.18c0,0.29.54,0.58,0,.89a0.9,0.9,0,0,1,.23.85h-59c0-.38,0-0.77,0-1.15A0.76,0.76,0,0,1,109.44,571.79Z" transform="translate(-1.68 -1.29)"/><path class="cls-14" d="M43.92,558.59v13.2H89v1.44H30c0.24-1.06.46-2.13,0.73-3.18a8.41,8.41,0,0,1,.55-1.57,16.68,16.68,0,0,1,3.38-5.08,18.86,18.86,0,0,1,3.54-3c0.91-.51,1.79-1.08,2.74-1.5a4.88,4.88,0,0,1,2.79-.49A0.57,0.57,0,0,1,43.92,558.59Z" transform="translate(-1.68 -1.29)"/><path class="cls-10" d="M151.68,233.15a0.57,0.57,0,0,1,.23.19c0,0.32,0,.64,0,1q0,14.8,0,29.59c0,0.73-.18,1.45-0.22,2.18a17.6,17.6,0,0,0,0,2.16c0.06,0.84.19,1.67,0.3,2.61h-0.55c-0.1-.08-0.29-0.24-0.3-0.23a1,1,0,0,1-.87.23c-1.16,0-2.32,0-3.47,0a5.7,5.7,0,0,1-1-.2l-0.4.21v-0.36l-1.12-.56-0.15.15-2.33-1.84v-0.27c0-.56,0-1.11,0-1.67s0.18-1.12.22-1.69,0-1.11,0-1.67a1.52,1.52,0,0,1,.23-0.5l1.24-.83v-0.68a7.1,7.1,0,0,0,.91-0.95,22.4,22.4,0,0,0,1.2-2.12c0.38-.76.69-1.54,1-2.32a5.45,5.45,0,0,0,.67-2.46h0.38l0.32-1.32-0.3-.4c1-.74,1-1.89,1.27-2.94l-0.3-.41a1.88,1.88,0,0,0,.78-1.45c-0.06-.58.62-1.15-0.09-1.74,0.69-.31.51-1,0.86-1.41l-0.26-.29a0.92,0.92,0,0,0,.21-0.29c0.11-.6.15-1.24,0.31-1.8s0-1.11.21-1.58a4,4,0,0,0,.21-1.59,0.36,0.36,0,0,0-.15-0.11l-0.24.55a1.2,1.2,0,0,1,.36-1.36c0.48-.42,0-1.1.56-1.41l-0.27-.36a4.2,4.2,0,0,0,.2-0.95A1.57,1.57,0,0,1,151.68,233.15Z" transform="translate(-1.68 -1.29)"/><path class="cls-10" d="M46.56,270.83a6.07,6.07,0,0,1,.11-1.63,5.84,5.84,0,0,0,.12-1.62,7.28,7.28,0,0,0,0-1.68,56.67,56.67,0,0,1-.22-8.17c0-2.72,0-5.43,0-8.15V233.15H47a1.75,1.75,0,0,1,.11.92c-0.34.46,0.08,0.72,0.13,1.06l-0.29.43a0.83,0.83,0,0,1,.26.34,1.84,1.84,0,0,0,.48,1.26,0.75,0.75,0,0,1,.14,1l-0.35-.76a3.93,3.93,0,0,0,0,1.53,2.49,2.49,0,0,1,.19,1.36,4,4,0,0,1,.26,1.34,0.81,0.81,0,0,0,.22.75,0.87,0.87,0,0,1,.2.7c-0.38.79,0.28,1.22,0.51,1.74a1.58,1.58,0,0,0-.2.77A2.82,2.82,0,0,1,49,247L49.7,248l-0.22.37c0.08,0.45.12,0.78,0.2,1.1s0.2,0.63.3,0.93H50.4l0.22,1.07-0.23.34c0.35,0.65.27,1.39,0.74,1.92-0.19.71,0.39,1.2,0.54,1.82a12.46,12.46,0,0,0,.8,1.81c0.25,0.57.57,1.12,0.83,1.69a15.64,15.64,0,0,0,1,1.69l0.26-.26,0.22,0.38,0.16-.08v1l0.94,0.36,0.4,0.58a3.38,3.38,0,0,0-.06,2,2.44,2.44,0,0,1,.13.3c0.09,1.11.17,2.22,0.25,3.33a0.7,0.7,0,0,0-.35,0c-0.66.54-1.3,1.09-2,1.64l-0.19-.18-1.1.57q0,0.18,0,.36l-0.44-.26c-0.93.64-2.12-.09-3.16,0.48a3.67,3.67,0,0,0-.69-0.21,3.18,3.18,0,0,1-1.47-.22A1.44,1.44,0,0,0,46.56,270.83Z" transform="translate(-1.68 -1.29)"/><path class="cls-1" d="M151,151.55a0.6,0.6,0,0,1-.23-0.19,2.27,2.27,0,0,0,0-.47c-0.48-.85-0.5-1.87-1-2.72-0.31-.56-0.15-1.29-0.69-1.76,0.09-.68-0.6-1.11-0.54-1.83,0-.43-0.51-0.82-0.48-1.34-0.62-.69-0.42-1.77-1.16-2.4a6.29,6.29,0,0,0-.73-2.1,10.58,10.58,0,0,0-1.06-2.32,4.23,4.23,0,0,1-.51-1.22,19.77,19.77,0,0,0-1.17-2.52,10.16,10.16,0,0,0-1.12-2.18,13.4,13.4,0,0,1-.7-1.38c-0.71-1.27-1.43-2.53-2.16-3.78a8.25,8.25,0,0,0-.71-0.91h1.17a23.59,23.59,0,0,1,2.76,1.46c1,0.7,2.1,1.13,3.1,1.8s1.8,1,2.71,1.52c1.27,0.7,2.57,1.33,3.78,2.14a8.32,8.32,0,0,0,1.28.58c-0.64,1.16-1.32,2.31-1.91,3.49a5.87,5.87,0,0,0-.67,2.72C151,142.61,151,147.08,151,151.55Z" transform="translate(-1.68 -1.29)"/><path class="cls-15" d="M168.24,574.19v1.08l-0.08.08a0.21,0.21,0,0,1-.1,0H109.2v-1.44h59v0.24Z" transform="translate(-1.68 -1.29)"/><path class="cls-1" d="M58.32,126.83a2.09,2.09,0,0,1-.54,1.33,28.53,28.53,0,0,0-1.85,3.32c-0.4.75-.73,1.55-1.13,2.28-0.62,1.14-1.09,2.35-1.68,3.51a24.79,24.79,0,0,0-1.51,3.68c-0.24.74-.57,1.45-0.87,2.16-0.48,1.12-.79,2.31-1.28,3.43a6.33,6.33,0,0,0-.63,1.9H48.72c0-3,0-6.08,0-9.12a10.24,10.24,0,0,0-.17-2.43c-0.2-.79-0.34-1.62-0.52-2.43a10,10,0,0,0-.73-2.22,1.56,1.56,0,0,1,0-.55,11.59,11.59,0,0,1,1.84-1c1-.34,2-0.84,3-1.22,1.59-.6,3.07-1.47,4.7-2A5.45,5.45,0,0,1,58.32,126.83Z" transform="translate(-1.68 -1.29)"/><path d="M162.72,232.67H151c0-2.79,0-5.5,0-8.21a0.21,0.21,0,0,1,0-.1,0.58,0.58,0,0,1,.08-0.08h13a0.58,0.58,0,0,1,.07.08,0.21,0.21,0,0,1,0,.1c0,2.71,0,5.42,0,8.21h-1.44Zm-8.45-2.16c2,0,4,0,6,0a2,2,0,0,0,1.44-.57,2.2,2.2,0,0,0,.73-2.08,2.93,2.93,0,0,0-1.59-1.67H154.2a3.17,3.17,0,0,0-1.53,1.59A2.4,2.4,0,0,0,154.28,230.51Z" transform="translate(-1.68 -1.29)"/><path d="M47,233.15H34.68a0.58,0.58,0,0,1-.08-0.08,0.21,0.21,0,0,1,0-.1c0-2.71,0-5.42,0-8.21h13.2c0,2.79,0,5.5,0,8.21a0.21,0.21,0,0,1,0,.1,0.58,0.58,0,0,1-.08.08H47ZM37.81,231c2,0,4.07,0,6.1,0a2.05,2.05,0,0,0,1.44-.58,2.2,2.2,0,0,0,.73-2.07,2.92,2.92,0,0,0-1.59-1.67H38a2.82,2.82,0,0,0-1.71,1.63C36.24,229.78,36.44,230.11,37.81,231Z" transform="translate(-1.68 -1.29)"/><path class="cls-16" d="M168.24,573.95h-59v-0.72h59v0.72Z" transform="translate(-1.68 -1.29)"/><path class="cls-16" d="M30,573.23H89v0.72H30v-0.72Z" transform="translate(-1.68 -1.29)"/><path class="cls-17" d="M130.8,83.15V74.28a9.48,9.48,0,0,0,1.95-.94,12,12,0,0,0,1.89-1.24,4.17,4.17,0,0,1-.12,1.39,6.59,6.59,0,0,0-.13,1.27A9.82,9.82,0,0,0,134,76a19.18,19.18,0,0,1-1.58,4.62A6,6,0,0,1,130.8,83.15Z" transform="translate(-1.68 -1.29)"/><path class="cls-17" d="M63.6,72.11a12.45,12.45,0,0,0,1.89,1.24,9.25,9.25,0,0,0,1.95.92v8.88a0.94,0.94,0,0,1-.36-0.26c-0.38-1-1-1.78-1.42-2.77S64.79,78,64.47,76.9A10.5,10.5,0,0,1,63.83,74a9.16,9.16,0,0,0-.22-1A7.69,7.69,0,0,1,63.6,72.11Z" transform="translate(-1.68 -1.29)"/><path d="M141.84,267.95v0.27l2.33,1.84,0.15-.15,1.12,0.56v0.36a11.76,11.76,0,0,0-1.43,2.66c-0.58,1.19-1.27,2.33-2,3.46a2.93,2.93,0,0,1-.69.59c-0.08-.65-0.19-1.29-0.23-1.94a15.3,15.3,0,0,1,0-1.92c0-.61.14-1.21,0.23-1.82a5.6,5.6,0,0,1,.19-1.72,4.91,4.91,0,0,0,0-1.78C141.61,268.2,141.51,267.95,141.84,267.95Z" transform="translate(-1.68 -1.29)"/><path d="M53,270.83q0-.18,0-0.36l1.1-.57,0.19,0.18c0.65-.55,1.29-1.11,2-1.64a0.7,0.7,0,0,1,.35,0,27.89,27.89,0,0,0,.28,3.95,17.67,17.67,0,0,1,.18,3.37,12.39,12.39,0,0,1-.22,1.81,4.67,4.67,0,0,1-1.64-2.11c-0.76-1.24-1.28-2.64-1.92-4C53.22,271.26,53.5,270.88,53,270.83Z" transform="translate(-1.68 -1.29)"/><path class="cls-13" d="M124.8,121.79c-1,.09-1.89-0.35-2.88-0.26s-1.9,0-2.86,0a2.17,2.17,0,0,0-1.83.47,0.67,0.67,0,0,1-.35,0,4.86,4.86,0,0,1-.46-2.52l4.69-1.12a0.42,0.42,0,0,0,.09-0.2,3.41,3.41,0,0,1,1.19.82q1.06,1.11,2.17,2.16A0.66,0.66,0,0,1,124.8,121.79Z" transform="translate(-1.68 -1.29)"/><path class="cls-13" d="M82.32,122.27a0.54,0.54,0,0,1-.24,0l-2-1.16a7.66,7.66,0,0,1-1.13.2c-1.52,0-3,0-4.56,0A10.86,10.86,0,0,1,77,118.85a6.51,6.51,0,0,0,.79-0.66c0.17,0.57.86-.05,1.06,0.46,0.92,0,1.73.52,2.66,0.52a5.74,5.74,0,0,1,1.27.32C83,120.42,82.45,121.31,82.32,122.27Z" transform="translate(-1.68 -1.29)"/><path class="cls-14" d="M134.64,561v-4.32a0.57,0.57,0,0,1,.19-0.23c0.39,0,.78,0,1.25,0v5.94h-1.44V561Z" transform="translate(-1.68 -1.29)"/><path class="cls-14" d="M57.36,558.35v5.22H55.92v-5.87h1.44v0.66Z" transform="translate(-1.68 -1.29)"/><path class="cls-14" d="M140.88,562.43v-4.74h1.44v5.88h-1.44v-1.14Z" transform="translate(-1.68 -1.29)"/><path class="cls-14" d="M62.16,561v-4.5a4,4,0,0,1,1.36,0,0.45,0.45,0,0,1,.08.2v5.7H62.16V561Z" transform="translate(-1.68 -1.29)"/><path class="cls-14" d="M49.44,563.39v-4.32a1.15,1.15,0,0,1,1.44,0v5.7H49.44v-1.38Z" transform="translate(-1.68 -1.29)"/><path class="cls-14" d="M147.36,563.15v-4.08a1.15,1.15,0,0,1,1.44,0v5.7h-1.44v-1.62Z" transform="translate(-1.68 -1.29)"/><path class="cls-18" d="M99.36,292.19a14.79,14.79,0,0,1,1.43,2.63,5.73,5.73,0,0,1,.73,1.93H99.86C99.91,295.16,99.23,293.72,99.36,292.19Z" transform="translate(-1.68 -1.29)"/><path class="cls-18" d="M99.12,291.71c0.36,0,.2.3,0.24,0.48C99,292.17,99.16,291.89,99.12,291.71Z" transform="translate(-1.68 -1.29)"/><path class="cls-9" d="M113.54,196.62V166.71h24.34c0.19,1,.26,25.35.08,29.92H113.54Z" transform="translate(-1.68 -1.29)"/><path class="cls-18" d="M98.88,136.19l0.14-.25a0.65,0.65,0,0,1,.26.05l2.48,2.45v0.86a4.35,4.35,0,0,1-.21,1.71c-0.21.47,0.19,1.1-.26,1.57a0.53,0.53,0,0,0,0,.23,22.92,22.92,0,0,1-.27,3c-0.15.7-.12,1.39-0.23,2.06s-0.1,1.4-.26,2.05c-0.2.82,0,1.66-.23,2.42s0,1.67-.26,2.41,0,1.58-.21,2.31-0.07,1.65-.26,2.42c-0.23.94,0,1.88-.23,2.78s0,2.05-.25,3,0,2-.22,2.9c-0.25,1.21,0,2.45-.26,3.61a19,19,0,0,0-.18,3.27,16.65,16.65,0,0,0-.27,2.42,7.11,7.11,0,0,1,0,2.39c-0.37,1.49-.07,3-0.22,4.47a25,25,0,0,0-.24,3.38,15.37,15.37,0,0,1,0,3.35,22.35,22.35,0,0,0-.19,3.63c0,1.24,0,2.48,0,3.72,0.08,1.9-.36,3.76-0.27,5.66s0,3.76,0,5.64v5.76c0,1.88,0,3.76,0,5.64s0.36,3.68.27,5.54a32.06,32.06,0,0,0,0,5.63c0.26,2.06,0,4.12.23,6.14,0.23,1.74,0,3.48.25,5.18,0.22,1.46,0,2.92.24,4.34s0,2.6.24,3.86,0,2.28.24,3.38,0,2.12.24,3.14a20.5,20.5,0,0,1,.21,2.91,5.08,5.08,0,0,1,.21,1.1c-0.46,2.24-.15,4.5-0.21,6.74s0,4.56,0,6.84v6.84q0,3.42,0,6.84a2.18,2.18,0,0,1-.24,1.13,3,3,0,0,1,0-.67,3.63,3.63,0,0,0-.25-1.46c-0.07-.45.23-1-0.23-1.34a0.17,0.17,0,0,1,0-.12c0.18-1-.28-1.92-0.26-2.9a11,11,0,0,0-.22-1.7,2.46,2.46,0,0,0-.24-1.58,0.52,0.52,0,0,1,0-.24c-0.08-1.29-.13-2.58-0.25-3.86a14,14,0,0,1-.24-1.7,2.46,2.46,0,0,0-.22-1.7,0.19,0.19,0,0,1,0-.12c0.18-1.46-.3-2.88-0.25-4.34s-0.41-3-.23-4.46c-0.43-1.18-.05-2.43-0.27-3.61-0.29-1.57,0-3.16-.25-4.7s0-3.16-.23-4.7c-0.33-2,0-4-.24-6-0.35-2.45,0-4.91-.24-7.34a58.73,58.73,0,0,1-.19-5.9c0-2,.17-3.94-0.05-5.87-0.31-2.65-.13-5.3-0.18-7.94s0-5.36,0-8,0-5.36,0-8c0-1.41.35-2.79,0.26-4.22s0-2.8,0-4.2a30.56,30.56,0,0,1,0-4.31c0.36-2.49-.05-5,0.25-7.46,0.25-2.06,0-4.12.24-6.14,0.22-1.58,0-3.16.23-4.7s0-3.16.25-4.7c0.21-1.26,0-2.52.23-3.74s0-2.36.25-3.5,0-2.2.23-3.26,0.06-2,.25-3a24.83,24.83,0,0,0,.21-2.55,8.84,8.84,0,0,0,.24-1.58,2.32,2.32,0,0,1,.22-1.58,0.58,0.58,0,0,0,0-.24,31.48,31.48,0,0,1,.28-3.61c0.13-.74.07-1.48,0.24-2.18s0.07-1.41.25-2.06,0.08-1.09.23-1.58A5.28,5.28,0,0,0,98.88,136.19Z" transform="translate(-1.68 -1.29)"/><path d="M50.4,250.43l1.44-.84V221.15a0.8,0.8,0,0,1,.23.31c0,0.52,0,1,0,1.56a9.6,9.6,0,0,1,.25,1.58,2.09,2.09,0,0,0,.22,1.58,0.54,0.54,0,0,1,0,.24c0.08,1.37.14,2.73,0.25,4.1a8.88,8.88,0,0,1,.24,1.58,2.29,2.29,0,0,0,.23,1.58,0.28,0.28,0,0,1,0,.12c0.08,1.33.15,2.65,0.25,4,0,0.57.16,1.13,0.23,1.7A2.72,2.72,0,0,0,54,241a0.54,0.54,0,0,1,0,.24,35.31,35.31,0,0,0,.27,3.85c0.16,0.93.05,1.88,0.25,2.77s0.05,1.56.23,2.3,0.07,1.64.24,2.42,0.06,1.64.24,2.42,0.06,1.72.24,2.54,0,1.81.26,2.65a12.13,12.13,0,0,1,.19,2L55,261.82v-1l-0.16.08-0.22-.38-0.26.26a15.64,15.64,0,0,1-1-1.69c-0.27-.57-0.58-1.12-0.83-1.69a12.46,12.46,0,0,1-.8-1.81c-0.15-.62-0.74-1.11-0.54-1.82-0.47-.53-0.38-1.27-0.74-1.92l0.23-.34Z" transform="translate(-1.68 -1.29)"/><path d="M146.4,221.15v31.4l1,0.52a5.45,5.45,0,0,1-.67,2.46c-0.32.78-.64,1.56-1,2.32a22.4,22.4,0,0,1-1.2,2.12,7.1,7.1,0,0,1-.91.95v0.68l-1.24.83a32,32,0,0,1,.28-4,16.13,16.13,0,0,0,.19-2.43,10.22,10.22,0,0,0,.27-1.58,2,2,0,0,1,.21-1.58,0.53,0.53,0,0,0,0-.24c0.08-1.25.15-2.49,0.25-3.74,0-.49.19-1,0.22-1.46a5.45,5.45,0,0,1,0-1.54,6.48,6.48,0,0,0,.21-2c0.06-.57.15-1.13,0.24-1.7s-0.21-1.11.23-1.58a0.51,0.51,0,0,0,0-.23c0.08-1.33.15-2.65,0.25-4,0-.57.17-1.13,0.23-1.7a2.72,2.72,0,0,1,.24-1.58,0.54,0.54,0,0,0,0-.24,35.07,35.07,0,0,1,.27-3.85c0.16-.93.06-1.88,0.25-2.78a16.71,16.71,0,0,0,.21-2.19c0-.49.18-1,0.22-1.46s0-.95.05-1.42A0.5,0.5,0,0,1,146.4,221.15Z" transform="translate(-1.68 -1.29)"/><path class="cls-18" d="M90.92,145.81c1.56,0,2.35.56,2.86,2.19a2.72,2.72,0,0,1-.43,1.92c-0.26.64-1,.77-1.62,1.13-1.56,0-2.35-.56-2.86-2.19a2.72,2.72,0,0,1,.43-1.92C89.56,146.29,90.29,146.17,90.92,145.81Z" transform="translate(-1.68 -1.29)"/><path class="cls-18" d="M88.88,182.27a1.47,1.47,0,0,0,.36.23c1.16,0.25,1.42,1.25,1.71,2.16a2.68,2.68,0,0,1-1.2,2.39,2,2,0,0,1-1.23.48,2.66,2.66,0,0,1-2.1-4.1,2.17,2.17,0,0,1,.73-0.69A2.29,2.29,0,0,1,88.88,182.27Z" transform="translate(-1.68 -1.29)"/><path class="cls-18" d="M87.57,221.4c1.56,0,2.36.58,2.85,2.21a2.72,2.72,0,0,1-.44,1.92,3.09,3.09,0,0,1-1.63,1.12c-1.56,0-2.36-.58-2.85-2.21a2.72,2.72,0,0,1,.44-1.92A3.09,3.09,0,0,1,87.57,221.4Z" transform="translate(-1.68 -1.29)"/><path class="cls-18" d="M89.27,259.81a2.53,2.53,0,0,1,1.88,1.52,2.37,2.37,0,0,1,.23,1.53c-0.55,1.63-1.32,2.22-2.81,2.18a2.53,2.53,0,0,1-1.88-1.52,2.37,2.37,0,0,1-.23-1.53C87,260.36,87.78,259.77,89.27,259.81Z" transform="translate(-1.68 -1.29)"/><path class="cls-19" d="M91.44,99.23a4,4,0,0,1-2.4-.86,14.21,14.21,0,0,1-3.53-3,10,10,0,0,1-1.61-2.57,3.34,3.34,0,0,1-.18-0.84c0.7-.26,1.32-0.51,1.95-0.72,2-.66,4-1.45,6-2.07,0.84-.26,1.63-0.69,2.48-0.95a31.1,31.1,0,0,0,3.13-1.12c1-.43,2.13-0.67,3.15-1.08,1.35-.54,2.76-0.88,4.08-1.44s2.69-.85,4-1.43c1.62-.73,3.37-1.1,5-1.85,1-.44,2.06-0.63,3-1,1.65-.66,3.39-1.05,5-1.81a9.92,9.92,0,0,1,1.65-.44c-0.17,1.1.33,2,.24,3,0,0.36.24,0.74,0.2,1.1a22.84,22.84,0,0,1-.52,3.14,11.41,11.41,0,0,1-1,2.69,18.51,18.51,0,0,1-2.35,3.59A23.22,23.22,0,0,1,118,93.41a25.3,25.3,0,0,1-4.66,3.48,3.14,3.14,0,0,1-.53.17,4.81,4.81,0,0,0-.72-1.74,9.87,9.87,0,0,0-2.27-2.53,4.53,4.53,0,0,0-1.47-.76c-0.52-.21-1.07-0.32-1.6-0.49a5.43,5.43,0,0,0-1.7-.25,13.3,13.3,0,0,1-1.7-.22,0.2,0.2,0,0,0-.12,0,1.52,1.52,0,0,1-1.1.24,4.6,4.6,0,0,0-1.22.22,7.83,7.83,0,0,0-2.67.8c-0.4.19-.76,0.48-1.17,0.65a6.42,6.42,0,0,0-2.16,1.46c-0.19.18-.45,0.29-0.64,0.47a7.94,7.94,0,0,0-1.13,1.18A12.56,12.56,0,0,0,91.44,99.23Z" transform="translate(-1.68 -1.29)"/><path class="cls-20" d="M91.44,99.23a12.56,12.56,0,0,1,1.69-3.13,7.94,7.94,0,0,1,1.13-1.18c0.19-.18.45-0.29,0.64-0.47A6.42,6.42,0,0,1,97.06,93c0.41-.16.77-0.46,1.17-0.65a7.83,7.83,0,0,1,2.67-.8,4.6,4.6,0,0,1,1.22-.22,1.52,1.52,0,0,0,1.1-.24,0.2,0.2,0,0,1,.12,0,13.3,13.3,0,0,0,1.7.22,5.43,5.43,0,0,1,1.7.25c0.53,0.18,1.08.29,1.6,0.49a4.53,4.53,0,0,1,1.47.76,9.87,9.87,0,0,1,2.27,2.53,4.81,4.81,0,0,1,.72,1.74v0.36c-0.3.28-.91,0.17-1,0.75-1.22.22-2.27,1-3.44,1.23a29.81,29.81,0,0,0-3.55,1.25l-0.36-.22-1.36.49-0.24-.22-2.19.4-0.32-.22-0.54.29-0.39-.3c-0.35.11-.74,0.5-1.2,0a1.15,1.15,0,0,0-.63.11,32.51,32.51,0,0,1-4.43-.7L92.82,100A4.17,4.17,0,0,1,92,99.91a2.54,2.54,0,0,1-.58-0.33V99.23Z" transform="translate(-1.68 -1.29)"/><path class="cls-21" d="M105.84,66.35l0.86,1,0.82,0.94c-0.43.11-.27,0.43-0.18,0.65a8.62,8.62,0,0,1,.15,3.28,4,4,0,0,1-.69,1.86,7.67,7.67,0,0,1-3.92,3.11,9.91,9.91,0,0,1-2.42.24c-1.76.17-3.13-.72-4.49-1.62a1.92,1.92,0,0,1-.93-1.5,9.92,9.92,0,0,0,3.34.23,5.64,5.64,0,0,0,3.72-1.42,3.79,3.79,0,0,0,1-1,4,4,0,0,0,.78-2.45c0-.4,0-0.8,0-1.2-1.33-2.68-2.5-3.05-4.78-3.63V62.45a9,9,0,0,1,2.14-3.16V58.67h0.58l1.58,1.44h-0.39c-0.61,1.12-.21,2.34-0.28,3,0.39,2.06,1.91,2.51,2.87,3.6Z" transform="translate(-1.68 -1.29)"/><path class="cls-21" d="M129.6,70.54c0.63-.31,1.28-0.58,1.89-0.92a8.94,8.94,0,0,0,3.16-3,11.64,11.64,0,0,0,1.13-2.53,1.89,1.89,0,0,0,.07-0.57c0-.44,0-0.88,0-1.32a7.42,7.42,0,0,0-.93-4,0.55,0.55,0,0,1,.25,0,7.87,7.87,0,0,1,2.64,3,3.56,3.56,0,0,1,.43,1.74,7.12,7.12,0,0,1-.24,2.54,5.26,5.26,0,0,1-.93,1.65,9.36,9.36,0,0,1-3.34,2.6,10,10,0,0,1-1.77.65c-0.74.17-1.51,0.23-2.26,0.33Z" transform="translate(-1.68 -1.29)"/><path class="cls-21" d="M63.78,58.4a8.28,8.28,0,0,1-.43,1.23c-0.77,1.44-.52,3-0.42,4.48a6.26,6.26,0,0,0,1.24,2.95,9.41,9.41,0,0,0,3.72,3.13l1.33,0.64a7.53,7.53,0,0,1-4.51-.92,7.77,7.77,0,0,1-3.49-3.12,3.9,3.9,0,0,0-.38-1.65,4.73,4.73,0,0,1-.37-1.77,5,5,0,0,1,1.33-3.3c0.5-.57,1.1-1,1.62-1.57A1,1,0,0,1,63.78,58.4Z" transform="translate(-1.68 -1.29)"/><path class="cls-6" d="M121,53.63c-1,0-1.9.34-2.9,0.26a10.87,10.87,0,0,0-2.87,0,16.86,16.86,0,0,0-2.52.26c-0.83.3-1.67,0-2.47,0.39a12.71,12.71,0,0,1-2.24.65,33.13,33.13,0,0,0-4.15,1.27,1.87,1.87,0,0,1-.71,0c-1,0-1.92,0-2.87,0a5.52,5.52,0,0,0-1,.2,1,1,0,0,0-.41-0.2,16.06,16.06,0,0,1-4.42-.91c-0.85-.26-1.73-0.45-2.58-0.72a11.28,11.28,0,0,1-2.44-.75,0.55,0.55,0,0,0-.23,0A29.8,29.8,0,0,1,86,53.85a47.53,47.53,0,0,0-5.53-.24,9.61,9.61,0,0,0-1.7-.22A2.15,2.15,0,0,1,79.5,52a16,16,0,0,1,3.68-3.22,10.1,10.1,0,0,1,5-1.67h2.22V45.8a1,1,0,0,0-.2-0.2,12.15,12.15,0,0,0-4.07-.84c-0.36,0-.73.2-1.1,0.21a6.21,6.21,0,0,0-1.46.24,10.06,10.06,0,0,0-3.32,1.49,12,12,0,0,0-3.47,3.74,5,5,0,0,0-1,2.94H70.56a2.6,2.6,0,0,1,.22-1.22c0.18-.37-0.17-0.86.19-1.24A0.28,0.28,0,0,0,71,50.72c-0.17-1.06.26-2.07,0.25-3.13,0-2.39,0-4.78,0-7.17a0.67,0.67,0,0,1,.35,0,6,6,0,0,0,1.83,1.08,2.57,2.57,0,0,0,.7.14c-0.31-.46-0.58-0.81-0.8-1.19s-0.43-.86-0.65-1.29a8.76,8.76,0,0,1-1-3.79c0-.72,0-1.44,0-2.16a9.15,9.15,0,0,1,.95-3.8A14.12,14.12,0,0,1,74.14,27a11.49,11.49,0,0,1,3.15-2.9,10.26,10.26,0,0,1,6.12-1.7c0.2,0,.4,0,0.6,0,0.21,0.47.82,0.31,1.07,0.71a10.35,10.35,0,0,1,2.2.76,5.25,5.25,0,0,1,2.11.67c1.05-.11,2,0.57,3,0.5a13.12,13.12,0,0,0,1.34.25,1.46,1.46,0,0,1,1.23.2,1.39,1.39,0,0,0,.7,0c2.35,0,4.71.07,7.06,0,1,0,2-.28,3-0.38s2.09-.44,3.14-0.59a19.67,19.67,0,0,0,3.39-1,19.55,19.55,0,0,0,2.75-1.15,15,15,0,0,0,3.16-1.9,4.26,4.26,0,0,1,1-.67c0.15,0.16.29,0.33,0.45,0.48a4.24,4.24,0,0,1,.54.41,14,14,0,0,1,2.85,5.17,8.74,8.74,0,0,1,.49,3,10.8,10.8,0,0,0,0,1.68,11,11,0,0,1-.89,4.67,10.4,10.4,0,0,1-2,3.38,12.47,12.47,0,0,1-3.67,3A10.16,10.16,0,0,0,123.17,40a9.4,9.4,0,0,0,3.52-3,1.87,1.87,0,0,1-.16,1.36,1.33,1.33,0,0,0,0,.7c0,3.07,0,6.15,0,9.22a8.5,8.5,0,0,0,.23,1.46,7.7,7.7,0,0,0,.18,1.36,10.92,10.92,0,0,1,.3,2.51h-3.36a12.81,12.81,0,0,0-.84-2.41,12.11,12.11,0,0,0-2.73-3.52,13,13,0,0,0-3.33-2.09,19.75,19.75,0,0,0-3.6-.85,1.14,1.14,0,0,0-.82,0,2.91,2.91,0,0,1-1.35.23,6.53,6.53,0,0,0-2.16.76v1.39h2.77a2.36,2.36,0,0,1,.7,0A14.59,14.59,0,0,1,117.9,50,21.7,21.7,0,0,1,121,53.27,0.73,0.73,0,0,1,121,53.63Z" transform="translate(-1.68 -1.29)"/><path class="cls-22" d="M84,22.43c-0.2,0-.4,0-0.6,0a10.26,10.26,0,0,0-6.12,1.7A11.49,11.49,0,0,0,74.14,27a14.12,14.12,0,0,0-1.43,2.41,9.15,9.15,0,0,0-.95,3.8c0,0.72,0,1.44,0,2.16a8.76,8.76,0,0,0,1,3.79c0.22,0.43.41,0.87,0.65,1.29s0.49,0.73.8,1.19a2.57,2.57,0,0,1-.7-0.14,6,6,0,0,1-1.83-1.08,0.67,0.67,0,0,0-.35,0A0.55,0.55,0,0,0,71,39.81a8.9,8.9,0,0,1-2.88-3.22,17.22,17.22,0,0,1-1.34-3.16,0.61,0.61,0,0,1-.08-0.2c0.06-1-.4-2-0.25-3a14.36,14.36,0,0,1,1-3.92,12.11,12.11,0,0,1,2.44-3.78,11.72,11.72,0,0,1,5.12-3,10.68,10.68,0,0,1,4-.47c0.78,0.07,1.54.33,2.32,0.46a12.89,12.89,0,0,1,2.08.78,9.36,9.36,0,0,1,2.06,1.39v0.44c-0.37,0-.76,0-1.13.05A0.84,0.84,0,0,0,84,22.43Z" transform="translate(-1.68 -1.29)"/><path class="cls-23" d="M83,565a6,6,0,0,1-4.12,5.56,5.92,5.92,0,0,1-2.67.5c-2.74-.28-4.95-1.39-6-4.07a5.14,5.14,0,0,1-.24-3.23,6.29,6.29,0,0,1,1.76-3.11A6.91,6.91,0,0,1,74.92,559a5,5,0,0,1,1.7-.21,7.45,7.45,0,0,1,4.6,1.9A6,6,0,0,1,83,565Zm-5.69-1.36c-0.66-.91-0.76-2.09-1.46-2.91a0.51,0.51,0,0,0-.19,0c-0.36.57-.48,1.23-0.8,1.83a1.35,1.35,0,0,1-1.37,1H71.79c0,0.18,0,.26,0,0.33a15.26,15.26,0,0,1,2.16,1.23l-0.73,2.22,0.16,0.13L75.93,566c0.93,0.51,1.74,1,2.56,1.39a2,2,0,0,0,.54.09L78,565l2.31-1.34H77.36Z" transform="translate(-1.68 -1.29)"/><path class="cls-4" d="M49.44,563.39v1.38h1.44v-1.62a1.53,1.53,0,0,1,1,2.21,1.8,1.8,0,0,1-2,1.16,2,2,0,0,1-1.45-2.28C48.8,563.92,48.79,563.27,49.44,563.39Z" transform="translate(-1.68 -1.29)"/><path class="cls-3" d="M55.92,562.43v1.14h1.44v-1.14h0.37l0.65,1.3L57.77,565l-1.24.61-1.25-.6-0.61-1.28,0.65-1.3h0.6Z" transform="translate(-1.68 -1.29)"/><path class="cls-3" d="M62.16,561v1.38H63.6V561h0.6l0.65,1.3-0.61,1.27-1.24.61-1.25-.6-0.61-1.28L61.8,561h0.37Z" transform="translate(-1.68 -1.29)"/><path class="cls-4" d="M147.36,563.15v1.62h1.44v-1.38c0.66-.12.64,0.54,0.95,0.85a2,2,0,0,1-1.51,2.29,1.78,1.78,0,0,1-1.93-1.16A1.53,1.53,0,0,1,147.36,563.15Z" transform="translate(-1.68 -1.29)"/><path class="cls-3" d="M140.88,562.43v1.14h1.44v-1.14h0.6l0.65,1.3L143,565l-1.24.61-1.25-.6-0.61-1.28,0.65-1.3h0.37Z" transform="translate(-1.68 -1.29)"/><path class="cls-3" d="M134.64,561v1.38h1.44V561h0.37l0.65,1.3-0.61,1.26-1.24.61-1.25-.6-0.61-1.28L134,561h0.6Z" transform="translate(-1.68 -1.29)"/><path class="cls-24" d="M124.08,54.83h2.22c0.27,0.16.49,0.3,0.72,0.42A3.2,3.2,0,0,1,128.54,57a1,1,0,0,0,.72.74,3.87,3.87,0,0,1,.3,2.62,11.59,11.59,0,0,1-.67,3.19c-0.48.92-.94,1.85-1.48,2.75a8.21,8.21,0,0,1-2.74,2.39,5.73,5.73,0,0,1-1.92.54,9.88,9.88,0,0,1-1.34.24c-0.44,0-.88,0-1.32,0-2.36,0-4.71,0-7.07,0a3.74,3.74,0,0,1-2.65-.84,4.88,4.88,0,0,0-.68-0.36,3.8,3.8,0,0,1-1.52-1.54c-0.56-1.08-1.15-2.16-1.74-3.24a6.15,6.15,0,0,1-.6-3.34c0-.25.18-0.49,0.22-0.74a5.83,5.83,0,0,0,0-.84,22.47,22.47,0,0,1,2-1.76,3.11,3.11,0,0,1,1.57-.51,8.93,8.93,0,0,1,2.41-.27,8.7,8.7,0,0,0-.71.9,11.13,11.13,0,0,0-1.44,4.9,10.57,10.57,0,0,0,.46,3.39,6.1,6.1,0,0,0,1.76,3.21,8.7,8.7,0,0,0,1.29.81,3.39,3.39,0,0,0,3-1.83,10.52,10.52,0,0,0,1.39-5,11.84,11.84,0,0,0-.47-3.15,8.13,8.13,0,0,0-1.4-2.77c-0.47-.41-1-0.76-1.49-1.14a4.62,4.62,0,0,0,1.69-.23c0.51-.14,1.08.16,1.58-0.23a1.4,1.4,0,0,1,.7,0h3.46a23,23,0,0,1,1.77,4.37,2.12,2.12,0,0,0,.39-1.51C124.07,56.73,124.08,55.78,124.08,54.83Z" transform="translate(-1.68 -1.29)"/><path class="cls-24" d="M85,69.23c-1.84,0-3.67-.05-5.5,0a10.26,10.26,0,0,1-4-.77A5.42,5.42,0,0,1,72.9,66.6a10,10,0,0,1-1.46-2.38c-0.37-1.06-1-2-.88-3.23a4,4,0,0,1-.22-2.17,4.64,4.64,0,0,1,.5-1.93,7.39,7.39,0,0,1,1.6-1.57,9.19,9.19,0,0,1,1.18-.73h1.75c0,1.07,0,2.15,0,3.22a1.7,1.7,0,0,0,.39,1.28,1.64,1.64,0,0,0,.33-0.57,9.73,9.73,0,0,1,1.11-3,1.46,1.46,0,0,0,.34-0.93c1.15,0,2.31,0,3.46,0a20.15,20.15,0,0,1,3,.26,6.28,6.28,0,0,0,1.22.21,0.92,0.92,0,0,1-.66.55A3.89,3.89,0,0,0,83,57a10.47,10.47,0,0,0-1.42,4.56,3.73,3.73,0,0,0,0,1.89c0.26,0.58,0,1.26.43,1.74a5.93,5.93,0,0,0,1.71,3.25C84.14,68.8,84.71,68.77,85,69.23Z" transform="translate(-1.68 -1.29)"/><path class="cls-25" d="M85,69.23c-0.25-.46-0.82-0.43-1.17-0.78a5.93,5.93,0,0,1-1.71-3.25c-0.48-.48-0.17-1.16-0.43-1.74a3.73,3.73,0,0,1,0-1.89A10.47,10.47,0,0,1,83,57a3.89,3.89,0,0,1,1.51-1.38,0.92,0.92,0,0,0,.66-0.55h0.85l0.22,0.48h0.37A9.64,9.64,0,0,1,88.06,57a10.23,10.23,0,0,1,1.45,5A12,12,0,0,1,89,65.34,13.75,13.75,0,0,1,87.75,68a12.5,12.5,0,0,1-1.58,1.2A0.83,0.83,0,0,1,85,69.23Zm2.3-5.54a2.23,2.23,0,0,0,0-4,1.62,1.62,0,0,0-1.61.4,2.23,2.23,0,0,0,0,3.25A1.62,1.62,0,0,0,87.27,63.69Z" transform="translate(-1.68 -1.29)"/><path class="cls-25" d="M114.48,55.31c0.5,0.38,1,.73,1.49,1.14a8.13,8.13,0,0,1,1.4,2.77,11.84,11.84,0,0,1,.47,3.15,10.52,10.52,0,0,1-1.39,5,3.39,3.39,0,0,1-3,1.83,8.7,8.7,0,0,1-1.29-.81,6.1,6.1,0,0,1-1.76-3.21,10.57,10.57,0,0,1-.46-3.39,11.13,11.13,0,0,1,1.44-4.9,8.7,8.7,0,0,1,.71-0.9l0.24-.24,0.38-.22,0.22,0.21ZM116.9,62a2.58,2.58,0,0,0-.7-1.92,1.66,1.66,0,0,0-1.61-.41A2.39,2.39,0,0,0,113.28,62c0.39,0.77.5,1.53,1.32,1.67C115.89,64,116.43,63.14,116.9,62Z" transform="translate(-1.68 -1.29)"/><path class="cls-24" d="M86.16,69.23A12.5,12.5,0,0,0,87.75,68,13.75,13.75,0,0,0,89,65.34,12,12,0,0,0,89.52,62a10.23,10.23,0,0,0-1.45-5,9.64,9.64,0,0,0-1.42-1.42,3.17,3.17,0,0,1,1.49.16c0.39,0.25,1-.15,1.3.32a3.57,3.57,0,0,1,1.57.25,2.3,2.3,0,0,1,.92.37c0.65,0.5,1.25,1.05,1.87,1.59,0.09,0.88.18,1.76,0.28,2.64a4,4,0,0,1-.55,2.29c-0.67,1.32-1.4,2.61-2.08,3.93a2.79,2.79,0,0,1-1.24.93c-0.65.43-1.34,0.8-2,1.21h-2Z" transform="translate(-1.68 -1.29)"/><path class="cls-25" d="M121,53.63a0.73,0.73,0,0,0,0-.35A21.7,21.7,0,0,0,117.9,50a14.59,14.59,0,0,0-5.43-2.8,2.36,2.36,0,0,0-.7,0H109V45.75a6.53,6.53,0,0,1,2.16-.76,2.91,2.91,0,0,0,1.35-.23,1.14,1.14,0,0,1,.82,0,19.75,19.75,0,0,1,3.6.85,13,13,0,0,1,3.33,2.09A12.11,12.11,0,0,1,123,51.22a12.81,12.81,0,0,1,.84,2.41h-1.52a1.32,1.32,0,0,0-1.08.23A3.59,3.59,0,0,1,121,53.63Z" transform="translate(-1.68 -1.29)"/><path class="cls-25" d="M75.84,53.39a5,5,0,0,1,1-2.94,12,12,0,0,1,3.47-3.74,10.06,10.06,0,0,1,3.32-1.49A6.21,6.21,0,0,1,85.08,45c0.37,0,.74-0.24,1.1-0.21a12.15,12.15,0,0,1,4.07.84,1,1,0,0,1,.2.2v1.35H88.23a10.1,10.1,0,0,0-5,1.67A16,16,0,0,0,79.5,52a2.15,2.15,0,0,0-.78,1.34H75.84Z" transform="translate(-1.68 -1.29)"/><path class="cls-24" d="M105.84,66.35l-0.2.36c-1-1.09-2.48-1.54-2.87-3.6,0.07-.66-0.33-1.88.28-3h0.39a10.93,10.93,0,0,0,.9,3.19c0.47,0.83.9,1.68,1.33,2.53A3.29,3.29,0,0,1,105.84,66.35Z" transform="translate(-1.68 -1.29)"/><path class="cls-25" d="M77.52,54.59a1.46,1.46,0,0,1-.34.93,9.73,9.73,0,0,0-1.11,3,1.64,1.64,0,0,1-.33.57,1.7,1.7,0,0,1-.39-1.28c0-1.07,0-2.15,0-3.22h2.16Z" transform="translate(-1.68 -1.29)"/><path class="cls-25" d="M124.08,54.83c0,1,0,1.91,0,2.86a2.12,2.12,0,0,1-.39,1.51,23,23,0,0,0-1.77-4.37h2.16Z" transform="translate(-1.68 -1.29)"/><path class="cls-24" d="M112.32,55.79l-0.24.24Z" transform="translate(-1.68 -1.29)"/><path class="cls-11" d="M154.28,230.51a2.4,2.4,0,0,1-1.61-2.72,3.17,3.17,0,0,1,1.53-1.59h6.69a2.93,2.93,0,0,1,1.59,1.67,2.2,2.2,0,0,1-.73,2.08,2,2,0,0,1-1.44.57C158.27,230.49,156.24,230.51,154.28,230.51Z" transform="translate(-1.68 -1.29)"/><path class="cls-11" d="M37.81,231c-1.37-.88-1.56-1.2-1.56-2.68A2.82,2.82,0,0,1,38,226.68h6.54a2.92,2.92,0,0,1,1.59,1.67,2.2,2.2,0,0,1-.73,2.07,2.05,2.05,0,0,1-1.44.58C41.87,231,39.84,231,37.81,231Z" transform="translate(-1.68 -1.29)"/><path class="cls-18" d="M77.36,563.65H80.3L78,565l1,2.45a2,2,0,0,1-.54-0.09c-0.82-.43-1.63-0.88-2.56-1.39l-2.58,1.59-0.16-.13,0.73-2.22A15.25,15.25,0,0,0,71.76,564l0-.33h1.75a1.35,1.35,0,0,0,1.37-1c0.32-.6.44-1.26,0.8-1.83a0.51,0.51,0,0,1,.19,0C76.6,561.56,76.7,562.74,77.36,563.65Z" transform="translate(-1.68 -1.29)"/><path class="cls-18" d="M120.89,563.67c0.64-1,.77-2.12,1.58-3a9.37,9.37,0,0,1,.79,1.83,1.53,1.53,0,0,0,1.19,1.19h2.17a2.07,2.07,0,0,1-.38.44c-0.65.36-1.3,0.69-1.94,1l0.83,2.41c-1.16-.32-1.81-1.2-2.85-1.54l-2.84,1.54-0.16-.14,1-2.41L118,563.67h2.89Z" transform="translate(-1.68 -1.29)"/><path class="cls-2" d="M130.56,258.83a11.25,11.25,0,0,0-2.78.54c-1,.17-1.89.64-2.86,0.88a0.89,0.89,0,0,0-.66.69,1.4,1.4,0,0,0-1,.75,0.64,0.64,0,0,1-.36.27,8.52,8.52,0,0,0-1.42.61,3.58,3.58,0,0,1-1.31.63,2.55,2.55,0,0,0-1,.71,2.34,2.34,0,0,1-1.66.93,10.45,10.45,0,0,1-3.19,1.27,1.43,1.43,0,0,1-.29.16c-0.94-.07-1.83.29-2.78,0.27-2.92-.06-5.84,0-8.76,0a6.87,6.87,0,0,1-2.28-.28,15,15,0,0,1-3.77-1.62,12.09,12.09,0,0,1-4.31-5,7.9,7.9,0,0,1-.92-3.22,0.58,0.58,0,0,0-.23-0.19q0-1.56,0-3.12a0.47,0.47,0,0,0,.2-0.09,10.41,10.41,0,0,1,1.74-4.79,11.38,11.38,0,0,1,5-4.3A13.11,13.11,0,0,1,101,243c2.64-.41,5.29-0.09,7.93-0.2a27.51,27.51,0,0,1,2.87,0,12.21,12.21,0,0,1,5.27,1.43c0.49,0.28,1,.59,1.52.95a3.61,3.61,0,0,0,1.68-.95,7.31,7.31,0,0,0,4.5,2.95l2.47,5.55c0.15,0.34.31,0.67,0.48,1a35,35,0,0,0,1.79,3.68C129.81,257.87,130.2,258.34,130.56,258.83Z" transform="translate(-1.68 -1.29)"/><path class="cls-1" d="M165.36,235.07v-3.48c1-.17,7.9-0.22,11-0.08v3.4l0.3,0.3a16,16,0,0,0,2.61.38,38.35,38.35,0,0,1,4.19.85c1.18,0.34,2.37.63,3.54,1a16.59,16.59,0,0,1,7.65,5,4.26,4.26,0,0,1,1.19,3.22,10.49,10.49,0,0,1-.19,2.19,4.47,4.47,0,0,1-.86,1.55,14.57,14.57,0,0,1-4.34,3.66,26.94,26.94,0,0,1-5.24,2.09,33.31,33.31,0,0,1-3.62.85,7,7,0,0,0-1.78.3c-0.62.28-1.28-.05-1.85,0.16a4.78,4.78,0,0,1-1.5.22v4.42a108.65,108.65,0,0,1-11.08.1V235.07Z" transform="translate(-1.68 -1.29)"/><path class="cls-2" d="M165.36,235.07v20.88a4.69,4.69,0,0,1-1.7-.23c-0.51-.13-1.09.19-1.59-0.24a1.15,1.15,0,0,0-.59,0c-2.68,0-5.36,0-8,0a9.18,9.18,0,0,0-1.2.17l-0.11-.09-3.3.3-0.17-.16c-1,.45-2.12.07-3.14,0.26s-2.34.35-3.52,0.51a8.9,8.9,0,0,0-2.57.43,10.54,10.54,0,0,0,.25-2.18c-0.12-.76-0.18-1.52-0.27-2.25a10.29,10.29,0,0,1-1.14-2.19,17.35,17.35,0,0,0-.9-2,13.5,13.5,0,0,0-.94-2.12,1.72,1.72,0,0,1,.15-2.16,3.59,3.59,0,0,0,.5-3.33c-0.23-.75-0.81-1.26-1-2a3.64,3.64,0,0,1,1.83-.47A3.67,3.67,0,0,0,139,238a19.5,19.5,0,0,1,3.15-.5,0.58,0.58,0,0,0,.33-0.06c0.78-.58,1.78-0.24,2.6-0.66a6.32,6.32,0,0,0,1.69-.24,2.55,2.55,0,0,0,1.58-.23,0.58,0.58,0,0,1,.24,0c1.2-.08,2.41-0.15,3.61-0.24a6.22,6.22,0,0,1,1.34-.25,3.41,3.41,0,0,0,1.22-.19,10,10,0,0,1,2,0,7.29,7.29,0,0,0,1-.19l0.23,0.17a8.07,8.07,0,0,1,1.21-.2c1.71,0,3.43,0,5.14,0A1.4,1.4,0,0,0,165.36,235.07Z" transform="translate(-1.68 -1.29)"/><path class="cls-26" d="M136.08,238.67c0.2,0.72.78,1.23,1,2a3.59,3.59,0,0,1-.5,3.33,1.72,1.72,0,0,0-.15,2.16,13.5,13.5,0,0,1,.94,2.12,17.35,17.35,0,0,1,.9,2,10.29,10.29,0,0,0,1.14,2.19c0.08,0.73.14,1.49,0.27,2.25a10.54,10.54,0,0,1-.25,2.18,19.26,19.26,0,0,1-1.49,1.82,5.19,5.19,0,0,1-3.79,1.52,10,10,0,0,1-1.73-.33l-1.87-1.1c-0.37-.49-0.76-1-1.09-1.46a35,35,0,0,1-1.79-3.68c-0.17-.33-0.33-0.66-0.48-1l-2.47-5.55a7.31,7.31,0,0,1-4.5-2.95,4.2,4.2,0,0,1,.26-5.17,9.63,9.63,0,0,1,2-1.8,13.23,13.23,0,0,1,2.36-1,12.25,12.25,0,0,1,7.79.23A9.46,9.46,0,0,1,136.08,238.67Zm-1.92,1.55a11.89,11.89,0,0,0-1.9-1.58,9.32,9.32,0,0,0-3.34-.9,8.24,8.24,0,0,0-3.75.45,5.29,5.29,0,0,0-2.82,1.85,1.93,1.93,0,0,0-.43,1.49,3.85,3.85,0,0,0,1.88,2.38c0.31,0.2.74,0.27,1.11,0.49a2.29,2.29,0,0,0,1.2.25,5.87,5.87,0,0,1,1.22.25,19.74,19.74,0,0,0,3.36-.27s0.05-.07.09-0.08a6.19,6.19,0,0,0,3.36-2.23v-2.11Z" transform="translate(-1.68 -1.29)"/><path class="cls-27" d="M134.16,240.22v2.11a6.19,6.19,0,0,1-3.36,2.23s-0.06.08-.09,0.08a19.74,19.74,0,0,1-3.36.27,5.87,5.87,0,0,0-1.22-.25,2.29,2.29,0,0,1-1.2-.25c-0.37-.21-0.81-0.29-1.11-0.49a3.85,3.85,0,0,1-1.88-2.38,1.93,1.93,0,0,1,.43-1.49,5.29,5.29,0,0,1,2.82-1.85,8.24,8.24,0,0,1,3.75-.45,9.32,9.32,0,0,1,3.34.9A11.89,11.89,0,0,1,134.16,240.22Z" transform="translate(-1.68 -1.29)"/><path class="cls-2" d="M130.8,82.91c0,1-.07,2,0,3a15.93,15.93,0,0,1-.31,3.85A23.59,23.59,0,0,1,129,95.14a30,30,0,0,1-2.56,4.82,11,11,0,0,1-.86,1.2,20.67,20.67,0,0,1-2.13,2.35,27.8,27.8,0,0,1-4.19,3.18,24.62,24.62,0,0,1-5.47,2.44,1.08,1.08,0,0,0-.3.29v3.2H84.73c0-.5,0-1,0-1.59s0-1.11,0-1.67a3,3,0,0,0-.52-0.3,23.36,23.36,0,0,1-5.05-2.3c-1.25-.76-2.36-1.67-3.51-2.54a19.87,19.87,0,0,1-4.24-4.86,18.09,18.09,0,0,1-2.12-4.15,30.41,30.41,0,0,1-1.12-3.62c-0.22-1-.33-2-0.51-2.92a46.44,46.44,0,0,1-.2-5.79V74.1A2.48,2.48,0,0,0,67,73.79a6.6,6.6,0,0,1-2-1.15,7.87,7.87,0,0,0-1.35-.78,1.08,1.08,0,0,0-.18-0.52,12.58,12.58,0,0,1-2.21-2.17,14.79,14.79,0,0,1-2.38-3.71,6.7,6.7,0,0,1-.78-2.56c0-.48-0.22-0.95-0.24-1.46a11,11,0,0,1,.25-1.58,2.4,2.4,0,0,1,.67-1.29,2.2,2.2,0,0,0,.3-0.68,6.21,6.21,0,0,1,4.56-1.4,5.76,5.76,0,0,0,.84.23,7.44,7.44,0,0,1,2.48.8,3.15,3.15,0,0,0,.52.16l0.24,0.19c0.42,0.36,0,1,.47,1.36a14.67,14.67,0,0,0,1,3.2c0.36,1,.67,2,1.1,2.9a9.35,9.35,0,0,0,3.11,3.35,4.92,4.92,0,0,0,1.95.81,9.66,9.66,0,0,1,1.45.24,6.76,6.76,0,0,0,2.58.44c2.88,0,5.75,0,8.63,0a3.71,3.71,0,0,0,1.88-.4,2.42,2.42,0,0,1,.62-0.16c0.81-.81,1.58-1.62,2.4-2.39,1.59-1.49,2.32-3.48,3.17-5.4,0.38-.85.28-1.85,0.81-2.66a2.33,2.33,0,0,0,1-.76h3.46V59a9,9,0,0,0-2.14,3.16v2.38c2.28,0.58,3.45.94,4.78,3.63,0,0.4,0,.8,0,1.2a4,4,0,0,1-.78,2.45,3.79,3.79,0,0,1-1,1,5.64,5.64,0,0,1-3.72,1.42A9.92,9.92,0,0,1,95,74a1.92,1.92,0,0,0,.93,1.5c1.35,0.9,2.72,1.79,4.49,1.62a9.9,9.9,0,0,0,2.42-.24,7.67,7.67,0,0,0,3.92-3.11,4,4,0,0,0,.69-1.86,8.63,8.63,0,0,0-.15-3.28c-0.08-.22-0.25-0.54.18-0.65l2.09,1.91a1.1,1.1,0,0,1,.45,0,3.76,3.76,0,0,0,2.1.45c2,0,4,0,6,0,1,0,2,0,3,0a16.55,16.55,0,0,0,2.91-.54,4.86,4.86,0,0,0,2.48-.91c0.39-.31.75-0.67,1.17-1a7.14,7.14,0,0,0,2.11-2.68A16.93,16.93,0,0,0,130.7,63a20,20,0,0,0,.8-2.18,29.22,29.22,0,0,1,1-3.51,9.68,9.68,0,0,0,1.22-.3,3.43,3.43,0,0,0,.53-0.46,0.74,0.74,0,0,1,.35,0,8.38,8.38,0,0,1,2.19.2,4,4,0,0,1,1.42.64,4.31,4.31,0,0,0,.86.45,2.55,2.55,0,0,0,.47.87,3.2,3.2,0,0,1,.76,1.85,3.54,3.54,0,0,1-.09,2.08c-0.22.62-.28,1.3-0.51,1.95a19.35,19.35,0,0,1-1.37,2.79,16.93,16.93,0,0,1-2.49,3.16,5.76,5.76,0,0,1-1,.77,0.58,0.58,0,0,0-.25.62A28.48,28.48,0,0,1,130.8,74v8.87ZM117.45,94.09a6.06,6.06,0,0,0-1.9-2.52,18.86,18.86,0,0,0-3.11-1.74,19.11,19.11,0,0,0-3.34-1.21c-0.86-.18-1.73-0.44-2.59-0.68a22,22,0,0,1-2.68-.47c-1.26.18-2.48-.3-3.74-0.23a17.73,17.73,0,0,0-3.75.2,22.55,22.55,0,0,1-2.66.22,30.33,30.33,0,0,0-3.14.57,17.93,17.93,0,0,0-2.36.65c-0.82.33-1.67,0.59-2.46,1s-1.6.79-2.36,1.25A5.78,5.78,0,0,0,81,93.71a2.68,2.68,0,0,0-.1.56c0.64-.36,1.15-0.68,1.68-0.94a18.33,18.33,0,0,1,5-1.81c0.77-.13,1.53-0.35,2.31-0.51a11.44,11.44,0,0,1,2.46-.42,1.15,1.15,0,0,0,.59,0c0.54-.43,1.14-0.14,1.71-0.22a10,10,0,0,1,1.82-.23c2.24,0.09,4.5-.29,6.73.22,1.14-.17,2.24.33,3.38,0.24a0.61,0.61,0,0,1,.24,0,29.27,29.27,0,0,0,3.3.72c0.76,0.18,1.51.41,2.25,0.65a17.62,17.62,0,0,1,4.72,2.22A1,1,0,0,0,117.45,94.09ZM134.91,58a6.84,6.84,0,0,1,.94,3.88,5.79,5.79,0,0,0,0,1,5,5,0,0,1-.68,2.6,8.15,8.15,0,0,1-4,4c-0.53.23-1,.56-1.62,0.88a8.18,8.18,0,0,0,4.22-.85,6.52,6.52,0,0,0,2.17-1.43,17.66,17.66,0,0,0,1.61-1.83,3.87,3.87,0,0,0,.71-2.58,10.24,10.24,0,0,0-.15-2A7.27,7.27,0,0,0,135.16,58,0.56,0.56,0,0,0,134.91,58ZM69.13,70.53c-0.47-.22-0.94-0.43-1.4-0.66a8.87,8.87,0,0,1-3.52-3,6.78,6.78,0,0,1-1.33-4.24c0-.48,0-1,0-1.44a2.1,2.1,0,0,1,.21-1,13.2,13.2,0,0,0,.65-1.93,0.4,0.4,0,0,0-.2,0A13.22,13.22,0,0,0,62,59.63a11.44,11.44,0,0,0-1.15,1.69,4.1,4.1,0,0,0-.11,3c0.23,0.79.37,1.61,0.55,2.38A9.11,9.11,0,0,0,69.13,70.53Z" transform="translate(-1.68 -1.29)"/><path class="cls-8" d="M67.44,57.71a3.15,3.15,0,0,1-.52-0.16,7.44,7.44,0,0,0-2.48-.8,5.76,5.76,0,0,1-.84-0.23c0-8.92,0-17.83,0-26.75,0-.64.3-1.19,0.27-1.82a9,9,0,0,1,.4-1.74,21.11,21.11,0,0,1,1.58-4.63,18.27,18.27,0,0,1,1.84-3.07,13.88,13.88,0,0,1,2-2.53c0.33-.31.52-0.79,0.87-1.07a28.1,28.1,0,0,1,5.14-3.78,12,12,0,0,1,1.89-1c0.7-.2,1.31-0.75,2-0.9s1.34-.45,2.06-0.56a22,22,0,0,0,2.2-.47A14.16,14.16,0,0,1,87.5,8c7.56,0,15.11,0,22.67,0a0.59,0.59,0,0,1,.19.08,23,23,0,0,1-.13,3.46A6.14,6.14,0,0,1,109,14.51c-0.43.31-.89,0.59-1.28,0.93a18.29,18.29,0,0,1-4,2.49A24.68,24.68,0,0,1,100,19.48c-1.09.34-2.21,0.6-3.29,1-0.59.22-1.35,0-1.9,0.3a12.19,12.19,0,0,1-2,.39,11.23,11.23,0,0,1-3,.28c-1.39,0-2.79,0-4.18,0a0.67,0.67,0,0,1-.35,0,8.37,8.37,0,0,0-2.57-1.61,13.69,13.69,0,0,0-5-1,9.22,9.22,0,0,1-1.34.25,2.89,2.89,0,0,0-1.46.21,11.34,11.34,0,0,0-7.5,6.55,12.41,12.41,0,0,0-1,4.26A17.87,17.87,0,0,0,66.73,33a0.85,0.85,0,0,0,.08.2,17.24,17.24,0,0,0,1.34,3.16A8.9,8.9,0,0,0,71,39.57a0.55,0.55,0,0,1,.25.61c0,2.39,0,4.78,0,7.17,0,1.05-.42,2.06-0.25,3.13a0.28,0.28,0,0,1-.06.21c-0.36.38,0,.87-0.19,1.24a2.6,2.6,0,0,0-.22,1.22c-0.64,0-1.28,0-1.91,0s-1.2.19-1.95,0.31l-1.41.91v1.46L66,56.67l1.4,0.41v0.63Z" transform="translate(-1.68 -1.29)"/><path class="cls-8" d="M123.12,11.39A36.93,36.93,0,0,1,127,14.32a24.44,24.44,0,0,1,3.85,4.51A23.8,23.8,0,0,1,132.15,21c0.25,0.45.38,1,.58,1.43s0.51,1,.68,1.51a3.7,3.7,0,0,0,.51,1.46c0,1,.62,1.89.48,2.91a5.47,5.47,0,0,1,.23,2.65q0,11.79,0,23.58c-0.25-.16-0.51-0.31-0.75-0.48a5.05,5.05,0,0,0-2.67-.69c-1.34-.09-2.68,0-4,0a10.92,10.92,0,0,0-.3-2.51,7.7,7.7,0,0,1-.18-1.36,8.5,8.5,0,0,1-.23-1.46c0-3.07,0-6.15,0-9.22a1.33,1.33,0,0,1,0-.7,1.87,1.87,0,0,0,.16-1.36,9.4,9.4,0,0,1-3.52,3,10.16,10.16,0,0,1-6.09,1.58,12.47,12.47,0,0,0,3.67-3,10.4,10.4,0,0,0,2-3.38,11,11,0,0,0,.89-4.67,10.8,10.8,0,0,1,0-1.68,8.74,8.74,0,0,0-.49-3,14,14,0,0,0-2.85-5.17,4.24,4.24,0,0,0-.54-0.41c-0.16-.14-0.3-0.32-0.45-0.48a0.66,0.66,0,0,1,.24-0.62,11.58,11.58,0,0,0,1.7-1.91,9.43,9.43,0,0,0,1.54-3A8.85,8.85,0,0,0,123.12,11.39Z" transform="translate(-1.68 -1.29)"/><path class="cls-28" d="M127.2,53.39c1.34,0,2.69-.07,4,0a5.05,5.05,0,0,1,2.67.69c0.24,0.17.5,0.32,0.75,0.48v1.92a0.74,0.74,0,0,0-.35,0,3.43,3.43,0,0,1-.53.46,9.68,9.68,0,0,1-1.22.3,29.22,29.22,0,0,0-1,3.51,20,20,0,0,1-.8,2.18,16.93,16.93,0,0,1-.88,2.39A7.14,7.14,0,0,1,127.71,68c-0.41.28-.77,0.64-1.17,1a4.86,4.86,0,0,1-2.48.91,16.55,16.55,0,0,1-2.91.54c-1-.06-2,0-3,0-2,0-4,0-6,0a3.76,3.76,0,0,1-2.1-.45,1.1,1.1,0,0,0-.45,0L107.52,68l-0.82-.94-0.86-1a3.29,3.29,0,0,0-.17-0.52c-0.44-.85-0.86-1.7-1.33-2.53a10.93,10.93,0,0,1-.9-3.19l-1.58-1.44h-4a2.33,2.33,0,0,1-1,.76C96.28,60,96.38,61,96,61.85c-0.85,1.92-1.58,3.91-3.17,5.4-0.82.77-1.59,1.58-2.4,2.39a2.42,2.42,0,0,0-.62.16,3.71,3.71,0,0,1-1.88.4c-2.88,0-5.75,0-8.63,0a6.76,6.76,0,0,1-2.58-.44,9.66,9.66,0,0,0-1.45-.24,4.92,4.92,0,0,1-1.95-.81,9.35,9.35,0,0,1-3.11-3.35c-0.42-.93-0.74-1.93-1.1-2.9a14.67,14.67,0,0,1-1-3.2c-0.44-.36-0.05-1-0.47-1.36l-0.24-.19V57.08L66,56.67l-0.75-.84V54.37l1.41-.91c0.74-.12,1.34-0.26,1.95-0.31s1.27,0,1.91,0h5c1.28,0,2.55,0,3.83,0s2.49,0.15,3.73.23,2.74,0.07,4.08.28a15.59,15.59,0,0,0,1.94.21,0.77,0.77,0,0,1,.31.1c0.8,0.42,1.72.39,2.54,0.81a5.84,5.84,0,0,0,1.79.28l0.5,0.24a15,15,0,0,0,3.89,1l1.21,0.18a2.6,2.6,0,0,1,.62-0.17c0.83,0,1.67-.05,2.5,0a7.15,7.15,0,0,0,3-.73,14.86,14.86,0,0,0,2.39-.6c0.51-.06,1-0.31,1.52-0.4a8.55,8.55,0,0,1,1.6-.44,6.69,6.69,0,0,0,1.58-.2c0.78-.18,1.6,0,2.41-0.24a7.66,7.66,0,0,1,2.26,0c0.78,0,1.5-.3,2.29-0.27,2,0.07,3.91,0,5.86,0h1.68ZM86.88,55.31a1.85,1.85,0,0,0-.49-0.23c-0.27,0-.55,0-0.82,0a6.77,6.77,0,0,1-.85-0.23,11,11,0,0,1-2.29-.24H80.16a8.89,8.89,0,0,0-2.06.21c-0.7.17-1.44,0.07-2.17,0.24C75,55.25,74,55.55,73.1,55.72c-0.61.12-1,.68-1.66,0.55l-0.8.76a11.77,11.77,0,0,0-.29,1.54,4.39,4.39,0,0,0,.23,2.17c-0.15,1.2.51,2.17,0.88,3.23a9.93,9.93,0,0,0,1.46,2.38,5.4,5.4,0,0,0,2.56,1.87,10.24,10.24,0,0,0,4,.77c1.83-.07,3.67,0,5.51,0a0.83,0.83,0,0,0,1.2,0,7.76,7.76,0,0,1,1.19,0,3.15,3.15,0,0,0,1.91-.6,6.49,6.49,0,0,0,.94-0.61,3.1,3.1,0,0,0,1.24-.92c0.71-1.34,1.49-2.65,2.13-4a5.17,5.17,0,0,0,.53-2.18c0-.75-0.27-1.43-0.31-2.15a12.18,12.18,0,0,0-3.89-2.42A11.32,11.32,0,0,0,86.88,55.31Zm25,0.48a8.51,8.51,0,0,0-5.76,2.72,4.41,4.41,0,0,1,0,.68,3.6,3.6,0,0,0-.18.52,6.9,6.9,0,0,0,.13,2.18A13.8,13.8,0,0,0,108,66c0.19,1.12,1.08,1.61,1.91,2.17a5.81,5.81,0,0,0,3.51,1.1c2.31-.07,4.63,0,6.95,0,0.4,0,.8,0,1.2,0a8.73,8.73,0,0,0,1.22-.24,6.17,6.17,0,0,0,1.92-.55,7.82,7.82,0,0,0,2.8-2.49c0.51-.91,1-1.84,1.42-2.77a12.53,12.53,0,0,0,.64-3.09,3.72,3.72,0,0,0-.28-2.57c-0.86-.26-0.79-1.14-1.23-1.74-0.66-.2-1.36-0.45-2.08-0.61a14.22,14.22,0,0,0-3.23-.58c-1.12,0-2.24,0-3.35,0s-2.18.11-3.25,0.25a2.5,2.5,0,0,0-1.41.46,14.2,14.2,0,0,0-2.8.29A0.5,0.5,0,0,0,111.84,55.79Z" transform="translate(-1.68 -1.29)"/><path class="cls-29" d="M123.12,11.39a8.85,8.85,0,0,1-.35,2.59,9.43,9.43,0,0,1-1.54,3,11.58,11.58,0,0,1-1.7,1.91,0.66,0.66,0,0,0-.24.62,4.26,4.26,0,0,0-1,.67,15,15,0,0,1-3.16,1.9,19.55,19.55,0,0,1-2.75,1.15,19.67,19.67,0,0,1-3.39,1c-1.06.15-2.07,0.48-3.14,0.59s-2,.34-3,0.38c-2.35.1-4.71,0-7.06,0a1.39,1.39,0,0,1-.7,0,1.46,1.46,0,0,0-1.23-.2,13.12,13.12,0,0,1-1.34-.25c-1.05.07-2-.61-3-0.5a5.25,5.25,0,0,0-2.11-.67,10.35,10.35,0,0,0-2.2-.76c-0.25-.4-0.87-0.25-1.07-0.71A0.81,0.81,0,0,1,84.31,22c0.46,0,.92,0,1.37,0V21.47c1.39,0,2.79,0,4.18,0a11.23,11.23,0,0,0,3-.28,12.19,12.19,0,0,0,2-.39c0.55-.27,1.31-0.09,1.9-0.3,1.08-.4,2.2-0.65,3.29-1a24.68,24.68,0,0,0,3.66-1.55,18.29,18.29,0,0,0,4-2.49c0.39-.35.85-0.62,1.28-0.93a0.59,0.59,0,0,0,.45.71,12.63,12.63,0,0,0,1.33.25,8.9,8.9,0,0,0,3.24-.29,8.3,8.3,0,0,0,2.66-.77,19.29,19.29,0,0,1,1.87-.88A1.63,1.63,0,0,0,118.1,12a7.49,7.49,0,0,0-.52-0.73,11.91,11.91,0,0,0-2.26-2c-0.4-.21-0.69-0.65-1.1-0.81a2.52,2.52,0,0,1-.94-0.86c0.39-1.45.4-5-.23-6.17a1.48,1.48,0,0,1,1.2.16,19.3,19.3,0,0,1,3.51,1.92,13.69,13.69,0,0,1,3.53,3.29,10.39,10.39,0,0,1,1.12,1.82A5.93,5.93,0,0,1,123.12,11.39Z" transform="translate(-1.68 -1.29)"/><path class="cls-30" d="M113.28,7.55a2.52,2.52,0,0,0,.94.86c0.41,0.16.7,0.6,1.1,0.81a11.91,11.91,0,0,1,2.26,2,7.49,7.49,0,0,1,.52.73,1.63,1.63,0,0,1,.41,1.53,19.29,19.29,0,0,0-1.87.88,8.3,8.3,0,0,1-2.66.77,8.9,8.9,0,0,1-3.24.29,12.63,12.63,0,0,1-1.33-.25,0.59,0.59,0,0,1-.45-0.71,6.14,6.14,0,0,0,1.26-2.94,23,23,0,0,0,.13-3.46A0.59,0.59,0,0,0,110.16,8a9.41,9.41,0,0,0-.54-2.21A19.18,19.18,0,0,1,113.28,7.55Z" transform="translate(-1.68 -1.29)"/><path class="cls-17" d="M63.6,71.87a7.87,7.87,0,0,1,1.35.78,6.6,6.6,0,0,0,2,1.15,2.48,2.48,0,0,1,.44.31v8.81a0.94,0.94,0,0,1-.36-0.26c-0.38-1-1-1.78-1.42-2.77s-0.87-2.12-1.19-3.22a10.5,10.5,0,0,1-.64-2.86,9.16,9.16,0,0,0-.22-1A7.69,7.69,0,0,1,63.6,71.87Z" transform="translate(-1.68 -1.29)"/><path class="cls-17" d="M130.8,82.91V74a28.48,28.48,0,0,0,3.84-2.17,4.17,4.17,0,0,1-.12,1.39,6.59,6.59,0,0,0-.13,1.27,9.82,9.82,0,0,0-.42,1.26,19.18,19.18,0,0,1-1.58,4.62A6,6,0,0,1,130.8,82.91Z" transform="translate(-1.68 -1.29)"/><path class="cls-31" d="M117.45,94.09a1,1,0,0,1-.36.09A17.62,17.62,0,0,0,112.37,92c-0.74-.24-1.49-0.47-2.25-0.65a29.27,29.27,0,0,1-3.3-.72,0.61,0.61,0,0,0-.24,0c-1.14.09-2.23-.41-3.38-0.24-2.23-.51-4.49-0.14-6.73-0.22a10,10,0,0,0-1.82.23c-0.57.08-1.17-.21-1.71,0.22a1.15,1.15,0,0,1-.59,0,11.44,11.44,0,0,0-2.46.42c-0.77.16-1.54,0.37-2.31,0.51a18.33,18.33,0,0,0-5,1.81c-0.53.26-1,.58-1.68,0.94a2.68,2.68,0,0,1,.1-0.56,5.78,5.78,0,0,1,2.36-2.59c0.76-.46,1.57-0.84,2.36-1.25s1.64-.67,2.46-1a17.93,17.93,0,0,1,2.36-.65,30.33,30.33,0,0,1,3.14-.57,22.55,22.55,0,0,0,2.66-.22,17.73,17.73,0,0,1,3.75-.2c1.25-.07,2.47.41,3.74,0.23a22,22,0,0,0,2.68.47c0.86,0.25,1.72.51,2.59,0.68a19.11,19.11,0,0,1,3.34,1.21,18.86,18.86,0,0,1,3.11,1.74A6.06,6.06,0,0,1,117.45,94.09Z" transform="translate(-1.68 -1.29)"/><path class="cls-21" d="M105.84,66.11l0.86,1L107.52,68c-0.43.11-.27,0.43-0.18,0.65a8.63,8.63,0,0,1,.15,3.28,4,4,0,0,1-.69,1.86,7.67,7.67,0,0,1-3.92,3.11,9.9,9.9,0,0,1-2.42.24c-1.76.17-3.13-.72-4.49-1.62A1.92,1.92,0,0,1,95,74a9.92,9.92,0,0,0,3.34.23,5.64,5.64,0,0,0,3.72-1.42,3.79,3.79,0,0,0,1-1,4,4,0,0,0,.78-2.45c0-.4,0-0.8,0-1.2-1.33-2.68-2.5-3.05-4.78-3.63V62.21A9,9,0,0,1,101.28,59V58.43h0.58l1.58,1.44h-0.39c-0.61,1.12-.21,2.34-0.33,3.45,0.85,1.52,1,1.69,3,3.06Z" transform="translate(-1.68 -1.29)"/><path class="cls-32" d="M134.91,58a0.56,0.56,0,0,1,.25-0.06,7.27,7.27,0,0,1,2.93,3.75,10.24,10.24,0,0,1,.15,2,3.87,3.87,0,0,1-.71,2.58,17.66,17.66,0,0,1-1.61,1.83,6.52,6.52,0,0,1-2.17,1.43,8.18,8.18,0,0,1-4.22.85c0.59-.33,1.09-0.65,1.62-0.88a8.15,8.15,0,0,0,4-4,5,5,0,0,0,.68-2.6,5.79,5.79,0,0,1,0-1A6.84,6.84,0,0,0,134.91,58Z" transform="translate(-1.68 -1.29)"/><path class="cls-33" d="M69.13,70.53a9.11,9.11,0,0,1-7.87-3.84c-0.17-.77-0.31-1.58-0.55-2.38a4.1,4.1,0,0,1,.11-3A11.44,11.44,0,0,1,62,59.63a13.22,13.22,0,0,1,1.57-1.44,0.4,0.4,0,0,1,.2,0,13.2,13.2,0,0,1-.65,1.93,2.1,2.1,0,0,0-.21,1c0,0.48,0,1,0,1.44a6.78,6.78,0,0,0,1.33,4.24,8.87,8.87,0,0,0,3.52,3C68.19,70.1,68.66,70.31,69.13,70.53Z" transform="translate(-1.68 -1.29)"/><path class="cls-6" d="M84,22.19c0.21,0.47.82,0.31,1.07,0.71a10.35,10.35,0,0,1,2.2.76,5.25,5.25,0,0,1,2.11.67c1.05-.11,2,0.57,3,0.5a13.12,13.12,0,0,0,1.34.25,1.46,1.46,0,0,1,1.23.2,1.39,1.39,0,0,0,.7,0c2.35,0,4.71.07,7.06,0,1,0,2-.28,3-0.38s2.09-.44,3.14-0.59a19.67,19.67,0,0,0,3.39-1,19.55,19.55,0,0,0,2.75-1.15,15,15,0,0,0,3.16-1.9,4.26,4.26,0,0,1,1-.67c0.15,0.16.29,0.33,0.45,0.48a4.24,4.24,0,0,1,.54.41,14,14,0,0,1,2.85,5.17,8.74,8.74,0,0,1,.49,3,10.8,10.8,0,0,0,0,1.68,11,11,0,0,1-.89,4.67,10.4,10.4,0,0,1-2,3.38,12.47,12.47,0,0,1-3.67,3,10.16,10.16,0,0,0,6.09-1.58,9.4,9.4,0,0,0,3.52-3,1.87,1.87,0,0,1-.16,1.36,1.33,1.33,0,0,0,0,.7c0,3.07,0,6.15,0,9.22a8.5,8.5,0,0,0,.23,1.46,7.7,7.7,0,0,0,.18,1.36,10.92,10.92,0,0,1,.3,2.51h-1.68a1.55,1.55,0,0,0-.46-0.47c-1-.33-2-0.67-3-0.91s-2.17-.34-3.26-0.51a12.88,12.88,0,0,0-2.63,0,11.76,11.76,0,0,0-2.65.27,15.79,15.79,0,0,0-1.86.42c-0.58.24-1.24,0.28-1.83,0.51a8.39,8.39,0,0,0-4.26,2.87,7.15,7.15,0,0,1-3,.73c-0.83-.06-1.67,0-2.5,0a2.6,2.6,0,0,0-.62.17l-1.21-.18a15,15,0,0,1-3.89-1l-0.5-.24A3.51,3.51,0,0,0,92,53.65a18.6,18.6,0,0,0-3.78-1.3,22.26,22.26,0,0,0-4-.61,8.3,8.3,0,0,0-3.61.21,7.58,7.58,0,0,0-3.15.52c-0.6.16-1.37,0-1.8,0.68h-5a2.6,2.6,0,0,1,.22-1.22c0.18-.37-0.17-0.86.19-1.24A0.28,0.28,0,0,0,71,50.48c-0.17-1.06.26-2.07,0.25-3.13,0-2.39,0-4.78,0-7.17a0.67,0.67,0,0,1,.35,0,8.85,8.85,0,0,0,2.1,1.25,4.48,4.48,0,0,0-.18-0.77C73.3,40.1,73,39.54,72.73,39a9,9,0,0,1-1-3.92c0-.68,0-1.36,0-2a8.87,8.87,0,0,1,1-3.91,13.25,13.25,0,0,1,1.4-2.31,11.67,11.67,0,0,1,3.15-2.9,10.19,10.19,0,0,1,6-1.71C83.52,22.2,83.76,22.19,84,22.19Z" transform="translate(-1.68 -1.29)"/><path class="cls-22" d="M84,22.19c-0.24,0-.48,0-0.72,0a10.19,10.19,0,0,0-6,1.71,11.67,11.67,0,0,0-3.15,2.9,13.25,13.25,0,0,0-1.4,2.31,8.87,8.87,0,0,0-1,3.91c0,0.68,0,1.36,0,2a9,9,0,0,0,1,3.92c0.27,0.57.57,1.12,0.83,1.69a4.48,4.48,0,0,1,.18.77,8.85,8.85,0,0,1-2.1-1.25,0.67,0.67,0,0,0-.35,0A0.55,0.55,0,0,0,71,39.57a8.9,8.9,0,0,1-2.88-3.22,17.24,17.24,0,0,1-1.34-3.16,0.85,0.85,0,0,1-.08-0.2,17.87,17.87,0,0,1-.21-2.89,12.41,12.41,0,0,1,1-4.26A11.34,11.34,0,0,1,75,19.29a2.89,2.89,0,0,1,1.46-.21,9.22,9.22,0,0,0,1.34-.25,13.69,13.69,0,0,1,5,1,8.37,8.37,0,0,1,2.57,1.61,0.67,0.67,0,0,0,.35,0v0.45c-0.45,0-.91,0-1.37,0A0.81,0.81,0,0,0,84,22.19Z" transform="translate(-1.68 -1.29)"/><path class="cls-34" d="M114.72,55.31a2.5,2.5,0,0,1,1.41-.46c1.08-.14,2.17-0.21,3.25-0.25s2.24,0,3.35,0a14.22,14.22,0,0,1,3.23.58c0.72,0.16,1.42.41,2.08,0.61,0.44,0.6.37,1.48,1.23,1.74a3.72,3.72,0,0,1,.28,2.57,12.53,12.53,0,0,1-.64,3.09c-0.46.93-.9,1.86-1.42,2.77a7.82,7.82,0,0,1-2.8,2.49,6.17,6.17,0,0,1-1.92.55,8.73,8.73,0,0,1-1.22.24c-0.4,0-.8,0-1.2,0-2.32,0-4.63-.05-6.95,0a5.81,5.81,0,0,1-3.51-1.1c-0.84-.56-1.73-1-1.91-2.17a13.8,13.8,0,0,1-2-4.09,6.9,6.9,0,0,1-.13-2.18,3.6,3.6,0,0,1,.18-0.52,4.41,4.41,0,0,0,0-.68,8.51,8.51,0,0,1,5.76-2.72,6.9,6.9,0,0,1-.42.78,8.42,8.42,0,0,0-1.5,4.5,17.26,17.26,0,0,0,0,2c0.08,0.66.32,1.31,0.46,2a6.78,6.78,0,0,0,1.29,2.7A6,6,0,0,0,113.5,69a3,3,0,0,0,2.67-1.45,1.23,1.23,0,0,1,.7-0.86c-0.21-.21-0.41-0.41,0-0.58a0.68,0.68,0,0,0,.23-0.19,13.46,13.46,0,0,0,.71-3.17,12.91,12.91,0,0,0,0-1.67c0-.42-0.18-0.84-0.2-1.22a6.63,6.63,0,0,0-1-2.82A2.89,2.89,0,0,0,114.72,55.31Z" transform="translate(-1.68 -1.29)"/><path class="cls-34" d="M85,69c-1.84,0-3.67-.05-5.51,0a10.24,10.24,0,0,1-4-.77,5.4,5.4,0,0,1-2.56-1.87A9.93,9.93,0,0,1,71.44,64c-0.36-1.06-1-2-.88-3.23a4.39,4.39,0,0,1-.23-2.17A11.77,11.77,0,0,1,70.63,57l0.8-.76c0.62,0.12,1.06-.44,1.66-0.55C74,55.55,75,55.25,75.92,55c0.73-.17,1.48-0.08,2.17-0.24a8.89,8.89,0,0,1,2.06-.21h2.27a11,11,0,0,0,2.29.24v0.33a4.8,4.8,0,0,0-1.36,1A7.84,7.84,0,0,0,82,58.86a9.34,9.34,0,0,0-.4,2.2,12.87,12.87,0,0,0,.2,2.79c0.14,0.48.14,1.06,0.3,1.56a6.8,6.8,0,0,0,1.69,2.78A4.53,4.53,0,0,1,85,69Z" transform="translate(-1.68 -1.29)"/><path class="cls-35" d="M86.88,55.31a11.32,11.32,0,0,1,3,.78,12.18,12.18,0,0,1,3.89,2.42c0,0.73.32,1.41,0.31,2.15a5.17,5.17,0,0,1-.53,2.18c-0.65,1.37-1.43,2.68-2.13,4a3.1,3.1,0,0,1-1.24.92,6.49,6.49,0,0,1-.94.61,3.15,3.15,0,0,1-1.91.6,7.76,7.76,0,0,0-1.19,0l0.29-.24A1.57,1.57,0,0,0,87.36,68l0.24-.24c0.49,0,.06-0.55.34-0.7,0.4,0,.39-0.22.38-0.5a0.42,0.42,0,0,0,.2-0.09,11,11,0,0,0,1-4c0-.47,0-1,0-1.43a3.08,3.08,0,0,0-.21-1.22c-0.15-.35-0.09-0.79-0.25-1.2A6.1,6.1,0,0,0,87,55.51,0.49,0.49,0,0,1,86.88,55.31Z" transform="translate(-1.68 -1.29)"/><path class="cls-36" d="M87.36,68a1.57,1.57,0,0,1-.91.72L86.16,69A0.83,0.83,0,0,1,85,69a4.53,4.53,0,0,0-1.17-.78,6.8,6.8,0,0,1-1.69-2.78c-0.16-.5-0.16-1.08-0.3-1.56a12.87,12.87,0,0,1-.2-2.79h4.06c0.44,0,.88,0,1.31,0a4.61,4.61,0,0,1,1.39.1,2.79,2.79,0,0,0,1.16-.11c0,0.48,0,1,0,1.43a11,11,0,0,1-1,4,0.42,0.42,0,0,1-.2.09,0.33,0.33,0,0,1-.12,0,0.22,0.22,0,0,1-.08-0.08,0.82,0.82,0,0,0,0-1.11,1,1,0,0,1,0-.43,4.43,4.43,0,0,0-.41-0.35c-0.21-.15-0.45-0.27-0.71-0.42-1.37,0-1.55.21-2.1,1.36A2.11,2.11,0,0,0,85,67.07a1.32,1.32,0,0,0,.78.75A3.77,3.77,0,0,0,87.36,68Z" transform="translate(-1.68 -1.29)"/><path class="cls-37" d="M89.52,61.07a2.79,2.79,0,0,1-1.16.11,4.61,4.61,0,0,0-1.39-.1c-0.43,0-.87,0-1.31,0H81.6a9.34,9.34,0,0,1,.4-2.2,7.84,7.84,0,0,1,1.36-2.74,4.8,4.8,0,0,1,1.36-1V54.83a6.77,6.77,0,0,0,.85.23c0.27,0,.55,0,0.82,0a1.85,1.85,0,0,1,.49.23,0.49,0.49,0,0,0,.09.2,6.1,6.1,0,0,1,2.09,3.14c0.16,0.41.1,0.85,0.25,1.2A3.08,3.08,0,0,1,89.52,61.07Z" transform="translate(-1.68 -1.29)"/><path class="cls-37" d="M109.92,61.07a8.42,8.42,0,0,1,1.5-4.5,6.9,6.9,0,0,0,.42-0.78,0.5,0.5,0,0,1,.08-0.19,14.2,14.2,0,0,1,2.8-.29A2.89,2.89,0,0,1,116.64,57a6.63,6.63,0,0,1,1,2.82c0,0.38.2,0.79,0.2,1.22h-7.92Z" transform="translate(-1.68 -1.29)"/><path class="cls-38" d="M105.6,55.55a8.39,8.39,0,0,1,4.26-2.87c0.59-.23,1.25-0.27,1.83-0.51a15.79,15.79,0,0,1,1.86-.42,11.76,11.76,0,0,1,2.65-.27,12.88,12.88,0,0,1,2.63,0c1.09,0.18,2.19.25,3.26,0.51s2,0.58,3,.91a1.55,1.55,0,0,1,.46.47c-2,0-3.91,0-5.86,0-0.79,0-1.51.31-2.29,0.27a7.66,7.66,0,0,0-2.26,0c-0.82.21-1.64,0.06-2.41,0.24a6.69,6.69,0,0,1-1.58.2,8.55,8.55,0,0,0-1.6.44c-0.53.09-1,.33-1.52,0.4A14.86,14.86,0,0,1,105.6,55.55Z" transform="translate(-1.68 -1.29)"/><path class="cls-39" d="M75.6,53.15c0.43-.65,1.2-0.52,1.8-0.68a7.58,7.58,0,0,1,3.15-.52,8.3,8.3,0,0,1,3.61-.21,22.26,22.26,0,0,1,4,.61A18.6,18.6,0,0,1,92,53.65a3.51,3.51,0,0,1,1.86,1.41A5.84,5.84,0,0,1,92,54.78c-0.82-.42-1.74-0.39-2.54-0.81a0.77,0.77,0,0,0-.31-0.1,15.59,15.59,0,0,1-1.94-.21c-1.34-.21-2.72-0.2-4.08-0.28s-2.49-.19-3.73-0.23S76.88,53.15,75.6,53.15Z" transform="translate(-1.68 -1.29)"/><path class="cls-35" d="M105.84,66.11l-0.15.27c-2-1.37-2.12-1.54-3-3.06,0.12-1.1-.28-2.32.33-3.45h0.39a10.93,10.93,0,0,0,.9,3.19c0.47,0.83.9,1.68,1.33,2.53A3.29,3.29,0,0,1,105.84,66.11Z" transform="translate(-1.68 -1.29)"/><path class="cls-39" d="M109.92,61.07h7.92a12.91,12.91,0,0,1,0,1.67,13.46,13.46,0,0,1-.71,3.17,0.68,0.68,0,0,1-.23.19,3.58,3.58,0,0,0-.55-1.61l-1.25-.6-1.3.63a10.12,10.12,0,0,0-.51,1.34,10,10,0,0,0,.55,1.41,3,3,0,0,0,2.22.28h0.12A3,3,0,0,1,113.5,69a6,6,0,0,1-1.8-1.23,6.78,6.78,0,0,1-1.29-2.7c-0.14-.66-0.38-1.3-0.46-2A17.26,17.26,0,0,1,109.92,61.07Z" transform="translate(-1.68 -1.29)"/><path class="cls-40" d="M116.16,67.55H116a3,3,0,0,1-2.22-.28,10,10,0,0,1-.55-1.41,10.12,10.12,0,0,1,.51-1.34l1.3-.63,1.25,0.6a3.58,3.58,0,0,1,.55,1.61c-0.43.17-.23,0.38,0,0.58A1.23,1.23,0,0,0,116.16,67.55Z" transform="translate(-1.68 -1.29)"/><path class="cls-41" d="M87.36,68a3.77,3.77,0,0,1-1.59-.21A1.32,1.32,0,0,1,85,67.07a2.11,2.11,0,0,1-.13-1.51c0.55-1.15.74-1.37,2.1-1.36,0.26,0.16.5,0.28,0.71,0.42a4.43,4.43,0,0,1,.41.35,1,1,0,0,0,0,.43,0.82,0.82,0,0,1,0,1.11,0.22,0.22,0,0,0,.08.08,0.33,0.33,0,0,0,.12,0c0,0.28,0,.54-0.38.5-0.29.15,0.15,0.65-.34,0.7Z" transform="translate(-1.68 -1.29)"/><path class="cls-36" d="M87.36,68l0.24-.24Z" transform="translate(-1.68 -1.29)"/></svg>