<svg id="gesicht_Bild" data-name="gesicht Bild" xmlns="http://www.w3.org/2000/svg" viewBox="0 0 195.02 567.73"><defs><style>.cls-1{fill:#3a3205;}.cls-2{fill:#dfaf89;}.cls-3{fill:#803a3a;}.cls-4{fill:#c75959;}.cls-5{fill:#b48d6e;}.cls-6{fill:#25170c;}.cls-7{fill:#564500;}.cls-8{fill:#b58e6e;}.cls-9{fill:#282102;}.cls-10{fill:#b29e4b;}.cls-11{fill:#dfaf88;}.cls-12{fill:#fff;}.cls-13{fill:#232323;}.cls-14{fill:#d0d0d0;}.cls-15{fill:#b2b2b2;}.cls-16{fill:#c6c6c6;}.cls-17{fill:#161616;}.cls-18{fill:#f7f7f7;}.cls-19{fill:#e8e8e8;}.cls-20{fill:#efefef;}.cls-21{fill:#17171e;}.cls-22{fill:#294f66;}.cls-23{fill:#67b1e8;}.cls-24{fill:#183e56;}.cls-25{fill:#5f71e0;}.cls-26{fill:#31375a;}.cls-27{fill:#6d4608;}.cls-28{fill:none;}.cls-29{fill:#5d7df4;}.cls-30{fill:#332a05;}</style></defs><title>mann_1</title><path class="cls-1" d="M134.93,68.86c-5,2.9-10.95,4.69-15.94,7.6-1.8,1-4.53,1.29-7.07,2V117.5c3.68-4.49,7.26-7.84,9.31-11.61,2.82-5.19,6.33-10.2,8.14-15.73a47.43,47.43,0,0,1,2.57-7c1.1-2.15,2-4.4,1.6-6.8-0.07-.4.89-0.88,1.38-1.33Q134.93,72,134.93,68.86Z" transform="translate(-0.03 -6.74)"/><path class="cls-1" d="M60.25,67.45c5,2.9,11,4.69,16,7.6,1.81,1,4.56,1.29,7.1,2v39.09c-3.7-4.49-7.3-7.84-9.36-11.61-2.83-5.19-6.37-10.2-8.19-15.73a47.26,47.26,0,0,0-2.59-7c-1.1-2.15-2-4.4-1.61-6.8,0.07-.4-0.9-0.88-1.38-1.33V67.45Z" transform="translate(-0.03 -6.74)"/><path class="cls-2" d="M87.15,14.85h20.4a0.59,0.59,0,0,0,0,.12c0.26,0,.53.07,0.79,0.13a4.51,4.51,0,0,0,.86.23,13.21,13.21,0,0,1,3.7.93,25.34,25.34,0,0,1,4.64,2.14,34.59,34.59,0,0,1,4.55,3.46,14.11,14.11,0,0,1,1.12,1.32,17.63,17.63,0,0,1,3,4.38,23.55,23.55,0,0,1,1.82,4.53,19,19,0,0,1,.77,3.49c0.1,1.2.31,2.4,0.3,3.61q0,8.28,0,16.55a6.6,6.6,0,0,0,.08.7l2-.88a1.06,1.06,0,0,1,.41-0.16,18.26,18.26,0,0,1,4.11.21,3.5,3.5,0,0,1,1.72,1.07,11.23,11.23,0,0,1,.76,1.11,14.44,14.44,0,0,1,.25,2.07,8.37,8.37,0,0,1-.21,2.19,7,7,0,0,1-.65,2c-0.44.55-.33,1.42-1,1.87s-0.37,1.49-1.22,1.52a3.48,3.48,0,0,1-.46.88,24.72,24.72,0,0,1-2.54,2.28c-1,.74-2.16,1.32-3.34,2V73c0,2.28,0,4.56,0,6.84a39.56,39.56,0,0,1-.21,6.74c-0.15.75,0.14,1.56-.26,2.3a11.87,11.87,0,0,1-.85,3.73,20.87,20.87,0,0,1-2.63,5.5,11.2,11.2,0,0,1-1.84,2.36c-0.76.7-1.16,1.76-2.19,2.19a17.15,17.15,0,0,1-3.74,2.82,25.76,25.76,0,0,1-4.32,2,21.47,21.47,0,0,1-2.81.77,11.21,11.21,0,0,1-1.86.44c-0.69,0-1.37.22-2.06,0.22q-8.88,0-17.75,0c-1,0-1.93-.15-2.9-0.24a2.55,2.55,0,0,1-.29-0.16,5.28,5.28,0,0,1-1.3-.34c-0.48-.28-1-0.05-1.45-0.28-1.18-.63-2.48-1-3.66-1.61a28.8,28.8,0,0,1-3.63-2.25c-0.53-.41-1-0.89-1.5-1.29a12.77,12.77,0,0,1-3.08-3.26c-0.56-.76-1.09-1.53-1.58-2.35a17.32,17.32,0,0,1-1.53-3.09c-0.26-.73-0.61-1.43-1-2.25a7.44,7.44,0,0,0-.15-1A15.11,15.11,0,0,1,66.05,89a19.37,19.37,0,0,1-.25-3c0-4.2,0-8.4,0-12.6V72.47c-1.21,0-1.76-1.17-2.93-1.28l-4.56-4.6a0.89,0.89,0,0,0-.15-0.69A13.88,13.88,0,0,1,56.65,63c-0.18-.34-0.09-0.71-0.24-1-0.44-.8-0.1-1.63-0.22-2.43a4.43,4.43,0,0,1,.69-2.23,3.28,3.28,0,0,1,2-1.75,6.27,6.27,0,0,1,2.54-.24,3.73,3.73,0,0,1,1.19,0,7,7,0,0,0,1,.23,5.79,5.79,0,0,1,.79.4c0.41,0.14.85,0.22,1.36,0.35V55.75c0-6.12,0-12.24,0-18.35A26.54,26.54,0,0,1,66,34.74c0-.1.16-0.18,0.18-0.28a4.51,4.51,0,0,1,.32-1.3,8.74,8.74,0,0,0,.29-1.45,57.34,57.34,0,0,1,2.53-5.32,36.48,36.48,0,0,1,3.25-4.28,19.24,19.24,0,0,1,1.58-1.37,21,21,0,0,1,4.58-3.14A18.1,18.1,0,0,1,83,15.88a15.3,15.3,0,0,1,4-.79A0.58,0.58,0,0,0,87.15,14.85Z" transform="translate(-0.03 -6.74)"/><path class="cls-3" d="M88.17,88.52a16.65,16.65,0,0,1-2-.69,17.63,17.63,0,0,1-2.32-1.13,6.18,6.18,0,0,1-1.53-1.27,0.22,0.22,0,0,1,0-.22c0.93,0,1.84,0,2.78.08s2.1,0,3.19.07c1.46,0.07,2.91.11,4.34,0.13s2.79,0.11,4.14.1c0.79,0,1.7.08,2.52,0.09,1.37,0,2.79.11,4.15,0.1,0.84,0,1.76.08,2.61,0.09,1.17,0,2.38.09,3.54,0.08,0.81,0-4.38-.11-3.54-0.08l8.05,0.22L115,86.15c-0.15.3,0.22,0.62,0,.89a0.3,0.3,0,0,1,.1.47,4,4,0,0,1-.79,1,6.72,6.72,0,0,1-1.71.91c-0.5.17-1,.34-1.56,0.48a14.2,14.2,0,0,1-2.24.11,1.12,1.12,0,0,0-.72.14c-0.71.07-1.43,0.11-2.18,0.14l-0.19,0a1.46,1.46,0,0,0-.61-0.67,7.17,7.17,0,0,0-2-1.07,23,23,0,0,0-2.55-.73c-0.33-.08-0.71-0.1-1.06-0.16s-0.65-.14-1-0.21a1.51,1.51,0,0,0-.38-0.05,2.87,2.87,0,0,1-.91-0.06c-0.49,0-1-.13-1.48-0.13a30.76,30.76,0,0,0-3.42.09,11.89,11.89,0,0,0-2.86.54A2.64,2.64,0,0,0,88.17,88.52Z" transform="translate(-0.03 -6.74)"/><path class="cls-4" d="M88.11,88.51a2.64,2.64,0,0,1,1.27-.7,11.89,11.89,0,0,1,2.86-.54,30.76,30.76,0,0,1,3.42-.09c0.46,0,1,.08,1.48.13a2.87,2.87,0,0,0,.91.06,1.51,1.51,0,0,1,.38.05c0.33,0.07.65,0.15,1,.21s0.74,0.08,1.06.16a23,23,0,0,1,2.55.73,7.17,7.17,0,0,1,2,1.07,1.46,1.46,0,0,1,.61.67l0,0.11a1.68,1.68,0,0,0-.83.11c-1-.09-1.93,0-2.92,0s-1.89,0-2.86,0l-0.29-.12c-0.3,0-.6,0-0.92,0s-0.7-.1-1.06-0.14L95.6,90l-0.18-.08-0.48,0-0.28-.12a2,2,0,0,1-.92-0.11,4.44,4.44,0,0,0-.78-0.08,5.19,5.19,0,0,0-1.06-.21c-0.36-.06-0.87,0-1.21-0.14A6.6,6.6,0,0,0,89.52,89l-0.37-.21A2.18,2.18,0,0,1,88.11,88.51Z" transform="translate(-0.03 -6.74)"/><path class="cls-5" d="M101.07,59.2c0,0.56,0,1.12,0,1.68a3.3,3.3,0,0,0,1.52,3.07c0.4,0.3.76,0.65,1.28,1.05l0.46,0a4.48,4.48,0,0,1,1.56,3.63q0,0.6,0,1.2a5.58,5.58,0,0,1-1.18,3.23,7,7,0,0,1-3.84,2.59,2.12,2.12,0,0,1-.66.14c-0.52,0-1,0-1.56,0a6.14,6.14,0,0,1-3.7-1.21,3.55,3.55,0,0,1-1.5-1.52,1.54,1.54,0,0,1,0-.42,7.54,7.54,0,0,0,1,.25,9.42,9.42,0,0,0,1.08,0h1.08a6.72,6.72,0,0,0,4-1.42,7.22,7.22,0,0,0,1.76-2.36c0-.43,0-0.95,0-1.47a3.71,3.71,0,0,0-1.57-2.92c-0.31-.22-0.61-0.47-0.9-0.71a7.71,7.71,0,0,0-2.33-.8c0-.67,0-1.41,0-2.16a1.89,1.89,0,0,1,.21-0.51,8.31,8.31,0,0,1,1.68-2.66c0.64-.71,1.16-1.52,1.68-2.23l1.67-.33V57C102.19,57.63,101.32,58.12,101.07,59.2Z" transform="translate(-0.03 -6.74)"/><path class="cls-6" d="M82.57,54.11a2.6,2.6,0,0,1,2.67,0c0.26,0.37.83,0.76,1.23,1.37a8.11,8.11,0,0,1,1.21,3.35c0.13,0.81.14,1.61,0.21,2.42a4,4,0,0,1-.25,1.22,2.4,2.4,0,0,1-.22,1.24,9.56,9.56,0,0,0-.31,1.18A11.21,11.21,0,0,1,86,66.49a9.73,9.73,0,0,1-.84.85,4,4,0,0,1-2.53,0c-0.37-.52-0.9-0.91-1.29-1.48a8.06,8.06,0,0,1-1.21-3.35C80,61.72,80,60.92,79.94,60.11a4,4,0,0,1,.25-1.22,2.4,2.4,0,0,1,.22-1.24,9.56,9.56,0,0,0,.31-1.18,11.21,11.21,0,0,1,1.09-1.58A8.2,8.2,0,0,1,82.57,54.11Zm2.05,8a1.73,1.73,0,0,0,1.61-.42,2.59,2.59,0,0,0,.68-2l-0.64-1.24c-1.17-.58-1.28-0.57-2.35,0l-0.62,1.21A2.41,2.41,0,0,0,84.62,62.13Z" transform="translate(-0.03 -6.74)"/><path class="cls-6" d="M113.48,54c0.36,0.53.92,0.9,1.3,1.47A8.33,8.33,0,0,1,116,58.83a14,14,0,0,1,.2,2.3,16.32,16.32,0,0,1-.74,3.76,11.68,11.68,0,0,1-1.09,1.58,9.73,9.73,0,0,1-.84.85,4.17,4.17,0,0,1-2.54.05c-0.36-.53-0.92-0.9-1.3-1.47a8.33,8.33,0,0,1-1.21-3.35,14,14,0,0,1-.2-2.3,16.32,16.32,0,0,1,.74-3.76,11.67,11.67,0,0,1,1.09-1.58,9.73,9.73,0,0,1,.84-0.85A4.17,4.17,0,0,1,113.48,54Zm-1.85,6.52c0.43,0.6.47,1.42,1.33,1.55,1.33,0.07,1.33.07,2.25-1.47a2.6,2.6,0,0,0-.66-2.13,1.66,1.66,0,0,0-1.61-.41A2.47,2.47,0,0,0,111.63,60.52Z" transform="translate(-0.03 -6.74)"/><path class="cls-7" d="M92.7,55l-0.58,1.22c-0.53-.25-1.06-0.49-1.59-0.75a9.77,9.77,0,0,0-5.83-.8,12.56,12.56,0,0,0-3.59.91,20.85,20.85,0,0,0-5,2.88c-0.84.72-1.6,1.53-2.4,2.31A1.64,1.64,0,0,1,74,59.3c0.35-.76.73-1.51,1.07-2.28a8.2,8.2,0,0,1,1.72-2.22,15.7,15.7,0,0,1,3.56-2.5,17,17,0,0,1,3.12-.77,9.14,9.14,0,0,1,2.33-.1,8.63,8.63,0,0,1,2,.36c0.31,0.12.67,0.11,1,.22s0.65,0.31,1,.45a13.17,13.17,0,0,1,2.88,2.32A0.88,0.88,0,0,1,92.7,55Z" transform="translate(-0.03 -6.74)"/><path class="cls-7" d="M123.61,58.76a23.77,23.77,0,0,0-2.67-2,12.53,12.53,0,0,0-2.75-1.25,20.21,20.21,0,0,0-3.91-1.1,13.51,13.51,0,0,0-4.18,0,8.54,8.54,0,0,0-4,1.51c-0.47.36-1,.67-1.5,1l-0.77-1.13c0-.69.88-1,1-1.65,0.85-.55,1.41-1.46,2.36-1.89a9.32,9.32,0,0,1,2.29-.93,7.71,7.71,0,0,1,2.43-.35c0.49,0.08,1-.13,1.57,0s0.92,0,1.35.11A11.28,11.28,0,0,1,119.29,53c0.35,0.27.75,0.48,1.09,0.76,1.31,1.07,2,2.62,3,3.95A3.49,3.49,0,0,1,123.61,58.76Z" transform="translate(-0.03 -6.74)"/><path class="cls-5" d="M133.36,56.61A5.73,5.73,0,0,1,135,58a13,13,0,0,1,1.18,1.67,4.25,4.25,0,0,1,.42,1.86,8.48,8.48,0,0,1-.12,2.11,5.85,5.85,0,0,1-1.35,2.33,9.18,9.18,0,0,1-3,2.26A7.6,7.6,0,0,1,128,69c0.52-.29,1-0.6,1.53-0.84a8.14,8.14,0,0,0,4-4,5.13,5.13,0,0,0,.69-2.71,6.23,6.23,0,0,1,0-1.08A8.75,8.75,0,0,0,133.36,56.61Z" transform="translate(-0.03 -6.74)"/><path class="cls-8" d="M67.49,69.29a8.22,8.22,0,0,1-4.5-1,9.39,9.39,0,0,1-3.45-3,2.78,2.78,0,0,0-.34-1.7,4.54,4.54,0,0,1,.36-4.34,7.58,7.58,0,0,1,1.1-1.46,14,14,0,0,1,1.6-1.18,18.65,18.65,0,0,0-.83,2.24,3.93,3.93,0,0,0-.19.87c0,0.64,0,1.28,0,1.92a5.08,5.08,0,0,0,.63,2.62,7.86,7.86,0,0,0,2.27,3,11.16,11.16,0,0,0,3.2,1.82A0.73,0.73,0,0,1,67.49,69.29Z" transform="translate(-0.03 -6.74)"/><text x="-0.03" y="-6.74"/><path class="cls-9" d="M62.07,29.39a0.57,0.57,0,0,0,.23-0.19,21.76,21.76,0,0,1,1.67-6,20.42,20.42,0,0,1,2.42-4.27c0.36-.49.67-1,1.05-1.48s0.86-1,1.29-1.49c0.71-.81,3.6-3.47,4.45-4.15,1-.8.06,0.49,1.19-0.12a3.43,3.43,0,0,1,1.72-.77c1-.67,2.09-2.93,3.19-3.27C80.18,7.37,81.09,7.16,82,7a28.05,28.05,0,0,1,5.3-.22c1.76,0,3.51,0,5.27,0h16.05a0.57,0.57,0,0,1,.23.19c0,0.36,0,2.72,0,3.08a11.44,11.44,0,0,1-.27,3,3.25,3.25,0,0,1-.57,1.43,6.57,6.57,0,0,1-1.6,1.6,30,30,0,0,1-5,2.92A20.89,20.89,0,0,1,99,20a9.73,9.73,0,0,1-2.7.73,14.75,14.75,0,0,1-4.79,1.14,17.91,17.91,0,0,1-4,.31c-1.27-.08-2.56,0-3.84,0a7.78,7.78,0,0,0-3.21-1.91,8.43,8.43,0,0,0-1.6-.47,3.64,3.64,0,0,1-1.69-.25,25.42,25.42,0,0,0-3.24.3,8.91,8.91,0,0,0-2.58,1,10.2,10.2,0,0,0-2.57,1.86c-0.15.17-.39,0.26-0.53,0.44A16.5,16.5,0,0,0,66,26.56a12.68,12.68,0,0,0-1,4.26,17.86,17.86,0,0,0,.21,2.89c0,0.07.06-1.87,0.09-1.8a17.68,17.68,0,0,0,1.36,3.27,10.28,10.28,0,0,0,2.47,2.91,3.16,3.16,0,0,1,.64.81c0,1.83-.07,3.67,0,5.5,0.08,1.58-.3,3.12-0.26,4.69a6.36,6.36,0,0,0-.32,1.78c-0.14.54-.26,1.09-0.4,1.63a11.41,11.41,0,0,1-.49,1.71A5.35,5.35,0,0,1,67,56.42h-1.2c-0.89-1-2.22-1-3.41-1.38l-0.32.19C62.07,45.95,62.07,38.67,62.07,29.39Z" transform="translate(-0.03 -6.74)"/><path class="cls-1" d="M61.95,70.53c0.82,0.67,1.81,1.09,2.63,1.76a4.15,4.15,0,0,0,1.17.45v9.06a21.06,21.06,0,0,1-1.54-2.69,27.46,27.46,0,0,1-1.34-3.65,14.07,14.07,0,0,0-.42-1.61,3.37,3.37,0,0,1-.26-1.58A0.73,0.73,0,0,0,61.95,72V70.53Z" transform="translate(-0.03 -6.74)"/><path class="cls-1" d="M124,33.68c-0.66.39-1.62,0.46-1.17-.21" transform="translate(-0.03 -6.74)"/><path class="cls-1" d="M122.49,32.45c0-.84-0.06-1.68,0-2.52a10.59,10.59,0,0,0-.8-4.47c-0.47-1.31-3-1.69-4-2.7-0.18-.79-3.9-1.2-4.25-1.83,0-.25-5.52-3.76-5.33-3.94,0.61-.59-9.23,1.25-8.75.53C87.68,14.23,64.6,6,102.42,11.68c0.85,0.13,6.7-4,6.63-4.85,1.34,0.9,15.67,7.12,16.78,8.32a12,12,0,0,1,1,.78,40.39,40.39,0,0,1,2.89,3.71,22,22,0,0,1,1.41,2.3,28.87,28.87,0,0,1,2,5.79,20.17,20.17,0,0,1,.46,3.64c0,8.24,0,14.47,0,22.71v1.17a2.37,2.37,0,0,0-.49,0,16.91,16.91,0,0,0-3.62,1.11,1.8,1.8,0,0,1-1.73-.22A13.62,13.62,0,0,1,126,50.44a14.74,14.74,0,0,0-.37-2.1,22.88,22.88,0,0,1-.24-4.21c0-.84-0.06-1.68,0-2.51,0-1.15,0-2.31,0-3.46a3,3,0,0,1,.21-1.59,2.67,2.67,0,0,0,0-1.06" transform="translate(-0.03 -6.74)"/><path class="cls-1" d="M83.31,21.72v0.44a8.79,8.79,0,0,0-.89.05,0.87,0.87,0,0,0-.31.23c-0.24,0-.48,0-0.72,0a10.19,10.19,0,0,0-6,1.71,11.67,11.67,0,0,0-3.15,2.9,13.25,13.25,0,0,0-1.4,2.31,8.87,8.87,0,0,0-1,3.91c0,0.68,0-.64,0,0a9,9,0,0,0,1,3.92c0.27,0.57.57,1.12,0.83,1.69a4.48,4.48,0,0,1,.18.77,8.85,8.85,0,0,1-2.1-1.25,0.67,0.67,0,0,0-.35,0,3.16,3.16,0,0,0-.64-0.81,10.28,10.28,0,0,1-2.47-2.91c-0.6-1-1-.15-1.36-1.27a1,1,0,0,1-.09-0.2,17.86,17.86,0,0,1-.21-2.89,12.68,12.68,0,0,1,1-4.26,16.5,16.5,0,0,1,2.29-3.46c0.14-.18.38-0.27,0.53-0.44A10.2,10.2,0,0,1,71,20.34a8.91,8.91,0,0,1,2.58-1,25.42,25.42,0,0,1,3.24-.3,3.64,3.64,0,0,0,1.69.25,8.43,8.43,0,0,1,1.6.47A7.78,7.78,0,0,1,83.31,21.72Z" transform="translate(-0.03 -6.74)"/><path class="cls-1" d="M129.17,81.5V72.79a10.86,10.86,0,0,1,1.52-.71c0.47-.27.71-1,1.56-0.79l0.65-.81a11.78,11.78,0,0,1-.3,3c-0.21,1-.53,1.94-0.78,2.91s-0.75,1.77-1.05,2.68a14.36,14.36,0,0,1-1.44,2.53Z" transform="translate(-0.03 -6.74)"/><path class="cls-10" d="M176.92,145.41" transform="translate(-0.03 -6.74)"/><path class="cls-11" d="M195,219.57a11.31,11.31,0,0,0-.19-3.27,9.76,9.76,0,0,1,0-2.15c0-.69-0.17-1.37-0.23-2.06-0.1-1.25-.16-2.49-0.24-3.74a0.3,0.3,0,0,0,0-.12c-0.54-.87-0.1-1.88-0.43-2.82a20.38,20.38,0,0,1-.31-2.76,9.53,9.53,0,0,0-.27-1.68,6.79,6.79,0,0,1-.19-1.24,5.26,5.26,0,0,1-.26-1.22,6,6,0,0,0-.27-1.68c-0.42-1.37-.54-2.8-0.9-4.18-0.22-.84-0.28-1.72-0.54-2.54-0.46-1.42-.71-2.9-1.14-4.32s-0.73-2.65-1.14-4c-0.48-1.56-1-3.11-1.51-4.66s-1.13-3.29-1.79-4.9c-0.42-1-.9-2-1.28-3.07-0.68-1.81-1.53-3.53-2.31-5.28a78.21,78.21,0,0,0-3.74-7.09c-0.87-1.53-1.83-3-2.77-4.49s-1.75-2.65-2.67-3.95c-0.72-1-1.46-2-2.19-3a50.66,50.66,0,0,0-3.38-4.12c-1.05-1.17-2.18-2.28-3.24-3.45s-2.57-2.45-3.86-3.67a1.41,1.41,0,0,0-.26-0.24c-1.8-1-3.61-1.92-5.4-2.89-0.75-.4-1.48-0.85-2.23-1.28l-0.3.62-0.12-.42c-1.28-.67-2.65-1.27-3.9-2.06-1.64-1-3.38-1.9-5.06-2.86-1.16-.66-2.35-1.28-3.52-1.93a6,6,0,0,1-.64-0.48,3.5,3.5,0,0,1-1.3,0,3.4,3.4,0,0,0-1-.21,7.79,7.79,0,0,0-1.1-.22c-1.22,0-2.4-.42-3.62-0.26a0.53,0.53,0,0,1-.35,0c-0.48-.47-1.07-0.11-1.59-0.23a6.9,6.9,0,0,0-1.58-.25c-5.08,0-10.16,0-15.24,0-0.3,0-.61,0-1,0V102.2H83.18v19.15l-0.32,0c-3,0-6,0-9,0a72.86,72.86,0,0,0-9,.2,7.08,7.08,0,0,0-2,.61A27.4,27.4,0,0,1,60,123.51c-1.48.49-2.86,1.22-4.31,1.76-1,.36-1.85,1-2.81,1.31a13.69,13.69,0,0,1-1.72.74c-1,.2-1.73.84-2.68,1.1a16.61,16.61,0,0,0-2.65,1.2l-0.2.45-0.21-.62a15.44,15.44,0,0,1-2,1c-1.48.5-2.85,1.24-4.3,1.78a15.93,15.93,0,0,1-1.64.69c-0.56.14-1,.58-1.63,0.7a1.71,1.71,0,0,0-1.06.82,3.18,3.18,0,0,1-.64.81,23.39,23.39,0,0,1-2.25,2.07c-0.63.5-1.05,1.26-1.64,1.82a73.83,73.83,0,0,0-5.11,5.8c-1.19,1.41-2.2,3-3.34,4.4-0.67.84-1.18,1.83-1.81,2.72s-1.16,1.85-1.75,2.76C17,156.72,16,158.71,15,160.69c-1.12,2.17-2.26,4.34-3.2,6.59C11,169,10.25,170.73,9.61,172.5s-1.24,3.25-1.77,4.9c-0.61,1.91-1.29,3.79-1.84,5.71-0.28,1-.59,2-0.82,3s-0.48,2-.75,3c-0.45,1.67-.86,3.34-1.18,5A9.33,9.33,0,0,1,3,195.68a29.62,29.62,0,0,0-.65,3c-0.18.7-.05,1.49-0.29,2.17-0.42,1.2-.35,2.47-0.66,3.68a17.69,17.69,0,0,0-.27,3,1.22,1.22,0,0,1,0,.47,2,2,0,0,0-.21,1.46,6.55,6.55,0,0,1-.26,1.46,7.22,7.22,0,0,1-.24,2.78c0.11,1.58-.19,3.13-0.23,4.7q-0.08,4,0,8c0.06,2.65-.23,5.3.21,7.94,0.18,1.07-.14,2.18.23,3.27a7.2,7.2,0,0,1,0,1.67,13.47,13.47,0,0,1,.21,1.58C0.8,242,1.3,243,1.12,244.15a0.32,0.32,0,0,0,0,.23c0.44,0.39.14,0.9,0.22,1.35s0.18,1,.24,1.46a11.87,11.87,0,0,0,.28,2.17,6,6,0,0,1,.21,1.11c0.05,0.37.17,0.73,0.23,1.1a10.24,10.24,0,0,0,.28,1.92c0.35,1,.39,2,0.66,3s0.25,1.89.53,2.79,0.45,1.73.7,2.59,0.5,1.73.66,2.59c0.13,0.71.42,1.36,0.57,2.06s0.43,1.42.63,2.12c0.37,1.33.84,2.62,1.26,3.92,0.62,1.89,1.26,3.79,2.06,5.63,0.42,1,.86,2,1.24,3s0.76,1.76,1.09,2.67a29.89,29.89,0,0,0,1.26,2.72c0.74,1.54,1.51,3.06,2.36,4.54,1,1.82,2,3.68,3.2,5.41,0.72,1,1.29,2.18,2,3.24,1,1.52,2.06,3,3.12,4.53a1.83,1.83,0,0,0-.13.26A35.42,35.42,0,0,0,22,311.31a3.51,3.51,0,0,1-.41,1.15A5.42,5.42,0,0,0,20.8,315q0,14.46,0,28.92a4.14,4.14,0,0,0,1.09,3,4.67,4.67,0,0,0,1.77,1.2,8.67,8.67,0,0,0,1.93.35c0,0.16,0,.31,0,0.47a4.83,4.83,0,0,0,1,3.18,3.72,3.72,0,0,0,2,1.3,3.83,3.83,0,0,0,2.45,0A4.17,4.17,0,0,0,33.28,352c0.21-.32.41-0.63,0.64-0.94s0-.66.22-1a2.45,2.45,0,0,0,.1-1.15c0-.63,0-1.26,0-1.8a7.18,7.18,0,0,1,1.07-.33,3.35,3.35,0,0,0,2.22-1.29,5,5,0,0,0,1-3.17c0-7.28,0-14.56,0-21.91l1.92-1.57c0,0.86,0,1.57,0,2.28a12,12,0,0,0,.74,4.38,4,4,0,0,0,2.05,2.78c1.45,0.18,2.16-.55,2.78-1.76a12.49,12.49,0,0,0,1.11-4c0.23-1.58-.1-3.22.28-4.81a7.33,7.33,0,0,0-.25-2.18,10.1,10.1,0,0,0-.26-2.41c-0.42-1.37-.54-2.8-0.91-4.18-0.28-1.07-.57-2.13-0.93-3.16l0.15-.15a2.81,2.81,0,0,1-.44-0.66,26.28,26.28,0,0,0-2.4-5.49A12.71,12.71,0,0,0,39.76,296v-0.59c-0.44-.34-0.94-0.71-1.42-1.09a8,8,0,0,1-1.41-1.2,11.68,11.68,0,0,1-1-1.85A111.27,111.27,0,0,1,31,280.71c-0.5-1.27-1.06-2.52-1.52-3.81-0.38-1-.62-2.14-1-3.19s-0.72-2.1-1-3.19c-0.38-1.4-.88-2.77-1.15-4.2-0.09-.51-0.33-1-0.46-1.48a8.66,8.66,0,0,0-.32-1.55,14.34,14.34,0,0,1-.36-1.65,2.5,2.5,0,0,1-.28-1.57c-0.57-1.5-.52-3.12-0.94-4.65-0.13-.46-0.09-1-0.23-1.46s-0.1-1-.22-1.58-0.16-1.29-.27-1.93-0.08-1.37-.23-2.06a12.33,12.33,0,0,0-.28-2.41c0.18-1.78-.29-3.52-0.26-5.3,0.06-3.2,0-6.4,0-9.6a13.38,13.38,0,0,1,.2-3.75,9.05,9.05,0,0,0,0-1.91c0-.65.17-1.29,0.23-1.94a31.14,31.14,0,0,1,.28-3.37c0.12-.62.07-1.25,0.24-1.82a6.18,6.18,0,0,0,.2-1.11c0-.41.17-0.81,0.23-1.22a10.32,10.32,0,0,1,.28-2.17c0.2-.54.06-1.09,0.24-1.58a16.67,16.67,0,0,0,.44-2c0.2-.88.39-1.76,0.58-2.64,0.3-1.42.77-2.81,1.09-4.22s0.69-2.67,1.11-4c0.91-2.82,1.82-5.63,2.95-8.38,0.83-2,1.67-4,2.55-6,0.25-.58.55-1.13,0.84-1.69,1.12-2.18,2.18-4.38,3.38-6.52a55.75,55.75,0,0,1,3-4.75,40.15,40.15,0,0,1,2.34-3.36c0.61-.71,1-1.62,1.65-2.3s0.76-1.42,1.62-1.73c0,1.75,0,3.47,0,5.18s0.14,3.37.24,5.06a13.79,13.79,0,0,0,.28,2.89,10.88,10.88,0,0,1,.2,1.83c0.07,0.61.19,1.21,0.23,1.82,0.1,1.53.17,3.05,0.25,4.58a0.82,0.82,0,0,0,0,.24,12,12,0,0,1,.47,2.8c0.09,0.65-.18,1.34.24,1.94-0.17,1.26.31,2.48,0.24,3.74a2.94,2.94,0,0,0,.05,1.41,3.5,3.5,0,0,1,.18,1.25c0.08,0.41.19,0.81,0.23,1.22a14.22,14.22,0,0,0,.2,2.31c0.21,0.8,0,1.69.26,2.54a4.09,4.09,0,0,1,0,1.67,8.91,8.91,0,0,0,.26,1.46,10.07,10.07,0,0,0,.21,1.59c0.13,0.92.06,1.85,0.24,2.78s0.08,2,.22,3c0.18,1.33.4,2.67,0.48,4a30.63,30.63,0,0,1,.29,3.86c-0.08,1.22.43,2.4,0.25,3.62a0.31,0.31,0,0,0,0,.23,1.68,1.68,0,0,1,.21,1.23,12,12,0,0,1,.23,1.22,5.54,5.54,0,0,0,.25,2.3c-0.18,1.15.26,2.24,0.25,3.38a7.91,7.91,0,0,0,.18,2.07,17.9,17.9,0,0,1,.28,3.13,1.75,1.75,0,0,0,0,.71,3.14,3.14,0,0,1,.23,1.59c0.07,0.57.18,1.13,0.23,1.7,0.08,0.93,0,1.85.19,2.79a10.55,10.55,0,0,1,.3,3.25,0.76,0.76,0,0,0,0,.47,2.26,2.26,0,0,1,.21,1.59,10.83,10.83,0,0,0,.24,1.58,8.46,8.46,0,0,0,.07,2.38c0.29,0.75-.11,1.57.42,2.22,0,1,.11,1.94.19,2.9a22.49,22.49,0,0,1,.29,4.46,0.55,0.55,0,0,0,0,.35c0.46,0.44.06,1,.25,1.46a3.07,3.07,0,0,1,.21,1.47c-0.07,1.22.43,2.4,0.25,3.62a0.34,0.34,0,0,0,0,.22,2.17,2.17,0,0,1,.14,1.82,5.18,5.18,0,0,0-.17,1.36c0,0.47-.26.86-0.28,1.34a30.21,30.21,0,0,1-.52,3.14c0,0.23-.15.49-0.17,0.76a16.66,16.66,0,0,1-.28,2.65,8,8,0,0,1-.25,1.57c-0.26.48,0,1-.22,1.35a2.89,2.89,0,0,0-.22,1.35,0.87,0.87,0,0,1,0,.46,1.29,1.29,0,0,0-.21,1c-0.07.33-.19,0.65-0.23,1-0.1.76-.09,1.55-0.27,2.29a13.69,13.69,0,0,1-.25,1.69c-0.5,1.28-.36,2.63-0.67,3.92-0.18.74-.06,1.57-0.3,2.28-0.16.47-.05,0.95-0.22,1.34a3.66,3.66,0,0,0-.21,1.47,0.69,0.69,0,0,1,0,.35A1.37,1.37,0,0,0,51,304c-0.07.37-.18,0.73-0.23,1.1a9.34,9.34,0,0,1-.29,2.28c-0.22.55-.07,1.07-0.24,1.58a7.1,7.1,0,0,0-.43,2.34,1.31,1.31,0,0,1,0,.7,1.78,1.78,0,0,0-.22,1.24,7.42,7.42,0,0,0-.22,1.22,8.11,8.11,0,0,0-.25,2.06,1.69,1.69,0,0,0-.25,1.22,13.44,13.44,0,0,0-.23,1.34c-0.12,5.41.17,10.81-.22,16.22-0.17,2.39,0,4.8,0,7.2v7.32c0,2.4,0,4.8,0,7.2a64,64,0,0,1-.19,7.23,36.7,36.7,0,0,0,0,4.79v14.64c0,1.6-.07,3.2,0,4.8s-0.27,3.21-.26,4.82c0,2.64,0,5.28,0,7.92v7.8c0,2.64,0,5.28,0,7.92a66.5,66.5,0,0,0,.2,7.82c0.24,1.75.19,3.53,0.27,5.3a0.49,0.49,0,0,0,0,.23c0.39,0.4.09,0.93,0.26,1.34a3.25,3.25,0,0,1,.22,1.35,1.07,1.07,0,0,0,0,.47,6.13,6.13,0,0,1,.44,2.21,5.13,5.13,0,0,1,.27,2.06c0.49,1.09.37,2.3,0.7,3.43a15.65,15.65,0,0,1,.27,2.29c0,0.29.18,0.57,0.23,0.86a6.06,6.06,0,0,0,.05.94,25.17,25.17,0,0,1,.64,3.57,4.79,4.79,0,0,1,.28,2.05c0.52,1.17.33,2.46,0.7,3.67,0.21,0.69.11,1.47,0.29,2.17s0.08,1.19.27,1.69a6,6,0,0,1,.19,1.12,6.26,6.26,0,0,1,.22,1.1,8.26,8.26,0,0,1,.25,2.06c0.49,0.57,0,1.38.48,2-0.16.79,0.29,1.52,0.25,2.3a5.57,5.57,0,0,0,.22.86,4.39,4.39,0,0,0,0,.95,11.66,11.66,0,0,1,.44,2.33,5.12,5.12,0,0,1,.25,1.94c0.39,0.39.09,0.93,0.27,1.33a3.64,3.64,0,0,1,.21,1.47,0.7,0.7,0,0,0,0,.35,1.33,1.33,0,0,1,.23,1.11q0.11,0.61.24,1.22c0.08,0.37.18,0.73,0.23,1.1a13,13,0,0,0,.28,2.17,11.11,11.11,0,0,0,.25,1.57c0.26,0.49,0,1,.22,1.35a2.84,2.84,0,0,1,.22,1.35,1.42,1.42,0,0,0,0,.47,10.09,10.09,0,0,1,.45,2.33,5.32,5.32,0,0,1,.25,1.94,1.25,1.25,0,0,1,.25,1c0,0.37.18,0.73,0.23,1.1a12.38,12.38,0,0,0,.27,2.17c0.41,1.24.34,2.55,0.68,3.8,0.19,0.7.06,1.49,0.3,2.16a14.3,14.3,0,0,0,.25,1.57,4.42,4.42,0,0,1,.2,1.24,5.33,5.33,0,0,1,.25,1.22,8.2,8.2,0,0,0,.27,1.81c0.32,1.21.4,2.46,0.62,3.68s0.47,2.4.58,3.63a5.94,5.94,0,0,0,.23,1.57,4.57,4.57,0,0,1,.21,1.12c0.05,0.37.18,0.73,0.23,1.1a13.1,13.1,0,0,0,.27,2.29c0.36,1.13.28,2.32,0.67,3.44,0.14,0.41,0,.89.23,1.35s0,1,.24,1.46,0.06,1,.24,1.46a6.53,6.53,0,0,1,.23,1.45,31.53,31.53,0,0,0,.51,3.16,7.37,7.37,0,0,0,.22,1.35c0.18,0.43,0,1,.24,1.46s0.06,1,.24,1.46,0.05,1,.24,1.46a6.6,6.6,0,0,1,.23,1.45c0.13,1.06.38,2.11,0.49,3.16a29.77,29.77,0,0,1,.51,3.64c0.37,0.52.07,1.17,0.29,1.68a6.41,6.41,0,0,1,.15,2.8,2.81,2.81,0,0,1-.7,1.49A10.67,10.67,0,0,1,62,555.77a18.06,18.06,0,0,1-4,.91c-1.23.14-3,1.37-4.26,1.24-1.44,1.54-.56-0.28-1.17,0a3.44,3.44,0,0,1-3.19,1.24c-0.67,0-3.07,3.46-1.5,1-0.78,1.22-1.72.23-2.51,1.47a13.43,13.43,0,0,0-1.64,3.87,15.62,15.62,0,0,0-.79,4.36L87,551.75l-1-.72V539.86a15.79,15.79,0,0,0,0-2.4,13.27,13.27,0,0,0-.43-2.33c-0.15-.45,0-1-0.23-1.46a10.33,10.33,0,0,1-.23-1.46c-0.22-1-.28-2.11-0.5-3.16s-0.22-2.28-.48-3.4a13.41,13.41,0,0,0-.22-1.59c-0.18-.52-0.07-1.12-0.24-1.7s-0.08-1.36-.25-2.06-0.09-1.44-.24-2.18a27.25,27.25,0,0,1-.27-3.37,0.77,0.77,0,0,0,0-.35c-0.45-.44-0.15-1-0.23-1.47s-0.18-1-.24-1.46a7.18,7.18,0,0,0-.21-2.07,5.69,5.69,0,0,1,0-1.55c0-.49-0.18-1-0.22-1.46a8.94,8.94,0,0,0-.21-2.31,6.81,6.81,0,0,1,0-1.67c0-.53-0.18-1.05-0.23-1.58-0.08-.93,0-1.85-0.2-2.79-0.22-1.17,0-2.4-.26-3.62s0-2.24-.22-3.38c-0.23-1.37-.05-2.81-0.26-4.22s0-2.8-.22-4.22c-0.25-1.78,0-3.61-.26-5.42s0-3.76-.22-5.66c-0.29-2.78,0-5.6-.24-8.42-0.23-3.26-.05-6.56-0.05-9.84v-9.72c0-3.28,0-6.56,0-9.84s-0.18-6.49.19-9.74c0.29-2.55-.12-5.13.23-7.7,0.28-2-.08-4.09.25-6.14,0.25-1.58,0-3.2.23-4.82s0-3.21.26-4.82c0.21-1.14-.1-2.33.23-3.51a10.48,10.48,0,0,0,0-2.15c0-.69.16-1.37,0.23-2.06a11.17,11.17,0,0,1,.21-2.67,7.87,7.87,0,0,0,0-1.91c0-.65.16-1.29,0.23-1.94a7.48,7.48,0,0,1,.2-2.08,4.82,4.82,0,0,0,0-1.78,15.64,15.64,0,0,0,.26-1.7c-0.15-1.21.41-2.39,0.22-3.62a0.19,0.19,0,0,1,0-.12,3,3,0,0,0,.24-1.7c0.07-.57.18-1.13,0.23-1.7a13.78,13.78,0,0,1,.3-3c0.32-.94.05-1.89,0.38-2.83a27.19,27.19,0,0,0,.32-2.76c0.15-.66.05-1.34,0.25-1.93a6.45,6.45,0,0,0,.2-1.36,12.8,12.8,0,0,0,.22-1.34,9.21,9.21,0,0,0,.25-2.3c0.47-1.09.33-2.31,0.7-3.43,0.21-.64.11-1.38,0.28-2s0.27-1.32.42-2,0.29-1.41.39-2.13,0.28-1.41.42-2.12A7.14,7.14,0,0,1,87.3,345a19.72,19.72,0,0,0,.89-3.22c0.44-1.86.92-3.7,1.5-5.51a38.79,38.79,0,0,1,2.38-6.09,12.85,12.85,0,0,1,2.57-3.85c0.46-.41.95-0.79,1.39-1.15h3.12c0.45,0.36.88,0.68,1.29,1,1.81,1.61,2.62,3.85,3.61,5.94a37.34,37.34,0,0,1,1.31,3.77c0.44,1.27.81,2.55,1.13,3.86,0.25,1,.46,2.05.76,3a48.4,48.4,0,0,1,1.1,4.81c0.2,1,.34,2,0.57,3s0.44,2.14.61,3.2,0.45,2.41.58,3.63a6.21,6.21,0,0,0,.24,1.81c0.29,0.66.1,1.35,0.41,2s-0.05,1.11.23,1.71,0,1.19.24,1.81,0.08,1.2.24,1.82,0.07,1.28.24,1.94,0.08,1.36.23,2.06a23.3,23.3,0,0,1,.28,3.25,1.13,1.13,0,0,0,0,.47,1.93,1.93,0,0,1,.21,1.47,8.88,8.88,0,0,0,.27,1.46,6.33,6.33,0,0,0,.2,2.19,6.17,6.17,0,0,1,0,1.55c0,0.49.18,1,.22,1.46a8.92,8.92,0,0,0,.22,2.31,3.28,3.28,0,0,1,0,1.55,7.31,7.31,0,0,0,.27,1.58,18.5,18.5,0,0,0,.18,2.91c0.22,1.17,0,2.4.26,3.62s0,2.24.22,3.38c0.23,1.33,0,2.72.26,4.1s0,2.88.22,4.34c0.26,1.74,0,3.52.25,5.3s0,3.84.22,5.78c0.29,2.82.06,5.69,0.25,8.54,0.22,3.23,0,6.48,0,9.72v9.84c0,3.24,0,6.48,0,9.72s0.16,6.49-.2,9.74c-0.28,2.55.16,5.13-.24,7.7a30.1,30.1,0,0,0,0,3.59c0,1.17-.15,2.33-0.23,3.5s0,2.48-.19,3.75c-0.26,1.61,0,3.29-.27,4.94-0.21,1.14.1,2.33-.23,3.51a9.77,9.77,0,0,0,0,2c0,0.65-.17,1.29-0.23,1.94a13.09,13.09,0,0,1-.21,2.91,8.43,8.43,0,0,0,0,1.91c0,0.61-.16,1.21-0.23,1.82a7.39,7.39,0,0,1-.21,2.19,5.52,5.52,0,0,0,0,1.55c0,0.49-.19,1-0.22,1.46-0.1,1.33-.17,2.65-0.25,4a0.51,0.51,0,0,1,0,.24,2.25,2.25,0,0,0-.24,1.47c-0.07.49-.19,1-0.23,1.46A8.1,8.1,0,0,1,112,517a9.46,9.46,0,0,1-.07,1.4,2.34,2.34,0,0,0-.18,1.37,6.56,6.56,0,0,1-.25,1.34,8.25,8.25,0,0,1-.21,1.72,12.6,12.6,0,0,0-.25,1.81,18.09,18.09,0,0,0-.27,2.77,0.79,0.79,0,0,1,0,.35c-0.43.4-.05,1-0.26,1.34a2.92,2.92,0,0,0-.22,1.35,1.39,1.39,0,0,1,0,.47,9.9,9.9,0,0,0-.45,2.33,5.24,5.24,0,0,0-.25,1.94c-0.48.44,0,1.08-.32,1.55a2.86,2.86,0,0,0-.15,1.62c0,4.24,0,8.48,0,12.64l-0.94.75v0.32h19.35a2.56,2.56,0,0,1-.36-2.19,7.27,7.27,0,0,0,.19-1.12c0.07-.41.16-0.81,0.24-1.22s0.18-.73.23-1.1a12.79,12.79,0,0,1,.28-2.17,14.27,14.27,0,0,1,.25-1.57,3.65,3.65,0,0,0,.2-1.12c0.07-.37.18-0.73,0.23-1.1a12.33,12.33,0,0,1,.28-2.29,21.83,21.83,0,0,0,.64-3.44c0.2-1.2.44-2.41,0.58-3.63a9,9,0,0,1,.22-1.82,21.56,21.56,0,0,0,.64-3.44,20.26,20.26,0,0,0,.53-3.63c0.39-.51.06-1.18,0.32-1.66a3,3,0,0,0,.16-1c0.08-.37.19-0.73,0.23-1.1a11.64,11.64,0,0,1,.29-2.29c0.19-.54.07-1.09,0.23-1.58a14.52,14.52,0,0,0,.44-2.34,5.42,5.42,0,0,0,.25-1.94,1.45,1.45,0,0,0,.25-1.1c0.05-.37.18-0.73,0.23-1.1a13.71,13.71,0,0,1,.27-2.29,26.86,26.86,0,0,0,.64-3.44c0.21-1.2.44-2.41,0.58-3.63a7.31,7.31,0,0,1,.23-1.81c0.27-.69.17-1.42,0.41-2.11s0.09-1.48.31-2.16a14.29,14.29,0,0,1,.25-1.57A3.65,3.65,0,0,0,137,490a6.15,6.15,0,0,0,.22-1.1,8.25,8.25,0,0,0,.25-2.06,108.09,108.09,0,0,0,1.2-7.3c0.39-.51.06-1.18,0.32-1.67a3,3,0,0,0,.17-1c0.08-.37.19-0.73,0.23-1.1a12,12,0,0,1,.29-2.29c0.18-.54.07-1.09,0.23-1.58a14.62,14.62,0,0,0,.44-2.34,5.32,5.32,0,0,0,.25-1.94c0.54-.51.14-1.24,0.42-1.87a12.47,12.47,0,0,0,.28-1.92c0.17-.7.06-1.49,0.29-2.17a22.09,22.09,0,0,0,.64-3.44c0.21-1.2.44-2.41,0.58-3.63a11.4,11.4,0,0,1,.23-1.81,6.9,6.9,0,0,0,.21-1c0-.37.18-0.73,0.23-1.1a11.31,11.31,0,0,1,.28-2.17c0.19-.54,0-1.13.25-1.57a3.36,3.36,0,0,0,.19-1.12c0.07-.41.16-0.81,0.24-1.22s0.19-.73.23-1.1a20.27,20.27,0,0,1,.27-2.29,14.89,14.89,0,0,1,.27-1.69,5.41,5.41,0,0,0,.19-1.12,6.15,6.15,0,0,0,.22-1.1,15.69,15.69,0,0,1,.31-2.05c0.12-.93.38-1.86,0.43-2.81a0.74,0.74,0,0,1,0-.35,1.23,1.23,0,0,0,.24-1c0.06-.37.19-0.73,0.23-1.1a9.22,9.22,0,0,1,.25-3,41.27,41.27,0,0,1,.24-4.46c0-2.64,0-5.28,0-7.92v-7.92c0-2.68,0-5.36,0-8s0-5.21-.17-7.82c-0.24-3.18-.06-6.4-0.06-9.6s0-6.32,0-9.48,0.15-6.33-.19-9.51a59.1,59.1,0,0,1,0-6.24V343.63c0-2-.07-4.08,0-6.12s-0.29-4.09-.27-6.14c0-2.8,0-5.6,0-8.4,0-.68,0-1.36,0-2a24.34,24.34,0,0,0-.28-3.85,17.09,17.09,0,0,0-.68-3.43c0.18-1.41-.69-2.7-0.5-4.12a4.68,4.68,0,0,0-.21-1.1,1.25,1.25,0,0,0-.25-1,11.51,11.51,0,0,0-.22-1.94,7,7,0,0,0-.36-1.91c-0.07-.3-0.09-0.6-0.14-0.89a3,3,0,0,0-.21-1.48,8.3,8.3,0,0,1-.21-1.46,7.19,7.19,0,0,1-.28-1.8,6,6,0,0,0-.47-2.21,1.21,1.21,0,0,1,0-.35,4.66,4.66,0,0,0-.14-1.74c-0.27-.52-0.08-1.1-0.3-1.68a10.13,10.13,0,0,1-.29-2.28c0-.29-0.19-0.57-0.23-0.86-0.1-.72-0.23-1.44-0.29-2.18a21.64,21.64,0,0,0-.37-2.22,7.69,7.69,0,0,1-.3-2,7.27,7.27,0,0,0-.35-1.9,3.2,3.2,0,0,1-.13-0.54,12.81,12.81,0,0,0-.47-3.29,14.52,14.52,0,0,1-.26-2.3,10.48,10.48,0,0,1-.27-1.82,11.36,11.36,0,0,1,.25-1.7c0.12-.52-0.18-1.1.24-1.59a0.57,0.57,0,0,0,0-.35c-0.17-1.5.3-3,.26-4.46,0-.53.29-1,0.24-1.58a2.07,2.07,0,0,1,.22-1.58,0.21,0.21,0,0,0,0-.12c-0.07-1.3.38-2.55,0.26-3.86a7.29,7.29,0,0,1,.22-1.7c0.09-.57-0.22-1.18.23-1.71a0.8,0.8,0,0,0,0-.35,22.38,22.38,0,0,1,.28-3.37,21.55,21.55,0,0,0,.21-3,9.37,9.37,0,0,0,.25-1.58,2.28,2.28,0,0,1,.21-1.59,1.15,1.15,0,0,0,0-.47,18.74,18.74,0,0,1,.28-3.25,17.14,17.14,0,0,0,.2-2.67c0.06-.57.17-1.13,0.23-1.7a3.11,3.11,0,0,1,.24-1.71,0.84,0.84,0,0,0,0-.35,20.81,20.81,0,0,1,.28-3.37,14,14,0,0,0,.19-2.91,10,10,0,0,0,.28-1.58,1.88,1.88,0,0,1,.21-1.58,0.79,0.79,0,0,0,0-.35,22.39,22.39,0,0,1,.28-3.37,21.74,21.74,0,0,0,.21-3,9.33,9.33,0,0,0,.24-1.58,2.3,2.3,0,0,1,.21-1.59,1.16,1.16,0,0,0,0-.47,18.68,18.68,0,0,1,.28-3.25,17.14,17.14,0,0,0,.2-2.67c0.06-.57.17-1.13,0.23-1.7a3.11,3.11,0,0,1,.24-1.71,0.84,0.84,0,0,0,0-.35,20.81,20.81,0,0,1,.28-3.37,14.09,14.09,0,0,0,.19-2.91,9.84,9.84,0,0,0,.28-1.58,1.88,1.88,0,0,1,.21-1.58,0.8,0.8,0,0,0,0-.35,22.37,22.37,0,0,1,.28-3.37,21.94,21.94,0,0,0,.21-3,9.17,9.17,0,0,0,.24-1.58A2.39,2.39,0,0,1,148,185a1.46,1.46,0,0,0,0-.59,22.61,22.61,0,0,1,.28-3.61,20.35,20.35,0,0,0,.2-2.67c0.06-.57.17-1.13,0.23-1.7a3.32,3.32,0,0,1,.23-1.71,1.24,1.24,0,0,0,0-.59c0-.68,0-1.36,0-2-0.17-2.57.45-5.1,0.19-8a17.27,17.27,0,0,1,1.71,2.08,17.7,17.7,0,0,0,1.6,2.2c0.91,1.13,1.61,2.4,2.47,3.56a26.93,26.93,0,0,1,1.48,2.26c0.46,0.77,1,1.53,1.41,2.3,1,1.66,1.79,3.41,2.67,5.13,0.57,1.12,1.16,2.24,1.67,3.39,0.72,1.58,1.37,3.19,2.06,4.79,0.85,2,1.57,4,2.27,6,0.37,1.09.71,2.19,1,3.29q0.59,2,1.12,4a40.41,40.41,0,0,1,1,4.15c0.45,0.41.09,1,.41,1.52a8.35,8.35,0,0,1,.29,1.55c0.37,1,.24,2.18.7,3.19a8,8,0,0,0,.25,2.06,7.88,7.88,0,0,0,.23,1.22,1.52,1.52,0,0,0,.24,1.22,0.25,0.25,0,0,1,0,.12c0.08,0.93.15,1.85,0.24,2.78,0.06,0.57.15,1.13,0.24,1.7a11.16,11.16,0,0,0,.18,1.72,23.72,23.72,0,0,1,.08,2.5,47.74,47.74,0,0,1,.21,7.22c0.05,2.44,0,4.88,0,7.32a41.31,41.31,0,0,0-.23,4.46c-0.37.78-.09,1.64-0.28,2.41a13.76,13.76,0,0,0-.21,1.95c-0.06.65-.17,1.3-0.27,1.94-0.16,1.05-.27,2.12-0.48,3.16a10.61,10.61,0,0,1-.23,1.46c-0.18.5-.07,1-0.23,1.46-0.43,1.21-.47,2.5-0.86,3.72-0.25.77-.35,1.61-0.55,2.41-0.33,1.27-.61,2.54-1,3.8-0.45,1.57-.87,3.15-1.4,4.69-0.62,1.78-1.2,3.58-1.85,5.35-0.49,1.32-1,2.62-1.55,3.92-1.27,3.08-2.83,6-4.31,9a9.67,9.67,0,0,1-1,1.84,5.92,5.92,0,0,1-1.51,1.25,6.59,6.59,0,0,0-1.3,1.26c-0.76.8-1.21,1.88-2.28,2.43a3.6,3.6,0,0,0-1.22,1.39c-0.72,1.18-1.18,2.48-1.78,3.7-0.3.61-.39,1.28-0.69,1.87l-0.42.82,0.12,0.11a43.19,43.19,0,0,0-1.18,4.51,12.44,12.44,0,0,1-.64,2.84,7.75,7.75,0,0,0-.22,1.46,9.42,9.42,0,0,0-.24,3.36A45.08,45.08,0,0,1,147,323a0.58,0.58,0,0,1,.23.12,8.54,8.54,0,0,0,1,3.45,2.4,2.4,0,0,0,2.67,1.71,3.37,3.37,0,0,0,1.69-1.73,12.49,12.49,0,0,0,1.17-4.8c0-.48,0-1,0-1.44v-1.5l1.92,1.61c0,7.08,0,14,0,21a8.28,8.28,0,0,0,.22,2.43,5.17,5.17,0,0,0,1.47,2.2,7.38,7.38,0,0,0,2.63,1c0,0.74,0,1.49,0,2.25a4.56,4.56,0,0,0,.4,1.76,4.19,4.19,0,0,0,3.66,2.6,4.77,4.77,0,0,0,1.69-.23,4.31,4.31,0,0,0,1.06-.64,3.79,3.79,0,0,0,1.62-2.33,11.19,11.19,0,0,0,.25-2.14,2.52,2.52,0,0,0,1.51-.14,3.53,3.53,0,0,0,2.21-1.29,5,5,0,0,0,1-3.16q0-14,0-28a5.36,5.36,0,0,0-.93-3.46,1.67,1.67,0,0,1-.27-0.84,26.83,26.83,0,0,0-.7-3.43c-0.29-1.32-.85-2.54-1.23-3.83,0.91-1.26,1.75-2.59,2.71-3.75l0.52,0.25c0.24-.34.47-0.65,0.68-1,0.54-.81,1.12-1.61,1.61-2.46,0.82-1.42,1.72-2.79,2.51-4.23,0.68-1.24,1.36-2.48,2-3.72,0.79-1.42,1.46-2.91,2.15-4.39,0.53-1.14,1-2.3,1.53-3.44,0.27-.61.59-1.21,0.82-1.82,0.81-2.14,1.74-4.25,2.39-6.45,0.57-1.92,1.3-3.79,1.81-5.74s1-3.58,1.46-5.39c0.5-2,1-3.9,1.39-5.9a15.7,15.7,0,0,1,.3-1.55c0.27-1,.41-2,0.63-3a20.83,20.83,0,0,1,.28-2.17c0.41-1.2.36-2.46,0.66-3.68a19.36,19.36,0,0,0,.27-3.13,0.93,0.93,0,0,1,0-.36c0.54-.87.11-1.88,0.42-2.82s-0.1-1.94.29-2.88c-0.13-1.54.21-3.05,0.23-4.58Q195.08,225.81,195,219.57Z" transform="translate(-0.03 -6.74)"/><path class="cls-12" d="M74.68,570.21" transform="translate(-0.03 -6.74)"/><path class="cls-13" d="M31.05,572.38c-0.33,0-.66,0-0.92,0" transform="translate(-0.03 -6.74)"/><path class="cls-13" d="M38.91,572.37c-0.63,0-1.19,0-1.74,0a9.1,9.1,0,0,0-1.62,0" transform="translate(-0.03 -6.74)"/><path class="cls-13" d="M59,572.38" transform="translate(-0.03 -6.74)"/><path class="cls-13" d="M69.57,572.38c-0.78,0-1.56,0-2.34,0H65.84" transform="translate(-0.03 -6.74)"/><path class="cls-13" d="M80.43,572.44" transform="translate(-0.03 -6.74)"/><path class="cls-14" d="M28.35,572.37" transform="translate(-0.03 -6.74)"/><path class="cls-15" d="M83.73,572.38h3.66" transform="translate(-0.03 -6.74)"/><path class="cls-16" d="M60.51,561.79" transform="translate(-0.03 -6.74)"/><path class="cls-16" d="M61.95,560.41" transform="translate(-0.03 -6.74)"/><path class="cls-15" d="M67.23,572.37c0.78,0,1.56,0,2.34,0" transform="translate(-0.03 -6.74)"/><text x="-0.03" y="-6.74"/><path class="cls-17" d="M62.91,556.78m-2.4,4.62H60.14m-4.07,1.44,0,2.57-2.49,0,0-2.58,12-8.69A6.76,6.76,0,0,0,67.21,551H77.3a6,6,0,0,1,1.59.31,5.47,5.47,0,0,0,1.5.18c2.22,0,4.45,0,6.74,0v20.9H41.27c0-4.59-.34-8.3-0.34-12.85,0,0.61,1.52,0,2,0,1.41,0.16,21.34-5.49,22.76-5.4" transform="translate(-0.03 -6.74)"/><path class="cls-18" d="M41.94,559.89c0,4.38.33,8,.33,12.4H87.39v1.44h-59v-0.48a0.47,0.47,0,0,0,.2-0.09,15.39,15.39,0,0,1,1.73-5.51,13.55,13.55,0,0,1,2.5-3.51,6.74,6.74,0,0,1,1.78-1.77" transform="translate(-0.03 -6.74)"/><rect class="cls-12" x="53.81" y="557.71" width="2.4" height="15.85" transform="translate(-227.84 65.97) rotate(-24.29)"/><rect class="cls-12" x="58.13" y="556.27" width="2.47" height="16.31" transform="translate(-226.96 67.65) rotate(-24.29)"/><rect class="cls-12" x="62.34" y="554.92" width="2.65" height="17.5" transform="translate(-226.27 69.36) rotate(-24.29)"/><rect class="cls-19" x="28.32" y="565.07" width="59.04" height="2.66"/><path class="cls-17" d="M132.76,556.78m2.77,4.62h-0.37m4.43,1.44,0,2.57,2.49,0,0-2.58-12-8.69c1.42-.08,21.35,5.56,22.76,5.4,0.44,0,2,.61,2,0,0,4.55-.34,8.26-0.34,12.85H108.54v-20.9c2.29,0,4.52,0,6.74,0a5.47,5.47,0,0,0,1.5-.18,6,6,0,0,1,1.59-.31h10.09a6.76,6.76,0,0,0,1.55,3.14" transform="translate(-0.03 -6.74)"/><path class="cls-18" d="M153.73,559.89c0,4.38-.33,8-0.33,12.4H108.28v1.44h59q0-.24,0-0.48a0.47,0.47,0,0,1-.2-0.09,15.39,15.39,0,0,0-1.73-5.51,13.55,13.55,0,0,0-2.5-3.51,6.74,6.74,0,0,0-1.78-1.77" transform="translate(-0.03 -6.74)"/><rect class="cls-12" x="132.73" y="564.44" width="15.85" height="2.4" transform="translate(-432.8 454.42) rotate(-65.71)"/><rect class="cls-12" x="128.15" y="563.18" width="16.31" height="2.47" transform="translate(-434.25 449.74) rotate(-65.71)"/><rect class="cls-12" x="123.25" y="562.35" width="17.5" height="2.65" transform="translate(-436.1 445.37) rotate(-65.71)"/><rect class="cls-20" x="108.28" y="571.81" width="59.04" height="2.66" transform="translate(275.57 1139.54) rotate(-180)"/><path class="cls-21" d="M47.55,379.89v-1a5.38,5.38,0,0,0,.48-1.77q0-4.92,0-9.84c0-3.32,0-6.64,0-10s-0.24-6.5.23-9.74c0-7.4,0-14.79,0-22.19,0-2.62-.21-5.25.45-7.84,0.12-.46.13-1,0.24-1.46a3.83,3.83,0,0,1,.26-1.57c0-1.32.55-2.56,0.48-3.88a0.47,0.47,0,0,1,.06-0.33,1.37,1.37,0,0,0,.18-1c0.08-.37.19-0.73,0.23-1.1a12.08,12.08,0,0,1,.27-2.29c0.41-1.2.29-2.48,0.67-3.68,0.14-.46.06-1,0.23-1.46s-0.11-1.09.27-1.57c-0.06-1.32.53-2.56,0.48-3.88a0.53,0.53,0,0,1,0-.34,1.24,1.24,0,0,0,.21-1c0.07-.37.19-0.73,0.23-1.1s0.11-1,.2-1.47,0.18-1,.29-1.57h88.8a4.2,4.2,0,0,1,.23.74c0.1,0.8.17,1.61,0.25,2.42a1.4,1.4,0,0,0,0,.35,10.83,10.83,0,0,1,.44,2.33,8.76,8.76,0,0,0,.29,2.16c0.21,0.48,0,1,.22,1.35a2.91,2.91,0,0,1,.22,1.35,0.9,0.9,0,0,0,0,.46c0.38,0.37.06,0.87,0.24,1.23a3.25,3.25,0,0,1,.22,1.35,7.28,7.28,0,0,1,.24,1.94c0.52,1.16.35,2.46,0.69,3.67,0.13,0.46.16,1,.25,1.45a3.69,3.69,0,0,0,.26,1.58c0,1.32.47,2.56,0.52,3.88a4.54,4.54,0,0,0,.25,1.68,14.45,14.45,0,0,1,.21,1.47,3.49,3.49,0,0,1,.22,1.47q0,4.8,0,9.59c0,3.2,0,6.4,0,9.59s-0.07,6.33.17,9.5,0.06,6.63.06,10,0,6.56,0,9.83-0.23,6.58.23,9.86v26.63c0,0.24,0,.48,0,0.72a11.84,11.84,0,0,0,.48,1.53v1.2a0.58,0.58,0,0,0-.23.19q0,4.85,0,9.7a0.58,0.58,0,0,0,.23.19v1.44a2.56,2.56,0,0,0-.48,1.29,7.8,7.8,0,0,1-.24,2.9c0.17,1.74-.32,3.45-0.24,5.18a1.44,1.44,0,0,1,0,.82c-0.34.4-.05,0.88-0.23,1.23a3.24,3.24,0,0,0-.22,1.35,7.3,7.3,0,0,0-.24,1.94,1.25,1.25,0,0,0-.25,1c0,0.37-.18.73-0.23,1.1a12.21,12.21,0,0,1-.27,2.17c-0.37,1.12-.27,2.32-0.68,3.44a6.16,6.16,0,0,1-.2,1.48c-0.25.42,0,1-.26,1.57s-0.06,1-.24,1.46-0.06,1-.24,1.46a4.73,4.73,0,0,1-.27,1.45c0,1.32-.45,2.56-0.53,3.88a4.94,4.94,0,0,1-.24,1.68,4.11,4.11,0,0,0-.19,1.12q-0.11.61-.24,1.22c-0.08.37-.18,0.73-0.23,1.1a13.09,13.09,0,0,1-.28,2.17,11.58,11.58,0,0,1-.25,1.57c-0.26.48,0,1-.22,1.35a2.89,2.89,0,0,0-.22,1.35,0.89,0.89,0,0,1,0,.46c-0.52.49,0.1,1.27-.45,1.74a5.3,5.3,0,0,1-.24,1.82,8.9,8.9,0,0,1-.27,2c-0.2.54-.05,1.11-0.24,1.58a13.58,13.58,0,0,0-.43,2.22,22.58,22.58,0,0,1-.29,2.29,21.72,21.72,0,0,0-.64,3.44c-0.2,1.2-.45,2.4-0.58,3.63a8.34,8.34,0,0,1-.22,1.81,21,21,0,0,0-.64,3.44c-0.2,1.2-.47,2.4-0.57,3.63a5.94,5.94,0,0,1-.23,1.57,4.56,4.56,0,0,0-.21,1.12c-0.05.37-.18,0.73-0.23,1.1a13,13,0,0,1-.27,2.29,25.66,25.66,0,0,0-.64,3.44c-0.21,1.2-.45,2.41-0.58,3.63a8.93,8.93,0,0,1-.22,1.82c-0.37,1.12-.28,2.32-0.67,3.44-0.14.41,0,.89-0.23,1.35s0.08,1-.27,1.45c0.06,1.32-.53,2.56-0.48,3.88a1,1,0,0,1,0,.35,21.59,21.59,0,0,0-.65,3.56,4.79,4.79,0,0,0-.28,2.05c-0.39.47-.06,1.11-0.29,1.55a3.21,3.21,0,0,0-.19,1.13c-0.07.41-.16,0.81-0.24,1.22s-0.19.73-.23,1.1a15,15,0,0,1-.28,2.29,13.2,13.2,0,0,1-.26,1.69,28.2,28.2,0,0,1-.45,2.46,7.77,7.77,0,0,0-.22,1.82c-0.39.39-.1,0.93-0.27,1.33a3.83,3.83,0,0,0-.22,1.47,0.78,0.78,0,0,1-.08.44,1,1,0,0,0-.12.87l2.29,1.1a2.37,2.37,0,0,1,1.52,1.4c0,0.32,0,.64,0,1a1.53,1.53,0,0,1-.76,1.27,8.28,8.28,0,0,1-3,1.39,2.86,2.86,0,0,0-1.3.46V551H109v-1.32a5.58,5.58,0,0,1-3.6-2.13v-1.47a8.16,8.16,0,0,1,1.68-1.42c0.65-.27,1.28-0.58,1.89-0.86,0.16-2.8-.3-5.57.51-8.26a31.71,31.71,0,0,1,.53-3.64,6.85,6.85,0,0,1,.24-1.81,14.15,14.15,0,0,1,.23-1.46,3.14,3.14,0,0,0,.2-1.48,1.25,1.25,0,0,1,0-.47,1.39,1.39,0,0,0,.23-1.11,5.8,5.8,0,0,0,.22-1.22c0-.94.44-1.83,0.26-2.78a2,2,0,0,0,.22-1.46,13.6,13.6,0,0,1,.24-1.46c0-1.14.43-2.24,0.26-3.38a0.53,0.53,0,0,1,0-.35c0.46-.44.14-1,0.23-1.47s0.19-1,.23-1.46a7.72,7.72,0,0,1,.21-2.07,6.2,6.2,0,0,0,0-1.55c0-.49.18-1,0.22-1.46a8.76,8.76,0,0,1,.22-2.31,3.25,3.25,0,0,0,0-1.55,7.26,7.26,0,0,1,.27-1.58,18.54,18.54,0,0,1,.18-2.91c0.22-1.17,0-2.4.26-3.62s0-2.24.22-3.38c0.23-1.33,0-2.72.26-4.1s0-2.88.22-4.34c0.26-1.74,0-3.52.25-5.3s0-3.84.22-5.78c0.3-2.78,0-5.6.24-8.42,0.23-3.26.05-6.56,0.05-9.84v-9.72c0-3.28,0-6.56,0-9.84s0.17-6.49-.19-9.74c-0.29-2.55.11-5.13-.24-7.7-0.27-2,.08-4.09-0.25-6.14-0.25-1.58,0-3.2-.23-4.82s0.06-3.13-.25-4.7c-0.23-1.18.11-2.41-.24-3.62a9.68,9.68,0,0,1,0-2c0-.69-0.16-1.37-0.23-2.06a11.73,11.73,0,0,0-.21-2.79,7.86,7.86,0,0,1,0-1.91c0-.65-0.16-1.29-0.23-1.94a8,8,0,0,0-.21-2.07,6.27,6.27,0,0,1,0-1.79,12.1,12.1,0,0,1-.25-1.82c0.12-1.17-.41-2.31-0.23-3.5a0.18,0.18,0,0,0,0-.12,2.35,2.35,0,0,1-.24-1.46c-0.06-.49-0.19-1-0.23-1.46-0.1-1.13-.17-2.25-0.25-3.38a0.3,0.3,0,0,0,0-.12c-0.55-.87-0.1-1.88-0.43-2.82a26.58,26.58,0,0,1-.32-2.76c-0.15-.66-0.05-1.34-0.25-1.93a6.5,6.5,0,0,1-.2-1.36,12.69,12.69,0,0,1-.22-1.34,9.14,9.14,0,0,1-.25-2.3c-0.46-1.09-.33-2.31-0.7-3.43-0.21-.64-0.11-1.39-0.28-2s-0.19-1.33-.43-2,0-1.27-.3-1.79,0-1.25-.44-1.74a32.69,32.69,0,0,0-.93-4.41,48.51,48.51,0,0,0-1.29-5.12,44.47,44.47,0,0,0-2.8-7.36,13.52,13.52,0,0,0-2.83-4.1c-0.37-.33-0.79-0.61-1.16-0.89h-3.1c-0.45.36-.88,0.68-1.29,1-1.81,1.61-2.62,3.84-3.61,5.94a37.73,37.73,0,0,0-1.32,3.77c-0.44,1.27-.81,2.55-1.13,3.86-0.25,1-.46,2.05-0.76,3a46.29,46.29,0,0,0-1.1,4.81c-0.2,1-.34,2-0.58,3s-0.43,2.14-.61,3.2-0.45,2.41-.58,3.63a6.21,6.21,0,0,1-.24,1.81c-0.29.66-.1,1.35-0.41,2s0.05,1.11-.23,1.71,0,1.19-.24,1.81-0.08,1.2-.25,1.82-0.07,1.28-.24,1.94-0.08,1.36-.23,2.06a23.38,23.38,0,0,0-.28,3.25,1.13,1.13,0,0,1,0,.47,1.93,1.93,0,0,0-.21,1.47,8.91,8.91,0,0,1-.27,1.46,6.33,6.33,0,0,1-.2,2.19,6.18,6.18,0,0,0,0,1.55c0,0.49-.18,1-0.22,1.46a8.92,8.92,0,0,1-.22,2.31,3.28,3.28,0,0,0,0,1.55,7.31,7.31,0,0,1-.27,1.58,18.51,18.51,0,0,1-.18,2.91c-0.22,1.17,0,2.4-.26,3.62s0,2.24-.22,3.38c-0.23,1.33,0,2.72-.26,4.1s0,2.88-.22,4.34c-0.26,1.74,0,3.52-.25,5.3s0,3.84-.22,5.78c-0.3,2.78,0,5.6-.24,8.42-0.23,3.26-.05,6.56-0.05,9.84v9.72c0,3.28,0,6.56,0,9.84s-0.17,6.49.19,9.74c0.29,2.55-.11,5.13.24,7.7,0.27,2-.08,4.09.25,6.14,0.25,1.58,0,3.2.23,4.82s-0.05,3.13.25,4.7c0.23,1.18-.11,2.41.24,3.62a9.69,9.69,0,0,1,0,2c0,0.69.16,1.37,0.23,2.06a11.75,11.75,0,0,0,.21,2.79,7.91,7.91,0,0,1,0,1.91c0,0.65.16,1.29,0.23,1.94a4.26,4.26,0,0,0,.24,2.06c-0.16,1.22.27,2.41,0.23,3.62s0.43,2.32.25,3.5a0.18,0.18,0,0,0,0,.12,2.28,2.28,0,0,1,.24,1.46c0.06,0.49.19,1,.23,1.46,0.1,1.13.17,2.25,0.25,3.38a0.28,0.28,0,0,0,0,.12,1.86,1.86,0,0,1,.22,1.46,6.8,6.8,0,0,0,.27,1.46,15.13,15.13,0,0,0,.27,2.77c0.14,0.58.06,1.18,0.24,1.7a6,6,0,0,1,.21,1.83,0.48,0.48,0,0,0,0,.23c0.42,0.39.07,0.94,0.26,1.33a3.08,3.08,0,0,1,.22,1.35,1.32,1.32,0,0,0,0,.47,9.35,9.35,0,0,1,.45,2.33,5,5,0,0,1,.25,1.94c0.47,0.44,0,1.08.32,1.55a3.14,3.14,0,0,1,.15,1.73c0,1.75,0,3.5,0,5.21a8.43,8.43,0,0,1,2.58,1.24,1.46,1.46,0,0,1,.77,1.27c0,0.35,0,.71,0,1A6.12,6.12,0,0,1,85.93,550v1H67.44a2.16,2.16,0,0,1,.24-1.05,2.27,2.27,0,0,0,0-1.1c-1.77-.48-3.52-0.92-4.53-2.48v-1.4a6,6,0,0,1,3.39-2.22c-0.1-.56-0.22-1.12-0.3-1.68a12.44,12.44,0,0,0-.27-2.29,22.16,22.16,0,0,1-.64-3.44c-0.2-1.2-.44-2.41-0.58-3.63a8.79,8.79,0,0,0-.22-1.82,20.91,20.91,0,0,1-.64-3.44,20.06,20.06,0,0,1-.53-3.63c-0.38-.51-0.06-1.18-0.31-1.67a3,3,0,0,1-.17-1c-0.08-.37-0.19-0.73-0.23-1.1a12,12,0,0,0-.29-2.29c-0.18-.54-0.07-1.09-0.23-1.58a14.63,14.63,0,0,1-.44-2.34,5.28,5.28,0,0,1-.25-1.94c-0.41-.39-0.09-0.93-0.26-1.33a3.22,3.22,0,0,1-.22-1.35,0.89,0.89,0,0,0,0-.47,1.39,1.39,0,0,1-.23-1.11q-0.11-.61-0.24-1.22c-0.08-.37-0.18-0.73-0.23-1.1A13.08,13.08,0,0,0,60,502.1a11.56,11.56,0,0,0-.25-1.57c-0.26-.48,0-1-0.22-1.35a2.89,2.89,0,0,1-.22-1.35,1.46,1.46,0,0,0,0-.47,10.46,10.46,0,0,1-.45-2.33,5.46,5.46,0,0,1-.25-1.94,1.25,1.25,0,0,1-.25-1c0-.37-0.18-0.73-0.23-1.1a12.6,12.6,0,0,0-.27-2.17c-0.4-1.24-.34-2.55-0.68-3.79-0.19-.7-0.06-1.49-0.3-2.16s-0.06-1.09-.23-1.58A14.82,14.82,0,0,1,56.2,479a5,5,0,0,1-.25-1.94,1.67,1.67,0,0,1-.24-1.22,7.27,7.27,0,0,1-.22-1.22c0-.44-0.23-0.82-0.24-1.22,0-1.23-.44-2.41-0.54-3.64a5.94,5.94,0,0,0-.23-1.57,4.56,4.56,0,0,1-.21-1.12c-0.05-.37-0.18-0.73-0.23-1.1a13,13,0,0,0-.27-2.29c-0.36-1.13-.28-2.32-0.67-3.44-0.14-.41,0-0.89-0.23-1.35s0-1-.24-1.46-0.06-1-.24-1.46a6.65,6.65,0,0,1-.23-1.45c-0.13-1.06-.28-2.11-0.51-3.16a7.52,7.52,0,0,0-.22-1.35c-0.18-.43,0-1-0.24-1.46s-0.06-1-.24-1.46a10.61,10.61,0,0,1-.23-1.46c-0.21-1-.26-2.11-0.5-3.16a8.15,8.15,0,0,0-.22-1.35c-0.17-.43,0-1-0.24-1.46s-0.06-1-.24-1.46a4.56,4.56,0,0,0-.27-1.45c0-1.32-.55-2.56-0.48-3.88a0.47,0.47,0,0,0-.07-0.33,1.39,1.39,0,0,1-.17-1,7.16,7.16,0,0,1-.23-1.1c-0.1-1.77-.17-3.53-0.25-5.3a12.61,12.61,0,0,0-.48-1.53V406.29c0.51-.19.22-0.62,0.22-0.91q0-12.29,0-24.58a5.85,5.85,0,0,0,0-.72A0.57,0.57,0,0,0,47.55,379.89Z" transform="translate(-0.03 -6.74)"/><path class="cls-22" d="M194.9,226.08c0.06-2.68.05-5.36,0-8,0-1.53-.34-3-0.23-4.58a7.09,7.09,0,0,1-.23-2.78,7.62,7.62,0,0,1-.26-1.46,2,2,0,0,0-.21-1.46,0.88,0.88,0,0,1,0-.35,19,19,0,0,0-.27-3.13c-0.3-1.22-.24-2.48-0.66-3.68-0.23-.67-0.12-1.46-0.28-2.17a27.73,27.73,0,0,0-.65-3,14.7,14.7,0,0,1-.25-1.45c-0.25-1-.4-2.06-0.68-3.08s-0.56-1.95-.74-2.93c-0.26-1.45-.7-2.84-1.06-4.26-0.4-1.57-.94-3.12-1.44-4.68-0.43-1.34-.92-2.66-1.4-4s-0.88-2.43-1.38-3.63c-0.9-2.15-1.84-4.28-2.78-6.41-0.68-1.53-1.36-3.05-2.18-4.49-1.34-2.37-2.57-4.8-4.09-7.08-0.94-1.4-1.83-2.84-2.77-4.24-0.72-1.07-1.49-2.11-2.28-3.14-1.13-1.48-2.33-2.9-3.53-4.31-0.53-.63-1.1-1.21-1.64-1.83s-1.33-1.55-2-2.27-1.58-1.41-2.35-2.14a2.84,2.84,0,0,1-1-1.16,1.06,1.06,0,0,0-.5-0.51c-0.65-.36-1.35-0.63-2-1-1.15-.77-2.45-1.28-3.59-2.08-0.87-.61-1.95-0.92-2.85-1.49-1.17-.73-2.4-1.37-3.59-2.07s-2.15-1.17-3.22-1.77-2.18-1.14-3.22-1.81-2-1-3-1.55a1,1,0,0,0-.38-0.22c-1,.16-1.84-0.28-2.78-0.27a7.45,7.45,0,0,1-1.46-.23c-0.45-.08-1,0.22-1.36-0.21a0.69,0.69,0,0,0-.35,0c-1.17-.08-2.33-0.19-3.5-0.23s-2.32,0-3.48,0a7.24,7.24,0,0,0-2,2.1,3.29,3.29,0,0,1-.58.6c-1.61,1.69-3.29,3.31-4.8,5.09-0.87,1-1.9,1.89-2.72,2.94s-2.12,2.13-3,3.3-2.1,2-3,3.2c-1,1.37-2.38,2.4-3.51,3.76-0.25-.23-0.46-0.39-0.65-0.58L103,139.25a0.48,0.48,0,0,1,0,.1c-0.06.26-.14,0.52-0.23,0.78h0a6.67,6.67,0,0,1-3.29,4,0.52,0.52,0,0,1-.34.36c-0.05.43-.13,0.86-0.21,1.29s0.23,1-.23,1.34a0.23,0.23,0,0,0,0,.12c0,0.44,0,.88,0,1.32a7.12,7.12,0,0,0-.21,1.22,18.62,18.62,0,0,1-.31,4c-0.11.89,0,1.8-.23,2.66s0,1.65-.24,2.42c-0.24.94,0,1.89-.24,2.78-0.24,1.05,0,2.13-.25,3.14-0.26,1.22,0,2.45-.24,3.62s0,2.21-.23,3.26c-0.28,1.37,0,2.76-.25,4.1s0,2.93-.24,4.34c-0.33,1.86,0,3.72-.24,5.54a44,44,0,0,0-.2,5.54,52.89,52.89,0,0,1,0,5.51,77.64,77.64,0,0,0-.18,7.95c-0.06,2.68,0,5.36,0,8s-0.17,5.37,0,8c0.31,3.89.1,7.78,0.2,11.66,0.47,1.87,0,3.79.28,5.65,0.21,1.54,0,3.09.25,4.58a26.18,26.18,0,0,1,.18,3.75,10.43,10.43,0,0,1,.27,1.82,4.61,4.61,0,0,0,0,1.91,14.13,14.13,0,0,1,.21,3.15c0.06,0.61.19,1.21,0.23,1.82a7.19,7.19,0,0,0,0,1.79,8.1,8.1,0,0,1,.2,2.79q0,13.56,0,27.12a8,8,0,0,1-.08,1.14,5.67,5.67,0,0,1-.4-2.38c0.06-.47-0.33-0.84-0.26-1.34a1.17,1.17,0,0,0-.21-1.22,0.52,0.52,0,0,1,0-.23c-0.08-1.13-.15-2.25-0.25-3.38,0-.49-0.17-1-0.23-1.46a2.39,2.39,0,0,0-.24-1.46,0.18,0.18,0,0,1,0-.12c0.18-1.18-.36-2.33-0.22-3.5a18.56,18.56,0,0,0-.26-1.94,6.91,6.91,0,0,0,0-2c-0.27-.9,0-1.81-0.23-2.67-0.27-1.25,0-2.53-.26-3.74s0-2.44-.23-3.62,0-2.61-.26-3.86a18.63,18.63,0,0,1-.16-4.11c0-1.23-.33-2.4-0.28-3.62a17.36,17.36,0,0,0,0-3.71c-0.33-1.86,0-3.71-.22-5.54-0.39-3.17-.12-6.34-0.22-9.5a11.14,11.14,0,0,1-.23-3.5,3.13,3.13,0,0,1,.2-1.6,1.5,1.5,0,0,0,0-1.17,5.17,5.17,0,0,1-.2-2.31q0-9.36,0-18.72a5.57,5.57,0,0,1,.19-2.08,1.69,1.69,0,0,0-.12-1.48,1.12,1.12,0,0,1-.08-0.56,16.59,16.59,0,0,1,0-3.11,26.84,26.84,0,0,0,.2-4.47,40,40,0,0,1,0-4.43c0.28-2.09,0-4.2.25-6.26,0.26-1.9,0-3.8.23-5.66s0-4,.25-5.9c0.16-1.22,0-2.45.23-3.62s0-2.52.24-3.74,0-2.52.25-3.74c0.17-1,0-2,.24-2.9s0-2,.23-3,0.05-1.89.25-2.78,0.05-1.6.22-2.35a0.43,0.43,0,0,1-.19-0.14l-0.08,0a0.46,0.46,0,0,1-.47-0.42l-0.05,0,0,0-0.08-.05A11.77,11.77,0,0,1,92.14,139a0.5,0.5,0,0,1,0-.15l-2.78,2.78a5.67,5.67,0,0,1-1.06-1,4.91,4.91,0,0,1-1-1,9.35,9.35,0,0,0-1.55-1.75c-1.29-1.39-2.67-2.7-3.87-4.17-0.73-.89-1.6-1.63-2.31-2.52-1-1.24-2.22-2.26-3.21-3.48-0.77-1-1.72-1.74-2.48-2.69a38.75,38.75,0,0,0-3.07-3.28c-0.26-.26-0.22-0.77-0.71-0.84H65.55a6.84,6.84,0,0,0-2.83.7c-1.41.55-2.78,1.2-4.2,1.74-0.92.35-1.81,0.83-2.74,1.21a24.68,24.68,0,0,1-2.53,1.12c-0.87.25-1.55,0.86-2.46,1a12.39,12.39,0,0,0-1.72.74c-1,.36-1.86.9-2.81,1.32a23.3,23.3,0,0,1-2.46,1,21.48,21.48,0,0,1-2.35,1,6.81,6.81,0,0,0-1.61.72c-1.52.77-3.18,1.23-4.66,2.09a1.29,1.29,0,0,0-.61.58,9.12,9.12,0,0,1-2.35,2.57,10,10,0,0,0-1.62,1.53,10.83,10.83,0,0,1-.89,1.06c-1,1.13-2.16,2.2-3.11,3.4s-1.94,2.29-2.81,3.5c-1.21,1.69-2.42,3.39-3.59,5.11-1,1.46-1.86,3-2.84,4.46-0.61.92-1,2-1.55,2.95-0.93,1.61-1.81,3.24-2.58,4.93-0.43.94-.9,1.87-1.3,2.82s-0.74,1.86-1.15,2.76c-0.49,1.08-.94,2.17-1.37,3.27-0.6,1.51-1.15,3-1.68,4.58s-1.09,3.15-1.55,4.75c-0.38,1.32-.81,2.63-1.11,4A18.14,18.14,0,0,1,4.51,188a7.43,7.43,0,0,1-.64,2.13,34.68,34.68,0,0,1-.76,3.77,14.39,14.39,0,0,1-.65,3,9.08,9.08,0,0,0-.27,1.93c-0.06.37-.18,0.73-0.23,1.1A3.53,3.53,0,0,1,1.74,201c-0.19.43,0.1,1-.27,1.44,0.17,0.87-.27,1.68-0.26,2.54A8.88,8.88,0,0,1,1,206.57c-0.09.53,0.21,1.11-.24,1.58a0.18,0.18,0,0,0,0,.12,18.59,18.59,0,0,1-.24,3c0,1.73-.4,3.44-0.25,5.18a0.6,0.6,0,0,1-.23.19v16.8a0.57,0.57,0,0,1,.23.19c0,0.32,0,.64,0,1,0.08,1.65.07,3.3,0.28,4.93a17.84,17.84,0,0,0,.24,2.18C1,242.45.85,243.2,1,243.89s0.07,1.25.23,1.82,0.08,1.25.25,1.82,0.07,1,.24,1.46,0.08,1,.24,1.46,0.08,1,.23,1.46A33.51,33.51,0,0,1,3.09,256c0.25,1.25.54,2.51,0.8,3.77s0.77,2.66.94,4a6.87,6.87,0,0,1,.62,1.91A7.35,7.35,0,0,1,6,267.62c0.09,0.73.46,1.34,0.61,2a10.34,10.34,0,0,0,.63,1.9,13,13,0,0,1,.66,1.88c0.26,1,.7,2,1,2.94s0.74,1.85,1.12,2.78,0.83,1.9,1.2,2.86,0.82,1.9,1.26,2.84c0.72,1.5,1.37,3,2.18,4.49,0.69,1.24,1.33,2.5,2,3.72,0.6,1,1.24,2,1.78,3.09a3,3,0,0,0,.45.53l-1.76,1L22,303.51a4.48,4.48,0,0,0,2.24-.55c2.22-.72,4.34-1.69,6.6-2.31a15.88,15.88,0,0,1,3-1.18,15.36,15.36,0,0,1,3.07-1,4.5,4.5,0,0,0,1-.47,5.91,5.91,0,0,1,3.16-.47l0.06-.59,0.79-.55-5-7.73a1.2,1.2,0,0,0-1,.18,3.14,3.14,0,0,1-1,.36L34.27,288a26.24,26.24,0,0,1-1.58-3.06c-0.67-1.84-1.49-3.63-2.23-5.44-1.12-2.75-2-5.57-2.95-8.38a40.36,40.36,0,0,1-1.1-4c-0.31-1.42-.78-2.8-1.12-4.21-0.23-1-.35-1.93-0.55-2.9a9.54,9.54,0,0,0-.41-1.63,7.22,7.22,0,0,0-.26-1.58,8.39,8.39,0,0,1-.25-1.56,20.57,20.57,0,0,1-.29-2.29,14.47,14.47,0,0,0-.29-2c-0.25-.72,0-1.44-0.21-2.07a4.79,4.79,0,0,1-.2-2,13.14,13.14,0,0,1-.27-1.82,4.64,4.64,0,0,0,0-1.91,9.93,9.93,0,0,1-.2-3q0-5.76,0-11.52c0-.69.18-1.37,0.22-2.06a9.86,9.86,0,0,1,.05-2.15,10.78,10.78,0,0,0,.2-2.07c0.05-.49.15-1,0.24-1.46s-0.22-1,.23-1.47a1.12,1.12,0,0,0,0-.47c0.07-.69.19-1.37,0.23-2.06s0.22-1.29.3-1.93a21.32,21.32,0,0,1,.46-2.68c0.32-1.27.45-2.58,0.85-3.84,0.24-.77.34-1.61,0.56-2.41,0.38-1.44.69-2.9,1.14-4.33,0.3-1,.48-2,0.81-2.91,0.7-2,1.33-4,2.06-6,0.67-1.8,1.39-3.59,2.12-5.37,0.84-2.05,1.87-4,2.86-6,0.81-1.63,1.65-3.24,2.55-4.82,1.1-1.92,2.32-3.77,3.55-5.61s2.56-3.69,4-5.43c0.25-.31.46-0.66,0.77-1.09,0.12,1.51.27,2.86,0.32,4.22s0,2.8,0,4.2a26.49,26.49,0,0,1,.24,3.62,4.79,4.79,0,0,1,.24,2.18,9.25,9.25,0,0,1,.26,1.58,2,2,0,0,0,.22,1.58,0.19,0.19,0,0,1,0,.12c-0.18,1.26.32,2.48,0.26,3.74a9.53,9.53,0,0,0,.22,1.82c0.08,0.57-.22,1.19.23,1.71a0.52,0.52,0,0,1,0,.24c0.08,1.25.18,2.49,0.23,3.74a11.22,11.22,0,0,1,.27,1.82,2.23,2.23,0,0,0,.21,1.7,0.55,0.55,0,0,1,0,.24c0.08,1.29.14,2.58,0.25,3.86a8.56,8.56,0,0,1,.24,1.58A2.34,2.34,0,0,0,49,204a0.58,0.58,0,0,1,0,.24c0.08,1.33.15,2.65,0.24,4a9.31,9.31,0,0,1,.26,1.58,2,2,0,0,0,.22,1.58,0.19,0.19,0,0,1,0,.12c-0.18,1.26.32,2.48,0.26,3.74a9.5,9.5,0,0,0,.22,1.82c0.08,0.57-.22,1.19.23,1.71a0.52,0.52,0,0,1,0,.24c0.08,1.25.18,2.49,0.23,3.74a11.17,11.17,0,0,1,.27,1.82,2.23,2.23,0,0,0,.21,1.7,0.55,0.55,0,0,1,0,.24c0.08,1.29.14,2.58,0.25,3.86a8.67,8.67,0,0,1,.24,1.58,2.33,2.33,0,0,0,.22,1.58,0.57,0.57,0,0,1,0,.24c0.08,1.33.15,2.65,0.24,4a9.2,9.2,0,0,1,.26,1.58,2.05,2.05,0,0,0,.22,1.58,0.27,0.27,0,0,1,0,.12c0.08,1.29.15,2.57,0.25,3.86,0,0.57.15,1.13,0.24,1.7s-0.22,1.19.23,1.71a0.52,0.52,0,0,1,0,.24c0.08,1.25.18,2.49,0.23,3.74a11.08,11.08,0,0,1,.27,1.82,2.23,2.23,0,0,0,.21,1.7,0.55,0.55,0,0,1,0,.24c0.08,1.29.14,2.58,0.25,3.86a8.78,8.78,0,0,1,.24,1.58,2.34,2.34,0,0,0,.22,1.58,0.57,0.57,0,0,1,0,.24c0.08,1.33.15,2.65,0.24,4a9.23,9.23,0,0,1,.25,1.58,3.83,3.83,0,0,0,.18,1.59,5.06,5.06,0,0,1,0,1.9,4.8,4.8,0,0,1-.18,1.84,4.74,4.74,0,0,0-.25,1.68c0,1.4-.62,2.72-0.52,4.12-0.45,1.1-.26,2.33-0.72,3.42a9.47,9.47,0,0,1-.25,2.3,12.24,12.24,0,0,1-.22,1.22,5.9,5.9,0,0,1-.21,1.23c-0.23.68-.13,1.46-0.3,2.16a6.74,6.74,0,0,0-.22,1.94c-0.53.52-.11,1.24-0.43,1.87s0,1.27-.27,1.92a6.75,6.75,0,0,0-.2,1.47h39.9c0.58-1.65,1.91-2.85,2.78-4.34s2-2.85,3-4.29l0.36,0.75a22.3,22.3,0,0,1,1.68,3.11,4,4,0,0,1,.32.69,6.81,6.81,0,0,1,.16.76h0.39c0.27,0.59.51,1.22,0.83,1.8a2.75,2.75,0,0,0,1.46,1.52h40.76l-0.26-.81a3.28,3.28,0,0,0-.2-1.34c-0.21-.47.18-1.1-0.27-1.57,0.16-.71-0.29-1.36-0.23-2.06a3.27,3.27,0,0,0-.24-1.22,2.74,2.74,0,0,0-.21-1.24,2.45,2.45,0,0,1-.05-0.93c0-.29-0.19-0.57-0.22-0.86-0.1-.76-0.11-1.54-0.26-2.3-0.21-1-.33-2.11-0.49-3.16s-0.36-2-.5-3a5.44,5.44,0,0,0-.25-1.68,7,7,0,0,1-.2-1.6,13.91,13.91,0,0,1-.49-4.12,18.41,18.41,0,0,1,.26-2.06,3.47,3.47,0,0,1,.24-1.94,0.28,0.28,0,0,0,0-.12c0.08-1.29.15-2.57,0.25-3.86,0-.57.15-1.14,0.24-1.7s-0.22-1.19.23-1.71a0.52,0.52,0,0,0,0-.24c0.08-1.25.18-2.49,0.23-3.74a11.05,11.05,0,0,0,.27-1.82,2.23,2.23,0,0,1,.21-1.7,0.55,0.55,0,0,0,0-.24c0.08-1.29.14-2.58,0.25-3.86a8.82,8.82,0,0,0,.24-1.58,2.35,2.35,0,0,1,.22-1.58,0.57,0.57,0,0,0,0-.24c0.08-1.33.15-2.65,0.24-4a9.29,9.29,0,0,0,.25-1.58,2.07,2.07,0,0,1,.22-1.58,0.27,0.27,0,0,0,0-.12c0.08-1.29.15-2.57,0.25-3.86,0-.57.15-1.14,0.24-1.7s-0.22-1.19.23-1.71a0.52,0.52,0,0,0,0-.24c0.08-1.25.18-2.49,0.23-3.74a10.81,10.81,0,0,0,.27-1.82,2.22,2.22,0,0,1,.21-1.7,0.55,0.55,0,0,0,0-.24c0.08-1.25.15-2.49,0.25-3.74,0-.45.18-0.89,0.22-1.34a5,5,0,0,1,0-1.31,7.49,7.49,0,0,0,.21-2.43,8.76,8.76,0,0,0,.26-1.58,2.05,2.05,0,0,1,.21-1.58,0.54,0.54,0,0,0,0-.24c0.08-1.25.15-2.49,0.25-3.74,0-.49.18-1,0.22-1.46a6,6,0,0,1,0-1.43,18.67,18.67,0,0,0,.24-2.3c0.2-.81.07-1.64,0.25-2.42s0.06-1.65.24-2.42a17.05,17.05,0,0,0,.22-2.55,8.93,8.93,0,0,0,.24-1.58,2.25,2.25,0,0,1,.22-1.58,0.28,0.28,0,0,0,0-.12c0.08-1.25.18-2.49,0.23-3.74a11.59,11.59,0,0,0,.27-1.82,2.24,2.24,0,0,1,.21-1.7,0.55,0.55,0,0,0,0-.24c0.08-1.29.14-2.58,0.25-3.86a9,9,0,0,0,.24-1.58,2.32,2.32,0,0,1,.22-1.58,0.57,0.57,0,0,0,0-.24c0.08-1.33.19-2.65,0.23-4s0-2.72,0-4.08c0-1.2.42-2.38,0.36-3.68,0.37,0.45.75,0.89,1.1,1.35,1.66,2.21,3.27,4.46,4.77,6.79,1.11,1.73,2.14,3.5,3.15,5.29,1.37,2.43,2.59,4.93,3.78,7.44,0.82,1.73,1.51,3.53,2.23,5.32,1.12,2.75,2,5.56,2.94,8.38,0.42,1.31.8,2.64,1.11,4s0.79,2.8,1.09,4.22c0.19,0.88.37,1.77,0.58,2.64a16.66,16.66,0,0,0,.44,2c0.18,0.49,0,1,.24,1.58a10.34,10.34,0,0,1,.28,2.17c0.05,0.41.18,0.81,0.23,1.22a6.22,6.22,0,0,0,.2,1.11c0.17,0.57.12,1.2,0.24,1.82a31.22,31.22,0,0,1,.28,3.37c0.06,0.65.19,1.29,0.23,1.94a9.05,9.05,0,0,0,0,1.91,13.39,13.39,0,0,1,.2,3.75q0.06,4.68,0,9.36c0,1.85-.06,3.7-0.27,5.54-0.09.81-.07,1.64-0.24,2.42s-0.12,1.38-.23,2.06-0.12,1.31-.27,1.93-0.07,1.09-.22,1.58-0.1,1-.23,1.46c-0.42,1.53-.37,3.15-0.94,4.65a2.5,2.5,0,0,1-.28,1.57,14.35,14.35,0,0,1-.36,1.65,8.68,8.68,0,0,0-.32,1.55c-0.13.5-.37,1-0.46,1.48-0.27,1.44-.77,2.8-1.15,4.2-0.29,1.08-.65,2.13-1,3.19s-0.57,2.17-1,3.19c-0.51,1.23-.91,2.5-1.44,3.72-1.3,3-2.59,6.05-4.2,9a1.53,1.53,0,0,1-1.43-.46h-0.68l-5,7.68a1.15,1.15,0,0,0,.9.54l0.08,0.33a0.49,0.49,0,0,0,.2.09,5.52,5.52,0,0,1,2.39.61c2,0.66,4,1.4,6,2.1,2.2,0.78,4.37,1.63,6.58,2.37,0.94,0.31,1.88.68,2.82,1a5.92,5.92,0,0,0,.83.18l4.77-5.94L175.9,297c0.46-.79.85-1.55,1.32-2.26,0.73-1.09,1.32-2.25,2-3.39,0.92-1.65,1.82-3.32,2.62-5,0.42-.9.91-1.79,1.26-2.72s0.72-1.79,1.1-2.66,0.88-2,1.28-3.07c0.62-1.58,1.23-3.17,1.78-4.78s1.05-3.17,1.53-4.77c0.4-1.36.81-2.71,1.15-4.09,0.22-.86.43-1.73,0.68-2.59s0.48-1.73.69-2.59,0.38-1.69.52-2.55a4.53,4.53,0,0,1,.29-1.67c0.34-.51-0.09-1.13.42-1.52a7.24,7.24,0,0,1,.25-1.57,5.88,5.88,0,0,1,.24-1.34c0.13-.39.06-0.8,0.21-1.23a10.16,10.16,0,0,0,.29-2.16c0.06-.49.15-1,0.24-1.46s-0.21-1,.21-1.35a0.31,0.31,0,0,0,0-.23c-0.18-1.11.31-2.16,0.26-3.26a13.92,13.92,0,0,1,.21-1.58,7.15,7.15,0,0,1,0-1.67c0.37-1.09,0-2.2.23-3.27C195.14,231.46,194.84,228.76,194.9,226.08ZM136.31,194c-1,.17-20.61.24-24.4,0.07V164.11h24.4V194Z" transform="translate(-0.03 -6.74)"/><path class="cls-23" d="M83.05,120.87" transform="translate(-0.03 -6.74)"/><path class="cls-24" d="M92.6,138.36l0.14-.14a4.89,4.89,0,0,1,.11-1.31c0-.11,0-0.21-0.08-0.32a0.44,0.44,0,0,1,.29-0.57,18.9,18.9,0,0,0-.86-2.38l-9.07-12.57c-0.26-.14-0.56-0.2-0.81-0.35a34.34,34.34,0,0,0-3.61-2,0.73,0.73,0,0,1-.19-0.23H76.83a0.59,0.59,0,0,1-.19.23c-2.17-.13-4.32.18-6.47,0.25a7.54,7.54,0,0,0-1.52.06l1.47,1.86c0.49,0.06.45,0.58,0.71,0.84A38.75,38.75,0,0,1,73.89,125c0.76,0.95,1.7,1.73,2.48,2.69,1,1.22,2.22,2.24,3.21,3.48,0.71,0.89,1.58,1.63,2.31,2.52,1.2,1.46,2.58,2.78,3.87,4.17a9.35,9.35,0,0,1,1.55,1.75,4.91,4.91,0,0,0,1,1,5.67,5.67,0,0,0,1.06,1l2.78-2.78A0.5,0.5,0,0,1,92.6,138.36Z" transform="translate(-0.03 -6.74)"/><path class="cls-23" d="M92.45,130.52" transform="translate(-0.03 -6.74)"/><path class="cls-24" d="M118.17,119a4,4,0,0,1-.84,0,3.68,3.68,0,0,1-.65-0.2,10.7,10.7,0,0,1-1.43.8c-2.42.86-1.37,1.55-2.92,1.36-1.23.72-2.21,2.53-3.25,3.17s-5.24,8.87-7.26,12a0.49,0.49,0,0,1-.19.58,1.48,1.48,0,0,0-.24.22,1.81,1.81,0,0,1,.11.72,0.48,0.48,0,0,1,0,.14l1,1a0.5,0.5,0,0,1,.51.51L105,141.3c0.19,0.19.39,0.35,0.65,0.58,1.14-1.36,2.48-2.39,3.51-3.76,0.87-1.16,2.05-2,3-3.2s2.11-2.11,3-3.3,1.85-1.91,2.72-2.94c1.51-1.78,3.19-3.4,4.8-5.09a3.29,3.29,0,0,0,.58-0.6,7.24,7.24,0,0,1,2-2.1,4.7,4.7,0,0,1,1.33-1.7C123.67,119.35,120.93,118.79,118.17,119Z" transform="translate(-0.03 -6.74)"/><path class="cls-23" d="M101.72,130.54" transform="translate(-0.03 -6.74)"/><path class="cls-24" d="M111.91,164.11h24.4V194c-1,.17-20.61.24-24.4,0.07V164.11Z" transform="translate(-0.03 -6.74)"/><path class="cls-25" d="M97.25,147.26c-0.76,0-1.08.43-1.66,0.18" transform="translate(-0.03 -6.74)"/><path class="cls-24" d="M98.91,145.83c0.06-.34.12-0.67,0.17-1a5.47,5.47,0,0,1-3.28.42c-0.12.71,0,1.46-.2,2.2s-0.06,1.84-.25,2.78,0,2-.23,3-0.07,1.92-.24,2.9c-0.21,1.22,0,2.48-.25,3.74s0,2.48-.24,3.74-0.07,2.4-.23,3.62c-0.26,1.94,0,3.92-.25,5.9s0,3.76-.23,5.66c-0.28,2.06,0,4.17-.25,6.26a40,40,0,0,0,0,4.43,26.84,26.84,0,0,1-.2,4.47,16.59,16.59,0,0,0,0,3.11,1.12,1.12,0,0,0,.08.56,1.69,1.69,0,0,1,.12,1.48,5.57,5.57,0,0,0-.19,2.08q0,9.36,0,18.72a5.17,5.17,0,0,0,.2,2.31,1.5,1.5,0,0,1,0,1.17,3.13,3.13,0,0,0-.2,1.6,11.14,11.14,0,0,0,.23,3.5c0.1,3.17-.17,6.34.22,9.5,0.23,1.83-.11,3.69.22,5.54a17.36,17.36,0,0,1,0,3.71c-0.05,1.22.32,2.39,0.28,3.62A18.63,18.63,0,0,0,94.3,255c0.24,1.25,0,2.56.26,3.86s0,2.4.23,3.62,0,2.49.26,3.74c0.19,0.86,0,1.77.23,2.67a6.91,6.91,0,0,1,0,2,18.56,18.56,0,0,1,.26,1.94c-0.13,1.17.4,2.31,0.22,3.5a0.18,0.18,0,0,0,0,.12,2.39,2.39,0,0,1,.24,1.46c0.06,0.49.19,1,.23,1.46,0.1,1.13.17,2.25,0.25,3.38a0.52,0.52,0,0,0,0,.23,1.17,1.17,0,0,1,.21,1.22c-0.07.51,0.32,0.88,0.26,1.34a5.67,5.67,0,0,0,.4,2.38,8,8,0,0,0,.08-1.14q0-13.56,0-27.12a8.1,8.1,0,0,0-.2-2.79,7.19,7.19,0,0,1,0-1.79c0-.61-0.17-1.21-0.23-1.82a14.13,14.13,0,0,0-.21-3.15,4.61,4.61,0,0,1,0-1.91,10.43,10.43,0,0,0-.27-1.82,26.18,26.18,0,0,0-.18-3.75c-0.27-1.49,0-3-.25-4.58-0.26-1.86.19-3.78-.28-5.65-0.1-3.89.12-7.77-.2-11.66-0.22-2.66,0-5.36,0-8s0-5.36,0-8a77.64,77.64,0,0,1,.18-7.95,52.89,52.89,0,0,0,0-5.51,44,44,0,0,1,.2-5.54c0.26-1.82-.09-3.69.24-5.54,0.25-1.41,0-2.88.24-4.34s0-2.73.25-4.1c0.22-1.06,0-2.16.23-3.26s0-2.4.24-3.62c0.22-1,0-2.08.25-3.14,0.2-.89,0-1.84.24-2.78,0.2-.77.06-1.6,0.24-2.42s0.12-1.77.23-2.66a18.62,18.62,0,0,0,.31-4,7.12,7.12,0,0,1,.21-1.22c0-.44,0-0.88,0-1.32a0.23,0.23,0,0,1,0-.12C99.13,146.8,98.82,146.28,98.91,145.83Z" transform="translate(-0.03 -6.74)"/><path class="cls-26" d="M99.87,294.17H98.25a24.16,24.16,0,0,0-.46-2.48c-0.14-.62-0.16-1.27-0.3-1.89a0.69,0.69,0,0,1,.23-0.18,22.31,22.31,0,0,1,1.68,3.11,4,4,0,0,1,.32.69A6.81,6.81,0,0,1,99.87,294.17Z" transform="translate(-0.03 -6.74)"/><path class="cls-27" d="M89.1,140a1.61,1.61,0,0,1-1.2-1,1.51,1.51,0,0,1-.15-1,1.64,1.64,0,0,1,1.79-1.39,1.61,1.61,0,0,1,1.2,1,1.51,1.51,0,0,1,.15,1A1.64,1.64,0,0,1,89.1,140Z" transform="translate(-0.03 -6.74)"/><text x="-0.03" y="-6.74"/><path class="cls-27" d="M105,140.5a1.61,1.61,0,0,1-1.2-1,1.51,1.51,0,0,1-.15-1,1.64,1.64,0,0,1,1.79-1.39,1.61,1.61,0,0,1,1.2,1,1.51,1.51,0,0,1,.15,1A1.64,1.64,0,0,1,105,140.5Z" transform="translate(-0.03 -6.74)"/><path class="cls-27" d="M36.43,296.37a1.61,1.61,0,0,1-1.2-1,1.51,1.51,0,0,1-.15-1A1.64,1.64,0,0,1,36.87,293a1.61,1.61,0,0,1,1.2,1,1.51,1.51,0,0,1,.15,1A1.64,1.64,0,0,1,36.43,296.37Z" transform="translate(-0.03 -6.74)"/><path class="cls-27" d="M158.18,297a1.61,1.61,0,0,1-1.2-1,1.51,1.51,0,0,1-.15-1,1.64,1.64,0,0,1,1.79-1.39,1.61,1.61,0,0,1,1.2,1,1.51,1.51,0,0,1,.15,1A1.64,1.64,0,0,1,158.18,297Z" transform="translate(-0.03 -6.74)"/><path class="cls-27" d="M97,148.71a1.61,1.61,0,0,1-1.2-1,1.51,1.51,0,0,1-.15-1,1.64,1.64,0,0,1,1.79-1.39,1.61,1.61,0,0,1,1.2,1,1.51,1.51,0,0,1,.15,1A1.64,1.64,0,0,1,97,148.71Z" transform="translate(-0.03 -6.74)"/><path class="cls-27" d="M95.37,166.78a1.61,1.61,0,0,1-1.2-1,1.51,1.51,0,0,1-.15-1,1.64,1.64,0,0,1,1.79-1.39,1.61,1.61,0,0,1,1.2,1,1.51,1.51,0,0,1,.15,1A1.64,1.64,0,0,1,95.37,166.78Z" transform="translate(-0.03 -6.74)"/><path class="cls-27" d="M94.2,184.85a1.61,1.61,0,0,1-1.2-1,1.51,1.51,0,0,1-.15-1,1.64,1.64,0,0,1,1.79-1.39,1.61,1.61,0,0,1,1.2,1,1.51,1.51,0,0,1,.15,1A1.64,1.64,0,0,1,94.2,184.85Z" transform="translate(-0.03 -6.74)"/><path class="cls-27" d="M94.2,202.92a1.61,1.61,0,0,1-1.2-1,1.51,1.51,0,0,1-.15-1,1.64,1.64,0,0,1,1.79-1.39,1.61,1.61,0,0,1,1.2,1,1.51,1.51,0,0,1,.15,1A1.64,1.64,0,0,1,94.2,202.92Z" transform="translate(-0.03 -6.74)"/><path class="cls-27" d="M94.2,224.4a1.61,1.61,0,0,1-1.2-1,1.51,1.51,0,0,1-.15-1,1.64,1.64,0,0,1,1.79-1.39,1.61,1.61,0,0,1,1.2,1,1.51,1.51,0,0,1,.15,1A1.64,1.64,0,0,1,94.2,224.4Z" transform="translate(-0.03 -6.74)"/><path class="cls-27" d="M94.93,243.42a1.61,1.61,0,0,1-1.2-1,1.51,1.51,0,0,1-.15-1,1.64,1.64,0,0,1,1.79-1.39,1.61,1.61,0,0,1,1.2,1,1.51,1.51,0,0,1,.15,1A1.64,1.64,0,0,1,94.93,243.42Z" transform="translate(-0.03 -6.74)"/><path class="cls-27" d="M96,268.44a1.61,1.61,0,0,1-1.2-1,1.51,1.51,0,0,1-.15-1,1.64,1.64,0,0,1,1.79-1.39,1.61,1.61,0,0,1,1.2,1,1.51,1.51,0,0,1,.15,1A1.64,1.64,0,0,1,96,268.44Z" transform="translate(-0.03 -6.74)"/><path class="cls-27" d="M97,291.12a1.61,1.61,0,0,1-1.2-1,1.51,1.51,0,0,1-.15-1,1.64,1.64,0,0,1,1.79-1.39,1.61,1.61,0,0,1,1.2,1,1.51,1.51,0,0,1,.15,1A1.64,1.64,0,0,1,97,291.12Z" transform="translate(-0.03 -6.74)"/><line class="cls-28" x1="95.8" y1="139.29" x2="166.51" y2="68.58"/><line class="cls-28" x1="95.11" y1="281.43" x2="165.82" y2="210.72"/><path class="cls-29" d="M97.71,290.61" transform="translate(-0.03 -6.74)"/><path class="cls-9" d="M76.25,71.59s0.14,0.4.42,1.05c0.14,0.33.33,0.71,0.55,1.13A13.66,13.66,0,0,0,78,75.11a5.69,5.69,0,0,0,.53.68,5.8,5.8,0,0,0,.61.65,4.71,4.71,0,0,0,.69.59l0.37,0.28c0.13,0.09.27,0.15,0.41,0.23L81,77.78,81.48,78l0.44,0.18,0.48,0.12a9.77,9.77,0,0,0,2,.32l1.07,0h0.13s0.08,0,0,0H86l0.6,0c0.8,0,1.58,0,2.34,0,1.52,0,2.95.08,4.18,0.2s2.25,0.25,3,.37,1.13,0.23,1.13.23-0.39.16-1.09,0.37-1.68.5-2.88,0.75-2.59.53-4.1,0.74c-0.75.1-1.53,0.2-2.32,0.28l-0.6.06-0.3,0H84.24A10.12,10.12,0,0,1,81.52,81C81.3,81,81.08,80.9,80.87,80.8l-0.62-.33-0.6-.33-0.54-.42a5.35,5.35,0,0,1-1-.9,5.76,5.76,0,0,1-.75-1,7.67,7.67,0,0,1-.92-2,7.75,7.75,0,0,1-.36-1.75,7.39,7.39,0,0,1,0-1.35,6.24,6.24,0,0,1,.1-0.86A2.94,2.94,0,0,1,76.25,71.59Z" transform="translate(-0.03 -6.74)"/><path class="cls-9" d="M121.25,71.59a2.94,2.94,0,0,1,.06.3,6.24,6.24,0,0,1,.1.86,7.39,7.39,0,0,1,0,1.35,7.75,7.75,0,0,1-.36,1.75,7.67,7.67,0,0,1-.92,2,5.76,5.76,0,0,1-.75,1,5.35,5.35,0,0,1-1,.9l-0.54.42-0.6.33-0.62.33C116.42,80.9,116.2,81,116,81a10.12,10.12,0,0,1-2.72.54h-1.72l-0.3,0-0.6-.06c-0.79-.07-1.57-0.17-2.32-0.28-1.5-.21-2.9-0.46-4.1-0.74s-2.19-.54-2.88-0.75-1.09-.37-1.09-0.37,0.41-.1,1.13-0.23,1.75-.27,3-0.37,2.65-.19,4.18-0.2c0.76,0,1.55,0,2.34,0l0.6,0h0.38c-0.06,0,0,0,0,0H112l1.07,0a9.77,9.77,0,0,0,2-.32l0.48-.12L116,78l0.44-.18,0.4-.23c0.13-.08.28-0.15,0.41-0.23l0.37-.28a4.71,4.71,0,0,0,.69-0.59,5.8,5.8,0,0,0,.61-0.65,5.69,5.69,0,0,0,.53-0.68,13.66,13.66,0,0,0,.81-1.34c0.22-.42.41-0.81,0.55-1.13C121.11,72,121.25,71.59,121.25,71.59Z" transform="translate(-0.03 -6.74)"/><g id="Ebene_14" data-name="Ebene 14"><path class="cls-30" d="M97.82,92.3a5.79,5.79,0,0,1,.27.6,12.59,12.59,0,0,1,.51,1.58,17.47,17.47,0,0,1,.45,4.75,17.29,17.29,0,0,1-.81,4.7,12.46,12.46,0,0,1-.63,1.54,5.71,5.71,0,0,1-.32.58,5.71,5.71,0,0,1-.28-0.6,12.45,12.45,0,0,1-.51-1.58,17.29,17.29,0,0,1-.45-4.75,17.47,17.47,0,0,1,.81-4.7,12.59,12.59,0,0,1,.63-1.54A5.78,5.78,0,0,1,97.82,92.3Z" transform="translate(-0.03 -6.74)"/></g></svg>