<svg id="kleidung_Bild" data-name="kleidung Bild" xmlns="http://www.w3.org/2000/svg" viewBox="0 0 267.42 424.77"><defs><style>.cls-1{fill:#b1b1b1;}.cls-2{fill:#fff;}.cls-3{fill:#4970a1;}.cls-4{fill:#bba390;}.cls-5{fill:#b8a89b;}.cls-6{fill:#fe0202;}.cls-7{fill:#4d4b4a;}.cls-8{fill:#191919;}.cls-9{fill:#fdfdfd;}.cls-10{fill:#1b1b1b;}.cls-11{fill:#fdfdfe;}.cls-12{fill:#fcfcfd;}.cls-13{fill:#fbfcfd;}.cls-14{fill:#fbfbfb;}.cls-15{fill:#4970a0;}.cls-16{fill:#b48d6e;}.cls-17{fill:#cd80b6;}.cls-18{fill:#b48e6e;}.cls-19{fill:#4c4b4a;}.cls-20{fill:#24160b;}.cls-21{fill:#fefefe;}.cls-22{fill:#f9f8f8;}</style></defs><title>oma</title><path class="cls-1" d="M92.24,76.51A3.59,3.59,0,0,0,90.83,76c-0.14,0-.31,0-0.45-0.07-0.31-.12-0.6-0.3-0.91-0.41a16.37,16.37,0,0,1-3.61-2A9,9,0,0,1,84.24,72c-0.47-.52-1-1-1.41-1.55a10.25,10.25,0,0,1-1.26-1.9,15.25,15.25,0,0,1-1.36-3.4,10.3,10.3,0,0,1-.45-3,2.33,2.33,0,0,1-.2-1.93c0.26-1.22,0-2.53.67-3.67,0-1.23.7-2.2,1.14-3.25a9.84,9.84,0,0,1,2.09-3.09c0.84-.85,1.69-1.7,2.58-2.58a4.42,4.42,0,0,1-.47-1.81,8.71,8.71,0,0,1-.26-2.53,3.78,3.78,0,0,1,.16-1.85c0.26-.54-0.14-1.25.3-1.79a10.39,10.39,0,0,1,1.42-4.21,23.36,23.36,0,0,1,2.06-3.12,13.37,13.37,0,0,1,3.27-2.87,12.58,12.58,0,0,1,3.9-1.84c0.84-.23,1.69-0.38,2.55-0.53a30.31,30.31,0,0,1,3-.21,16.28,16.28,0,0,0,.29-1.67,8.26,8.26,0,0,1,.23-1.58,15.11,15.11,0,0,1,1-3,15,15,0,0,1,1-2c0.48-.68,1-1.37,1.5-2s1-1,1.43-1.45a13.53,13.53,0,0,1,5.38-3.22,10.08,10.08,0,0,1,3.19-.7,8.65,8.65,0,0,0,1-.22,4.37,4.37,0,0,1,1,0c0.65,0.06,1.29.16,1.94,0.23a6.82,6.82,0,0,1,1.74.43,6.32,6.32,0,0,0,.7.06,2,2,0,0,1,.48.29c0.6-.85,1.11-1.69,1.74-2.43a21.3,21.3,0,0,1,2.29-2.29,12.54,12.54,0,0,1,2.45-1.59,10.82,10.82,0,0,1,2.63-1.16,28.47,28.47,0,0,1,3-.56,12.57,12.57,0,0,1,2.93,0c1,0.12,1.95.34,2.91,0.54a12.44,12.44,0,0,1,2.75,1.17c0.88,0.43,1.61,1.1,2.55,1.52l0.67-.67a13.54,13.54,0,0,1,5.56-3.35,7.6,7.6,0,0,1,3.11-.6c0.17,0,.43.1,0.43-0.23h2.4a0.59,0.59,0,0,0,.19.23,9.61,9.61,0,0,1,3.77.76,29.53,29.53,0,0,1,3,1.39,11.93,11.93,0,0,1,4.19-1.19c0.41,0,.81-0.18,1.22-0.22a7.61,7.61,0,0,1,1.32,0c0.65,0.05,1.29.16,1.94,0.23a6.64,6.64,0,0,1,1.74.44c0.58,0.24,1.2.4,1.79,0.6a9.86,9.86,0,0,1,2.82,1.59c0.14,0.11.34,0.16,0.48,0.27a10.49,10.49,0,0,1,1.58,1.37,17.87,17.87,0,0,1,2.65,3.57,1.1,1.1,0,0,0,.25.26,15.76,15.76,0,0,1,12,8.45c0.26,0,.54,0,0.81,0a6,6,0,0,1,1.51.11,7,7,0,0,1,1.36.16c0.45,0.3,1,0,1.39.44,1.42,0,2.53.86,3.71,1.47a9.58,9.58,0,0,1,2.74,2.1A15.65,15.65,0,0,1,211.08,27a9,9,0,0,1,1.2,2.27c0.15,0.61.61,1.18,0.77,1.83a12.27,12.27,0,0,1,.64,3.22c0,0.56.23,1.14,0.21,1.7a17.66,17.66,0,0,1-1,5.48,16.3,16.3,0,0,1-2.21,4.25,25.07,25.07,0,0,1-3,3.16,15.48,15.48,0,0,1-2.55,1.63,4.33,4.33,0,0,1-.61.26,12.21,12.21,0,0,1-2.3.79,16.77,16.77,0,0,1-4,.63A21,21,0,0,1,195.6,52c-0.06,0-.12-0.12-0.18-0.13-0.89-.1-1.71-0.56-2.62-0.59-0.11-.46-0.48-0.15-0.72-0.24h-0.24V50.73a16.09,16.09,0,0,1-7.27-7.09c-1,0-1.89-.1-2.81-0.19s-2-.55-3-0.56a16.83,16.83,0,0,1-5.38-3.22l-2.1-2.1c-0.82.54-1.53,1.08-2.33,1.52a15.88,15.88,0,0,1-3.68,1.55,28.75,28.75,0,0,1-3.35.57c-1.42.19-2.82-.31-4.23-0.45a9.1,9.1,0,0,0-1.8-.57,15.8,15.8,0,0,1-5.24-3.56c-0.23-.27-0.5-0.52-0.76-0.76s-0.51-.46-0.75-0.68c-1.08.87-1.84,1.95-2.94,2.67A25.1,25.1,0,0,1,143,39.55a12.28,12.28,0,0,1-3.56.95,11,11,0,0,1-3.77.07,27.34,27.34,0,0,1-3.52-.8A12.51,12.51,0,0,1,128.87,38a12.93,12.93,0,0,1-3.55,3,14.28,14.28,0,0,1-4.22,1.68,17.45,17.45,0,0,1-4.53.47,14.42,14.42,0,0,0-.31,1.88,12.42,12.42,0,0,1-.66,3,13.24,13.24,0,0,1-1.67,3.63,9.34,9.34,0,0,1-1.2,1.66c-0.93.92-1.85,1.85-2.77,2.76a9.4,9.4,0,0,1,.53,2.5,23.13,23.13,0,0,1,.25,2.54,8.76,8.76,0,0,0-.25,2.54,6.56,6.56,0,0,0-.6,2.14c-0.19.78-.81,1.36-0.84,2.18a10.43,10.43,0,0,0-1.15,1.92,27.55,27.55,0,0,1-2.37,2.62,15.91,15.91,0,0,1-5,3.26A2.13,2.13,0,0,1,99,76a3.34,3.34,0,0,1-.29-0.17,4.39,4.39,0,0,0-4.78-.57C93.24,75.59,92.84,76.18,92.24,76.51Z" transform="translate(-0.78 -2.35)"/><path class="cls-2" d="M251.08,155.72A4.45,4.45,0,0,0,248,154a4.52,4.52,0,0,0-4.33-2.71c-6.2,0-6.43,9.27-.68,10a4.47,4.47,0,0,0,3.63,2.66,4.55,4.55,0,0,0,3.72,1.72C256.51,165.67,256.76,156.46,251.08,155.72Z" transform="translate(-0.78 -2.35)"/><path class="cls-3" d="M13.76,188.11a7.31,7.31,0,0,1,.69-1.75c0.67-1.6,1.32-3.21,2.07-4.78,0.44-.93.88-1.87,1.33-2.8s0.94-1.85,1.42-2.77,0.95-1.77,1.45-2.71c0-.21,0-0.48,0-0.76A15.63,15.63,0,0,1,21.8,167,23.28,23.28,0,0,1,25,160.88c0.43-.62.91-1.21,1.4-1.85,0.82,0.17,1.64.78,2.51,0.48a5.47,5.47,0,0,0,2.27-1.19,5.33,5.33,0,0,0,1.23-2.26,3.52,3.52,0,0,0-.54-2.53,20,20,0,0,0,1.77-1.33,40.73,40.73,0,0,1,4.52-3.28c0.85-.6,1.77-1.1,2.68-1.62a75.07,75.07,0,0,1,7-3.71,69,69,0,0,1,6.52-2.79c0.94-.31,1.82-0.82,2.75-1.18,1.55-.59,3.12-1.14,4.7-1.68,1.09-.37,2.17-0.77,3.28-1,1.3-.32,2.52-0.9,3.85-1.15a23.85,23.85,0,0,0,2.65-.82,7.09,7.09,0,0,1,1.29-.35,2.13,2.13,0,0,1,1.55.29,3.78,3.78,0,0,0,1.77.65,4,4,0,0,0,2.44-.75,2.86,2.86,0,0,0,1.4-1.86c0.33-.08.68-0.19,1-0.26s0.7-.23,1.1-0.27a23.49,23.49,0,0,1,2.54-.5,1,1,0,0,1,.88-0.2c0.29-.06.57-0.19,0.86-0.23,1.46-.21,2.9-0.56,4.37-0.76,0.89-.12,1.77-0.37,2.68-0.46,0.37,0,.73-0.19,1.1-0.22a1.58,1.58,0,0,0,1-.25,3.55,3.55,0,0,1-.22,1,5.07,5.07,0,0,0,1.2,3.92,16.14,16.14,0,0,0,5.19,4,32,32,0,0,0,4.89,2.09,18.11,18.11,0,0,0,2.19.79c1.36,0.26,2.63.85,4,1.09,1.1,0.19,2.15.68,3.25,0.82s1.89,0.66,2.91.52c0.46,0.58,1.26-.09,1.72.48a5.5,5.5,0,0,1,1.82.24,10.83,10.83,0,0,1,2,.28c0.58,0.21,1.19,0,1.7.24a5.29,5.29,0,0,0,1.71.2,0.55,0.55,0,0,1,.24,0,2.49,2.49,0,0,0,1.46.24c0.49,0,1,.18,1.46.23a17.43,17.43,0,0,1,2.19.2c0.93,0.2,1.92.07,2.9,0.25s2.16,0,3.26.23a21.77,21.77,0,0,0,3.23.05c1,0,2.09.2,3.14,0.22,1.64,0,3.28,0,4.92,0s3.2,0,4.8,0,3.2-.32,4.82-0.28a38.37,38.37,0,0,0,5.53-.25c0.89-.11,1.77-0.18,2.66-0.2a0.49,0.49,0,0,0,.24,0c0.52-.44,1.14-0.15,1.7-0.23a11.62,11.62,0,0,1,1.82-.22c1,0,1.91-.43,2.9-0.26a0.17,0.17,0,0,0,.12,0,1.5,1.5,0,0,1,1.22-.24,7.39,7.39,0,0,1,1.22-.22,8.11,8.11,0,0,1,2.06-.25,26.25,26.25,0,0,1,3.55-.7c1-.25,2-0.44,3-0.69,0.8-.2,1.62-0.34,2.42-0.54s1.58-.44,2.37-0.66c1.32-.37,2.63-0.77,3.92-1.24a40.18,40.18,0,0,0,4-1.64c0.83-.41,1.68-0.79,2.47-1.28a13.29,13.29,0,0,0,4-3.33,7.86,7.86,0,0,1,1.81.28c1.87,0.75,3.83,1.19,5.73,1.79s3.76,1.16,5.61,1.82c1.56,0.55,3.14,1.1,4.67,1.77a29.15,29.15,0,0,0,2.9,1.11c1,0.33,2,1,3,1.4,1.46,0.63,2.92,1.28,4.31,2,1.74,0.94,3.46,1.89,5.15,2.93,1.34,0.82,4.92,3.17,5.48,3.59-0.38.13-.71,0.22-1,0.34a4.33,4.33,0,0,0-2.63,2.64,4.1,4.1,0,0,0,2.68,5,3.05,3.05,0,0,0,2.71-.23,9.91,9.91,0,0,1,1.21-.54,4,4,0,0,0,2.34,2.94,3.62,3.62,0,0,0,2.2.43,6.2,6.2,0,0,0,1.89-.91,3.41,3.41,0,0,0,1.21-1.64c0.33-.84,6.65,2.43,7.94,3.81a19.19,19.19,0,0,1,3,4.73,26.41,26.41,0,0,1,1.57,3.91,14,14,0,0,1,.34,1.54c0.12,0.64.21,1.28,0.32,2a4.88,4.88,0,0,1-.68.32,4.15,4.15,0,0,0-3,4,4.08,4.08,0,0,0,.86,2.27,4,4,0,0,0,2,1.44c0.31,0.11.63,0.21,0.93,0.3V199.3a17.34,17.34,0,0,0-1.63.64,3.78,3.78,0,0,0-2.17,3.49,4,4,0,0,0,2.83,3.86c0.31,0.12.64,0.2,1,.29v15.71c-0.31.1-.65,0.2-1,0.32a4.21,4.21,0,0,0-2.81,3.78,4.1,4.1,0,0,0,2.94,3.9l0.92,0.31a24.27,24.27,0,0,1-5.61,14.32L261.4,245l-0.27,0c-1.64-.37-2.63.67-3.45,1.77a14.77,14.77,0,0,0-2,4c-0.37,1-.72,2.11-1,3.19-0.22.82-.4,1.66-0.67,2.48s-0.42,2-.71,2.94a12,12,0,0,0-.22,1.58c-0.19,1.21-.47,2.4-0.57,3.63a10.65,10.65,0,0,1-.22,1.94c-0.18.66-.06,1.34-0.24,1.94s-0.06,1.48-.23,2.19c-0.24,1,0,2.05-.26,3-0.28,1.22,0,2.44-.22,3.63a38.75,38.75,0,0,0-.21,6.26c0,2.12,0,4.24,0,6.36s0,4.24,0,6.36a20.46,20.46,0,0,1,.26,2.18,6,6,0,0,0,0,2.15,10.23,10.23,0,0,1,.2,2.09,28.06,28.06,0,0,1,2.49,3.75c0.31,0.67.79,1.27,1.1,1.94a62.3,62.3,0,0,1,2.42,6.08,45.18,45.18,0,0,1,1.38,4.94,25.59,25.59,0,0,1,.58,3.26,7.09,7.09,0,0,0,.23,1.81c0.24,0.63,0,1.27.23,1.83a16.48,16.48,0,0,1,.23,2.67,29.37,29.37,0,0,1,.22,5.18,45.25,45.25,0,0,0,0,5.27,62.58,62.58,0,0,1,.18,6.75c0,2.24,0,4.48,0,6.72,0,0.75-.27,1.44-0.26,2.18a8,8,0,0,1,0,2.15c-0.22.82-.05,1.65-0.24,2.42s-0.07,1.33-.24,1.94-0.06,1.34-.24,1.94a29.87,29.87,0,0,0-.63,3.44c-0.19,1-.39,2.09-0.56,3.15-0.19,1.22-.57,2.4-0.83,3.61a6,6,0,0,0-.35,1.66h-0.72c-3.3,0-6.6,0-9.9,0-0.22,0-.58.24-0.67-0.23a3.93,3.93,0,0,0,2.16-4.8,4,4,0,0,0-7.89,1.45,3.9,3.9,0,0,0,2.37,3.35c-0.15.46-.53,0.23-0.79,0.23q-9.53,0-19.06,0a5.67,5.67,0,0,1-.7,0,0.45,0.45,0,0,1-.09-0.2,3.91,3.91,0,0,0,2.16-4.79,4.1,4.1,0,0,0-5-2.66,4.06,4.06,0,0,0-2.84,4,3.65,3.65,0,0,0,2,3.3c0.5,0.24,1,.45,1.51.68a0.57,0.57,0,0,1-.19.23,2.06,2.06,0,0,0-.82,0,3.24,3.24,0,0,1-1.59.23,8.54,8.54,0,0,1-1.69.24q-10.69,0-21.39,0H118.65c-3,0-6,0-9,0a77.92,77.92,0,0,1-8.78-.19c-1.1-.14-2.16-0.47-3.26-0.55a1.19,1.19,0,0,0-1.11-.2H79.23c-0.32,0-.64,0-1,0a0.57,0.57,0,0,1-.19-0.23,3.93,3.93,0,0,0,2.16-4.8,4,4,0,0,0-7.89,1.45,3.9,3.9,0,0,0,2.37,3.35c0,0.4-.35.23-0.54,0.23H67.76c-0.52-.07,0-0.72-0.46-0.82a6,6,0,0,0-.51-2c-0.16-.69-0.31-1.41-0.53-2.07a6.77,6.77,0,0,0-.66-2c0.13-1-.43-1.92-0.52-2.91a11.41,11.41,0,0,0-.45-2.08c-0.19-.65-0.19-1.33-0.44-2-0.18-.48-0.08-1-0.23-1.58a15.71,15.71,0,0,1-.28-2.53c-0.06-.49-0.17-1-0.23-1.46a2.34,2.34,0,0,0-.24-1.46,0.18,0.18,0,0,1,0-.12,15,15,0,0,0-.26-3.5c-0.4-5-.15-10-0.2-15,0-1.37.37-2.72,0.23-4.1a7.57,7.57,0,0,0,.26-2.3c0.24-1.33.27-2.68,0.5-4,0.09-.53.11-1.07,0.22-1.58s0.12-1,.25-1.46c0.26-.94.3-1.93,0.63-2.86a15.13,15.13,0,0,0,.31-1.67c0.34-1.5.61-3,1-4.48a11.55,11.55,0,0,0,.64-3.34q0-16.14,0-32.26a26.32,26.32,0,0,1-2.22-1.56,50,50,0,0,1-5-4.49q-2.06-2.33-4-4.82a32.18,32.18,0,0,0-2.25-3.28c-0.51-1.48-1.68-2.64-2-4.19a1.18,1.18,0,0,0-.17-0.29h54.24a6.42,6.42,0,0,0-.23,1,8,8,0,0,1-.25,2.77c0.12,1.56-.23,3.14.22,4.7a8.64,8.64,0,0,1,0,1.67c0,0.57.16,1.13,0.23,1.7a10.53,10.53,0,0,0,.27,2.17c0.34,1,.41,2,0.7,2.94a28,28,0,0,0,1,3.07,4.28,4.28,0,0,1,.45,2,3.68,3.68,0,0,1-.77.75c-1.27.66-1.77,2-2.82,2.9a4.24,4.24,0,0,0-.73,1,26.58,26.58,0,0,0-2.54,4.82,22.58,22.58,0,0,0-1.31,4.85,0.57,0.57,0,0,1-.23.19,2.25,2.25,0,0,0-.78.14A6.65,6.65,0,0,0,97,297.24a3.38,3.38,0,0,0-.49,1.35,3.28,3.28,0,0,0,0,1.86,2.88,2.88,0,0,0,1,1.76c0.2,0.19.38,0.41,0.6,0.59a1.68,1.68,0,0,0,1.1.51v16.32l-0.78.42a3.84,3.84,0,0,0-1.08,6,4.35,4.35,0,0,0,1.86,1.27c0,1.72,0,3.44,0,5.16a24.4,24.4,0,0,0,.22,5.06c0.12,0.51.13,1.06,0.21,1.58,0.18,1.12.52,2.19,0.78,3.29a2.71,2.71,0,0,1,.22,1,5.11,5.11,0,0,0-1.89.35,3.84,3.84,0,0,0-1.26,1,3.39,3.39,0,0,0-1.14,2.39,4.14,4.14,0,0,0,.24,1.91,3.83,3.83,0,0,0,.9,1.17c0.29,0.32.64,0.57,0.94,0.88s0.92,0.2,1.38.43c0.67,0.33,1.42-.15,2.14-0.23a2.5,2.5,0,0,0,1-.72c0.36-.3.7-0.61,1-0.92l0.63,0.51c1,0.78,1.55,1.89,2.58,2.66a43,43,0,0,0,3.69,2.7,23.56,23.56,0,0,0,4.32,2,13.8,13.8,0,0,0,3.92,1c0.6,0.44,1.35,0,1.93.28a4.68,4.68,0,0,0,2,.2h36.24c0.56,0,1.12,0,1.68,0s1-.22,1.46-0.21,1.06-.22,1.58-0.24a10.66,10.66,0,0,0,2.63-.63,27.6,27.6,0,0,0,5.47-2.46,40.11,40.11,0,0,0,4.55-3.47,16.12,16.12,0,0,0,1.12-1.32,16.45,16.45,0,0,0,3-4.28,23.6,23.6,0,0,0,2-5.28,23.13,23.13,0,0,0,.86-5.38c0.05-11.56,0-23.12,0-34.68a20.84,20.84,0,0,0-.17-3.87c-0.19-1-.32-2.1-0.53-3.15a21.51,21.51,0,0,0-1.46-4.44,26.13,26.13,0,0,0-4.71-6.93c-0.33-.37-0.82-0.58-1.15-1a29.46,29.46,0,0,0-2.53-2.15,6.49,6.49,0,0,0,1.34-.53,7.59,7.59,0,0,0,1.11-1.08,3.72,3.72,0,0,0,.75-3.51,4.09,4.09,0,0,0-1.76-2.32,7.41,7.41,0,0,1,.2-2.18,3.33,3.33,0,0,0,0-1.65,10.46,10.46,0,0,1,.26-1.57c0-.75,0-1.51,0-2.27a8.37,8.37,0,0,0-.19-2.18,8,8,0,0,1,0-2.25,0.46,0.46,0,0,0,0-.23c-0.45-.52,0-1.21-0.27-1.68a4.65,4.65,0,0,1-.21-1.83,1.55,1.55,0,0,1,.81,0c0.4,0.44.93,0,1.32,0.31a2.09,2.09,0,0,0,1.38.14h56.57a14.19,14.19,0,0,0,3.53-.45,23.84,23.84,0,0,0,4.07-1.47,1.6,1.6,0,0,1,.2.09,4.2,4.2,0,0,0,3.6.41,5.19,5.19,0,0,0,1.61-1.21c0.85-.17,1.68-0.28,2.47-0.5a22.58,22.58,0,0,0,4.08-1.44,5.31,5.31,0,0,0,.72-0.56,7.31,7.31,0,0,1-.83-0.67,3.63,3.63,0,0,0-2.76-1.18,5.76,5.76,0,0,0-2.06.54l-0.7.24a1.71,1.71,0,0,0-.57-1.25,0.46,0.46,0,0,1,0-.24,6.84,6.84,0,0,0,1-1.89,14,14,0,0,0,1.16-4.3,14.82,14.82,0,0,0-.69-6.53,14.36,14.36,0,0,0-2.78-5.09,1,1,0,0,1-.09-0.44l0.85-.23a4.08,4.08,0,0,0,3.57,3.34,3.66,3.66,0,0,0,2.41-.53,4.31,4.31,0,0,0,1.78-2,4.79,4.79,0,0,0,.24-1.93,3.22,3.22,0,0,0-.48-1.58,4.73,4.73,0,0,0-1.57-1.6,4,4,0,0,0-4.79.65c-0.23-1.32,0-1.13-1.26-2.49a4.23,4.23,0,0,0-2.44-1.07,3.54,3.54,0,0,0-1.89.36,3.84,3.84,0,0,0-1.09.83c-0.3.26-.57,0.56-0.85,0.84V226a3,3,0,0,1-.68-0.09c-0.69-.26-1.38-0.54-2-0.84s-1.49-.44-2.22-0.73a20.29,20.29,0,0,0-2.26-.62c-0.8-.21-1.61-0.29-2.4-0.57a17.22,17.22,0,0,1-1.91-.31c-0.66-.33-1.35-0.06-2-0.4a15.21,15.21,0,0,0-1.69-.25c-0.53-.17-1.12-0.11-1.7-0.23-0.82-.17-1.68-0.05-2.54-0.25s-1.68,0-2.54-.23a8.39,8.39,0,0,0-2.63,0c-0.91.08-1.76-.31-2.66-0.26-2.52.14-5.05-.19-7.58,0.21-1.5.24-3-.1-4.58,0.24-0.82.18-1.68,0-2.54,0.23s-1.61,0-2.42.25c-0.5.15-1,.05-1.58,0.24s-1.09-.1-1.57.27a18.5,18.5,0,0,0-4,.73,26.22,26.22,0,0,0-3.8.95c-0.73.27-1.49,0.46-2.22,0.73a5.75,5.75,0,0,1-2.2.49c-1.68,0-3.36,0-5,0-0.25-.29-0.49-0.6-0.76-0.88a2.23,2.23,0,0,0-2-1,2.27,2.27,0,0,0-1.84,0,2.87,2.87,0,0,0-1.76,1,3.52,3.52,0,0,1-.25.25,3.66,3.66,0,0,0-1.07,3.13,5.56,5.56,0,0,1,.21,1c-0.11.43-.44,0.28-0.64,0.18a16.32,16.32,0,0,0-3.61-1.09,24.49,24.49,0,0,0-4.34-.49,35.8,35.8,0,0,0-4.33.2,0.25,0.25,0,0,0-.12,0c-0.39.41-.94,0.08-1.33,0.26a3.44,3.44,0,0,1-1.47.22h-0.24a16.77,16.77,0,0,0-.13-1.74,5.19,5.19,0,0,0-1.47-2.15,3.06,3.06,0,0,0-1.79-.88,4.23,4.23,0,0,0-4.29,2.13,0.54,0.54,0,0,0,0,.24,10.74,10.74,0,0,0-1.67,0c-0.58.09-1-.3-1.58-0.26a22.61,22.61,0,0,0-4.09.2c-0.8.21-1.68,0.06-2.53,0.24a8.8,8.8,0,0,0-2,.48c-0.29.14-.73-0.23-0.89,0.28-0.8-.28-1.6-0.57-2.41-0.84-0.63-.21-1.27-0.4-1.91-0.6a3.72,3.72,0,0,0-2.42-1.8,4.39,4.39,0,0,0-1.84,0,2.16,2.16,0,0,0-1.75,1.1,8.15,8.15,0,0,0-2.18.2,19.91,19.91,0,0,1-2.17.23,27.42,27.42,0,0,0-3.78,1,2.17,2.17,0,0,1-1.78.2c-0.51-.32-1,0-1.54-0.39s-1.09,0-1.68-.24a4.16,4.16,0,0,0-1.65,0h-3.23a0.53,0.53,0,0,0,0-.23,3.68,3.68,0,0,0-3.15-1.9,3.41,3.41,0,0,0-2.95,1.15,3.93,3.93,0,0,1-.61.51,5.64,5.64,0,0,1-1.84-.2c-0.5-.25-1.19,0-1.81-0.25-0.45-.18-1.1.12-1.51-0.1a3.89,3.89,0,0,0-1.37-.18,12.49,12.49,0,0,0-1.46-.23c-0.77,0-1.53-.12-2.3-0.21-1.79-.21-3.6-0.2-5.4-0.28a2.93,2.93,0,0,1-.81-0.07,7.25,7.25,0,0,0-2.89-.1,0.2,0.2,0,0,0-.11.1,3.91,3.91,0,0,0-.68-0.17,2.37,2.37,0,0,0-1.18,0,1.26,1.26,0,0,1-1.12-.08,5.86,5.86,0,0,0-1.83-.2c-1.88,0-3.75,0-5.63,0a32.36,32.36,0,0,0-5.53.2,12.15,12.15,0,0,1-2.22-.08c-0.71,0-1.42.08-2.13,0.11a2.05,2.05,0,0,0-.71,0,6.45,6.45,0,0,1-2.66.21,2.29,2.29,0,0,1-.74-0.23H51.44a5.3,5.3,0,0,1,.6-1.67c0.59-1.08,1.15-2.17,1.81-3.2a51.52,51.52,0,0,1,5.66-7.36c1.21-1.3,2.56-2.46,3.88-3.65a13.37,13.37,0,0,1,1.41-1,4.28,4.28,0,0,0,.58-1.74c0-6.75,0-13.51,0-20.26v-0.87c-1.07,1.25-2.13,2.22-3.1,3.3-1.33,1.48-2.6,3-3.94,4.5-0.47.52-.91,1.06-1.35,1.6a0.7,0.7,0,0,0,0,.35l-0.8.55a6.27,6.27,0,0,0-.92-0.93,32.42,32.42,0,0,0-5.53-3.14,13.62,13.62,0,0,0-1.57-.55,11.41,11.41,0,0,0-3.18-.73c-0.6-.55-1.48.09-2.08-0.48H13.76Zm210.34-30.8c0.27-.49.06-0.82,0.28-1.19,0.4-.66-0.12-1.33-0.17-2a1.74,1.74,0,0,0-.44-0.89,4.12,4.12,0,0,0-2.73-1.77,3.55,3.55,0,0,0-2.82.58,4.06,4.06,0,0,0-1.86,2.81,3.41,3.41,0,0,0,.63,2.81,3.72,3.72,0,0,0,2.62,1.76,3.51,3.51,0,0,0,1.55,0,3.31,3.31,0,0,0,1.55-.6,2,2,0,0,1,.49-0.27,3.91,3.91,0,0,0,5.78,2.93,5.1,5.1,0,0,0,1.75-1.8,4,4,0,0,0,.26-3.07,3,3,0,0,0-.88-1.37A33.63,33.63,0,0,0,224.1,157.31Zm-0.93,25.27a4.08,4.08,0,0,0,3.57,3.36,3.67,3.67,0,0,0,2.4-.53,4.32,4.32,0,0,0,1.78-2,4.78,4.78,0,0,0,.24-1.93,3.23,3.23,0,0,0-.48-1.58,4.73,4.73,0,0,0-1.56-1.6,4,4,0,0,0-4.89.76c0-.24,0-0.39,0-0.54a1.76,1.76,0,0,0-.58-1.44,4,4,0,0,0-2.57-1.61,4.81,4.81,0,0,0-2.75.42c-0.7.85-1.88,1.38-1.78,2.74-0.61,1,.07,1.89.25,2.82,0.81,0.75,1.36,1.73,2.68,1.89a3.88,3.88,0,0,0,3.38-.69A0.92,0.92,0,0,1,223.17,182.58Zm24-.26a4,4,0,0,0,3.46,3.62c1.5,0.23,3.79-1.06,4.2-2.48a3.3,3.3,0,0,0,.31-1.91,4.38,4.38,0,0,0-.47-1.6,7.66,7.66,0,0,0-1.45-1.54,3.48,3.48,0,0,0-2.25-.61,3.31,3.31,0,0,0-2.76,1.34V177.8c-0.37-.41-0.78-0.82-1.14-1.27a3.29,3.29,0,0,0-2.77-1.11,3.81,3.81,0,0,0-2.68,1.08,4.25,4.25,0,0,0-1.32,2.58,4.37,4.37,0,0,0,.24,1.92,4.71,4.71,0,0,0,.89,1.19,3.51,3.51,0,0,0,3.27,1.32A3.25,3.25,0,0,0,247.22,182.32Zm-24,24a4.08,4.08,0,0,0,3.6,3.64,4.33,4.33,0,0,0,4.1-2.45,3.3,3.3,0,0,0,.32-1.9,4,4,0,0,0-.47-1.6,6.5,6.5,0,0,0-1.51-1.63,4,4,0,0,0-4.88.59c-0.12-1.32-.12-1.32-1.19-2.39l-0.25-.25c-0.64-.62-2.33-1.22-3.07-0.87-0.46.22-1,0-1.39,0.42s-0.75.7-1.11,1.06a4,4,0,0,0-1,3.07,3.83,3.83,0,0,0,1.38,2.43,4.27,4.27,0,0,0,1.1.81,3.78,3.78,0,0,0,2,.29A3.5,3.5,0,0,0,223.17,206.3Zm24,0.22a4.11,4.11,0,0,0,3.57,3.41,4.28,4.28,0,0,0,4.11-2.42,4.11,4.11,0,0,0,.36-1.77,6.32,6.32,0,0,0-.43-1.62,4.91,4.91,0,0,0-1.45-1.67,2.8,2.8,0,0,0-1.24-.47,3,3,0,0,0-1.35-.18,5.26,5.26,0,0,0-1.37.44,8.94,8.94,0,0,0-1.08.69,3.8,3.8,0,0,0-.26-1.39,4.46,4.46,0,0,0-3.47-2.15,3.78,3.78,0,0,0-2.89,1.14,4.79,4.79,0,0,0-1.21,2.15,5.25,5.25,0,0,0,.4,2.85c0.85,0.7,1.38,1.88,2.74,1.78a1.8,1.8,0,0,0,1.63.05,3.06,3.06,0,0,0,1.55-.62A1.81,1.81,0,0,1,247.15,206.53Zm-46.67,165a4.18,4.18,0,0,0-4.09-4.07,4.19,4.19,0,0,0-4,4c0.13,2.43,1.58,4.06,4,4.1S200.18,373.82,200.48,371.49Zm-24,0a4.18,4.18,0,0,0-4.09-4.07,4.19,4.19,0,0,0-4,4c0.13,2.43,1.57,4.06,4,4.1S176.18,373.82,176.48,371.49Zm-28.1,4.06a4.18,4.18,0,0,0,4.07-4.09,4.19,4.19,0,0,0-4-4c-2.43.13-4.06,1.58-4.1,4S146,375.25,148.38,375.55Zm-19.9-4.06a4.18,4.18,0,0,0-4.09-4.07,4.19,4.19,0,0,0-4,4c0.13,2.43,1.58,4.06,4,4.1S128.18,373.82,128.48,371.49ZM76.34,271.39c-2.46.35-4,1.8-4,4.17a3.93,3.93,0,0,0,4.13,4,3.71,3.71,0,0,0,2.8-1.31,4.53,4.53,0,0,0,1.15-2.76A4.25,4.25,0,0,0,76.34,271.39Zm24,8.16a4.25,4.25,0,0,0,4.13-4.05,4.53,4.53,0,0,0-1.15-2.76,3.71,3.71,0,0,0-2.8-1.31,3.93,3.93,0,0,0-4.14,4C96.32,277.74,97.88,279.19,100.34,279.55Zm96-8.16c-2.41.34-4,1.75-4,4.16s1.74,3.87,4.13,4a3.7,3.7,0,0,0,2.8-1.31,4.45,4.45,0,0,0,1.16-2.75A4.25,4.25,0,0,0,196.35,271.39Zm28.13,4.07c-0.29-2.34-1.67-4-4.12-4s-3.86,1.61-4,4.09a3.71,3.71,0,0,0,1.28,2.81,3.66,3.66,0,0,0,2.74,1.16A4.18,4.18,0,0,0,224.48,275.46Zm24,0a4.19,4.19,0,0,0-4.09-4.07,4.19,4.19,0,0,0-4,4c0.13,2.42,1.57,4.06,4,4.1S248.18,277.82,248.48,275.49Zm-168,24c-0.3-2.34-1.67-4-4.13-4s-3.86,1.67-4,4.1a4.19,4.19,0,0,0,4,4A4.18,4.18,0,0,0,80.48,299.45Zm115.8,4.1c2.4-.21,4.06-1.57,4.13-4s-1.49-3.87-4-4.14a4.19,4.19,0,0,0-4.1,3.9C192.43,301.8,194,303.17,196.28,303.55Zm28.2-4.08a4.18,4.18,0,0,0-4.11-4.05,4.11,4.11,0,0,0-4,4c0.14,2.48,1.69,4.06,4,4.08S224.2,301.82,224.48,299.47Zm24-.06c-0.35-2.46-1.8-4-4.17-4a3.93,3.93,0,0,0-4,4.14,3.71,3.71,0,0,0,1.31,2.8,4.53,4.53,0,0,0,2.76,1.15A4.25,4.25,0,0,0,248.48,299.41Zm-172,20a4.25,4.25,0,0,0-4.13,4.05,4.53,4.53,0,0,0,1.15,2.76,3.71,3.71,0,0,0,2.8,1.31,3.93,3.93,0,0,0,4.14-4C80.48,321.19,78.92,319.74,76.46,319.39Zm124,4.12a4.21,4.21,0,0,0-4.07-4.09,3.71,3.71,0,0,0-2.74,1.16,3.6,3.6,0,0,0-1.31,2.8c0.11,2.38,1.52,3.82,4,4.18A4.29,4.29,0,0,0,200.48,323.51Zm19.9,4a4.18,4.18,0,0,0,4.07-4.09,4.19,4.19,0,0,0-4-4c-2.43.13-4.06,1.58-4.1,4S218,327.25,220.38,327.55Zm28.1-4.09c-0.29-2.34-1.67-4-4.12-4s-3.86,1.61-4,4.09a3.71,3.71,0,0,0,1.28,2.81,3.66,3.66,0,0,0,2.74,1.16A4.18,4.18,0,0,0,248.48,323.46Zm-168,24a4.2,4.2,0,0,0-4.08-4.08,3.71,3.71,0,0,0-2.74,1.16,3.61,3.61,0,0,0-1.3,2.8c0.12,2.38,1.52,4.06,4,4.1S80.17,349.83,80.48,347.5Zm120,0a4.21,4.21,0,0,0-4.07-4.09,3.71,3.71,0,0,0-2.74,1.16,3.6,3.6,0,0,0-1.31,2.8c0.11,2.38,1.52,3.82,4,4.18A4.29,4.29,0,0,0,200.48,347.51Zm24,0a4.25,4.25,0,0,0-4.05-4.13,4.53,4.53,0,0,0-2.76,1.15,3.71,3.71,0,0,0-1.31,2.8,3.93,3.93,0,0,0,4,4.14C222.68,351.55,224.12,350,224.48,347.53Zm24,0.06c-0.21-2.4-1.57-4.06-4-4.13s-3.87,1.49-4.14,4a4.19,4.19,0,0,0,3.9,4.1C246.74,351.43,248.1,349.91,248.48,347.59Zm-148.14,19.8c-2.46.35-4,1.8-4,4.17a3.93,3.93,0,0,0,4.13,4,3.71,3.71,0,0,0,2.8-1.31,4.53,4.53,0,0,0,1.15-2.76A4.25,4.25,0,0,0,100.34,367.39ZM56.48,155.46c-0.29-2.34-1.67-4-4.12-4s-3.86,1.61-4,4.09a3.71,3.71,0,0,0,1.28,2.81,3.66,3.66,0,0,0,2.74,1.16A4.18,4.18,0,0,0,56.48,155.46Zm19.86,4.09a4.25,4.25,0,0,0,4.13-4.05,4.53,4.53,0,0,0-1.15-2.76,3.71,3.71,0,0,0-2.8-1.31,3.93,3.93,0,0,0-4.14,4C72.32,157.74,73.88,159.19,76.34,159.55Zm24-8.16c-2.34.31-4,1.67-4,4.14s1.73,3.87,4.1,4a3.61,3.61,0,0,0,2.8-1.3,3.71,3.71,0,0,0,1.16-2.74A4.2,4.2,0,0,0,100.37,151.39Zm24,0c-2.34.31-4,1.67-4,4.14s1.73,3.87,4.1,4a3.61,3.61,0,0,0,2.8-1.3,3.71,3.71,0,0,0,1.16-2.74A4.2,4.2,0,0,0,124.37,151.39Zm24,8.16c2.34-.29,4-1.67,4-4.12s-1.61-3.86-4.09-4a3.71,3.71,0,0,0-2.81,1.28,3.66,3.66,0,0,0-1.16,2.74A4.18,4.18,0,0,0,148.41,159.55Zm28.07-4.08a4.18,4.18,0,0,0-4.11-4.05,4.11,4.11,0,0,0-4,4c0.14,2.49,1.69,4.06,4,4.08S176.2,157.82,176.48,155.47Zm24,0a4.2,4.2,0,0,0-4.08-4.08,3.71,3.71,0,0,0-2.74,1.16,3.61,3.61,0,0,0-1.3,2.8c0.12,2.38,1.52,4.06,4,4.1S200.17,157.83,200.48,155.5Zm-168,24c-0.29-2.34-1.67-4-4.12-4s-3.86,1.61-4,4.09a3.72,3.72,0,0,0,1.28,2.81,3.66,3.66,0,0,0,2.74,1.16A4.18,4.18,0,0,0,32.48,179.46Zm19.86,4.09a4.25,4.25,0,0,0,4.13-4.05,4.53,4.53,0,0,0-1.15-2.76,3.71,3.71,0,0,0-2.8-1.31,3.93,3.93,0,0,0-4.13,4C48.32,181.74,49.88,183.19,52.34,183.55Zm28.14-4.13c-0.34-2.41-1.74-4-4.16-4s-3.87,1.74-4,4.12a3.7,3.7,0,0,0,1.31,2.8,4.45,4.45,0,0,0,2.75,1.16A4.25,4.25,0,0,0,80.48,179.42Zm24,0.09a4.21,4.21,0,0,0-4.07-4.09,3.72,3.72,0,0,0-2.74,1.16,3.6,3.6,0,0,0-1.31,2.8c0.11,2.38,1.52,3.82,4,4.18A4.29,4.29,0,0,0,104.48,179.51Zm24,0a4.18,4.18,0,0,0-4.11-4.05,4.11,4.11,0,0,0-4,4c0.14,2.49,1.69,4.06,4,4.08S128.2,181.82,128.48,179.47Zm19.91,4.08a4.18,4.18,0,0,0,4.05-4.1,3.66,3.66,0,0,0-1.16-2.74,3.71,3.71,0,0,0-2.81-1.28c-2.47.14-4.06,1.63-4.09,4S146.05,183.26,148.39,183.55Zm28.09-4.08a4.18,4.18,0,0,0-4.11-4.05,4.11,4.11,0,0,0-4,4c0.14,2.48,1.68,4.06,4,4.08S176.2,181.82,176.48,179.47Zm24,0a4.19,4.19,0,0,0-4.09-4.07,4.19,4.19,0,0,0-4,4c0.13,2.42,1.57,4.06,4,4.1S200.18,181.82,200.48,179.49Zm-120,23.93c-0.34-2.41-1.75-4-4.16-4s-3.87,1.74-4,4.13a3.7,3.7,0,0,0,1.31,2.8,4.45,4.45,0,0,0,2.75,1.16A4.25,4.25,0,0,0,80.48,203.42Zm19.91,4.13a4.18,4.18,0,0,0,4.05-4.1,3.66,3.66,0,0,0-1.16-2.74,3.71,3.71,0,0,0-2.81-1.28c-2.47.14-4.06,1.63-4.09,4S98.05,207.26,100.39,207.55Zm24-8.16c-2.41.34-4,1.75-4,4.16s1.74,3.87,4.13,4a3.7,3.7,0,0,0,2.8-1.31,4.45,4.45,0,0,0,1.16-2.75A4.25,4.25,0,0,0,124.35,199.39Zm28.13,4.11a4.2,4.2,0,0,0-4.08-4.08,3.71,3.71,0,0,0-2.74,1.16,3.61,3.61,0,0,0-1.3,2.8c0.12,2.37,1.52,4.06,4,4.1S152.17,205.84,152.48,203.5Zm19.86,4a4.25,4.25,0,0,0,4.13-4.05,4.53,4.53,0,0,0-1.15-2.76,3.71,3.71,0,0,0-2.8-1.31,3.93,3.93,0,0,0-4.14,4C168.32,205.74,169.88,207.19,172.34,207.55Zm28.14-4.06a4.18,4.18,0,0,0-4.09-4.07,4.19,4.19,0,0,0-4,4c0.13,2.43,1.58,4.06,4,4.09S200.18,205.82,200.48,203.49Z" transform="translate(-0.78 -2.35)"/><path class="cls-4" d="M53.12,223.39a2.29,2.29,0,0,0,.74.23,6.45,6.45,0,0,0,2.66-.21,2.05,2.05,0,0,1,.71,0c0.71,0,1.42-.11,2.13-0.11a12.15,12.15,0,0,0,2.22.08,32.36,32.36,0,0,1,5.53-.2c1.87,0,3.75,0,5.63,0a5.86,5.86,0,0,1,1.83.2,1.26,1.26,0,0,0,1.12.08,2.37,2.37,0,0,1,1.18,0,3.91,3.91,0,0,1,.68.17,0.2,0.2,0,0,1,.11-0.1,7.25,7.25,0,0,1,2.89.1,2.93,2.93,0,0,0,.81.07c1.8,0.08,3.62.07,5.4,0.28,0.77,0.09,1.53.16,2.3,0.21a12.49,12.49,0,0,1,1.46.23,3.89,3.89,0,0,1,1.37.18c0.41,0.21,1.06-.08,1.51.1,0.62,0.24,1.31,0,1.81.25a5.64,5.64,0,0,0,1.84.2v0.41a0.89,0.89,0,0,0,.18.07H107a4.16,4.16,0,0,1,1.65,0c0.59,0.29,1.27-.06,1.68.24s1,0.06,1.54.39a2.17,2.17,0,0,0,1.78-.2,27.42,27.42,0,0,1,3.78-1,19.91,19.91,0,0,0,2.17-.23,8.15,8.15,0,0,1,2.18-.2l3.58,0.24a0.26,0.26,0,0,1,.12,0,1.28,1.28,0,0,0,1.09.24c0.4,0.07.81,0.16,1.21,0.24,0.64,0.2,1.28.38,1.91,0.6,0.81,0.27,1.61.56,2.41,0.84a0.68,0.68,0,0,0,.19.23,18.93,18.93,0,0,1,5.27,3.46,12.35,12.35,0,0,1,1.95,2.18,9.09,9.09,0,0,1,1.48,2.62,1.43,1.43,0,0,0,.35.39,4.89,4.89,0,0,0,1-1.09,3.7,3.7,0,0,1,1.23-1.39,36.44,36.44,0,0,1,3.13-2.26,33.94,33.94,0,0,1,4.32-2,3.61,3.61,0,0,0,1.68-.69,3.44,3.44,0,0,0,1.47-.22c0.39-.18.94,0.15,1.33-0.26a0.25,0.25,0,0,1,.12,0,35.8,35.8,0,0,1,4.33-.2,24.49,24.49,0,0,1,4.34.49,16.32,16.32,0,0,1,3.61,1.09c0.2,0.1.54,0.25,0.64-.18a0.52,0.52,0,0,0,.23,0c0.76-.47,1.52-0.93,2.26-1.42A17.56,17.56,0,0,1,174.6,226a2.83,2.83,0,0,0,1.4-.47c1.68,0,3.36,0,5,0a5.75,5.75,0,0,0,2.2-.49c0.73-.27,1.49-0.46,2.22-0.73a26.22,26.22,0,0,1,3.8-.95,18.5,18.5,0,0,1,4-.73c0.48-.37,1.08-0.1,1.57-0.27s1.08-.09,1.58-0.24c0.81-.24,1.64-0.07,2.42-0.25s1.72-.05,2.54-0.23c1.53-.34,3.08,0,4.58-0.24,2.53-.4,5.06-0.08,7.58-0.21,0.9,0,1.75.34,2.66,0.26a8.39,8.39,0,0,1,2.63,0c0.86,0.2,1.73,0,2.54.23s1.72,0.08,2.54.25c0.58,0.12,1.17.06,1.7,0.23a15.21,15.21,0,0,1,1.69.25c0.66,0.33,1.35.07,2,.4a17.22,17.22,0,0,0,1.91.31c0.79,0.28,1.61.36,2.4,0.57a20.29,20.29,0,0,1,2.26.62c0.73,0.28,1.5.4,2.22,0.73s1.36,0.58,2,.84a3,3,0,0,0,.68.09c0.62,0.65,1.53.87,2.18,1.46a6.85,6.85,0,0,1,1.59,1.39,4.58,4.58,0,0,0,1.75,2,1,1,0,0,0,.09.44,14.36,14.36,0,0,1,2.78,5.09,14.82,14.82,0,0,1,.69,6.53,14,14,0,0,1-1.16,4.3,6.84,6.84,0,0,1-1,1.89,0.46,0.46,0,0,0,0,.24c-0.57.77-1.09,1.58-1.72,2.3a10.73,10.73,0,0,1-2.81,2.36,13.93,13.93,0,0,0-1.23.86,23.84,23.84,0,0,1-4.07,1.47,14.19,14.19,0,0,1-3.53.45H177.84a2.09,2.09,0,0,1-1.38-.14c-0.39-.29-0.93.13-1.32-0.31a1.55,1.55,0,0,0-.81,0c-0.47-.13,0-0.89-0.62-0.91a4.17,4.17,0,0,0-.66.41,9.72,9.72,0,0,1-2,1.28c-1,.56-2.12,1-3.21,1.5a31.84,31.84,0,0,1-4.09,1.09,9,9,0,0,0-1,.21c-1.07-.09-2.09.32-3.14,0.28a25,25,0,0,1-2.55-.19c-1.06-.15-2.11-0.29-3.16-0.49a23.84,23.84,0,0,1-4-1.18,21.49,21.49,0,0,1-7-4.45c-0.36-.33-0.6-0.8-0.95-1.16a9.57,9.57,0,0,1-1.76-2.63c-0.16-.33-0.36-0.64-0.59-1-0.44.57-.8,1.07-1.21,1.54a20,20,0,0,1-3.19,2.72,32.26,32.26,0,0,1-4.66,2.35c-0.9.38-1.83,0.6-2.74,0.91a15.5,15.5,0,0,1-2.67.5,3.13,3.13,0,0,0-1.7.25c-1.37-.08-2.75.2-4.1-0.24a10,10,0,0,1-3.51-.5,18.18,18.18,0,0,1-4.2-1.42,18.56,18.56,0,0,1-4.67-2.88c-0.12.31-.21,0.6-0.33,0.87a14.28,14.28,0,0,0-.68,2.71,13.74,13.74,0,0,0-.52,3.39H51.2a0.57,0.57,0,0,0-.19-0.23c-0.36,0-.72,0-1.08,0-11.48,0-23,0-34.44,0a14,14,0,0,1-4.34-.85,16.13,16.13,0,0,1-4.57-2.59,15.72,15.72,0,0,1-4.7-6.21A15.23,15.23,0,0,1,1,246.51c-0.48-1.87-.15-3.77-0.25-5.66A16.84,16.84,0,0,1,3,234.94c0.6-.83,1.16-1.69,1.82-2.67a4,4,0,0,0-.16-1.78,1.12,1.12,0,0,1,.18-0.59,7.78,7.78,0,0,0,.24-2.78,26.55,26.55,0,0,0,.24-3.62,4.56,4.56,0,0,0,.24-2.06,7.18,7.18,0,0,0,.25-1.34,1.36,1.36,0,0,1,.22-1.23,0.71,0.71,0,0,0,0-.35,5.12,5.12,0,0,1,.21-1.71c0.18-.48,0-1,0.23-1.58s0.12-1.46.3-2.16c0.24-1,.35-2,0.64-3a9.4,9.4,0,0,0,.29-1.56,38.4,38.4,0,0,1,1-4.74c0.26-1.08.57-2.16,0.85-3.23,0.32-1.23.68-2.45,1-3.67,0.24-.85.47-1.71,0.8-2.55s0.59-1.6.85-2.41,0.63-1.74,1-2.6l0.48-1.24H42.88c0.6,0.57,1.48-.07,2.08.48a11.41,11.41,0,0,1,3.18.73,13.62,13.62,0,0,1,1.57.55A32.42,32.42,0,0,1,55.24,193a6.27,6.27,0,0,1,.92.93l0.8-.55c-0.1,1.84.21,3.7-.22,5.53a11.16,11.16,0,0,0,0,1.67c0,0.49-.2,1-0.22,1.46a11.88,11.88,0,0,1-.23,1.58c-0.14.9-.34,1.78-0.47,2.68a28.05,28.05,0,0,1-1.25,5c-0.43,1.25-.79,2.53-1.33,3.76a17.55,17.55,0,0,0-1,2.21,13.72,13.72,0,0,1-.91,2,16.3,16.3,0,0,1-1.17,1.91l-1.85,2.89h0.54c1.33,0,2.63-.4,4-0.26Z" transform="translate(-0.78 -2.35)"/><path class="cls-4" d="M205.52,134.59a13.29,13.29,0,0,1-4,3.33c-0.78.49-1.64,0.87-2.47,1.28a40.18,40.18,0,0,1-4,1.64c-1.29.47-2.6,0.87-3.92,1.24-0.79.22-1.57,0.46-2.37,0.66s-1.62.33-2.42,0.54c-1,.25-2,0.44-3,0.69a26.25,26.25,0,0,0-3.55.7,8.11,8.11,0,0,0-2.06.25,7.39,7.39,0,0,0-1.22.22,1.5,1.5,0,0,0-1.22.24,0.17,0.17,0,0,1-.12,0c-1-.18-1.92.28-2.9,0.26a11.62,11.62,0,0,0-1.82.22c-0.57.08-1.18-.2-1.7,0.23a0.49,0.49,0,0,1-.24,0c-0.89,0-1.77.09-2.66,0.2a38.37,38.37,0,0,1-5.53.25c-1.62,0-3.2.34-4.82,0.28s-3.2,0-4.8,0-3.28,0-4.92,0c-1,0-2.09-.18-3.14-0.22a21.77,21.77,0,0,1-3.23-.05c-1.1-.21-2.2,0-3.26-0.23s-2,0-2.9-.25a17.43,17.43,0,0,0-2.19-.2c-0.49,0-1-.18-1.46-0.23a2.49,2.49,0,0,1-1.46-.24,0.55,0.55,0,0,0-.24,0,5.29,5.29,0,0,1-1.71-.2c-0.51-.2-1.12,0-1.7-0.24a10.83,10.83,0,0,0-2-.28,5.5,5.5,0,0,0-1.82-.24c-0.46-.56-1.26.1-1.72-0.48-1,.13-1.93-0.4-2.91-0.52s-2.15-.62-3.25-0.82c-1.37-.24-2.63-0.83-4-1.09a18.11,18.11,0,0,1-2.19-.79,32,32,0,0,1-4.89-2.09,16.14,16.14,0,0,1-5.19-4,5.07,5.07,0,0,1-1.2-3.92,3.55,3.55,0,0,0,.22-1,4.36,4.36,0,0,0,1.71-.21c0.47-.21,1,0,1.59-0.22a13.81,13.81,0,0,1,1.93-.26,25.43,25.43,0,0,0,2.75-.32c0.86-.31,1.76,0,2.59-0.4a4.58,4.58,0,0,1,1.42,0A13.64,13.64,0,0,0,109,128v-0.84c0-2.36,0-4.72,0-7.08a14.7,14.7,0,0,1,.44-4.78l0.23-.19h1.42a15.73,15.73,0,0,0-2.51-1.14,13.79,13.79,0,0,1-2.75-1.47,18.32,18.32,0,0,1-3.38-2.59,24.6,24.6,0,0,1-4.37-5.14,20.75,20.75,0,0,1-2.51-5.67C95.32,98.09,95,97,94.84,96a23.07,23.07,0,0,1-.19-3.63c0-1.2,0-2.4,0-3.6v-3.6a1.1,1.1,0,0,0,.29.17,4.29,4.29,0,0,0,3.73-1,5.72,5.72,0,0,0,1.79-3.1,5.33,5.33,0,0,0-.39-3.51A7.46,7.46,0,0,0,99,76a2.13,2.13,0,0,0,1.56-.29,15.91,15.91,0,0,0,5-3.26,27.55,27.55,0,0,0,2.37-2.62A10.43,10.43,0,0,1,109,67.93c0-.82.65-1.4,0.84-2.18a6.56,6.56,0,0,1,.6-2.14,8.76,8.76,0,0,1,.25-2.54,23.13,23.13,0,0,0-.25-2.54A9.4,9.4,0,0,0,110,56c0.91-.91,1.83-1.85,2.77-2.76a9.34,9.34,0,0,0,1.2-1.66A13.24,13.24,0,0,0,115.59,48a12.42,12.42,0,0,0,.66-3,14.42,14.42,0,0,1,.31-1.88,17.45,17.45,0,0,0,4.53-.47A14.28,14.28,0,0,0,125.32,41a12.93,12.93,0,0,0,3.55-3,12.51,12.51,0,0,0,3.32,1.73,27.34,27.34,0,0,0,3.52.8,11,11,0,0,0,3.77-.07,12.28,12.28,0,0,0,3.56-.95,25.1,25.1,0,0,0,3.13-1.71c1.1-.73,1.86-1.81,2.94-2.67,0.24,0.22.5,0.45,0.75,0.68s0.53,0.49.76,0.76a15.8,15.8,0,0,0,5.24,3.56,9.1,9.1,0,0,1,1.8.57c1.41,0.14,2.81.64,4.23,0.45a28.75,28.75,0,0,0,3.35-.57,15.88,15.88,0,0,0,3.68-1.55c0.8-.43,1.51-1,2.33-1.52l2.1,2.1a16.83,16.83,0,0,0,5.38,3.22c1,0,2,.46,3,0.56s1.85,0.15,2.81.19a16.09,16.09,0,0,0,7.27,7.09v0.34a1.35,1.35,0,0,1-.59,0,8.54,8.54,0,0,0-3-.81,19.62,19.62,0,0,0-3.33-.38,25.44,25.44,0,0,0-4.7.23,13.15,13.15,0,0,0-2.16.29c-1.14.45-2.36,0.62-3.49,1.13s-2,1-3,1.46A11.73,11.73,0,0,0,168.83,55a9.74,9.74,0,0,0-2.86,5,9,9,0,0,0,.05,3,1.92,1.92,0,0,0,.37-0.44,4.83,4.83,0,0,1,1-1.93h4.19c0.76,0,1.52,0,2.27,0s1.5,0.4,2.3.25a0.33,0.33,0,0,1,.23,0c0.34,0.43.9,0,1.2,0.27a3.18,3.18,0,0,0,1.28.25l0.29,0.44a16.28,16.28,0,0,0-.92,1.54,6.93,6.93,0,0,1-.31,1.18,2.4,2.4,0,0,0-.22,1.24,4,4,0,0,0-.25,1.22c0.06,0.81.07,1.61,0.21,2.43a8.19,8.19,0,0,0,1.21,3.36c0.39,0.57.93,0.95,1.3,1.47a6.05,6.05,0,0,0,1.24.26,6.19,6.19,0,0,0,1.25-.25l0.73-.73a6.05,6.05,0,0,0,1.33-2.21c0.28-.74.26-1.5,0.5-2.2a13.75,13.75,0,0,0,.17-2.81c-0.42-.43-0.11-1-0.26-1.45a7.06,7.06,0,0,1-.46-1.37,2.34,2.34,0,0,1,.53.17,26.33,26.33,0,0,1,3.43,2.17,18.37,18.37,0,0,1,3.49,3.71,2.35,2.35,0,0,1,.72,1.5c0.51,0.4.38,1.08,0.67,1.73a11.35,11.35,0,0,0,1.71-4.67,19,19,0,0,0,0-3,5.88,5.88,0,0,0-.49-1.95,5,5,0,0,0-1.07-1.35c-0.44-.44-0.95-0.8-1.42-1.2a14.46,14.46,0,0,0-1.69-1.42,26.47,26.47,0,0,0-5.83-3,22,22,0,0,0-6.88-1.34c-1.56,0-3.12,0-4.68,0a1.08,1.08,0,0,1,.26-0.37,15.63,15.63,0,0,1,2.48-1.25,28,28,0,0,1,3.53-1c1.25-.23,2.51-0.32,3.76-0.44a4.87,4.87,0,0,1,2.19.17,16.28,16.28,0,0,0,2.29.25,18.59,18.59,0,0,1,4.16,1.25,15.38,15.38,0,0,1,4,2.31,23.76,23.76,0,0,1,3.6,3.66,12.07,12.07,0,0,1,1.7,3.39l0.37-.06c0-.62,0-1.21,0-1.81a7.61,7.61,0,0,0-1-3.53,10.66,10.66,0,0,0-1.83-2.35c-0.35-.4-0.85-0.66-1.24-1a9.57,9.57,0,0,0-2-1.32,13.24,13.24,0,0,1-2.58-1.42c0.91,0,1.73.48,2.62,0.59,0.06,0,.12.12,0.18,0.13a21,21,0,0,0,2.64.23,16.77,16.77,0,0,0,4-.63,12.21,12.21,0,0,0,2.3-.79,14.12,14.12,0,0,0,.55,2.53c0.2,0.48,0,1,.2,1.35a2.24,2.24,0,0,1,.21,1.23c0,6.39,0,12.78,0,19.18,0,0.29-.29.72,0.22,0.91-0.19.15-.4,0.29-0.58,0.46a5.87,5.87,0,0,0-1.63,2.93,5.57,5.57,0,0,0,2.21,5.73c-0.4,0-.23.36-0.23,0.55,0,2.92,0,5.84,0,8.75a15.27,15.27,0,0,1-.6,3.46,18,18,0,0,1-.83,2.66,26,26,0,0,1-1.53,3.33c-0.66,1.1-1.45,2.1-2.08,3.21a3.48,3.48,0,0,1-.5.51,8.41,8.41,0,0,0-1,1.24,5.64,5.64,0,0,1-1.14,1,12.49,12.49,0,0,1-1.76,1.53c-0.8.5-1.55,1.08-2.34,1.6a19,19,0,0,1-3.25,1.55v1a0.69,0.69,0,0,0-.13.13,3.46,3.46,0,0,1-3.73,2.15,4.08,4.08,0,0,1-2.52-1.14H167a10.46,10.46,0,0,1,.12,1.1c0,3,0,5.92,0,8.88v1.28c1.16-.11,2.23.38,3.38,0.25,0.48-.05.93,0.32,1.46,0.24a4.13,4.13,0,0,1,1.47.19,24.86,24.86,0,0,0,2.89.28c0.41,0,.81.16,1.22,0.23a1.57,1.57,0,0,1,1.23.23,0.44,0.44,0,0,0,.23,0,5.81,5.81,0,0,1,1.71.21,4.71,4.71,0,0,1,1.57.27c0.79-.18,1.52.25,2.3,0.25a6.11,6.11,0,0,1,1.1.22,1.76,1.76,0,0,1,1,.19,2.4,2.4,0,0,0,.93.06c0.29,0,.57.16,0.86,0.23,1.17,0.26,2.37.43,3.55,0.67,1,0.2,2,.39,3,0.56s2.29,0.45,3.41.74c0.9,0.23,1.83.37,2.72,0.65,1.14,0.36,2.34.5,3.45,0.94C204.92,134.43,205.36,134.08,205.52,134.59Zm-54-39.6a8.93,8.93,0,0,1-2.38,0,8.07,8.07,0,0,0-2-.18,11.93,11.93,0,0,0-2.06-.27,4.82,4.82,0,0,1-1-.21,2.6,2.6,0,0,1-1.05,0c-0.54-.46-1.19,0-1.78-0.38a8.44,8.44,0,0,0-1.9-.33,13.89,13.89,0,0,1-1.45-.26,23.07,23.07,0,0,0-3.23-.87c-0.9-.23-1.77-0.58-2.68-0.8a18.72,18.72,0,0,1-2.58-1c-0.72-.3-1.42-0.61-2.09-0.9a3,3,0,0,0-2,2,3,3,0,0,0-.07,2.64,3.32,3.32,0,0,0,1.3,1.84,5.49,5.49,0,0,0,2.56.78c7.51,0,15,0,22.53,0,0.55,0.59,1.06,1.21,1.65,1.75A4.33,4.33,0,0,0,155,99.74c1.43,0.39,2.73,1.17,4.27,1.29,0.8,0.06,1.6.41,2.44,0.45s1.69,0.22,2.54.21a10.86,10.86,0,0,0,3-.19c0.76-.21,1.6-0.09,2.41-0.24a20.84,20.84,0,0,0,3.27-.8,12.23,12.23,0,0,0,2.74-1.19,12.68,12.68,0,0,0,2.47-2.37h7.44A4.47,4.47,0,0,0,188,96a3.74,3.74,0,0,0,1.22-1.88,4,4,0,0,0,.22-1.7L189,92.05c-0.86.21-1.79,0.38-2.69,0.65-1.59.47-3.22,0.74-4.83,1.08-1.08.23-2.18,0.35-3.26,0.53a0.44,0.44,0,0,0-.09.2l-0.43-.23-0.77.23a2.79,2.79,0,0,0-1.29,0,3.55,3.55,0,0,1-1.59.2c-0.52.09-1,.19-1.57,0.23s-1,0-1.55,0a1,1,0,0,1-.24,0,5,5,0,0,1-2.64-1.62c-0.21-.26-0.39-0.55-0.6-0.83-2.07,1-4,.52-5.91-0.25a8.67,8.67,0,0,1-1.12,1.53,7.37,7.37,0,0,1-3.85,1.63,7.53,7.53,0,0,1-4.06-.55A1.1,1.1,0,0,0,151.52,95ZM142.4,54.67c0,0.4-.36.23-0.55,0.23h-7.67a6.77,6.77,0,0,0-2.58.43A15.18,15.18,0,0,0,127.2,58a11.58,11.58,0,0,0-2.63,3.1,10.88,10.88,0,0,0-1.6,5c0,0.84,0,1.68,0,2.52a1.21,1.21,0,0,0,0,.59,9.69,9.69,0,0,1,.62,1.91c0.26,0.61.55,1.21,0.81,1.82a1.15,1.15,0,0,0,.38.29,9.31,9.31,0,0,1,1.11-2.9,14.49,14.49,0,0,1,2.39-2.84,11.31,11.31,0,0,1,2.35-1.86,19.65,19.65,0,0,1,2.6-1.53,5.39,5.39,0,0,1,2.2-.76,9,9,0,0,0-.91,1.54,12.46,12.46,0,0,0-.76,3.63,12.63,12.63,0,0,0,.18,2.42,7.38,7.38,0,0,0,1.26,3.44c0.39,0.53.86,1,1.23,1.43a6.84,6.84,0,0,0,1.33.26,5.77,5.77,0,0,0,1.2-.26c0.31-.31.64-0.6,0.93-0.93A7,7,0,0,0,141,73.1a16.22,16.22,0,0,0,.69-2.94,6.42,6.42,0,0,0,0-1.91,11.87,11.87,0,0,0-.29-1.92,5.65,5.65,0,0,0-.71-2A19.72,19.72,0,0,0,139,62.44a0.91,0.91,0,0,0-.43-0.09,0.42,0.42,0,0,1,.09-0.2,25.41,25.41,0,0,1,3.4-.71,11.77,11.77,0,0,1,2-.29c0.76,0,1.52,0,2.27,0h4.19a11.2,11.2,0,0,1,1.53,3.1h0.39c0-.49,0-1,0-1.43a7.14,7.14,0,0,0-1-3.68A11.26,11.26,0,0,0,149.08,56a6.67,6.67,0,0,0-.74-0.51,13,13,0,0,0-1.67-1.17,30.34,30.34,0,0,0-4.49-1.91,31.56,31.56,0,0,0-5.68-1c-0.91-.1-1.84,0-2.75,0a19.92,19.92,0,0,0-2.66.27,7,7,0,0,0-2,.29c-1.15.4-2.35,0.65-3.49,1.11A17.56,17.56,0,0,0,120,56.33,9.33,9.33,0,0,0,117.52,60a6.89,6.89,0,0,0-.57,2.52c0,0.52,0,1,0,1.56a0.57,0.57,0,0,0,.09.2l0.25,0,0.33-.8A14.84,14.84,0,0,1,121,58.62a18.68,18.68,0,0,1,6.57-4.13,12.18,12.18,0,0,1,1.57-.54c0.51-.13,1.07-0.11,1.57-0.27a6.36,6.36,0,0,1,1.7-.24c0.57,0,1.13-.23,1.7-0.21,1.29,0,2.57.11,3.85,0.24,0.55,0.05,1.07.36,1.62,0.41C140.59,54,141.44,54.51,142.4,54.67Zm28.16,34.59a19.22,19.22,0,0,0,5.64-8.37,17.9,17.9,0,0,0-3.55-17.34,12.36,12.36,0,0,0-2.37-2.21,1.5,1.5,0,0,0,0,.68,11.69,11.69,0,0,1,.83,1.82,10.67,10.67,0,0,1,.79,3.39c0,0.68,0,1.36,0,2a10.73,10.73,0,0,1-1.2,5,16.25,16.25,0,0,1-2.85,4.21,22.46,22.46,0,0,1-5.44,4.24c-1.41.73-2.84,1.44-4.28,2.12a7.27,7.27,0,0,1-1.7.52c-1.14.22-2.25,0.59-3.39,0.82a27.29,27.29,0,0,1-3.81.6c-2.31.12-4.64,0-7,0a1.45,1.45,0,0,1-.71,0c-0.59-.43-1.2-0.12-1.85-0.24a6.22,6.22,0,0,0,1.88,2.2,9.19,9.19,0,0,0,2.24,1.68c0.45-.24.84-0.48,1.24-0.66a5.48,5.48,0,0,1,1.14-.42,7.61,7.61,0,0,0,1.37-.17A3.27,3.27,0,0,1,149,89c3.6,0,7.2,0,10.8,0S167,88.74,170.56,89.26ZM169.8,61.34H170l-0.09-.4-0.12,0v0.4Z" transform="translate(-0.78 -2.35)"/><path class="cls-5" d="M222.08,375.07a0.45,0.45,0,0,0,.09.2,5.67,5.67,0,0,0,.7,0q9.53,0,19.06,0c0.26,0,.64.24,0.79-0.23a2.11,2.11,0,0,0,.61.23c0.71,0,1.42,0,2.13,0a2.11,2.11,0,0,0,.61-0.23c0.08,0.47.45,0.23,0.67,0.23,3.3,0,6.6,0,9.9,0h0.72a11.7,11.7,0,0,0-.7,2.1,32.45,32.45,0,0,1-1.28,4.28,57.1,57.1,0,0,1-2.2,5.8c-0.64,1.61-1.47,3.15-2.27,4.69-1,2-2.23,3.88-3.4,5.78a22,22,0,0,1-1.44,1.88c0.82,0.75,1.64,1.42,2.36,2.19a23.33,23.33,0,0,1,2,2.43A13.06,13.06,0,0,1,252,407c0.38,0.94.87,1.8,1.35,2.9v0.86h1.17v-0.46a2,2,0,0,1,.75.81,15.9,15.9,0,0,1,1.54,3.56,16.58,16.58,0,0,1,.64,3,20.41,20.41,0,0,1,.19,2.42c0,0.5-.09,1-0.13,1.5a3.24,3.24,0,0,1-.14,1.37c-0.3.45,0,1-.44,1.39,0.1,1-.65,1.75-0.78,2.71H181.33c0.1-.64-0.43-1.1-0.58-1.74a13.29,13.29,0,0,0-.41-1.62,10.83,10.83,0,0,1-.29-1.57,10.65,10.65,0,0,1-.19-2.43c0-.5.08-1,0.12-1.51a3.87,3.87,0,0,1,.14-1.38c0.23-.45,0-1,0.45-1.38a15,15,0,0,1,2.67-6,16.42,16.42,0,0,1,3.06-3.19,23.44,23.44,0,0,1,3.6-2.34,21.78,21.78,0,0,1,4-1.38,12.79,12.79,0,0,0,1.92-.26,6.1,6.1,0,0,1,2-.17,0.57,0.57,0,0,1,.29.25c-0.24.3-.24,0.3,0,0.69,0-.27,0-0.49,0-0.69a1.83,1.83,0,0,0,.54-0.2c0.47-.43.9-0.91,1.37-1.34a13.25,13.25,0,0,1,1.34-1.1c0.8-.56,1.62-1.07,2.55-1.67a2.66,2.66,0,0,0-.23-0.59c-0.86-1.35-1.67-2.73-2.48-4.12-0.56-1-1.14-1.93-1.61-2.93-0.79-1.67-1.46-3.39-2.18-5.09-0.65-1.53-1.17-3.11-1.68-4.7-0.27-.84-0.57-1.68-0.84-2.53a10.41,10.41,0,0,0-.6-1.91q10.69,0,21.39,0a8.54,8.54,0,0,0,1.69-.24,3.24,3.24,0,0,0,1.59-.23,2.06,2.06,0,0,1,.82,0,0.57,0.57,0,0,0,.19-0.23c0.6-.08,1.19-0.15,1.79-0.25A1.2,1.2,0,0,0,222.08,375.07Zm-24.66,28.56h0.12v-0.48h-0.12v0.48Z" transform="translate(-0.78 -2.35)"/><path class="cls-4" d="M78.08,375.07a0.57,0.57,0,0,0,.19.23c0.32,0,.64,0,1,0H96.5a1.19,1.19,0,0,1,1.11.2c1.1,0.08,2.16.4,3.26,0.55a77.92,77.92,0,0,0,8.78.19c3,0.06,6,0,9,0h8.87c-0.34,1-.6,2.07-1,3-1.13,2.57-2.15,5.18-3.51,7.65-1,1.77-2,3.52-3.08,5.19-1,1.48-2.1,2.89-3.16,4.34a20.49,20.49,0,0,1,8.87,12.41l0.25,1h-1.23a18,18,0,0,1-2.55,2.11,24.61,24.61,0,0,1-6.66,2.46,11,11,0,0,0-1.54.31,14.12,14.12,0,0,1-3,.59,6.15,6.15,0,0,1-2.29.27c-0.87.53-1.87,0.11-2.81,0.43s-1.75,0-2.65.25a12.16,12.16,0,0,1-2.39,0c-0.81,0-1.61.19-2.42,0.22s-1.84,0-2.76,0-1.84,0-2.76,0a26.5,26.5,0,0,0-2.66-.21c-1.74.1-3.44-.36-5.18-0.26a0.23,0.23,0,0,1-.12,0c-0.87-.53-1.93,0-2.8-0.48-0.79.16-1.51-.29-2.3-0.25a5.56,5.56,0,0,1-.86-0.22,3.82,3.82,0,0,1-.95,0,27.75,27.75,0,0,0-3.58-.91,31.12,31.12,0,0,1-3.8-1.25,10,10,0,0,1-4.28-3l-0.73-.13c0.27-.87.48-1.66,0.76-2.42a19.21,19.21,0,0,1,1.55-3.56,16.61,16.61,0,0,0,1.57-2.58c0.46-.5.93-1,1.39-1.51a19.35,19.35,0,0,1,4.11-3.37c0.84-.54,1.74-1,2.6-1.48-1.11-1.63-2.28-3.27-3.33-5a52.28,52.28,0,0,1-3-5.57,47.29,47.29,0,0,1-2.7-6.78c-0.15-.53-0.43-1-0.62-1.54a3.13,3.13,0,0,1-.09-0.68h6.42c0.19,0,.5.17,0.54-0.23a2.11,2.11,0,0,0,.61.23c0.71,0,1.42,0,2.13,0A2.11,2.11,0,0,0,78.08,375.07Z" transform="translate(-0.78 -2.35)"/><path class="cls-1" d="M69.44,401.23a16.61,16.61,0,0,1-1.57,2.58,19.21,19.21,0,0,0-1.55,3.56c-0.28.76-.49,1.56-0.76,2.42l0.73,0.13a10,10,0,0,0,4.28,3,31.12,31.12,0,0,0,3.8,1.25,27.75,27.75,0,0,1,3.58.91,3.82,3.82,0,0,0,.95,0,5.56,5.56,0,0,0,.86.22c0.78,0,1.51.41,2.3,0.25,0.87,0.52,1.93-.05,2.8.48a0.23,0.23,0,0,0,.12,0c1.73-.1,3.43.37,5.18,0.26a26.5,26.5,0,0,1,2.66.21c0.92,0,1.84,0,2.76,0s1.84,0,2.76,0,1.61-.18,2.42-0.22a12.16,12.16,0,0,0,2.39,0c0.9-.24,1.84,0,2.65-0.25s1.94,0.1,2.81-.43a6.15,6.15,0,0,0,2.29-.27,14.12,14.12,0,0,0,3-.59,11,11,0,0,1,1.54-.31,24.61,24.61,0,0,0,6.66-2.46,18,18,0,0,0,2.55-2.11h1.23l-0.25-1a2.11,2.11,0,0,1,.94,1.22,15.76,15.76,0,0,1,1.94,5.2c0.49,0.7.17,1.56,0.43,2.34a8.51,8.51,0,0,1,.05,2.5,12,12,0,0,0-.27,1.46,4,4,0,0,1-.22,1.34c-0.12.47-.32,0.91-0.42,1.38a2.49,2.49,0,0,1-.51,1.24,1.2,1.2,0,0,0-.06.58H52.71a2.51,2.51,0,0,0-.17-0.66,8.28,8.28,0,0,1-.84-2.65,5.47,5.47,0,0,1-.29-1.46,11.4,11.4,0,0,0-.21-1.58,10.38,10.38,0,0,1,0-1.56c0-.65.16-1.29,0.23-1.94s0.31-1.16.42-1.74a14.71,14.71,0,0,1,1.5-3.94,14.1,14.1,0,0,1,1.82-2.73,16.23,16.23,0,0,1,1.54-1.76,18.33,18.33,0,0,1,5.08-3.38,13,13,0,0,1,2-.77,14.48,14.48,0,0,1,2.06-.49A16.33,16.33,0,0,1,69.44,401.23Z" transform="translate(-0.78 -2.35)"/><path class="cls-6" d="M99,76a7.46,7.46,0,0,1,1.1,1.7,5.33,5.33,0,0,1,.39,3.51,5.72,5.72,0,0,1-1.79,3.1,4.29,4.29,0,0,1-3.73,1,1.1,1.1,0,0,1-.29-0.17,4.12,4.12,0,0,1-2.71-2.09,5.51,5.51,0,0,1-.87-3.46,6.44,6.44,0,0,1,1.18-3,0.24,0.24,0,0,0,0-.12c0.6-.33,1-0.91,1.65-1.22a4.39,4.39,0,0,1,4.78.57A3.34,3.34,0,0,0,99,76Z" transform="translate(-0.78 -2.35)"/><path class="cls-6" d="M205.76,85.15a5.57,5.57,0,0,1-2.21-5.73,5.87,5.87,0,0,1,1.63-2.93c0.18-.17.38-0.31,0.58-0.46a5,5,0,0,1,2.46-.73A4.54,4.54,0,0,1,212,77.41a5.45,5.45,0,0,1-2.12,8.06,3.25,3.25,0,0,1-2.11.37A5.48,5.48,0,0,1,205.76,85.15Z" transform="translate(-0.78 -2.35)"/><path class="cls-5" d="M254.29,410.35l0-.46,0.15,0,0.09,0.47h-0.21Z" transform="translate(-0.78 -2.35)"/><path class="cls-7" d="M167.36,60.67a4.83,4.83,0,0,0-1,1.93A1.92,1.92,0,0,1,166,63a9,9,0,0,1-.05-3,9.74,9.74,0,0,1,2.86-5A11.73,11.73,0,0,1,171.57,53c1-.48,2-1,3-1.46s2.35-.68,3.49-1.13a13.15,13.15,0,0,1,2.16-.29,25.44,25.44,0,0,1,4.7-.23,19.62,19.62,0,0,1,3.33.38,8.54,8.54,0,0,1,3,.81,1.35,1.35,0,0,0,.59,0h0.24c0.11,0.46.48,0.15,0.72,0.24a13.24,13.24,0,0,0,2.58,1.42,9.57,9.57,0,0,1,2,1.32c0.39,0.37.89,0.64,1.24,1a10.66,10.66,0,0,1,1.83,2.35,7.61,7.61,0,0,1,1,3.53c0,0.59,0,1.19,0,1.81l-0.37.06a12.07,12.07,0,0,0-1.7-3.39,23.76,23.76,0,0,0-3.6-3.66,15.38,15.38,0,0,0-4-2.31,18.59,18.59,0,0,0-4.16-1.25,16.28,16.28,0,0,1-2.29-.25,4.87,4.87,0,0,0-2.19-.17c-1.25.12-2.52,0.21-3.76,0.44a28,28,0,0,0-3.53,1,15.63,15.63,0,0,0-2.48,1.25,1.08,1.08,0,0,0-.26.37c-0.18,0-.46-0.12-0.48.24a1.34,1.34,0,0,0-.44.09A11.78,11.78,0,0,0,170,57.15,11.35,11.35,0,0,0,167.68,60,0.94,0.94,0,0,0,167.36,60.67Z" transform="translate(-0.78 -2.35)"/><path class="cls-4" d="M192.8,51.31c-0.24-.09-0.61.22-0.72-0.24C192.32,51.16,192.69,50.84,192.8,51.31Z" transform="translate(-0.78 -2.35)"/><path class="cls-8" d="M105.44,259.15a13.74,13.74,0,0,1,.52-3.39,14.28,14.28,0,0,1,.68-2.71c0.12-.27.21-0.55,0.33-0.87a18.56,18.56,0,0,0,4.67,2.88,18.18,18.18,0,0,0,4.2,1.42,10,10,0,0,0,3.51.5,2.47,2.47,0,0,1-.09.44c-0.28.72-.61,1.43-0.87,2.16-0.5,1.43-1,2.87-1.44,4.32a22.51,22.51,0,0,0-.69,2.46c-0.32,1.67-.81,3.3-1,5a5.35,5.35,0,0,1-.24,1.56,3.54,3.54,0,0,0-.2,1.12c-0.07.41-.18,0.81-0.23,1.22a2,2,0,0,1-.22,1.12,1.6,1.6,0,0,0,0,.8,23.38,23.38,0,0,1,2.94-.93,15,15,0,0,1,3-.54c1.05,0,2.07-.31,3.13-0.26,1.67,0.08,3.35,0,5,0H153.2c1.48,0,3,0,4.43,0a33.63,33.63,0,0,1,4.46.18c1.09,0.18,2.18.35,3.27,0.55a22.29,22.29,0,0,1,2.24.65c-0.08-.5-0.18-1-0.24-1.46a6.21,6.21,0,0,0-.3-2.15c-0.34-.59,0-1.2-0.38-1.78a5.19,5.19,0,0,1-.29-1.79c-0.17-.88-0.39-1.75-0.61-2.62-0.16-.65-0.38-1.28-0.55-1.92s-0.36-1.06-.48-1.6-0.32-1.08-.45-1.61c-0.18-.76-0.71-1.46-0.54-2.3a31.84,31.84,0,0,0,4.09-1.09c1.09-.46,2.16-0.94,3.21-1.5a9.72,9.72,0,0,0,2-1.28,4.17,4.17,0,0,1,.66-0.41c0.61,0,.15.78,0.62,0.91a4.65,4.65,0,0,0,.21,1.83c0.26,0.47-.18,1.16.27,1.68a0.46,0.46,0,0,1,0,.23,8,8,0,0,0,0,2.25,8.37,8.37,0,0,1,.19,2.18c0,0.75,0,1.51,0,2.27a10.46,10.46,0,0,0-.26,1.57,3.33,3.33,0,0,1,0,1.65,7.41,7.41,0,0,0-.2,2.18,0.43,0.43,0,0,0-.2.09c-0.18.88-.34,1.76-0.53,2.64a2.56,2.56,0,0,0-.24,1.21c-0.49.28,0,.95-0.48,1.23,0,0.8-.57,1.47-0.62,2.27h0.62a29.46,29.46,0,0,1,2.53,2.15c0.33,0.37.82,0.59,1.15,1a26.13,26.13,0,0,1,4.71,6.93A21.51,21.51,0,0,1,183,294c0.21,1,.33,2.11.53,3.15a20.84,20.84,0,0,1,.17,3.87c0,11.56,0,23.12,0,34.68a23.13,23.13,0,0,1-.86,5.38,23.6,23.6,0,0,1-2,5.28,16.45,16.45,0,0,1-3,4.28,16.12,16.12,0,0,1-1.12,1.32,40.11,40.11,0,0,1-4.55,3.47,27.6,27.6,0,0,1-5.47,2.46,10.66,10.66,0,0,1-2.63.63c-0.53,0-1,.26-1.58.24s-1,.18-1.46.21-1.12,0-1.68,0H123a4.68,4.68,0,0,1-2-.2c-0.58-.24-1.32.16-1.93-0.28a13.8,13.8,0,0,1-3.92-1,23.56,23.56,0,0,1-4.32-2,43,43,0,0,1-3.69-2.7c-1-.77-1.62-1.88-2.58-2.66l-0.63-.51a1.52,1.52,0,0,0-.42-1,18.51,18.51,0,0,1-2.58-4.74,2.09,2.09,0,0,0-.36-0.49,2.71,2.71,0,0,0-.22-1c-0.26-1.09-.6-2.17-0.78-3.29-0.08-.53-0.1-1.07-0.21-1.58a24.4,24.4,0,0,1-.22-5.06c0-1.72,0-3.44,0-5.16v-24c0-1.28,0-2.55,0-3.83s0.42-2.55.25-3.85a0.57,0.57,0,0,0,.23-0.19,22.58,22.58,0,0,1,1.31-4.85,26.58,26.58,0,0,1,2.54-4.82,4.24,4.24,0,0,1,.73-1c1-.87,1.55-2.25,2.82-2.9a3.68,3.68,0,0,0,.77-0.75,4.28,4.28,0,0,0-.45-2,28,28,0,0,1-1-3.07c-0.28-1-.36-2-0.7-2.94a10.53,10.53,0,0,1-.27-2.17c-0.07-.57-0.19-1.13-0.23-1.7a8.64,8.64,0,0,0,0-1.67c-0.44-1.56-.09-3.14-0.22-4.7a8,8,0,0,0,.25-2.77A6.42,6.42,0,0,1,105.44,259.15Z" transform="translate(-0.78 -2.35)"/><path class="cls-9" d="M53.12,223.39l-0.31.46c-1.36-.14-2.66.28-4,0.26H48.28l1.85-2.89a16.3,16.3,0,0,0,1.17-1.91,13.72,13.72,0,0,0,.91-2,17.55,17.55,0,0,1,1-2.21c0.54-1.23.9-2.5,1.33-3.76a28.05,28.05,0,0,0,1.25-5c0.13-.89.33-1.78,0.47-2.68a11.88,11.88,0,0,0,.23-1.58c0-.49.18-1,0.22-1.46a11.16,11.16,0,0,1,0-1.67c0.43-1.84.12-3.69,0.22-5.53a0.7,0.7,0,0,1,0-.35c0.44-.54.88-1.08,1.35-1.6,1.34-1.48,2.61-3,3.94-4.5,1-1.08,2-2.05,3.1-3.3v0.87c0,6.75,0,13.51,0,20.26a4.28,4.28,0,0,1-.58,1.74,13.37,13.37,0,0,0-1.41,1c-1.32,1.19-2.67,2.35-3.88,3.65a51.52,51.52,0,0,0-5.66,7.36c-0.66,1-1.22,2.13-1.81,3.2a5,5,0,0,0-.58,1.68l0,0-0.2.17,0.08,0.08a1.34,1.34,0,0,0,.15-0.21h1.67Z" transform="translate(-0.78 -2.35)"/><path class="cls-9" d="M223.17,182.58a0.92,0.92,0,0,0-.32.08,3.88,3.88,0,0,1-3.38.69c-1.32-.16-1.87-1.14-2.68-1.89-0.18-.93-0.86-1.82-0.25-2.82-0.1-1.36,1.08-1.89,1.78-2.74a4.81,4.81,0,0,1,2.75-.42,4,4,0,0,1,2.57,1.61,1.76,1.76,0,0,1,.58,1.44c0,0.15,0,.29,0,0.54a4,4,0,0,1,4.89-.76,4.73,4.73,0,0,1,1.56,1.6,3.23,3.23,0,0,1,.48,1.58,4.78,4.78,0,0,1-.24,1.93,4.32,4.32,0,0,1-1.78,2,3.67,3.67,0,0,1-2.4.53A4.08,4.08,0,0,1,223.17,182.58Z" transform="translate(-0.78 -2.35)"/><path class="cls-9" d="M247.22,182.32a3.25,3.25,0,0,1-2.46,1.19,3.51,3.51,0,0,1-3.27-1.32,4.71,4.71,0,0,1-.89-1.19,4.37,4.37,0,0,1-.24-1.92,4.25,4.25,0,0,1,1.32-2.58,3.81,3.81,0,0,1,2.68-1.08,3.29,3.29,0,0,1,2.77,1.11c0.36,0.45.77,0.86,1.14,1.27v1.35A3.31,3.31,0,0,1,251,177.8a3.48,3.48,0,0,1,2.25.61,7.66,7.66,0,0,1,1.45,1.54,4.38,4.38,0,0,1,.47,1.6,3.3,3.3,0,0,1-.31,1.91c-0.41,1.42-2.69,2.71-4.2,2.48A4,4,0,0,1,247.22,182.32Z" transform="translate(-0.78 -2.35)"/><path class="cls-9" d="M223.17,206.3a3.5,3.5,0,0,1-2.33,1.22,3.78,3.78,0,0,1-2-.29,4.27,4.27,0,0,1-1.1-.81,3.83,3.83,0,0,1-1.38-2.43,4,4,0,0,1,1-3.07c0.36-.36.76-0.69,1.11-1.06s0.93-.21,1.39-0.42c0.74-.35,2.43.25,3.07,0.87l0.25,0.25c1.06,1.06,1.06,1.06,1.19,2.39a4,4,0,0,1,4.88-.59,6.5,6.5,0,0,1,1.51,1.63,4,4,0,0,1,.47,1.6,3.3,3.3,0,0,1-.32,1.9,4.33,4.33,0,0,1-4.1,2.45A4.08,4.08,0,0,1,223.17,206.3Z" transform="translate(-0.78 -2.35)"/><path class="cls-9" d="M247.15,206.53a1.81,1.81,0,0,0-.4.23,3.06,3.06,0,0,1-1.55.62,1.8,1.8,0,0,1-1.63-.05c-1.36.1-1.9-1.08-2.74-1.78a5.25,5.25,0,0,1-.4-2.85,4.79,4.79,0,0,1,1.21-2.15,3.78,3.78,0,0,1,2.89-1.14,4.46,4.46,0,0,1,3.47,2.15,3.8,3.8,0,0,1,.26,1.39,8.94,8.94,0,0,1,1.08-.69,5.26,5.26,0,0,1,1.37-.44,3,3,0,0,1,1.35.18,2.8,2.8,0,0,1,1.24.47,4.91,4.91,0,0,1,1.45,1.67,6.32,6.32,0,0,1,.43,1.62,4.11,4.11,0,0,1-.36,1.77,4.28,4.28,0,0,1-4.11,2.42A4.11,4.11,0,0,1,247.15,206.53Z" transform="translate(-0.78 -2.35)"/><path class="cls-10" d="M152.72,228.19a3.61,3.61,0,0,1-1.68.69,33.94,33.94,0,0,0-4.32,2,36.44,36.44,0,0,0-3.13,2.26,3.7,3.7,0,0,0-1.23,1.39,4.89,4.89,0,0,1-1,1.09,1.43,1.43,0,0,1-.35-0.39,9.09,9.09,0,0,0-1.48-2.62,12.35,12.35,0,0,0-1.95-2.18,18.93,18.93,0,0,0-5.27-3.46,0.68,0.68,0,0,1-.19-0.23c0.16-.51.6-0.14,0.89-0.28a8.8,8.8,0,0,1,2-.48c0.85-.18,1.73,0,2.53-0.24a22.61,22.61,0,0,1,4.09-.2c0.54,0,1,.35,1.58.26a10.74,10.74,0,0,1,1.67,0,0.44,0.44,0,0,0,.09.2c0.81,0.14,1.62.34,2.42,0.51a29.39,29.39,0,0,1,5.17,1.7h0.24Z" transform="translate(-0.78 -2.35)"/><path class="cls-9" d="M224.18,157.24a36.16,36.16,0,0,1,5.92-2,3,3,0,0,1,.88,1.37,4,4,0,0,1-.26,3.07,5.1,5.1,0,0,1-1.75,1.8,3.91,3.91,0,0,1-5.78-2.93,2,2,0,0,0-.49.27,3.31,3.31,0,0,1-1.55.6,3.51,3.51,0,0,1-1.55,0,3.72,3.72,0,0,1-2.62-1.76,3.41,3.41,0,0,1-.63-2.81,4.06,4.06,0,0,1,1.86-2.81,3.55,3.55,0,0,1,2.82-.58,4.12,4.12,0,0,1,2.73,1.77,1.74,1.74,0,0,1,.44.89c0,0.68.57,1.36,0.17,2a10.38,10.38,0,0,0-.2,1.12c0.07-.09.05-0.1,0-0.12l-0.2.17,0.08,0.08A0.22,0.22,0,0,0,224.18,157.24Z" transform="translate(-0.78 -2.35)"/><path class="cls-9" d="M246.32,230.83a4.58,4.58,0,0,1-1.75-2,6.85,6.85,0,0,0-1.59-1.39c-0.65-.58-1.56-0.8-2.18-1.46v-0.6c0.28-.28.55-0.58,0.85-0.84a3.84,3.84,0,0,1,1.09-.83,3.54,3.54,0,0,1,1.89-.36,4.23,4.23,0,0,1,2.44,1.07c1.29,1.36,1,1.17,1.26,2.49a4,4,0,0,1,4.79-.65,4.73,4.73,0,0,1,1.57,1.6,3.22,3.22,0,0,1,.48,1.58,4.79,4.79,0,0,1-.24,1.93,4.31,4.31,0,0,1-1.78,2,3.66,3.66,0,0,1-2.41.53,4.08,4.08,0,0,1-3.57-3.34Z" transform="translate(-0.78 -2.35)"/><path class="cls-11" d="M200.48,371.49c-0.3,2.34-1.67,4-4.13,4s-3.86-1.67-4-4.1a4.19,4.19,0,0,1,4-4A4.18,4.18,0,0,1,200.48,371.49Z" transform="translate(-0.78 -2.35)"/><path class="cls-11" d="M176.48,371.49c-0.3,2.33-1.67,4-4.13,4s-3.86-1.67-4-4.1a4.19,4.19,0,0,1,4-4A4.18,4.18,0,0,1,176.48,371.49Z" transform="translate(-0.78 -2.35)"/><path class="cls-11" d="M148.38,375.55c-2.34-.3-4-1.67-4-4.13s1.67-3.86,4.1-4a4.19,4.19,0,0,1,4,4A4.18,4.18,0,0,1,148.38,375.55Z" transform="translate(-0.78 -2.35)"/><path class="cls-11" d="M128.48,371.49c-0.3,2.34-1.67,4-4.13,4s-3.86-1.67-4-4.1a4.19,4.19,0,0,1,4-4A4.18,4.18,0,0,1,128.48,371.49Z" transform="translate(-0.78 -2.35)"/><path class="cls-11" d="M76.34,271.39a4.25,4.25,0,0,1,4.13,4.05,4.53,4.53,0,0,1-1.15,2.76,3.71,3.71,0,0,1-2.8,1.31,3.93,3.93,0,0,1-4.13-4C72.32,273.19,73.88,271.74,76.34,271.39Z" transform="translate(-0.78 -2.35)"/><path class="cls-11" d="M100.34,279.55c-2.46-.35-4-1.8-4-4.17a3.93,3.93,0,0,1,4.14-4,3.71,3.71,0,0,1,2.8,1.31,4.53,4.53,0,0,1,1.15,2.76A4.25,4.25,0,0,1,100.34,279.55Z" transform="translate(-0.78 -2.35)"/><path class="cls-11" d="M196.35,271.39a4.25,4.25,0,0,1,4.12,4.06,4.45,4.45,0,0,1-1.16,2.75,3.7,3.7,0,0,1-2.8,1.31c-2.39-.1-4.06-1.52-4.13-4S193.93,271.73,196.35,271.39Z" transform="translate(-0.78 -2.35)"/><path class="cls-11" d="M224.48,275.46a4.18,4.18,0,0,1-4.1,4.05,3.66,3.66,0,0,1-2.74-1.16,3.71,3.71,0,0,1-1.28-2.81c0.14-2.48,1.64-4.06,4-4.09S224.19,273.12,224.48,275.46Z" transform="translate(-0.78 -2.35)"/><path class="cls-11" d="M248.48,275.49c-0.3,2.33-1.67,4-4.13,4s-3.86-1.67-4-4.1a4.19,4.19,0,0,1,4-4A4.19,4.19,0,0,1,248.48,275.49Z" transform="translate(-0.78 -2.35)"/><path class="cls-11" d="M80.48,299.45a4.18,4.18,0,0,1-4.09,4.07,4.19,4.19,0,0,1-4-4c0.13-2.43,1.58-4.06,4-4.1S80.18,297.11,80.48,299.45Z" transform="translate(-0.78 -2.35)"/><path class="cls-11" d="M196.28,303.55c-2.33-.38-3.85-1.74-3.92-4.23a4.19,4.19,0,0,1,4.1-3.9c2.47,0.27,4,1.78,4,4.14S198.68,303.33,196.28,303.55Z" transform="translate(-0.78 -2.35)"/><path class="cls-11" d="M224.48,299.47c-0.28,2.35-1.68,4-4.11,4s-3.88-1.59-4-4.08a4.11,4.11,0,0,1,4-4A4.18,4.18,0,0,1,224.48,299.47Z" transform="translate(-0.78 -2.35)"/><path class="cls-11" d="M248.48,299.41a4.25,4.25,0,0,1-4.05,4.13,4.53,4.53,0,0,1-2.76-1.15,3.71,3.71,0,0,1-1.31-2.8,3.93,3.93,0,0,1,4-4.14C246.68,295.38,248.13,296.95,248.48,299.41Z" transform="translate(-0.78 -2.35)"/><path class="cls-11" d="M76.46,319.39c2.46,0.36,4,1.8,4,4.17a3.93,3.93,0,0,1-4.14,4,3.71,3.71,0,0,1-2.8-1.31,4.53,4.53,0,0,1-1.15-2.76A4.25,4.25,0,0,1,76.46,319.39Z" transform="translate(-0.78 -2.35)"/><path class="cls-11" d="M200.48,323.51a4.29,4.29,0,0,1-4.15,4c-2.45-.36-3.86-1.8-4-4.18a3.6,3.6,0,0,1,1.31-2.8,3.71,3.71,0,0,1,2.74-1.16A4.21,4.21,0,0,1,200.48,323.51Z" transform="translate(-0.78 -2.35)"/><path class="cls-11" d="M220.38,327.55c-2.34-.3-4-1.67-4-4.13s1.67-3.86,4.1-4a4.19,4.19,0,0,1,4,4A4.18,4.18,0,0,1,220.38,327.55Z" transform="translate(-0.78 -2.35)"/><path class="cls-11" d="M248.48,323.46a4.18,4.18,0,0,1-4.1,4.05,3.66,3.66,0,0,1-2.74-1.16,3.71,3.71,0,0,1-1.28-2.81c0.14-2.48,1.63-4.06,4-4.09S248.19,321.12,248.48,323.46Z" transform="translate(-0.78 -2.35)"/><path class="cls-11" d="M80.48,347.5c-0.31,2.33-1.67,4-4.14,4s-3.87-1.73-4-4.1a3.61,3.61,0,0,1,1.3-2.8,3.71,3.71,0,0,1,2.74-1.16A4.2,4.2,0,0,1,80.48,347.5Z" transform="translate(-0.78 -2.35)"/><path class="cls-11" d="M200.48,347.51a4.29,4.29,0,0,1-4.15,4c-2.45-.36-3.86-1.8-4-4.18a3.6,3.6,0,0,1,1.31-2.8,3.71,3.71,0,0,1,2.74-1.16A4.21,4.21,0,0,1,200.48,347.51Z" transform="translate(-0.78 -2.35)"/><path class="cls-11" d="M224.48,347.53c-0.36,2.46-1.8,4-4.17,4a3.93,3.93,0,0,1-4-4.14,3.71,3.71,0,0,1,1.31-2.8,4.53,4.53,0,0,1,2.76-1.15A4.25,4.25,0,0,1,224.48,347.53Z" transform="translate(-0.78 -2.35)"/><path class="cls-11" d="M248.48,347.59c-0.38,2.33-1.74,3.85-4.23,3.92a4.19,4.19,0,0,1-3.9-4.1c0.27-2.47,1.78-4,4.14-4S248.27,345.18,248.48,347.59Z" transform="translate(-0.78 -2.35)"/><path class="cls-11" d="M100.34,367.39a4.25,4.25,0,0,1,4.13,4.05,4.53,4.53,0,0,1-1.15,2.76,3.71,3.71,0,0,1-2.8,1.31,3.93,3.93,0,0,1-4.13-4C96.32,369.19,97.88,367.74,100.34,367.39Z" transform="translate(-0.78 -2.35)"/><path class="cls-11" d="M56.48,155.46a4.18,4.18,0,0,1-4.1,4.05,3.66,3.66,0,0,1-2.74-1.16,3.71,3.71,0,0,1-1.28-2.81c0.14-2.48,1.64-4.06,4-4.09S56.19,153.12,56.48,155.46Z" transform="translate(-0.78 -2.35)"/><path class="cls-11" d="M76.34,159.55c-2.46-.35-4-1.8-4-4.17a3.93,3.93,0,0,1,4.14-4,3.71,3.71,0,0,1,2.8,1.31,4.53,4.53,0,0,1,1.15,2.76A4.25,4.25,0,0,1,76.34,159.55Z" transform="translate(-0.78 -2.35)"/><path class="cls-11" d="M100.37,151.39a4.2,4.2,0,0,1,4.08,4.08,3.71,3.71,0,0,1-1.16,2.74,3.61,3.61,0,0,1-2.8,1.3c-2.37-.12-4.06-1.52-4.1-4S98,151.7,100.37,151.39Z" transform="translate(-0.78 -2.35)"/><path class="cls-11" d="M124.37,151.39a4.2,4.2,0,0,1,4.08,4.08,3.71,3.71,0,0,1-1.16,2.74,3.61,3.61,0,0,1-2.8,1.3c-2.37-.12-4.06-1.52-4.1-4S122,151.7,124.37,151.39Z" transform="translate(-0.78 -2.35)"/><path class="cls-11" d="M148.41,159.55a4.18,4.18,0,0,1-4.05-4.1,3.66,3.66,0,0,1,1.16-2.74,3.71,3.71,0,0,1,2.81-1.28c2.48,0.14,4.06,1.64,4.09,4S150.75,159.26,148.41,159.55Z" transform="translate(-0.78 -2.35)"/><path class="cls-11" d="M176.48,155.47c-0.28,2.35-1.68,4-4.11,4s-3.88-1.59-4-4.08a4.11,4.11,0,0,1,4-4A4.18,4.18,0,0,1,176.48,155.47Z" transform="translate(-0.78 -2.35)"/><path class="cls-11" d="M200.48,155.5c-0.31,2.34-1.67,4-4.14,4s-3.87-1.73-4-4.1a3.61,3.61,0,0,1,1.3-2.8,3.71,3.71,0,0,1,2.74-1.16A4.2,4.2,0,0,1,200.48,155.5Z" transform="translate(-0.78 -2.35)"/><path class="cls-11" d="M32.48,179.46a4.18,4.18,0,0,1-4.1,4.05,3.66,3.66,0,0,1-2.74-1.16,3.72,3.72,0,0,1-1.28-2.81c0.14-2.47,1.63-4.06,4-4.09S32.19,177.12,32.48,179.46Z" transform="translate(-0.78 -2.35)"/><path class="cls-11" d="M52.34,183.55c-2.46-.35-4-1.8-4-4.17a3.93,3.93,0,0,1,4.13-4,3.71,3.71,0,0,1,2.8,1.31,4.53,4.53,0,0,1,1.15,2.76A4.25,4.25,0,0,1,52.34,183.55Z" transform="translate(-0.78 -2.35)"/><path class="cls-11" d="M80.48,179.42a4.25,4.25,0,0,1-4.06,4.12,4.45,4.45,0,0,1-2.75-1.16,3.7,3.7,0,0,1-1.31-2.8c0.1-2.39,1.52-4.06,4-4.12S80.14,177,80.48,179.42Z" transform="translate(-0.78 -2.35)"/><path class="cls-11" d="M104.48,179.51a4.29,4.29,0,0,1-4.15,4c-2.45-.36-3.87-1.8-4-4.18a3.6,3.6,0,0,1,1.31-2.8,3.72,3.72,0,0,1,2.74-1.16A4.21,4.21,0,0,1,104.48,179.51Z" transform="translate(-0.78 -2.35)"/><path class="cls-11" d="M128.48,179.47c-0.28,2.35-1.68,4-4.11,4s-3.88-1.59-4-4.08a4.11,4.11,0,0,1,4-4A4.18,4.18,0,0,1,128.48,179.47Z" transform="translate(-0.78 -2.35)"/><path class="cls-11" d="M148.39,183.55c-2.34-.29-4-1.67-4-4.12s1.61-3.86,4.09-4a3.71,3.71,0,0,1,2.81,1.28,3.66,3.66,0,0,1,1.16,2.74A4.18,4.18,0,0,1,148.39,183.55Z" transform="translate(-0.78 -2.35)"/><path class="cls-11" d="M176.48,179.47c-0.28,2.35-1.68,4-4.11,4s-3.88-1.6-4-4.08a4.11,4.11,0,0,1,4-4A4.18,4.18,0,0,1,176.48,179.47Z" transform="translate(-0.78 -2.35)"/><path class="cls-11" d="M200.48,179.49c-0.3,2.33-1.67,4-4.13,4s-3.86-1.67-4-4.1a4.19,4.19,0,0,1,4-4A4.19,4.19,0,0,1,200.48,179.49Z" transform="translate(-0.78 -2.35)"/><path class="cls-11" d="M80.48,203.42a4.25,4.25,0,0,1-4.06,4.12,4.45,4.45,0,0,1-2.75-1.16,3.7,3.7,0,0,1-1.31-2.8c0.1-2.39,1.52-4.06,4-4.13S80.14,201,80.48,203.42Z" transform="translate(-0.78 -2.35)"/><path class="cls-11" d="M100.39,207.55c-2.34-.29-4-1.67-4-4.12s1.61-3.86,4.09-4a3.71,3.71,0,0,1,2.81,1.28,3.66,3.66,0,0,1,1.16,2.74A4.18,4.18,0,0,1,100.39,207.55Z" transform="translate(-0.78 -2.35)"/><path class="cls-11" d="M124.35,199.39a4.25,4.25,0,0,1,4.12,4.06,4.45,4.45,0,0,1-1.16,2.75,3.7,3.7,0,0,1-2.8,1.31c-2.39-.1-4.06-1.52-4.13-4S121.93,199.73,124.35,199.39Z" transform="translate(-0.78 -2.35)"/><path class="cls-11" d="M152.48,203.5c-0.31,2.34-1.67,4-4.14,4s-3.87-1.73-4-4.1a3.61,3.61,0,0,1,1.3-2.8,3.71,3.71,0,0,1,2.74-1.16A4.2,4.2,0,0,1,152.48,203.5Z" transform="translate(-0.78 -2.35)"/><path class="cls-11" d="M172.34,207.55c-2.46-.35-4-1.8-4-4.17a3.93,3.93,0,0,1,4.14-4,3.71,3.71,0,0,1,2.8,1.31,4.53,4.53,0,0,1,1.15,2.76A4.25,4.25,0,0,1,172.34,207.55Z" transform="translate(-0.78 -2.35)"/><path class="cls-11" d="M200.48,203.49c-0.3,2.34-1.67,4-4.13,4s-3.86-1.66-4-4.09a4.19,4.19,0,0,1,4-4A4.18,4.18,0,0,1,200.48,203.49Z" transform="translate(-0.78 -2.35)"/><path class="cls-11" d="M222.08,375.07a1.2,1.2,0,0,1-.37.23c-0.59.1-1.19,0.17-1.79,0.25-0.5-.22-1-0.44-1.51-0.68a3.65,3.65,0,0,1-2-3.3,4.06,4.06,0,0,1,2.84-4,4.1,4.1,0,0,1,5,2.66A3.91,3.91,0,0,1,222.08,375.07Z" transform="translate(-0.78 -2.35)"/><path class="cls-11" d="M246.08,375.07a2.11,2.11,0,0,1-.61.23c-0.71,0-1.42,0-2.13,0a2.11,2.11,0,0,1-.61-0.23,3.9,3.9,0,0,1-2.37-3.35,4,4,0,0,1,7.89-1.45A3.93,3.93,0,0,1,246.08,375.07Z" transform="translate(-0.78 -2.35)"/><path class="cls-11" d="M78.08,375.07a2.11,2.11,0,0,1-.61.23c-0.71,0-1.42,0-2.13,0a2.11,2.11,0,0,1-.61-0.23,3.9,3.9,0,0,1-2.37-3.35,4,4,0,0,1,7.89-1.45A3.93,3.93,0,0,1,78.08,375.07Z" transform="translate(-0.78 -2.35)"/><path class="cls-12" d="M100.64,343.39a2.09,2.09,0,0,1,.36.49,18.51,18.51,0,0,0,2.58,4.74,1.52,1.52,0,0,1,.42,1c-0.35.31-.69,0.63-1,0.92a2.5,2.5,0,0,1-1,.72c-0.72.07-1.47,0.56-2.14,0.23-0.46-.22-1,0-1.38-0.43s-0.65-.57-0.94-0.88a3.83,3.83,0,0,1-.9-1.17,4.14,4.14,0,0,1-.24-1.91,3.39,3.39,0,0,1,1.14-2.39,3.84,3.84,0,0,1,1.26-1A5.11,5.11,0,0,1,100.64,343.39Z" transform="translate(-0.78 -2.35)"/><path class="cls-13" d="M242,254.83a13.93,13.93,0,0,1,1.23-.86A10.73,10.73,0,0,0,246,251.6c0.63-.71,1.15-1.53,1.72-2.3a1.71,1.71,0,0,1,.57,1.25l0.7-.24a5.76,5.76,0,0,1,2.06-.54,3.63,3.63,0,0,1,2.76,1.18,7.31,7.31,0,0,0,.83.67,5.31,5.31,0,0,1-.72.56,22.58,22.58,0,0,1-4.08,1.44c-0.8.22-1.62,0.33-2.47,0.5a5.19,5.19,0,0,1-1.61,1.21,4.2,4.2,0,0,1-3.6-.41A1.6,1.6,0,0,0,242,254.83Z" transform="translate(-0.78 -2.35)"/><path class="cls-9" d="M176,225.55a2.83,2.83,0,0,1-1.4.47,17.56,17.56,0,0,0-3.55,1.47c-0.74.49-1.5,1-2.26,1.42a0.52,0.52,0,0,1-.23,0,5.56,5.56,0,0,0-.21-1,3.66,3.66,0,0,1,1.07-3.13,3.52,3.52,0,0,0,.25-0.25,2.87,2.87,0,0,1,1.76-1,2.27,2.27,0,0,1,1.84,0,2.23,2.23,0,0,1,2,1C175.51,224.95,175.75,225.25,176,225.55Z" transform="translate(-0.78 -2.35)"/><path class="cls-14" d="M152.48,228.19a29.39,29.39,0,0,0-5.17-1.7c-0.81-.16-1.61-0.37-2.42-0.51a0.44,0.44,0,0,1-.09-0.2,0.54,0.54,0,0,1,0-.24,4.23,4.23,0,0,1,4.29-2.13,3.06,3.06,0,0,1,1.79.88,5.19,5.19,0,0,1,1.47,2.15A16.77,16.77,0,0,1,152.48,228.19Z" transform="translate(-0.78 -2.35)"/><path class="cls-12" d="M99.44,295.63c0.17,1.3-.3,2.55-0.25,3.85s0,2.55,0,3.83a1.68,1.68,0,0,1-1.1-.51c-0.21-.18-0.4-0.39-0.6-0.59a2.88,2.88,0,0,1-1-1.76,3.28,3.28,0,0,1,0-1.86,3.38,3.38,0,0,1,.49-1.35,6.65,6.65,0,0,1,1.66-1.47A2.25,2.25,0,0,1,99.44,295.63Z" transform="translate(-0.78 -2.35)"/><path class="cls-14" d="M173.12,279.55H172.5c0-.8.6-1.47,0.62-2.27,0.49-.28,0-0.95.48-1.23a2.56,2.56,0,0,1,.24-1.21c0.18-.88.34-1.76,0.53-2.64a0.43,0.43,0,0,1,.2-0.09,4.09,4.09,0,0,1,1.76,2.32,3.72,3.72,0,0,1-.75,3.51,7.59,7.59,0,0,1-1.11,1.08A6.49,6.49,0,0,1,173.12,279.55Z" transform="translate(-0.78 -2.35)"/><path class="cls-11" d="M99.2,319.63v7.68A4.35,4.35,0,0,1,97.34,326a3.84,3.84,0,0,1,1.08-6Z" transform="translate(-0.78 -2.35)"/><path class="cls-9" d="M103.76,225.55H97.22a0.89,0.89,0,0,1-.18-0.07v-0.41a3.93,3.93,0,0,0,.61-0.51,3.41,3.41,0,0,1,2.95-1.15,3.68,3.68,0,0,1,3.15,1.9A0.53,0.53,0,0,1,103.76,225.55Z" transform="translate(-0.78 -2.35)"/><path class="cls-14" d="M127.76,225.31c-0.4-.08-0.8-0.17-1.21-0.24a1.28,1.28,0,0,1-1.09-.24,0.26,0.26,0,0,0-.12,0l-3.58-.24a2.16,2.16,0,0,1,1.75-1.1,4.39,4.39,0,0,1,1.84,0A3.72,3.72,0,0,1,127.76,225.31Z" transform="translate(-0.78 -2.35)"/><path class="cls-15" d="M120.32,275.71a15,15,0,0,0-3,.54,23.38,23.38,0,0,0-2.94.93,1.6,1.6,0,0,1,0-.8,2,2,0,0,0,.22-1.12c0.05-.41.16-0.81,0.23-1.22a3.54,3.54,0,0,1,.2-1.12,5.35,5.35,0,0,0,.24-1.56c0.23-1.69.72-3.32,1-5a22.51,22.51,0,0,1,.69-2.46c0.45-1.45.94-2.89,1.44-4.32,0.26-.73.58-1.44,0.87-2.16a2.47,2.47,0,0,0,.09-0.44c1.35,0.44,2.73.16,4.1,0.24a3.13,3.13,0,0,1,1.7-.25,15.5,15.5,0,0,0,2.67-.5c0.91-.31,1.85-0.52,2.74-0.91a32.26,32.26,0,0,0,4.66-2.35,20,20,0,0,0,3.19-2.72c0.41-.46.77-1,1.21-1.54,0.23,0.39.44,0.7,0.59,1a9.57,9.57,0,0,0,1.76,2.63c0.35,0.36.58,0.83,0.95,1.16a21.49,21.49,0,0,0,7,4.45,23.84,23.84,0,0,0,4,1.18c1.05,0.19,2.11.34,3.16,0.49a25,25,0,0,0,2.55.19c1.06,0,2.07-.37,3.14-0.28a9,9,0,0,1,1-.21c-0.16.84,0.36,1.53,0.54,2.3,0.13,0.54.33,1.06,0.45,1.61s0.33,1.06.48,1.6,0.39,1.28.55,1.92c0.22,0.87.43,1.74,0.61,2.62a5.19,5.19,0,0,0,.29,1.79c0.4,0.58,0,1.19.38,1.78a6.21,6.21,0,0,1,.3,2.15c0.06,0.48.16,1,.24,1.46a22.29,22.29,0,0,0-2.24-.65c-1.08-.2-2.18-0.37-3.27-0.55a33.63,33.63,0,0,0-4.46-.18c-1.48,0-3,0-4.43,0h-0.72a6.46,6.46,0,0,0-.41-1.74,2.9,2.9,0,0,0-.85-1.08,3.72,3.72,0,0,0-2-1.14,3.78,3.78,0,0,0-2.82.42,4.17,4.17,0,0,0-2,3.54H128.48a6.46,6.46,0,0,0-.41-1.74,2.91,2.91,0,0,0-.85-1.08,3.73,3.73,0,0,0-2-1.14,5.32,5.32,0,0,0-2.84.38,8.51,8.51,0,0,0-1.55,1.75A4.93,4.93,0,0,0,120.32,275.71Z" transform="translate(-0.78 -2.35)"/><path class="cls-16" d="M170.56,89.26C167,88.74,163.37,89,159.76,89s-7.2,0-10.8,0a3.27,3.27,0,0,0-1.35.21,7.61,7.61,0,0,1-1.37.17,5.48,5.48,0,0,0-1.14.42c-0.4.19-.79,0.42-1.24,0.66a9.19,9.19,0,0,1-2.24-1.68,6.22,6.22,0,0,1-1.88-2.2c0.65,0.12,1.25-.19,1.85.24a1.45,1.45,0,0,0,.71,0c2.32,0,4.64.09,7,0a27.29,27.29,0,0,0,3.81-.6c1.15-.23,2.25-0.6,3.39-0.82a7.27,7.27,0,0,0,1.7-.52c1.44-.67,2.87-1.38,4.28-2.12a22.46,22.46,0,0,0,5.44-4.24,16.25,16.25,0,0,0,2.85-4.21,10.73,10.73,0,0,0,1.2-5c0-.68,0-1.36,0-2a10.67,10.67,0,0,0-.79-3.39A11.69,11.69,0,0,0,170.3,62a1.5,1.5,0,0,1,0-.68,12.36,12.36,0,0,1,2.37,2.21,17.9,17.9,0,0,1,3.55,17.34A19.22,19.22,0,0,1,170.56,89.26Z" transform="translate(-0.78 -2.35)"/><path class="cls-16" d="M150.56,61.15h-4.19c-0.76,0-1.52,0-2.27,0a11.77,11.77,0,0,0-2,.29,25.41,25.41,0,0,0-3.4.71,0.42,0.42,0,0,0-.09.2l-0.46-.24a8.81,8.81,0,0,0-2.66,1.2,5.39,5.39,0,0,0-2.2.76,19.65,19.65,0,0,0-2.6,1.53,11.31,11.31,0,0,0-2.35,1.86,14.49,14.49,0,0,0-2.39,2.84,9.31,9.31,0,0,0-1.11,2.9,1.15,1.15,0,0,1-.38-0.29c-0.26-.61-0.55-1.21-0.81-1.82a9.69,9.69,0,0,0-.62-1.91,1.21,1.21,0,0,1,0-.59c0-.84,0-1.68,0-2.52a10.88,10.88,0,0,1,1.6-5A11.58,11.58,0,0,1,127.2,58a15.18,15.18,0,0,1,4.4-2.67,6.77,6.77,0,0,1,2.58-.43h7.67c0.19,0,.51.17,0.55-0.23l0.5,0.24a16.71,16.71,0,0,1,4.28,2.54A16.08,16.08,0,0,1,150.56,61.15Z" transform="translate(-0.78 -2.35)"/><path class="cls-16" d="M167.36,60.67a0.94,0.94,0,0,1,.32-0.7A11.35,11.35,0,0,1,170,57.15a11.78,11.78,0,0,1,2.17-1.92,1.34,1.34,0,0,1,.44-0.09c0.18,0,.46.12,0.48-0.24,1.56,0,3.12,0,4.68,0a22,22,0,0,1,6.88,1.34,26.47,26.47,0,0,1,5.83,3,14.46,14.46,0,0,1,1.69,1.42c0.47,0.4,1,.76,1.42,1.2a5,5,0,0,1,1.07,1.35,5.88,5.88,0,0,1,.49,1.95,19,19,0,0,1,0,3,11.35,11.35,0,0,1-1.71,4.67c-0.29-.65-0.16-1.33-0.67-1.73a2.35,2.35,0,0,0-.72-1.5,18.37,18.37,0,0,0-3.49-3.71,26.33,26.33,0,0,0-3.43-2.17,2.34,2.34,0,0,0-.53-0.17l-0.38-.48a0.86,0.86,0,0,1-.35,0c-1.12-.58-2.36-0.83-3.52-1.29a1.37,1.37,0,0,0-1.27.1l-0.29-.44a3.18,3.18,0,0,1-1.28-.25c-0.29-.23-0.86.16-1.2-0.27a0.33,0.33,0,0,0-.23,0c-0.79.15-1.51-.29-2.3-0.25s-1.52,0-2.27,0h-4.19Z" transform="translate(-0.78 -2.35)"/><path class="cls-17" d="M178.16,96.91a12.68,12.68,0,0,1-2.47,2.37,12.23,12.23,0,0,1-2.74,1.19,20.84,20.84,0,0,1-3.27.8c-0.82.15-1.65,0-2.41,0.24a10.86,10.86,0,0,1-3,.19c-0.84,0-1.69-.17-2.54-0.21s-1.64-.39-2.44-0.45c-1.54-.12-2.84-0.9-4.27-1.29a4.33,4.33,0,0,1-1.58-1.08c-0.59-.54-1.11-1.16-1.65-1.75,0-.65-0.41-1.25-0.24-1.92a1.1,1.1,0,0,1,1-.1,7.53,7.53,0,0,0,4.06.55,7.37,7.37,0,0,0,3.85-1.63,8.67,8.67,0,0,0,1.12-1.53c1.87,0.77,3.84,1.26,5.91.25,0.2,0.28.38,0.57,0.6,0.83A5,5,0,0,0,170.72,95a1,1,0,0,0,.24,0,1.86,1.86,0,0,0,1.39.48,19.57,19.57,0,0,0,2,0,4.31,4.31,0,0,0,2.61-.94l0.77-.23,0.43,0.23a1,1,0,0,0,0,.47,1.27,1.27,0,0,1,0,1.47A1,1,0,0,0,178.16,96.91Z" transform="translate(-0.78 -2.35)"/><path class="cls-18" d="M151.52,95c-0.17.67,0.27,1.27,0.24,1.92-7.51,0-15,0-22.53,0a5.49,5.49,0,0,1-2.56-.78,3.32,3.32,0,0,1-1.3-1.84,3,3,0,0,1,.07-2.64,3,3,0,0,1,2-2c0.67,0.29,1.38.61,2.09,0.9a18.72,18.72,0,0,0,2.58,1c0.91,0.22,1.77.57,2.68,0.8a23.07,23.07,0,0,1,3.23.87,13.89,13.89,0,0,0,1.45.26,8.44,8.44,0,0,1,1.9.33c0.59,0.34,1.23-.08,1.78.38a2.6,2.6,0,0,0,1.05,0,4.82,4.82,0,0,0,1,.21,11.93,11.93,0,0,1,2.06.27,8.07,8.07,0,0,1,2,.18A8.93,8.93,0,0,0,151.52,95Z" transform="translate(-0.78 -2.35)"/><path class="cls-19" d="M150.56,61.15a16.08,16.08,0,0,0-3.38-3.7,16.71,16.71,0,0,0-4.28-2.54l-0.5-.24c-1-.16-1.81-0.69-2.8-0.78-0.55,0-1.07-.35-1.62-0.41-1.28-.13-2.57-0.21-3.85-0.24-0.56,0-1.13.19-1.7,0.21a6.36,6.36,0,0,0-1.7.24c-0.5.16-1.06,0.14-1.57,0.27a12.18,12.18,0,0,0-1.57.54A18.68,18.68,0,0,0,121,58.62a14.84,14.84,0,0,0-3.37,4.85l-0.33.8-0.25,0A0.57,0.57,0,0,1,117,64c0-.52,0-1,0-1.56a6.89,6.89,0,0,1,.57-2.52A9.33,9.33,0,0,1,120,56.33,17.56,17.56,0,0,1,125.56,53c1.14-.46,2.34-0.71,3.49-1.11a7,7,0,0,1,2-.29,19.92,19.92,0,0,1,2.66-.27c0.91,0.09,1.85-.07,2.75,0a31.56,31.56,0,0,1,5.68,1,30.34,30.34,0,0,1,4.49,1.91,13,13,0,0,1,1.67,1.17,6.67,6.67,0,0,1,.74.51,11.26,11.26,0,0,1,2.46,3.17,7.14,7.14,0,0,1,1,3.68c0,0.47,0,.94,0,1.43h-0.39A11.2,11.2,0,0,0,150.56,61.15Z" transform="translate(-0.78 -2.35)"/><path class="cls-20" d="M135.44,63.31a8.81,8.81,0,0,1,2.66-1.2l0.46,0.24a0.91,0.91,0,0,1,.43.09,19.72,19.72,0,0,1,1.68,1.93,5.65,5.65,0,0,1,.71,2,11.87,11.87,0,0,1,.29,1.92,6.42,6.42,0,0,1,0,1.91A16.22,16.22,0,0,1,141,73.1a7,7,0,0,1-1.07,1.71c-0.28.33-.62,0.62-0.93,0.93a5.75,5.75,0,0,1-1.2.26,6.84,6.84,0,0,1-1.33-.26c-0.37-.42-0.84-0.9-1.23-1.43A7.38,7.38,0,0,1,134,70.89a12.63,12.63,0,0,1-.18-2.42,12.46,12.46,0,0,1,.76-3.63A9,9,0,0,1,135.44,63.31Zm2.88,5.55a2.74,2.74,0,0,0-.44-1.62,1.55,1.55,0,0,0-2.71,0,2.73,2.73,0,0,0-.44,1.62l0.64,1.24c1.18,0.57,1.28.57,2.34-.06Z" transform="translate(-0.78 -2.35)"/><path class="cls-20" d="M179.12,61.87a1.37,1.37,0,0,1,1.27-.1c1.16,0.46,2.4.71,3.52,1.29a0.86,0.86,0,0,0,.35,0l0.38,0.48a7.06,7.06,0,0,0,.46,1.37c0.16,0.46-.15,1,0.26,1.45a13.75,13.75,0,0,1-.17,2.81c-0.24.69-.22,1.46-0.5,2.2a6.05,6.05,0,0,1-1.33,2.21l-0.73.73a6.19,6.19,0,0,1-1.25.25,6.05,6.05,0,0,1-1.24-.26c-0.36-.53-0.91-0.9-1.3-1.47a8.19,8.19,0,0,1-1.21-3.36c-0.15-.82-0.15-1.62-0.21-2.43a4,4,0,0,1,.25-1.22,2.4,2.4,0,0,1,.22-1.24,6.93,6.93,0,0,0,.31-1.18A16.28,16.28,0,0,1,179.12,61.87ZM179.7,69a1.62,1.62,0,0,0,1.61-.39,2.23,2.23,0,0,0,0-3.25,1.62,1.62,0,0,0-1.61-.4A2.23,2.23,0,0,0,179.7,69Z" transform="translate(-0.78 -2.35)"/><path class="cls-18" d="M178.16,96.91a1,1,0,0,1,0-.47,1.27,1.27,0,0,0,0-1.47,1,1,0,0,1,0-.47,0.44,0.44,0,0,1,.09-0.2c1.09-.18,2.19-0.31,3.26-0.53,1.61-.34,3.24-0.61,4.83-1.08,0.9-.26,1.82-0.44,2.69-0.65l0.41,0.41a4,4,0,0,1-.22,1.7A3.74,3.74,0,0,1,188,96a4.47,4.47,0,0,1-2.4.87h-7.44Z" transform="translate(-0.78 -2.35)"/><path class="cls-18" d="M177,94.51a4.31,4.31,0,0,1-2.61.94,19.57,19.57,0,0,1-2,0A1.86,1.86,0,0,1,171,95c0.52,0,1,0,1.55,0s1-.14,1.57-0.23a3.55,3.55,0,0,0,1.59-.2A2.79,2.79,0,0,1,177,94.51Z" transform="translate(-0.78 -2.35)"/><path class="cls-16" d="M169.8,61.34v-0.4l0.12,0,0.09,0.4H169.8Z" transform="translate(-0.78 -2.35)"/><path class="cls-21" d="M198.05,402.46v0.68C197.83,402.74,197.83,402.74,198.05,402.46Z" transform="translate(-0.78 -2.35)"/><path class="cls-21" d="M197.42,403.63v-0.48h0.12v0.48h-0.12Z" transform="translate(-0.78 -2.35)"/><path class="cls-4" d="M173.12,54.91c0,0.36-.3.2-0.48,0.24C172.66,54.79,172.94,54.94,173.12,54.91Z" transform="translate(-0.78 -2.35)"/><path class="cls-9" d="M120.32,275.71a4.93,4.93,0,0,1,.47-2.07,8.51,8.51,0,0,1,1.55-1.75,5.32,5.32,0,0,1,2.84-.38,3.73,3.73,0,0,1,2,1.14,2.91,2.91,0,0,1,.85,1.08,6.46,6.46,0,0,1,.41,1.74c-1.68,0-3.35.06-5,0C122.39,275.39,121.37,275.74,120.32,275.71Z" transform="translate(-0.78 -2.35)"/><path class="cls-11" d="M144.32,275.47a4.17,4.17,0,0,1,2-3.54,3.78,3.78,0,0,1,2.82-.42,3.72,3.72,0,0,1,2,1.14,2.9,2.9,0,0,1,.85,1.08,6.46,6.46,0,0,1,.41,1.74h-8.16Z" transform="translate(-0.78 -2.35)"/><path class="cls-3" d="M51.47,223.41l-0.17.2-0.08-.08,0.2-.17Z" transform="translate(-0.78 -2.35)"/><path class="cls-3" d="M224.27,157.17l-0.17.2-0.08-.08,0.2-.17Z" transform="translate(-0.78 -2.35)"/><path class="cls-22" d="M138.32,68.85L137.71,70c-1.06.63-1.17,0.63-2.34,0.06l-0.64-1.24a2.73,2.73,0,0,1,.44-1.62,1.55,1.55,0,0,1,2.71,0A2.74,2.74,0,0,1,138.32,68.85Z" transform="translate(-0.78 -2.35)"/><path class="cls-22" d="M179.7,69a2.23,2.23,0,0,1,0-4,1.62,1.62,0,0,1,1.61.4,2.23,2.23,0,0,1,0,3.25A1.62,1.62,0,0,1,179.7,69Z" transform="translate(-0.78 -2.35)"/><line class="cls-2" x1="242.41" y1="149.28" x2="254.03" y2="157.01"/></svg>