<?xml version="1.0" encoding="utf-8"?>
<!-- Generator: Adobe Illustrator 16.0.0, SVG Export Plug-In . SVG Version: 6.00 Build 0)  -->
<!DOCTYPE svg PUBLIC "-//W3C//DTD SVG 1.1//EN" "http://www.w3.org/Graphics/SVG/1.1/DTD/svg11.dtd">
<svg version="1.1" id="Ebene_1" xmlns="http://www.w3.org/2000/svg" xmlns:xlink="http://www.w3.org/1999/xlink" x="0px" y="0px"
	 width="154.561px" height="154.08px" viewBox="0 0 154.561 154.08" enable-background="new 0 0 154.561 154.08"
	 xml:space="preserve">
<rect x="-21.219" y="-9.46" fill="#FFFFFF" stroke="#000000" stroke-miterlimit="10" width="260" height="219"/>
<g>
	<path fill="none" d="M155.04,154.319c-51.601,0-103.2,0-154.8,0c0-51.359,0-102.719,0-154.08c51.6,0,103.199,0,154.8,0
		C155.04,51.6,155.04,102.96,155.04,154.319z M77.64,0.887C35.626,0.837,1.213,35.129,1.126,77.129
		c-0.086,41.976,34.24,76.349,76.338,76.44c42.044,0.094,76.41-34.18,76.454-76.247C153.963,35.345,119.626,0.938,77.64,0.887z"/>
	<path d="M77.64,0.887c41.986,0.05,76.323,34.458,76.279,76.436c-0.044,42.067-34.41,76.34-76.454,76.247
		c-42.098-0.092-76.424-34.465-76.338-76.44C1.213,35.129,35.626,0.837,77.64,0.887z M77.486,142.252
		c36.048-0.435,64.84-28.485,64.903-64.908c0.064-35.892-28.2-64.846-64.776-64.932c-36.08-0.084-64.944,28.396-64.961,64.864
		C12.637,113.42,41.161,141.753,77.486,142.252z"/>
	<path fill="none" d="M77.486,142.252c-36.324-0.499-64.85-28.832-64.834-64.976c0.017-36.468,28.881-64.948,64.961-64.864
		c36.576,0.085,64.842,29.04,64.776,64.932C142.325,113.767,113.533,141.817,77.486,142.252z M22.237,77.256
		c0,4.519-0.021,9.036,0.007,13.556c0.024,3.904,2.763,6.606,6.662,6.612c6.519,0.011,13.035-0.019,19.553,0.034
		c0.681,0.006,1.491,0.287,2.016,0.716c8.887,7.255,17.744,14.544,26.591,21.847c1.07,0.885,2.191,1.348,3.519,0.758
		c1.396-0.619,1.746-1.826,1.741-3.256c-0.021-6.196-0.018-12.395,0.005-18.592c0.002-0.582,0.09-1.205,0.313-1.734
		c2.189-5.215,3.221-10.68,3.518-16.295c0.435-8.227-0.438-16.261-3.667-23.936c-0.161-0.384-0.168-0.854-0.169-1.283
		c-0.011-5.958-0.02-11.915,0.001-17.873c0.005-1.597,0.051-3.192-1.695-4.006c-1.731-0.807-2.94,0.216-4.175,1.235
		c-8.692,7.176-17.394,14.342-26.117,21.478c-0.442,0.361-1.131,0.588-1.708,0.591c-6.518,0.041-13.036,0.112-19.551-0.01
		c-3.515-0.066-6.993,2.725-6.87,6.843C22.339,68.376,22.237,72.817,22.237,77.256z M132.822,77.113
		c0.101-0.019,0.199-0.037,0.301-0.057c-0.535-4.065-0.858-8.173-1.65-12.188c-1.588-8.047-4.891-15.401-9.745-22.026
		c-1.611-2.201-3.883-3.027-6.547-2.505c-2.474,0.485-4.126,2.028-4.922,4.409c-0.825,2.468,0.059,4.551,1.441,6.61
		c7.151,10.656,9.581,22.312,7.029,34.911c-1.307,6.457-4.045,12.311-7.903,17.664c-2.231,3.094-1.535,7.113,1.434,9.229
		c2.988,2.129,6.969,1.443,9.207-1.637C128.921,101.265,132.672,89.778,132.822,77.113z M110.903,77.102
		c0.022-4.512-0.679-8.915-2.005-13.209c-1.445-4.682-3.536-9.069-6.497-12.989c-2.191-2.901-6.469-2.682-8.292,0.372
		c-1.26,2.108-0.799,4.073,0.529,6.03c5.23,7.701,7.193,16.162,5.72,25.38c-0.863,5.414-2.97,10.313-6.147,14.771
		c-1.83,2.565-1.408,5.653,0.933,7.317c2.362,1.68,5.404,1.065,7.231-1.483C107.982,95.462,110.787,86.72,110.903,77.102z"/>
	<path d="M22.237,77.256c0-4.438,0.103-8.88-0.029-13.314c-0.123-4.118,3.355-6.909,6.87-6.843c6.515,0.122,13.033,0.05,19.551,0.01
		c0.576-0.003,1.266-0.23,1.708-0.591c8.725-7.136,17.425-14.302,26.117-21.478c1.233-1.02,2.442-2.042,4.175-1.235
		c1.746,0.814,1.7,2.409,1.695,4.006c-0.021,5.958-0.012,11.915-0.002,17.873c0.002,0.43,0.009,0.899,0.17,1.283
		c3.229,7.673,4.102,15.708,3.667,23.937c-0.297,5.615-1.327,11.078-3.518,16.293c-0.223,0.531-0.311,1.154-0.313,1.734
		c-0.021,6.198-0.026,12.396-0.005,18.594c0.005,1.429-0.347,2.636-1.741,3.254c-1.326,0.591-2.447,0.127-3.519-0.756
		c-8.847-7.303-17.704-14.594-26.591-21.848c-0.524-0.429-1.335-0.71-2.016-0.716c-6.518-0.054-13.035-0.024-19.553-0.034
		c-3.898-0.006-6.638-2.708-6.662-6.613C22.215,86.292,22.237,81.772,22.237,77.256z"/>
	<path d="M132.822,77.113c-0.149,12.666-3.9,24.15-11.355,34.41c-2.238,3.08-6.219,3.767-9.207,1.638
		c-2.969-2.115-3.665-6.136-1.434-9.229c3.858-5.354,6.598-11.207,7.903-17.662c2.551-12.6,0.122-24.255-7.029-34.912
		c-1.384-2.059-2.268-4.142-1.441-6.61c0.796-2.381,2.448-3.924,4.922-4.409c2.664-0.522,4.936,0.304,6.547,2.505
		c4.854,6.625,8.157,13.979,9.745,22.026c0.792,4.015,1.115,8.123,1.65,12.188C133.021,77.076,132.922,77.095,132.822,77.113z"/>
	<path d="M110.903,77.102c-0.115,9.618-2.921,18.36-8.528,26.188c-1.827,2.55-4.869,3.163-7.231,1.482
		c-2.341-1.664-2.763-4.752-0.933-7.316c3.179-4.458,5.284-9.355,6.147-14.77c1.475-9.221-0.488-17.682-5.72-25.381
		c-1.328-1.957-1.789-3.921-0.529-6.03c1.823-3.054,6.101-3.273,8.292-0.372c2.961,3.919,5.052,8.307,6.497,12.989
		C110.225,68.187,110.926,72.59,110.903,77.102z"/>
</g>
</svg>
