<?xml version="1.0" encoding="utf-8"?>
<!-- Generator: Adobe Illustrator 16.0.0, SVG Export Plug-In . SVG Version: 6.00 Build 0)  -->
<!DOCTYPE svg PUBLIC "-//W3C//DTD SVG 1.1//EN" "http://www.w3.org/Graphics/SVG/1.1/DTD/svg11.dtd">
<svg version="1.1" id="Ebene_1" xmlns="http://www.w3.org/2000/svg" xmlns:xlink="http://www.w3.org/1999/xlink" x="0px" y="0px"
	 width="222.6064px" height="622.7178px" viewBox="0 0 222.6064 622.7178" style="enable-background:new 0 0 222.6064 622.7178;"
	 xml:space="preserve">
<style type="text/css">
<![CDATA[
	.st0{fill:url(#SVGID_3_);stroke:#000000;stroke-width:0.5;stroke-miterlimit:10;}
	.st1{fill:#7E6849;}
	.st2{display:none;opacity:0.6;}
	.st3{fill:#7F1C60;}
	.st4{fill:#E788B7;}
	.st5{fill:#832525;}
	.st6{fill:#222A41;stroke:#FFFFFF;stroke-width:0.75;stroke-miterlimit:10;}
	.st7{fill:#1D1D1B;}
	.st8{fill:#ED1C24;}
	.st9{fill:#1F1A1F;}
	.st10{fill:url(#SVGID_12_);stroke:#000000;stroke-width:0.5;stroke-miterlimit:10;}
	.st11{fill:#21684A;}
	.st12{fill:#222A41;}
	.st13{fill:#231F20;}
	.st14{fill:#C0619E;}
	.st15{fill:url(#SVGID_2_);}
	.st16{fill:url(#SVGID_4_);}
	.st17{fill:url(#SVGID_5_);}
	.st18{fill:url(#SVGID_7_);}
	.st19{fill:url(#SVGID_9_);}
	.st20{opacity:0.6;}
	.st21{opacity:0.9;}
	.st22{fill:#FFFFFF;}
	.st23{fill:url(#SVGID_6_);stroke:#000000;stroke-width:0.5;stroke-miterlimit:10;}
	.st24{fill:#67201D;}
	.st25{fill:#9C4948;}
	.st26{fill:url(#SVGID_1_);stroke:#000000;stroke-width:0.5;stroke-miterlimit:10;}
	.st27{display:inline;}
	.st28{stroke:#21684A;stroke-width:0.25;stroke-miterlimit:10;}
	.st29{fill:#3C2E2C;}
	.st30{fill:url(#SVGID_11_);}
	.st31{fill:url(#SVGID_13_);}
	.st32{fill:url(#SVGID_10_);stroke:#000000;stroke-width:0.5;stroke-miterlimit:10;}
	.st33{fill:#76685F;}
	.st34{fill:#DBFF7A;}
	.st35{fill:url(#SVGID_8_);stroke:#000000;stroke-width:0.5;stroke-miterlimit:10;}
]]>
</style>
<g id="Tür_2_4_">
	<g id="Tür_links_13_">
		<linearGradient id="SVGID_1_" gradientUnits="userSpaceOnUse" x1="-83.5215" y1="-14.0327" x2="-83.5215" y2="626.0905">
			<stop  offset="0" style="stop-color:#3C3C3A"/>
			<stop  offset="1" style="stop-color:#000000"/>
		</linearGradient>
		<rect x="-167.7363" class="st26" width="168.4297" height="622.7178"/>
	</g>
	<g id="Tür_rechts_13_">
		
			<linearGradient id="SVGID_2_" gradientUnits="userSpaceOnUse" x1="-5450.0342" y1="-14.0327" x2="-5450.0342" y2="626.089" gradientTransform="matrix(-1 0 0 1 -5365.125 0)">
			<stop  offset="0" style="stop-color:#3C3C3A"/>
			<stop  offset="1" style="stop-color:#000000"/>
		</linearGradient>
		
			<rect x="0.6934" style="fill:url(#SVGID_2_);stroke:#000000;stroke-width:0.5;stroke-miterlimit:10;" width="168.4307" height="622.7178"/>
		<g>
			<path class="st22" d="M11.6963,621.2178V1.5h172.4746c20.3662,0,36.9355,13.5425,36.9355,30.189v559.3394
				c0,16.6465-16.5693,30.1895-36.9355,30.1895H11.6963z M78.6074,86.373c-19.1318,0-34.6973,15.5151-34.6973,34.5854v216.2856
				c0,19.0703,15.5654,34.5859,34.6973,34.5859h64.7715c19.1318,0,34.6973-15.5156,34.6973-34.5859V120.9585
				c0-19.0703-15.5654-34.5854-34.6973-34.5854H78.6074z"/>
			<path class="st7" d="M184.1709,3c19.5391,0,35.4355,12.8696,35.4355,28.689v559.3394c0,15.8193-15.8965,28.6895-35.4355,28.6895
				H13.1963V3H184.1709 M78.6074,373.3301h64.7715c19.959,0,36.1973-16.1885,36.1973-36.0859V120.9585
				c0-19.8975-16.2383-36.0854-36.1973-36.0854H78.6074c-19.959,0-36.1973,16.188-36.1973,36.0854v216.2856
				C42.4102,357.1416,58.6484,373.3301,78.6074,373.3301 M184.1709,0H10.1963v622.7178h173.9746
				c21.2275,0,38.4355-14.1885,38.4355-31.6895V31.689C222.6064,14.1875,205.3984,0,184.1709,0L184.1709,0z M78.6074,370.3301
				c-18.335,0-33.1973-14.8125-33.1973-33.0859V120.9585c0-18.2729,14.8623-33.0854,33.1973-33.0854h64.7715
				c18.334,0,33.1973,14.8125,33.1973,33.0854v216.2856c0,18.2734-14.8633,33.0859-33.1973,33.0859H78.6074L78.6074,370.3301z"/>
		</g>
		<g>
			<linearGradient id="SVGID_3_" gradientUnits="userSpaceOnUse" x1="42.2656" y1="110.0625" x2="179.7212" y2="348.1425">
				<stop  offset="0.0056" style="stop-color:#8BADDC"/>
				<stop  offset="0.073" style="stop-color:#3D5780"/>
				<stop  offset="0.5" style="stop-color:#E7EDF9"/>
				<stop  offset="0.618" style="stop-color:#C8D5EF"/>
				<stop  offset="0.6659" style="stop-color:#C4D2EE"/>
				<stop  offset="0.7136" style="stop-color:#B8CBEA"/>
				<stop  offset="0.7612" style="stop-color:#A4BDE4"/>
				<stop  offset="0.8085" style="stop-color:#88ABDB"/>
				<stop  offset="0.809" style="stop-color:#88ABDB"/>
				<stop  offset="1" style="stop-color:#26516A"/>
			</linearGradient>
			<path style="fill:url(#SVGID_3_);" d="M78.6074,364.8301c-15.2725,0-27.6973-12.375-27.6973-27.5859V120.9585
				c0-15.2104,12.4248-27.5854,27.6973-27.5854h64.7715c15.2725,0,27.6973,12.375,27.6973,27.5854v216.2856
				c0,15.2109-12.4248,27.5859-27.6973,27.5859H78.6074z"/>
			<g>
				<path d="M143.3789,98.873c12.2402,0,22.1973,9.9077,22.1973,22.0854v216.2856c0,12.1777-9.957,22.0859-22.1973,22.0859H78.6074
					c-12.2402,0-22.1973-9.9082-22.1973-22.0859V120.9585c0-12.1777,9.957-22.0854,22.1973-22.0854H143.3789 M143.3789,87.873
					H78.6074c-18.335,0-33.1973,14.8125-33.1973,33.0854v216.2856c0,18.2734,14.8623,33.0859,33.1973,33.0859h64.7715
					c18.334,0,33.1973-14.8125,33.1973-33.0859V120.9585C176.5762,102.6855,161.7129,87.873,143.3789,87.873L143.3789,87.873z"/>
			</g>
		</g>
	</g>
</g>
<g>
	<path class="st22" d="M538.4736,399.4668l-215.2627,44.6758c-5.7813-9.2646-11.6709-18.3643-17.6152-27.2471l-11.5059-17.1846
		l-84.2207,33.291l0.5947,18.0576c0.1064,3.2422-0.1367,9.5791-1.9072,21.333c-0.0391,0.2344-0.0713,0.4717-0.1113,0.707
		c-3.8184-13.2773-8.3809-26.9814-13.5889-40.9014l-6.1396-16.3887l-81.9082-1.21l-0.1328-4.0879
		c10.9199-5.8223,23.2129-12.7383,35.7041-20.4648l19.0596-3.4355l-10.0996-2.2432c41.46-26.8525,81.9502-61.9141,78.6084-94.9736
		c-1.4111-13.9009-9.8633-32.4473-42.1924-41.8208c-4.3125-1.25-8.624-2.3608-12.915-3.3599l37.3203-5.5508l-25.9443-26.8047
		c0.8896-1.9712,1.8359-4.02,2.6807-5.8213c10.3711-22.2764,26.0547-55.9263,7.5615-85.1245
		c-14.0498-22.2017-43.2041-33.1167-88.5898-33.3853c-18.4629-0.4629-65.6699,5.2319-85.2227,11.2437l-2.3525,0.8545
		c-27.1846,11.3521-47.333,27.0146-62.2598,43.7842c-8.4795-5.5532-17.5566-10.707-27.083-15.3872l-0.6387-0.292
		c-11.1475-5.0977-23.9941-9.8638-38.1875-14.1831c-15.6895-4.7783-32.7266-7.106-50.6504-6.9253
		c-19.4072,0.1689-36.9668,2.9888-52.3486,8.3262c-15.6514,5.4141-29.0967,12.6807-39.9785,21.6108
		c-11.3418,9.3076-20.0947,20.0596-25.9932,31.9268c-6.1133,12.2622-9.1436,24.9121-9.0186,37.6089
		c0.083,8.2861,0.748,16.1055,1.9697,23.2319c1.5488,8.9341,4.6738,17.4087,9.2861,25.1382
		c3.8604,6.5098,8.957,12.7832,15.165,18.6689l-3.5352,10.6812c-0.084,0.2788-9.4229,27.2261-30.9375,44.106
		c-7.0273,5.5117-25.6973,20.1641-17.5127,40.8154c4.3877,11.0635,12.8799,15.4971,21.6025,17.0713l2.5049,41.8545l-63.3291,9.3398
		l-0.6904,21.418c-0.2754,8.4502-0.1592,17.1309,0.3311,25.9043c-0.2236-2.1963-0.4277-4.2529-0.6445-6.1563
		c-0.6504-6.5996-1.1748-12.5557-1.5557-17.8857l-1.9932-27.4678l-111.6289,16.1162l0.7529,22.9521
		c0.1787,5.3652,0.5059,11.9131,0.9922,19.6162c0.4717,7.5078,1.0283,15.5938,1.6484,24.2393
		c0.625,8.75,1.3916,17.8926,2.2734,27.375c0.8545,9.2441,1.6553,18.3096,2.4014,27.2637
		c1.8281,21.1445,3.9316,43.5498,6.2559,66.5957l2.5352,25.2432l116.4297-10.4287l0.7061,6.7139l74.9092-7.1328l0.1436,4.3115
		l26.7432-2.082c8.7627-0.6826,17.166-1.4482,24.7988-2.2695c6.5938-0.5869,13.2324-1.1289,19.9473-1.6406
		c6.377-0.4785,11.5664-0.7813,15.5469-0.9131c8.0801-0.2656,16.1592-0.3916,24.0117-0.375
		c8.0703,0.0107,15.2715,0.0986,21.4355,0.2539l21.9053,0.7148l0.4912,2.2627l116.4395-6.4414l-0.8975-4.4492l58.4727-1.9238
		l1.417-9.4326l33.0049-6.2227l-2.2705,23.4883l74.0313,12.0889l1.7109,58.4736l21.4863-54.6807l25.6631,4.1943l0.6338-28.4512
		l39.2305-1.2881l6.8008-13.7656c1.3984-2.8271,2.9121-6.3789,4.7588-11.1934l5.6475-0.8545
		c1.7773,4.8428,3.3525,8.9961,4.6396,12.3184c1.6758,4.4131,3.1162,8.2637,4.3154,11.5625l7.6064,20.8848l90.7275-19.0254
		l1.418,3.8203l112.7324-22.9189l-7.8242-26.7676c-4.1787-14.3369-7.9512-28.3838-11.3115-42.1787
		c-1.46-5.5654-2.8135-11.2793-4.0303-17.0029c-1.3047-6.1992-2.5576-12.2061-3.752-18.0234
		c-0.3574-1.7246-0.6895-3.4111-0.9902-5.0615l64.8691-13.5313L538.4736,399.4668z M79.9199,422.7383l-0.7266,16.3408
		c-0.1094,2.4082-0.2207,4.7939-0.3438,7.1592c-1.9766-5.8994-3.7715-11.7109-5.4541-17.6602
		c-0.4365-1.4434-0.8623-2.915-1.2607-4.4297L79.9199,422.7383z M-234.9326,397.7539c11.9971,4.3203,24.8857,7.9551,38.3008,10.8037
		c8.1533,1.7432,16.6279,2.9688,25.3232,3.667c0.0977,1.8994,0.2236,3.7949,0.3613,5.6895
		c0.3535,4.6104,0.7627,9.1084,1.2266,13.4922l-61.4756-7.501l-5.0723,3.2861l-0.3877-7.0059l-28.0645,4.1396l-15.7695-37.7529
		c3.9473-0.0166,7.5986-0.3311,10.5957-0.6006c1.75-0.1582,4.2861-0.3848,6.1973-0.4902
		C-254.998,389.8867-245.3447,394.0078-234.9326,397.7539z"/>
	<g>
		<path class="st22" d="M234.4004,173.7197c0.5098,15.4727-11.6201,28.4272-27.0928,28.936
			c-15.4736,0.5078-28.4385-11.6211-28.9502-27.0923c-0.5078-15.479,11.6328-28.4351,27.1074-28.9429
			C220.9375,146.1108,233.8896,158.2412,234.4004,173.7197z"/>
		<path class="st22" d="M236.666,242.6191c0.5098,15.4697-11.6201,28.4282-27.0908,28.9355
			c-15.4766,0.5098-28.4424-11.623-28.9502-27.0938c-0.5088-15.4775,11.6309-28.4331,27.1055-28.9414
			C223.2031,215.0107,236.1572,227.1387,236.666,242.6191z"/>
		<path class="st22" d="M263.3496,200.813c0.5107,15.4795-11.6191,28.438-27.1055,28.9492
			c-15.4707,0.5078-28.4268-11.6279-28.9365-27.1064c-0.5088-15.4717,11.6221-28.4263,27.0928-28.936
			C249.8867,173.2104,262.8428,185.3403,263.3496,200.813z"/>
	</g>
	<path class="st7" d="M536.3838,414.4229l-210.6846,43.7227c-6.8574-11.1406-13.8457-22.083-20.9502-32.6885l-7.1963-10.7402
		l-70.709,27.957l0.3682,11.2871c0.124,3.6602-0.123,10.6367-1.9971,23.0781c-1.5615,10.4219-4.1504,22.7451-7.6797,36.6201
		c-0.4668,1.8271-0.9902,3.7363-1.4941,5.6074c-1.7666-9.127-3.8213-18.3311-6.2178-27.5654
		c-4.3428-16.9131-10.0166-34.7139-16.8311-52.918l-3.832-10.2441l-92.5293-1.3623l-0.6797,15.5479
		c-0.6338,14.2578-1.5781,27.8359-2.7939,40.3369c-0.8174,8.3359-1.6797,16.04-2.5645,22.9795l-19.4229-31.1826l12.5449-2.2178
		l-6.0205-17.6982c-2.3428-6.8828-4.4463-13.625-6.3438-20.3428c-0.7881-2.5742-1.5146-5.2305-2.1943-8.0195
		c-0.5811-2.3389-1.1436-4.6309-1.668-6.8594l36.6875-6.6396l-0.166-5.0557l1.5889-0.8359
		c114.3408-60.0605,123.3486-99.4619,121.917-113.6113c-1.1016-10.9614-8.125-25.6733-35.2891-33.5459
		c-65.5127-18.9849-128.3818-6.3599-159.9102,2.8037c-0.0029-0.0874,0.0039-0.1763,0.002-0.2637l0.0371-1.1807l-0.1387-1.1782
		c-2.416-20.5215,7.8701-40.3647,19.498-55.3096c-6.4131,27.1982-8.2793,40.1416,5.9434,45.9087
		c4.5381,1.8418,9.6914,3.9287,110.8535-11.1079l30.8662-4.5874l-17.3721-17.9448c1.3174-3.4019,3.543-8.1797,5.3223-11.9805
		c9.4932-20.3745,23.832-51.1646,8.1543-75.9268c-12.1592-19.1992-38.6758-28.6587-80.7383-28.8989
		c-18.8916-0.5625-64.9971,5.5469-82.1289,10.8164l-1.4746,0.5298c-29.1543,12.1943-49.6963,29.5869-64.2178,47.7954
		c-10.0859-7.1987-21.2012-13.8184-33.458-19.8193c-10.7197-4.8926-23.1641-9.5142-36.9883-13.728
		c-14.7529-4.4897-30.8223-6.6812-47.7578-6.5059c-18.2539,0.1313-34.8906,2.8081-49.293,7.7935
		c-14.5664,5.04-27.0225,11.7607-37.0146,19.9521c-10.2881,8.4468-18.1953,18.1309-23.4922,28.7808
		c-5.4307,10.8989-8.126,22.0791-8.0117,33.2095c0.0762,7.748,0.6904,15.0522,1.8311,21.7261
		c1.3438,7.7739,4.0684,15.1357,8.0684,21.832c3.8428,6.4971,9.1416,12.7764,15.7578,18.6821
		c0.7295,0.6514,1.4775,1.2974,2.2568,1.9419l-5.5029,16.6714c-0.0977,0.2979-10.4102,30.0361-34.1484,48.6563
		c-6.5039,5.1074-20.0439,15.7295-14.5039,29.7002c5.3828,13.5703,20.002,12.2637,31.7285,11.2012
		c2.7354-0.2471,7.0449-0.6455,9.2871-0.5762c8.8848,4.6338,18.8945,8.9658,29.7969,12.8867
		c11.5371,4.1631,24.0098,7.6816,37.0469,10.4531c10.3896,2.2178,21.3262,3.5283,32.6133,3.959
		c0.1074,4.7598,0.3125,9.457,0.6641,14.0703c0.3545,4.7139,0.7725,9.2979,1.252,13.7871
		c0.4424,4.0654,0.9063,7.8721,1.3828,11.4727l-70.1846-8.5635l-16.0537,10.3906l-0.7236-13.0283l-95.6104,14.1045l-0.4473,13.3799
		c-0.3516,10.8955-0.0381,22.2139,0.9297,33.6289c0.4707,5.6104,0.9307,11.2207,1.373,16.835l-18.7598,1.9004
		c-0.3457-3.6904-0.6719-7.2451-0.9717-10.6709c-0.7295-8.3076-1.4297-15.4453-2.0596-21.3037
		c-0.6602-6.6934-1.1885-12.7295-1.5801-18.1367l-1.2461-17.1729l-92.8828,13.4131l0.4707,14.3467
		c0.1738,5.2842,0.498,11.7373,0.9727,19.334c0.4717,7.4854,1.0215,15.5381,1.6484,24.1523
		c0.6162,8.6826,1.373,17.7549,2.252,27.1748c0.8574,9.2783,1.6631,18.3672,2.4053,27.3281
		c1.8281,21.1006,3.9307,43.4629,6.2373,66.4492l1.5879,15.7813l98.2129-8.8008l-2.1699-16.5576
		c-1.1709-8.9268-2.3389-19.1338-3.4785-30.3496l-1.6025-15.7432l17.541-1.7998c0.4463,3.834,0.9023,7.5459,1.3574,11.1406
		c1.0703,8.3174,2.0469,15.7354,2.9375,22.2363l0.0273,0.2236c1.0957,7.2324,1.9756,13.9971,2.6201,20.1016l1.666,15.7773
		l75.5938-7.1963l0.1475,4.4893l16.7178-1.3018c8.6621-0.6748,16.9736-1.4316,24.6875-2.2539
		c6.6338-0.5957,13.3213-1.1465,20.0781-1.6504c6.5488-0.4932,11.873-0.8047,15.9531-0.9395
		c8.1914-0.2686,16.3867-0.4033,24.3418-0.3867c8.1602,0.0186,15.4346,0.1074,21.7305,0.2676l29.9287,0.9795l0.251,1.5313
		l96.7188-5.3555L8.1016,634.71l61.8291-2.0332l1.6357-10.8193l1.3154,2.2314l50.4775-9.5234
		c-0.2988,3.9199-0.6543,8.0225-1.0625,12.3232l-1.4375,14.9424l103.0732,16.8281l0.4072-18.4482
		c0.0625-2.6904,0.0381-5.3535,0.0752-8.0361l42.6621-1.4023l4.2539-8.5869c1.2822-2.5791,2.7109-5.9727,4.5225-10.6865
		c0.6016-1.5732,1.2119-3.2246,1.8193-4.9355l19.0156-2.8496c0.7295,1.9697,1.4189,3.8643,2.0928,5.6768
		c2.0117,5.5039,3.7793,10.1787,5.2188,13.8887c1.6875,4.4561,3.1445,8.3369,4.3574,11.6816l4.7402,13.0762l90.7061-19.0283
		l1.4307,3.8682l94.4072-19.1885l-4.8857-16.7324c-4.2109-14.4551-8.0244-28.6406-11.3848-42.4404
		c-1.5049-5.708-2.8848-11.5713-4.1348-17.457c-1.3174-6.2178-2.5703-12.248-3.7627-18.0713
		c-1.0586-5.1475-1.9209-10.0195-2.5732-14.5283l65.9922-13.7627L536.3838,414.4229z M380.2988,545.7314
		c2.1426,9.8848,4.6592,20.5889,7.4102,31.6865c-4.5938-11.1904-9.5332-22.3184-14.7002-33.0693
		c-3.0947-6.4346-6.3008-12.8516-9.5537-19.2295l12.0371-2.1016C376.9785,530.5332,378.582,538.1357,380.2988,545.7314z
		 M91.8779,327.5996c-0.1924,0.6846-0.7236,1.6348-1.4424,2.6484c-13.8174-1.7178-25.1914-5.4102-33.9971-11.0293
		c13.6963-0.3633,24.5928,1.3203,31.0166,5.001C90.1133,325.7432,91.4063,326.9961,91.8779,327.5996z M-103.7324,498.3535
		c0.0918,3.4375,0.1895,6.875,0.3389,10.2842l-14.1475,0.4668L-103.7324,498.3535z M-39.5479,366.6484
		c0.0508,0.042,0.1035,0.0859,0.1504,0.1348c-0.0684-0.0117-0.1455-0.0215-0.2207-0.0273
		C-39.5938,366.7188-39.5713,366.6807-39.5479,366.6484z M-101.2324,540.5176c0.3076,3.5957,0.6191,7.1904,0.9561,10.709
		c0.5615,5.8623,1.1445,11.4141,1.75,16.8203l-15.7939-0.1328L-101.2324,540.5176z M-129.5918,221.5381
		c7.5859,2.4199,14.8975,5.0688,21.666,7.8447c8.1104,3.3618,16.5566,7.2012,25.1035,11.4009l12.6855,6.2358l2.5693-3.8921
		c-0.0342,0.2427-0.0615,0.5146-0.0732,0.7139c-0.2305,1.1914-0.6055,3.2026-1.042,5.7432
		c-10.3936-6.5815-22.5947-12.4336-36.6064-17.4365c-11.5762-4.3057-21.3145-8.3149-29.0781-11.981
		C-132.8447,220.5547-131.251,221.0103-129.5918,221.5381z"/>
	
		<linearGradient id="SVGID_4_" gradientUnits="userSpaceOnUse" x1="46.9971" y1="123.4702" x2="46.997" y2="649.8755" gradientTransform="matrix(0.9995 -0.0329 0.0329 0.9995 -13.9712 -1.4457)">
		<stop  offset="0" style="stop-color:#EB6895"/>
		<stop  offset="1" style="stop-color:#2D2E82"/>
	</linearGradient>
	<path class="st16" d="M-83.5049,598.8008l3.3887-13.1133l-83.5068-0.6943c-0.3809-4.7539-0.8643-9.1318-1.4482-13.1211
		c-0.5811-3.9873-1.1455-7.8779-1.7217-11.6865l44.0488-1.4492l15.4307-32.2939l-65.9053,2.166
		c-2.7891-9.6426-5.0381-16.7266-6.752-21.2549c-0.9922-2.6377-1.9688-4.8916-2.918-6.7783l54.2451,1.6563l40.7002-31.6904
		l-3.1953-0.3896l0.8057-0.0459c-0.8359-3.5996-1.5068-7.3691-2.1455-11.1611c1.5117,0.6436,3.1133,1.3164,4.8545,2.0186
		c3.6045,1.4609,7.6611,2.7871,12.1631,3.9873c0.4287,0.1172,0.8818,0.2002,1.3096,0.3066l-9.5205,1.9873
		c-0.1563,9.1709-0.127,18.5752,0.084,28.2109c0.1953,9.6367,0.6289,19.1221,1.2715,28.4473
		c0.6406,9.334,1.3906,18.4258,2.2441,27.2783c0.8496,8.8457,1.7451,17.1738,2.6699,24.9697
		c2.1807,18.4424,4.667,36.2129,7.4727,53.3018l63.8467-3.5283c-1.877-9.2949-3.4795-18.8789-4.8193-28.7656
		c-1.3271-9.8799-2.4951-19.7227-3.4941-29.5283c-0.9922-9.792-1.8164-19.4082-2.4609-28.8369
		c-0.6465-9.4346-1.2275-18.3359-1.7158-26.7227c-0.8984-16.042-1.3076-31.7119-1.4463-47.1602
		c2.0508-0.7061,3.9795-1.4834,5.7051-2.3926c3.6855-1.9307,6.5107-4.3936,8.4873-7.3828c1.9668-2.9912,2.8857-6.5742,2.749-10.751
		c-0.1895-5.7568-2.6729-10.5498-7.4561-14.3906c-4.7881-3.834-11.8701-6.9961-21.2715-9.4746
		c-6.9229-1.9023-12.3193-3.6553-16.1787-5.252c-3.875-1.5898-5.8379-3.3125-5.8994-5.1709
		c-0.0273-0.832,0.5605-1.709,1.7559-2.6328c1.1963-0.9229,3.0918-1.4287,5.6777-1.5146c2.4531-0.082,5.3447,0.2705,8.667,1.0439
		c3.3242,0.7754,6.4883,1.623,9.4971,2.5439c3.1504,0.9756,6.3838,2.1035,9.6445,3.2998l-0.5713,6.9912l33.791-5.1514
		c1.2246,6,2.6523,12.1309,4.2871,18.3896c1.3447,5.3467,2.9248,11.1484,4.7461,17.4102c0.3379,1.1797,0.752,2.2744,1.1152,3.4287
		l-33.2617,15.4541c4.6182,17.7939,7.8438,35.6387,9.6641,53.5176c1.8174,17.8926,2.9766,34.082,3.4551,48.5713
		c0.5557,16.9736,0.418,33.3018-0.4072,48.9814l56.1553-1.8477c0.543-3.6396,0.9629-8.0439,1.2432-13.2109
		c0.2949-4.4033,0.335-10.0361,0.1084-16.9023c-0.2275-6.8672-1.0479-15.1416-2.4941-24.8311l26.0244,44.1084l44.1641-8.3271
		l10.7393-41.877c1.1152,6.8379,2.0625,13.1543,2.8174,18.9492c0.7432,5.8037,1.2158,11.4639,1.3994,16.9912
		c0.1797,5.5391,0.0811,11.2637-0.2754,17.1963c-0.3701,5.9258-0.8984,12.3408-1.5625,19.2373l70.0664,11.4365
		c0.1709-7.7822,0.2285-15.5117,0.2012-23.2021l48.457-1.5957c1.0586-2.1279,2.3574-5.2275,3.9043-9.29
		c1.5498-4.0596,3.1387-8.5967,4.7773-13.6123l41.5293-6.2373c2.457,6.6064,4.6748,12.5928,6.6543,17.9639
		c1.9678,5.3818,3.6982,9.9482,5.1611,13.7168c1.7178,4.5303,3.1865,8.4922,4.4268,11.8828l61.5205-12.8994
		c-3.5059-10.9561-7.5146-21.9443-12.0254-32.9688c-4.5244-11.0176-9.2998-21.7891-14.3604-32.3164
		c-5.0557-10.5234-10.2178-20.7568-15.4805-30.707c-1.3643-2.5811-2.6973-4.9932-4.0439-7.4814l49.292-8.6064
		c2.1973,12.332,4.7412,24.9434,7.6348,37.8301c2.3789,11.001,5.1895,22.9346,8.4072,35.8047
		c3.2305,12.8818,6.9375,24.9736,11.1328,36.2871l63.8711-12.9775c-4.3076-14.752-8.1465-29.0371-11.5098-42.8623
		c-1.5449-5.8643-2.9746-11.9316-4.3076-18.1846c-1.3203-6.2539-2.5869-12.3213-3.793-18.2041
		c-1.207-5.876-2.1797-11.4326-2.9043-16.6582c-0.7383-5.2275-1.1631-9.8428-1.2939-13.8496l66.8604-13.9414l-1.4404-43.7627
		L336.667,474.6152l-1.6172,25.1406c-1.0371-1.8262-2.0879-3.7402-3.1123-5.5107c-11.6699-20.2363-23.75-39.6895-36.2578-58.376
		l-48.1826,19.0508c0.2061,6.3008-0.5244,14.9648-2.1797,25.9912c-1.6523,11.0371-4.3291,23.7686-8.0029,38.2061
		c-3.6729,14.4375-8.3828,30.1582-14.1006,47.1455c-3.2783,9.7197-6.9131,19.5938-10.8438,29.5869
		c-0.0283-0.8662-0.0215-1.7354-0.0498-2.6006c-0.5205-15.8213-1.8809-31.6738-4.082-47.5479
		c-2.2109-15.8604-5.4385-32.0322-9.6777-48.5049c-4.2402-16.4707-9.6895-33.5654-16.3252-51.2939l-66.0205-0.9805
		c-0.6523,14.5352-1.5908,28.2598-2.8574,41.1924c-1.2539,12.9238-2.6221,24.2842-4.0928,34.0635
		c-1.8662,11.5156-3.7627,22.0859-5.6885,31.6914l-54.3066-87.1816l17.4922-3.0947c-2.4316-7.1631-4.6006-14.1084-6.502-20.8242
		c-0.8701-2.8555-1.6816-5.8008-2.4209-8.8447c-0.751-3.0371-1.4639-5.9844-2.1436-8.8457c-0.6709-2.8604-1.21-5.5547-1.6211-8.0986
		c-0.4102-2.543-0.6475-4.79-0.7109-6.7363l38.582-6.9854l-0.2256-6.7842c4.0908,0.1123,7.6631,0.1191,10.6689,0.0205
		c0,0,176.1074-92.5127,89.6299-117.5688c-86.1494-24.9673-169.583,9.0181-170.2236,9.2759
		c-0.6914-4.21-1.1865-8.5811-1.3359-13.1895c-0.0684-2.02-0.0352-5.1616,0.0898-9.4248
		c-6.1377-52.1182,50.5156-97.9033,57.8877-98.1465c7.3721-0.2422-16.1025,69.7402-10.4902,72.0132
		c5.6152,2.2842,102.4619-12.1167,102.4619-12.1167c-12.8428-13.2627,81.0186-106.6782-51.8418-107.4512
		c-16.6318-0.4619-61.0742,5.21-76.9902,10.1074C-42.666,163.207-47.4766,247.478-47.4766,247.478s-3.7383,18.8823-4.7881,34.7012
		c-1.0146-1.228-2.0469-2.4463-3.1758-3.6128c-11.4297-11.8286-28.4912-21.7935-51.1846-29.9004
		c-16.7207-6.2178-29.7354-11.8477-39.0391-16.8931c-9.3203-5.0464-14.0059-10.3418-14.0654-15.9053
		c-0.0264-2.499,1.4297-5.0835,4.4014-7.7505c2.9492-2.6646,7.5635-4.0342,13.8506-4.1025
		c5.9639-0.0571,12.9727,1.1895,21.0088,3.7461c8.0283,2.5615,15.6689,5.3237,22.9336,8.3047
		c8.5137,3.5303,17.1885,7.4756,26.0303,11.8262l34.79-52.8623c-9.8057-7.1216-20.5586-13.5464-32.2266-19.2598
		c-10.1064-4.6099-21.7598-8.9443-35-12.9771c-13.2285-4.0337-27.5391-5.9741-42.9297-5.8125
		c-16.6494,0.1646-31.3789,2.4727-44.2109,6.9106c-12.8428,4.438-23.5303,10.1733-32.0977,17.2036
		c-8.5713,7.0308-15.0059,14.8789-19.3057,23.5356c-4.3154,8.6523-6.4199,17.2915-6.3379,25.8975
		c0.0781,6.9395,0.6094,13.3271,1.6104,19.1523c1.0059,5.8252,3.0137,11.2998,6.0586,16.3989
		c3.0322,5.1118,7.2422,10.0684,12.6309,14.8726c5.3926,4.8091,12.6631,9.6587,21.8301,14.5713
		c11.0459,6.5522,21.5488,11.936,31.4805,16.1392c9.9375,4.2153,18.6963,7.8735,26.2637,10.9849
		c7.5664,3.1221,13.5518,5.8389,17.9902,8.1475c4.4102,2.3174,6.6396,4.877,6.668,7.6445c0.0283,2.499-1.4434,5.1592-4.3945,7.9658
		c-2.9619,2.8018-7.4258,4.2402-13.3799,4.2969c-7.8623,0.084-16.5908-1.6348-26.2051-5.1465
		c-9.6162-3.5127-18.8408-7.4502-27.6768-11.8018c-10.416-4.8955-20.8447-10.6201-31.2734-17.1865
		c0,0-11.251,34.1064-39.4648,56.2441c-28.209,22.1357,13.8242,8.0586,22.5098,12.6846c8.6719,4.6416,18.4629,8.918,29.334,12.833
		c10.877,3.916,22.5283,7.2051,34.9639,9.8516c12.4268,2.6563,25.5508,3.9121,39.376,3.7705
		c5.6924-0.0645,11.1582-0.3555,16.5215-0.7646l-10.6006,1.916c-0.1182,4.4648-0.1289,9.04-0.04,13.7305
		c0.0928,4.6895,0.3086,9.3066,0.6563,13.8438c0.3398,4.543,0.7461,8.9619,1.208,13.2686c0.4619,4.3086,0.958,8.3525,1.4697,12.1445
		c0.8984,6.7266,1.9326,13.1904,3.0371,19.5303l-85.4209-10.417l-34.2324,22.1553c-0.4951-7.6904-0.9814-15.3828-1.4082-22.9941
		l-64.9932,9.5889c-0.335,10.3232-0.0459,20.9033,0.873,31.7559c0.916,10.8555,1.7803,21.7109,2.5889,32.5615l-50.3223,5.0947
		c-0.9941-9.7061-1.8525-18.6504-2.5771-26.8408c-0.7188-8.1777-1.3994-15.2227-2.0313-21.1172
		c-0.6748-6.8574-1.2188-13.0361-1.6279-18.5605l-61.6367,8.8994c0.167,5.1455,0.4824,11.4385,0.957,18.8672
		c0.46,7.4287,1.0107,15.4375,1.6328,23.999c0.6074,8.5703,1.3535,17.5254,2.2197,26.8467
		c0.8652,9.332,1.6748,18.4717,2.4189,27.415c1.8135,20.9424,3.8857,43.0176,6.2139,66.2305l65.7852-5.8838
		c-1.1963-9.124-2.3711-19.3994-3.5313-30.8154c-1.166-11.4141-2.2402-21.9727-3.2344-31.6787l49.3193-5.0547
		c0.9834,9.5166,2.0029,18.3975,3.0654,26.667c1.0537,8.2734,2.0322,15.6406,2.9121,22.1025
		c1.1523,7.6006,2.0439,14.5391,2.7012,20.8154l64.4395-6.1309c-1.2109-9.3076-2.3643-18.9141-3.4727-28.8096
		c-1.123-9.8867-2.1133-19.7793-3.002-29.6816c-0.8828-9.8955-1.7676-19.6523-2.6426-29.2627
		c-0.8535-9.3213-1.5234-18.1377-2.0254-26.4795c5.7559,13.7822,10.4414,27.9326,13.7656,42.5547
		c5.7656,25.3994,9.0664,50.4854,9.8828,75.2793c8.5059-0.6582,16.6699-1.4082,24.4951-2.2373
		c6.7158-0.6025,13.4805-1.1582,20.3184-1.6699c6.8252-0.5107,12.3682-0.8389,16.623-0.9795
		c8.3008-0.2715,16.5967-0.3994,24.9004-0.3857c8.3027,0.0146,15.7031,0.1025,22.2285,0.2715l21.9043,0.708L-83.5049,598.8008
		 M99.667,311.7988c27.5605,15.7686,1.2061,36.6396,1.2061,36.6396c-25.916-1.8408-45.5957-9.2705-59.0791-22.2852
		c-5.4268-5.2412-9.7725-11.2705-13.127-18.0293C47.625,304.7139,80.7764,300.9854,99.667,311.7988z M-5.1777,397.3428
		l1.6465-2.1416c-4.083-2.2764-8.5527-4.3193-13.3984-6.1084c-4.1836-1.4404-9.0127-2.7725-14.4912-3.9824
		c-5.4658-1.2119-11.375-1.7188-17.708-1.5117c-6.8486,0.2256-12.8955,1.1465-18.1484,2.7588
		c-5.2549,1.6133-9.6123,3.6387-13.0898,6.0762s-6.0703,5.126-7.7939,8.0566c-1.7139,2.9395-2.5195,5.8486-2.4248,8.7207
		c0.0742,2.3232,0.3418,4.4512,0.793,6.3906c0.4551,1.9326,1.3125,3.7393,2.6055,5.415c1.2793,1.6807,3.043,3.2979,5.2988,4.8438
		c2.2461,1.5498,5.2715,3.1035,9.0771,4.6465c4.5928,2.0811,8.9609,3.7715,13.0742,5.0781
		c4.1162,1.3057,7.7441,2.4385,10.8779,3.4072c3.1387,0.9639,5.623,1.8145,7.4639,2.5361c1.8291,0.7363,2.7627,1.5635,2.7949,2.4912
		c0.0264,0.8311-0.5576,1.7344-1.7539,2.7012c-1.2041,0.9717-3.0293,1.498-5.4824,1.5781
		c-3.2275,0.1055-6.8369-0.3779-10.8096-1.457c-3.9824-1.0771-7.8076-2.2998-11.4756-3.6641
		c-4.3223-1.5303-8.6494-3.3428-12.9873-5.4238l-12.3701,14.9678c-0.5264-3.6592-1.0479-7.3193-1.4688-10.959
		c-0.5449-4.7686-0.9893-9.4492-1.3369-14.0381c-0.3389-4.5879-0.6445-8.918-0.9092-12.9961
		c-0.5576-9.2666-0.7881-18.3242-0.7285-27.1875c12.2832-2.6348,22.8604-6.6104,31.6865-11.9766
		c9.0488-5.5098,16.0381-12.6631,20.9785-21.4678c2.7422-4.8896,4.623-10.415,5.8027-16.4492
		c5.8125,9.333,12.7266,17.3828,20.8945,23.9746c9.4736,7.6504,20.0391,13.7041,31.6523,18.1455
		c10.0117,3.8232,19.8818,6.7695,29.6426,8.9375L-5.1777,397.3428z M280.2383,560.0938c1.0039-3.4707,1.9131-6.748,2.7012-9.832
		c0.8008-3.0781,1.502-5.7773,2.1016-8.0879c0.8018-2.6973,1.5088-5.2012,2.0977-7.5078c1.9189,3.5645,3.8301,7.1729,5.7441,10.833
		c1.9131,3.6592,3.8398,7.4609,5.7627,11.4072L280.2383,560.0938z"/>
	<polygon class="st14" points="-20.3652,355.0527 3.3711,369.6523 40.9658,335.0029 21.8916,318.9316 	"/>
	<polygon class="st14" points="6.9844,371.6855 62.168,389.3633 71.5527,352.0293 45.4639,338.7949 	"/>
	<polygon class="st3" points="147.6475,613.875 147.3799,626.9834 206.373,632.2793 205.4951,605.5996 	"/>
	<polygon class="st3" points="149.1416,594.5771 148.8848,607.6875 205.3027,599.709 206.9912,586.2998 	"/>
</g>
<g id="Tür_2_3_" class="st20">
	<g id="Tür_links_8_">
		<linearGradient id="SVGID_5_" gradientUnits="userSpaceOnUse" x1="-83.5215" y1="-14.0327" x2="-83.5215" y2="626.0905">
			<stop  offset="0" style="stop-color:#3C3C3A"/>
			<stop  offset="1" style="stop-color:#000000"/>
		</linearGradient>
		
			<rect x="-167.7363" style="fill:url(#SVGID_5_);stroke:#000000;stroke-width:0.5;stroke-miterlimit:10;" width="168.4297" height="622.7178"/>
	</g>
	<g id="Tür_rechts_8_">
		
			<linearGradient id="SVGID_6_" gradientUnits="userSpaceOnUse" x1="-5450.0342" y1="-14.0327" x2="-5450.0342" y2="626.089" gradientTransform="matrix(-1 0 0 1 -5365.125 0)">
			<stop  offset="0" style="stop-color:#3C3C3A"/>
			<stop  offset="1" style="stop-color:#000000"/>
		</linearGradient>
		<rect x="0.6934" class="st23" width="168.4307" height="622.7178"/>
		<g>
			<path class="st22" d="M11.6963,621.2178V1.5h172.4746c20.3662,0,36.9355,13.5425,36.9355,30.189v559.3394
				c0,16.6465-16.5693,30.1895-36.9355,30.1895H11.6963z M78.6074,86.373c-19.1318,0-34.6973,15.5151-34.6973,34.5854v216.2856
				c0,19.0703,15.5654,34.5859,34.6973,34.5859h64.7715c19.1318,0,34.6973-15.5156,34.6973-34.5859V120.9585
				c0-19.0703-15.5654-34.5854-34.6973-34.5854H78.6074z"/>
			<path class="st7" d="M184.1709,3c19.5391,0,35.4355,12.8696,35.4355,28.689v559.3394c0,15.8193-15.8965,28.6895-35.4355,28.6895
				H13.1963V3H184.1709 M78.6074,373.3301h64.7715c19.959,0,36.1973-16.1885,36.1973-36.0859V120.9585
				c0-19.8975-16.2383-36.0854-36.1973-36.0854H78.6074c-19.959,0-36.1973,16.188-36.1973,36.0854v216.2856
				C42.4102,357.1416,58.6484,373.3301,78.6074,373.3301 M184.1709,0H10.1963v622.7178h173.9746
				c21.2275,0,38.4355-14.1885,38.4355-31.6895V31.689C222.6064,14.1875,205.3984,0,184.1709,0L184.1709,0z M78.6074,370.3301
				c-18.335,0-33.1973-14.8125-33.1973-33.0859V120.9585c0-18.2729,14.8623-33.0854,33.1973-33.0854h64.7715
				c18.334,0,33.1973,14.8125,33.1973,33.0854v216.2856c0,18.2734-14.8633,33.0859-33.1973,33.0859H78.6074L78.6074,370.3301z"/>
		</g>
		<g>
			<linearGradient id="SVGID_7_" gradientUnits="userSpaceOnUse" x1="42.2656" y1="110.0625" x2="179.7212" y2="348.1425">
				<stop  offset="0.0056" style="stop-color:#8BADDC"/>
				<stop  offset="0.073" style="stop-color:#3D5780"/>
				<stop  offset="0.5" style="stop-color:#E7EDF9"/>
				<stop  offset="0.618" style="stop-color:#C8D5EF"/>
				<stop  offset="0.6659" style="stop-color:#C4D2EE"/>
				<stop  offset="0.7136" style="stop-color:#B8CBEA"/>
				<stop  offset="0.7612" style="stop-color:#A4BDE4"/>
				<stop  offset="0.8085" style="stop-color:#88ABDB"/>
				<stop  offset="0.809" style="stop-color:#88ABDB"/>
				<stop  offset="1" style="stop-color:#26516A"/>
			</linearGradient>
			<path class="st18" d="M78.6074,364.8301c-15.2725,0-27.6973-12.375-27.6973-27.5859V120.9585
				c0-15.2104,12.4248-27.5854,27.6973-27.5854h64.7715c15.2725,0,27.6973,12.375,27.6973,27.5854v216.2856
				c0,15.2109-12.4248,27.5859-27.6973,27.5859H78.6074z"/>
			<g>
				<path d="M143.3789,98.873c12.2402,0,22.1973,9.9077,22.1973,22.0854v216.2856c0,12.1777-9.957,22.0859-22.1973,22.0859H78.6074
					c-12.2402,0-22.1973-9.9082-22.1973-22.0859V120.9585c0-12.1777,9.957-22.0854,22.1973-22.0854H143.3789 M143.3789,87.873
					H78.6074c-18.335,0-33.1973,14.8125-33.1973,33.0854v216.2856c0,18.2734,14.8623,33.0859,33.1973,33.0859h64.7715
					c18.334,0,33.1973-14.8125,33.1973-33.0859V120.9585C176.5762,102.6855,161.7129,87.873,143.3789,87.873L143.3789,87.873z"/>
			</g>
		</g>
	</g>
</g>
<g id="Tür_2_1_" class="st2">
	<g id="Tür_links_1_" class="st27">
		<linearGradient id="SVGID_8_" gradientUnits="userSpaceOnUse" x1="-83.5215" y1="-14.0327" x2="-83.5215" y2="626.0905">
			<stop  offset="0" style="stop-color:#3C3C3A"/>
			<stop  offset="1" style="stop-color:#000000"/>
		</linearGradient>
		<rect x="-167.7363" class="st35" width="168.4297" height="622.7178"/>
	</g>
	<g id="Tür_rechts_1_" class="st27">
		
			<linearGradient id="SVGID_9_" gradientUnits="userSpaceOnUse" x1="-5450.0342" y1="-14.0327" x2="-5450.0342" y2="626.089" gradientTransform="matrix(-1 0 0 1 -5365.125 0)">
			<stop  offset="0" style="stop-color:#3C3C3A"/>
			<stop  offset="1" style="stop-color:#000000"/>
		</linearGradient>
		
			<rect x="0.6934" style="fill:url(#SVGID_9_);stroke:#000000;stroke-width:0.5;stroke-miterlimit:10;" width="168.4307" height="622.7178"/>
		<g>
			<path class="st22" d="M11.6963,621.2178V1.5h172.4746c20.3662,0,36.9355,13.5425,36.9355,30.189v559.3394
				c0,16.6465-16.5693,30.1895-36.9355,30.1895H11.6963z M78.6074,86.373c-19.1318,0-34.6973,15.5151-34.6973,34.5854v216.2856
				c0,19.0703,15.5654,34.5859,34.6973,34.5859h64.7715c19.1318,0,34.6973-15.5156,34.6973-34.5859V120.9585
				c0-19.0703-15.5654-34.5854-34.6973-34.5854H78.6074z"/>
			<path class="st7" d="M184.1709,3c19.5391,0,35.4355,12.8696,35.4355,28.689v559.3394c0,15.8193-15.8965,28.6895-35.4355,28.6895
				H13.1963V3H184.1709 M78.6074,373.3301h64.7715c19.959,0,36.1973-16.1885,36.1973-36.0859V120.9585
				c0-19.8975-16.2383-36.0854-36.1973-36.0854H78.6074c-19.959,0-36.1973,16.188-36.1973,36.0854v216.2856
				C42.4102,357.1416,58.6484,373.3301,78.6074,373.3301 M184.1709,0H10.1963v622.7178h173.9746
				c21.2275,0,38.4355-14.1885,38.4355-31.6895V31.689C222.6064,14.1875,205.3984,0,184.1709,0L184.1709,0z M78.6074,370.3301
				c-18.335,0-33.1973-14.8125-33.1973-33.0859V120.9585c0-18.2729,14.8623-33.0854,33.1973-33.0854h64.7715
				c18.334,0,33.1973,14.8125,33.1973,33.0854v216.2856c0,18.2734-14.8633,33.0859-33.1973,33.0859H78.6074L78.6074,370.3301z"/>
		</g>
		<g>
			<linearGradient id="SVGID_10_" gradientUnits="userSpaceOnUse" x1="42.2656" y1="110.0625" x2="179.7212" y2="348.1425">
				<stop  offset="0.0056" style="stop-color:#8BADDC"/>
				<stop  offset="0.073" style="stop-color:#3D5780"/>
				<stop  offset="0.5" style="stop-color:#E7EDF9"/>
				<stop  offset="0.618" style="stop-color:#C8D5EF"/>
				<stop  offset="0.6659" style="stop-color:#C4D2EE"/>
				<stop  offset="0.7136" style="stop-color:#B8CBEA"/>
				<stop  offset="0.7612" style="stop-color:#A4BDE4"/>
				<stop  offset="0.8085" style="stop-color:#88ABDB"/>
				<stop  offset="0.809" style="stop-color:#88ABDB"/>
				<stop  offset="1" style="stop-color:#26516A"/>
			</linearGradient>
			<path style="fill:url(#SVGID_10_);" d="M78.6074,364.8301c-15.2725,0-27.6973-12.375-27.6973-27.5859V120.9585
				c0-15.2104,12.4248-27.5854,27.6973-27.5854h64.7715c15.2725,0,27.6973,12.375,27.6973,27.5854v216.2856
				c0,15.2109-12.4248,27.5859-27.6973,27.5859H78.6074z"/>
			<g>
				<path d="M143.3789,98.873c12.2402,0,22.1973,9.9077,22.1973,22.0854v216.2856c0,12.1777-9.957,22.0859-22.1973,22.0859H78.6074
					c-12.2402,0-22.1973-9.9082-22.1973-22.0859V120.9585c0-12.1777,9.957-22.0854,22.1973-22.0854H143.3789 M143.3789,87.873
					H78.6074c-18.335,0-33.1973,14.8125-33.1973,33.0854v216.2856c0,18.2734,14.8623,33.0859,33.1973,33.0859h64.7715
					c18.334,0,33.1973-14.8125,33.1973-33.0859V120.9585C176.5762,102.6855,161.7129,87.873,143.3789,87.873L143.3789,87.873z"/>
			</g>
		</g>
	</g>
</g>
</svg>
