<?xml version="1.0" encoding="utf-8"?>
<!-- Generator: Adobe Illustrator 16.0.0, SVG Export Plug-In . SVG Version: 6.00 Build 0)  -->
<!DOCTYPE svg PUBLIC "-//W3C//DTD SVG 1.1//EN" "http://www.w3.org/Graphics/SVG/1.1/DTD/svg11.dtd">
<svg version="1.1" id="Ebene_1" xmlns="http://www.w3.org/2000/svg" xmlns:xlink="http://www.w3.org/1999/xlink" x="0px" y="0px"
	 width="899.9551px" height="244.6382px" viewBox="0 0 899.9551 244.6382" style="enable-background:new 0 0 899.9551 244.6382;"
	 xml:space="preserve">
<style type="text/css">
<![CDATA[
	.st0{fill:#476F9E;}
	.st1{display:inline;fill:#4E4D4D;}
	.st2{fill:#E07900;}
	.st3{fill:url(#SVGID_11_);stroke:#000000;stroke-width:0.5;stroke-miterlimit:10;}
	.st4{fill:url(#SVGID_24_);stroke:#000000;stroke-width:0.5;stroke-miterlimit:10;}
	.st5{fill:#E8E8E5;}
	.st6{fill:#4E4D4D;}
	.st7{display:inline;fill:url(#SVGID_54_);stroke:#000000;stroke-width:0.2;stroke-miterlimit:10;}
	.st8{fill:url(#SVGID_45_);stroke:#000000;stroke-width:0.5;stroke-miterlimit:10;}
	.st9{fill:url(#SVGID_21_);stroke:#000000;stroke-width:0.2;stroke-miterlimit:10;}
	.st10{fill:url(#SVGID_9_);stroke:#000000;stroke-width:0.5;stroke-miterlimit:10;}
	.st11{fill:#B3946D;}
	.st12{display:none;fill:url(#SVGID_14_);}
	.st13{display:none;fill:url(#SVGID_15_);}
	.st14{display:none;fill:url(#SVGID_16_);}
	.st15{display:none;fill:url(#SVGID_18_);}
	.st16{display:none;fill:url(#SVGID_19_);}
	.st17{display:none;fill:url(#SVGID_28_);}
	.st18{display:none;fill:url(#SVGID_29_);}
	.st19{display:none;fill:url(#SVGID_30_);}
	.st20{display:none;fill:url(#SVGID_37_);}
	.st21{display:none;fill:url(#SVGID_38_);}
	.st22{display:none;fill:url(#SVGID_47_);}
	.st23{display:none;fill:url(#SVGID_48_);}
	.st24{display:none;fill:url(#SVGID_49_);}
	.st25{display:inline;fill:#8DB54C;}
	.st26{fill:#EDCEAB;}
	.st27{display:inline;fill:#8F6626;}
	.st28{fill:#EFD329;}
	.st29{display:none;fill:url(#SVGID_5_);}
	.st30{display:none;fill:url(#SVGID_6_);}
	.st31{fill:url(#SVGID_12_);stroke:#000000;stroke-width:0.5;stroke-miterlimit:10;}
	.st32{fill:url(#SVGID_25_);stroke:#000000;stroke-width:0.5;stroke-miterlimit:10;}
	.st33{fill:#8A5D3B;}
	.st34{fill:#BA4729;}
	.st35{fill:#57B049;}
	.st36{fill:url(#SVGID_20_);stroke:#000000;stroke-width:0.5;stroke-miterlimit:10;}
	.st37{display:inline;fill:#29405C;}
	.st38{display:inline;fill:url(#SVGID_55_);stroke:#000000;stroke-width:0.2;stroke-miterlimit:10;}
	.st39{fill:url(#SVGID_46_);stroke:#000000;stroke-width:0.5;stroke-miterlimit:10;}
	.st40{display:inline;fill:#C0282D;}
	.st41{fill:url(#SVGID_41_);stroke:#000000;stroke-width:0.5;stroke-miterlimit:10;}
	.st42{display:inline;fill:url(#SVGID_32_);}
	.st43{display:inline;fill:url(#SVGID_33_);}
	.st44{display:inline;fill:url(#SVGID_34_);}
	.st45{display:inline;fill:url(#SVGID_35_);}
	.st46{display:inline;fill:url(#SVGID_50_);}
	.st47{display:inline;fill:url(#SVGID_51_);}
	.st48{display:inline;fill:url(#SVGID_1_);stroke:#000000;stroke-width:0.2;stroke-miterlimit:10;}
	.st49{fill:#29405C;}
	.st50{fill:#F7E6D2;}
	.st51{display:inline;fill:#FFC738;}
	.st52{display:inline;fill:#FFFFFF;}
	.st53{fill:#C24A2A;}
	.st54{fill:url(#SVGID_4_);}
	.st55{fill:url(#SVGID_13_);stroke:#000000;stroke-width:0.5;stroke-miterlimit:10;}
	.st56{fill:#C3996B;}
	.st57{fill:url(#SVGID_26_);stroke:#000000;stroke-width:0.5;stroke-miterlimit:10;}
	.st58{fill:url(#SVGID_39_);stroke:#000000;stroke-width:0.5;stroke-miterlimit:10;}
	.st59{display:inline;opacity:0.2;fill:#FFFBD4;}
	.st60{fill:#2DA34A;}
	.st61{display:inline;fill:url(#SVGID_56_);stroke:#000000;stroke-width:0.2;stroke-miterlimit:10;}
	.st62{fill:#FDC806;}
	.st63{fill:#603813;}
	.st64{fill:#FF6138;}
	.st65{fill:#FF8900;}
	.st66{fill:#FF9F30;}
	.st67{fill:#FFA28A;}
	.st68{fill:#FFC738;}
	.st69{fill:#FFFFFF;}
	.st70{fill:url(#SVGID_42_);stroke:#000000;stroke-width:0.5;stroke-miterlimit:10;}
	.st71{fill:none;}
	.st72{display:inline;fill:url(#SVGID_2_);stroke:#000000;stroke-width:0.2;stroke-miterlimit:10;}
	.st73{display:inline;fill:#6A8F2E;}
	.st74{fill:#9C9C87;}
	.st75{display:inline;}
	.st76{display:inline;fill:#EEE300;stroke:#398E35;stroke-width:0.2;stroke-miterlimit:10;}
	.st77{fill:url(#SVGID_27_);stroke:#000000;stroke-width:0.5;stroke-miterlimit:10;}
	.st78{display:inline;fill:url(#SVGID_31_);stroke:#000000;stroke-width:0.2;stroke-miterlimit:10;}
	.st79{fill:url(#SVGID_22_);stroke:#000000;stroke-width:0.5;stroke-miterlimit:10;}
	.st80{display:inline;opacity:0.25;fill:#5B2689;}
	.st81{fill:#00642B;}
	.st82{fill:#007AA3;}
	.st83{fill:#007C38;}
	.st84{fill:#0092C4;}
	.st85{fill:#009345;}
	.st86{fill:#00A1D9;}
	.st87{display:inline;fill:url(#SVGID_52_);stroke:#000000;stroke-width:0.2;stroke-miterlimit:10;}
	.st88{fill:#02A7B6;}
	.st89{fill:url(#SVGID_43_);stroke:#000000;stroke-width:0.5;stroke-miterlimit:10;}
	.st90{fill-rule:evenodd;clip-rule:evenodd;fill:#FFFFFF;}
	.st91{fill:#D17100;}
	.st92{fill:none;stroke:#FFFFFF;stroke-width:0.1;stroke-miterlimit:10;}
	.st93{fill:#04909C;}
	.st94{display:inline;fill:#A2AFBC;}
	.st95{display:inline;fill:url(#SVGID_3_);stroke:#000000;stroke-width:0.2;stroke-miterlimit:10;}
	.st96{fill:url(#SVGID_7_);stroke:#000000;stroke-width:0.5;stroke-miterlimit:10;}
	.st97{fill:#D48E3E;}
	.st98{fill:#076972;}
	.st99{fill:url(#SVGID_17_);}
	.st100{fill:url(#SVGID_36_);}
	.st101{fill:url(#SVGID_40_);}
	.st102{display:none;}
	.st103{fill:#754C28;}
	.st104{fill:url(#SVGID_10_);stroke:#000000;stroke-width:0.5;stroke-miterlimit:10;}
	.st105{fill:url(#SVGID_23_);stroke:#000000;stroke-width:0.5;stroke-miterlimit:10;}
	.st106{display:inline;fill:#7AC5FC;}
	.st107{display:inline;fill:url(#SVGID_53_);stroke:#000000;stroke-width:0.2;stroke-miterlimit:10;}
	.st108{fill:url(#SVGID_44_);stroke:#000000;stroke-width:0.5;stroke-miterlimit:10;}
	.st109{fill:url(#SVGID_8_);stroke:#000000;stroke-width:0.5;stroke-miterlimit:10;}
	.st110{display:inline;fill:none;stroke:#000000;stroke-width:0.2;stroke-miterlimit:10;}
]]>
</style>
<g id="Hintergrund" class="st102">
	<rect x="-196.0015" class="st106" width="1150.7407" height="424.6499"/>
</g>
<g class="st102">
	<path class="st59" d="M497.1045-290.9565c-818.5674,0-1548.5674,210.1123-2024.0327,538.3242
		C-1164.7749,664.811-394.5566,952.9604,497.1045,952.9604c891.6621,0,1661.8809-288.1494,2024.0303-705.5918
		C2045.6777-80.8433,1315.6729-290.9565,497.1045-290.9565z"/>
	<path class="st59" d="M497.1045-290.9565c-572.8457,0-1102.311,102.9102-1531.5313,277.1748
		c210.4229,357.3223,816.5239,615.5283,1531.5313,615.5283c715.0146,0,1321.1084-258.2061,1531.5293-615.5293
		C1599.4238-188.0464,1069.9551-290.9565,497.1045-290.9565z"/>
	<path class="st59" d="M497.1045-290.9565c-381.8057,0-744.3379,45.7207-1070.7686,127.8037
		C-467.7529,110.6753-28.6162,315.9858,497.1045,315.9858c525.7227,0,964.8555-205.3105,1070.7744-479.1367
		C1241.4473-245.2358,878.915-290.9565,497.1045-290.9565z"/>
	<path class="st59" d="M497.1045-290.9565c-258.2119,0-507.6089,20.9136-742.9912,59.8394
		C-193.5244-29.688,119.1523,125.105,497.1045,125.105c377.9541,0,690.6318-154.791,742.9951-356.2222
		C1004.7168-270.043,755.3242-290.9565,497.1045-290.9565z"/>
</g>
<g id="Sonne" class="st102">
	<circle class="st51" cx="170.0027" cy="56.8242" r="25.4807"/>
	<g class="st75">
		<path class="st68" d="M170.2817,87.813h-0.1235c-0.5552,0-1.1064-0.0142-1.6543-0.0449l0.0459-0.8184
			c0.5308,0.0264,1.0688,0.0415,1.6084,0.0415h0.1235V87.813z M173.5859,87.624l-0.0933-0.8159
			c0.5361-0.0615,1.0688-0.1353,1.5952-0.2222l0.1353,0.811C174.6802,87.4873,174.1353,87.562,173.5859,87.624z M165.2168,87.418
			c-0.5469-0.0898-1.0884-0.1919-1.627-0.3086l0.1772-0.8022c0.5215,0.1118,1.0493,0.2114,1.5811,0.2988L165.2168,87.418z
			 M178.4502,86.6797l-0.2217-0.7915c0.5186-0.1465,1.0308-0.3042,1.5381-0.4756l0.2627,0.7793
			C179.5093,86.3677,178.9814,86.5322,178.4502,86.6797z M160.4058,86.2339c-0.5269-0.1772-1.0449-0.3662-1.5581-0.5688
			l0.3022-0.7642c0.499,0.1958,1.0059,0.3804,1.5156,0.5518L160.4058,86.2339z M183.0977,84.9619l-0.3442-0.7451
			c0.4868-0.2261,0.9678-0.4658,1.439-0.7158l0.3857,0.7251C184.0933,84.4839,183.6001,84.731,183.0977,84.9619z M155.8413,84.2808
			c-0.4897-0.2559-0.9712-0.5264-1.4448-0.8091l0.4204-0.7061c0.4604,0.2764,0.9292,0.5376,1.4063,0.79L155.8413,84.2808z
			 M187.4082,82.5215l-0.4595-0.6807c0.4448-0.3018,0.8804-0.6133,1.3071-0.9375l0.498,0.6558
			C188.3135,81.8926,187.8652,82.2134,187.4082,82.5215z M151.6543,81.625c-0.4414-0.3301-0.8721-0.6729-1.2939-1.0283
			l0.5273-0.6289c0.4116,0.3447,0.833,0.6792,1.2617,1.0029L151.6543,81.625z M191.2773,79.4219l-0.562-0.5996
			c0.3896-0.3687,0.77-0.7466,1.1416-1.1348l0.5933,0.5688C192.0698,78.6543,191.6797,79.0439,191.2773,79.4219z M147.9463,78.3379
			c-0.3843-0.3945-0.7549-0.8027-1.1157-1.2197l0.6226-0.54c0.3521,0.4077,0.7124,0.8032,1.084,1.1924L147.9463,78.3379z
			 M194.6025,75.7466l-0.6523-0.502c0.3271-0.4253,0.6445-0.8599,0.9487-1.3018l0.6777,0.4658
			C195.2627,74.8633,194.939,75.3096,194.6025,75.7466z M144.8062,74.5039c-0.3154-0.4521-0.6157-0.9146-0.9058-1.3833
			l0.7007-0.4302c0.2808,0.4556,0.5737,0.9043,0.8794,1.3447L144.8062,74.5039z M197.3008,71.5869l-0.7231-0.3911
			c0.2559-0.4707,0.4966-0.9512,0.7256-1.4365l0.7451,0.3496C197.813,70.6099,197.5615,71.1025,197.3008,71.5869z M142.3174,70.2183
			c-0.2354-0.4966-0.4585-0.9985-0.6689-1.5093l0.7578-0.3145c0.207,0.4976,0.4233,0.9868,0.6528,1.4702L142.3174,70.2183z
			 M199.2959,67.0454l-0.7764-0.269c0.1758-0.5063,0.3364-1.0181,0.4858-1.5347l0.7896,0.228
			C199.6431,66.0005,199.4756,66.5254,199.2959,67.0454z M140.5552,65.5859c-0.1533-0.5278-0.2925-1.0605-0.4194-1.5967
			l0.7993-0.1904c0.123,0.5239,0.2603,1.0444,0.4097,1.5591L140.5552,65.5859z M200.5317,62.2456l-0.8086-0.1416
			c0.0898-0.5264,0.167-1.0562,0.231-1.5928l0.8149,0.0972C200.7056,61.1572,200.6255,61.7031,200.5317,62.2456z M139.5591,60.7314
			c-0.0664-0.5439-0.1182-1.0933-0.1553-1.6455l0.8188-0.0571c0.0366,0.5391,0.0884,1.0742,0.1528,1.603L139.5591,60.7314z
			 M200.98,57.3125l-0.8223-0.0132l0.0024-0.3101c0-0.4326-0.0103-0.8667-0.0293-1.2974l0.8218-0.0381
			c0.019,0.4434,0.0288,0.8892,0.0288,1.3354L200.98,57.3125z M140.1792,55.811l-0.8218-0.0322
			c0.0205-0.5522,0.0576-1.1045,0.1084-1.6504l0.8193,0.0786C140.2334,54.7388,140.2002,55.2715,140.1792,55.811z M199.8228,52.4878
			c-0.0801-0.5327-0.1768-1.0625-0.2847-1.5864l0.8057-0.1636c0.1108,0.5361,0.208,1.0791,0.291,1.6284L199.8228,52.4878z
			 M140.7544,51.022l-0.8062-0.1626c0.1104-0.5435,0.2339-1.0811,0.3721-1.6108l0.7959,0.2051
			C140.9824,49.9707,140.8613,50.4941,140.7544,51.022z M198.7168,47.791c-0.1646-0.5107-0.3438-1.0166-0.5347-1.5156l0.7676-0.2954
			c0.1973,0.5137,0.3799,1.0332,0.5498,1.5601L198.7168,47.791z M142.0908,46.3872l-0.7666-0.292
			c0.1958-0.5166,0.4058-1.0293,0.6289-1.5327l0.7515,0.332C142.4878,45.3857,142.2832,45.8838,142.0908,46.3872z M196.8701,43.3374
			c-0.2456-0.4785-0.5024-0.9492-0.7725-1.4111l0.7104-0.4141c0.2754,0.4751,0.5425,0.9585,0.7949,1.4492L196.8701,43.3374z
			 M144.1621,42.0239l-0.7119-0.4106c0.2773-0.479,0.5659-0.9473,0.8672-1.4097l0.6875,0.4497
			C144.7134,41.1025,144.4302,41.5586,144.1621,42.0239z M194.3301,39.2368c-0.3179-0.4316-0.6484-0.855-0.9883-1.2695l0.6357-0.522
			c0.3496,0.4258,0.687,0.8604,1.0142,1.3037L194.3301,39.2368z M146.9043,38.0537l-0.6362-0.5195
			c0.3481-0.4272,0.708-0.8462,1.0811-1.2539l0.6069,0.5552C147.5923,37.2305,147.2422,37.6387,146.9043,38.0537z M191.1685,35.5928
			c-0.3823-0.375-0.7764-0.7417-1.1787-1.0977l0.5459-0.6167c0.4116,0.3657,0.8159,0.7417,1.208,1.1265L191.1685,35.5928z
			 M150.2417,34.5684l-0.5454-0.6133c0.4102-0.3662,0.833-0.7222,1.2646-1.0654l0.5103,0.6436
			C151.0522,33.8677,150.6431,34.2124,150.2417,34.5684z M187.4653,32.4941c-0.4365-0.3081-0.8843-0.6064-1.3379-0.8936
			l0.4399-0.6953c0.4668,0.2954,0.9243,0.6001,1.374,0.9214L187.4653,32.4941z M154.0942,31.6631l-0.4424-0.6938
			c0.4634-0.2954,0.9355-0.5796,1.4175-0.8511l0.4043,0.7163C155.0054,31.0996,154.5459,31.3735,154.0942,31.6631z
			 M183.3174,30.0317c-0.4819-0.2373-0.9702-0.4585-1.4648-0.6709l0.3203-0.7559c0.5088,0.2163,1.0137,0.4443,1.5073,0.688
			L183.3174,30.0317z M158.3555,29.4092l-0.3247-0.7578c0.5049-0.2153,1.0161-0.4189,1.5347-0.6099l0.2827,0.7734
			C159.3428,28.9995,158.8467,29.1973,158.3555,29.4092z M178.8271,28.2632c-0.5117-0.1543-1.0303-0.2954-1.5542-0.4243
			l0.1963-0.7959c0.5366,0.1299,1.0679,0.2754,1.5957,0.4331L178.8271,28.2632z M162.9258,27.8691l-0.1992-0.7974
			c0.5352-0.1323,1.0742-0.2505,1.6172-0.355l0.1533,0.8076C163.9678,27.6235,163.4443,27.7397,162.9258,27.8691z M174.1089,27.2476
			c-0.5288-0.0703-1.064-0.1245-1.6006-0.1675l0.064-0.8188c0.5527,0.043,1.1001,0.1011,1.646,0.1709L174.1089,27.2476z
			 M167.6841,27.0894l-0.0674-0.8193c0.5474-0.0449,1.0962-0.0752,1.6504-0.0913l0.0259,0.8218
			C168.752,27.0166,168.2158,27.0459,167.6841,27.0894z"/>
	</g>
	<g class="st75">
		<path class="st68" d="M170.0781,89.292c-0.5781-0.0127-1.1626-0.0127-1.7393-0.042l0.043-0.8218
			c0.563,0.0288,1.1099,0.0352,1.6963,0.041c0.269,0,0.5361-0.0024,0.8022-0.0103l0.0234,0.8213
			C170.6289,89.2886,170.3545,89.292,170.0781,89.292z M172.5645,89.1909l-0.0635-0.8193c0.542-0.0435,1.0781-0.0972,1.6133-0.1685
			l0.106,0.8149C173.6729,89.0894,173.1206,89.147,172.5645,89.1909z M166.6787,89.1216c-0.5552-0.0566-1.104-0.1274-1.6494-0.2124
			l0.1255-0.812c0.5332,0.0835,1.0679,0.1528,1.6084,0.209L166.6787,89.1216z M175.8633,88.7622l-0.1475-0.8096
			c0.5337-0.0957,1.0615-0.2085,1.5864-0.3325l0.1895,0.7998C176.9541,88.5469,176.4102,88.6626,175.8633,88.7622z
			 M163.3916,88.6143c-0.5439-0.1133-1.085-0.2393-1.6211-0.3813l0.2085-0.7935c0.5234,0.1372,1.0483,0.2617,1.5796,0.3716
			L163.3916,88.6143z M179.1001,87.9941l-0.231-0.7891c0.522-0.1509,1.0366-0.3169,1.5449-0.4951l0.2729,0.7754
			C180.1631,87.6685,179.6348,87.8389,179.1001,87.9941z M160.1714,87.771c-0.5317-0.168-1.0557-0.3511-1.5747-0.5469l0.2886-0.769
			c0.5054,0.1909,1.0181,0.3682,1.5366,0.5327L160.1714,87.771z M182.2383,86.8979l-0.3105-0.7607
			c0.5005-0.2036,0.9951-0.4224,1.4834-0.6504l0.3501,0.7451C183.2603,86.4663,182.7529,86.688,182.2383,86.8979z M157.0518,86.5947
			c-0.5112-0.2217-1.0161-0.4575-1.5112-0.7065l0.3696-0.7349c0.4819,0.2417,0.9731,0.4717,1.4692,0.6899L157.0518,86.5947z
			 M185.2476,85.4849l-0.3887-0.7241c0.4771-0.2544,0.9468-0.521,1.4092-0.7988l0.4243,0.7031
			C186.2173,84.9502,185.7373,85.2241,185.2476,85.4849z M154.0703,85.1079c-0.4844-0.2764-0.9595-0.5615-1.4287-0.8569
			l0.4404-0.6934c0.4561,0.2881,0.9214,0.5674,1.3936,0.8345L154.0703,85.1079z M188.0942,83.772l-0.4595-0.6821
			c0.4478-0.3018,0.8887-0.6152,1.3228-0.939l0.4912,0.6587C189.0059,83.1416,188.5542,83.4624,188.0942,83.772z M151.2598,83.3208
			c-0.4546-0.3203-0.897-0.6528-1.334-0.9961l0.5107-0.646c0.4233,0.334,0.8569,0.6582,1.2983,0.9717L151.2598,83.3208z
			 M190.7524,81.7754l-0.5269-0.6333c0.416-0.3423,0.8237-0.6992,1.2202-1.0664l0.5586,0.6035
			C191.5952,81.0562,191.1782,81.4219,190.7524,81.7754z M148.6445,81.2588c-0.417-0.3662-0.8252-0.7422-1.2246-1.127l0.5708-0.5913
			c0.3906,0.376,0.7886,0.7422,1.1963,1.1001L148.6445,81.2588z M193.1987,79.5195l-0.5879-0.5767
			c0.3789-0.3848,0.7466-0.7817,1.105-1.187l0.6167,0.5459C193.9644,78.7173,193.5869,79.1226,193.1987,79.5195z M146.2559,78.9429
			c-0.3789-0.4043-0.7471-0.8198-1.105-1.2451l0.6294-0.5298c0.3491,0.4136,0.707,0.8184,1.0762,1.2158L146.2559,78.9429z
			 M195.4033,77.0259l-0.6426-0.5132c0.3369-0.4238,0.665-0.854,0.9795-1.293l0.6675,0.478
			C196.0835,76.1504,195.75,76.5938,195.4033,77.0259z M144.1152,76.397c-0.333-0.4395-0.6582-0.8901-0.9707-1.3481l0.6777-0.4653
			c0.3062,0.4473,0.6206,0.8857,0.9487,1.3174L144.1152,76.397z M197.3428,74.3184l-0.6914-0.4448
			c0.2915-0.4526,0.5723-0.917,0.8423-1.3867l0.7124,0.4072C197.9297,73.3765,197.6426,73.8516,197.3428,74.3184z M142.2422,73.6489
			c-0.2871-0.4722-0.5635-0.9541-0.8262-1.4414l0.7217-0.3887c0.2573,0.4746,0.5269,0.9414,0.8076,1.4028L142.2422,73.6489z
			 M198.9976,71.4268l-0.7358-0.3691c0.2461-0.4854,0.4771-0.9741,0.6973-1.4712l0.7515,0.3345
			C199.4839,70.4297,199.2456,70.9326,198.9976,71.4268z M140.665,70.7256c-0.2373-0.499-0.4619-1.0063-0.6743-1.519l0.7593-0.3145
			c0.208,0.4995,0.4263,0.9932,0.6577,1.48L140.665,70.7256z M200.3447,68.3799l-0.7671-0.2954
			c0.1914-0.5044,0.3735-1.0161,0.542-1.5317l0.7803,0.2539C200.7275,67.3364,200.5439,67.8604,200.3447,68.3799z M139.394,67.6572
			c-0.186-0.52-0.3584-1.0479-0.5171-1.5811l0.7871-0.2363c0.1558,0.5205,0.3242,1.0342,0.5039,1.5415L139.394,67.6572z
			 M201.3716,65.2104l-0.793-0.2114c0.1392-0.5239,0.2651-1.0483,0.3789-1.5796l0.8022,0.1699
			C201.6465,64.1353,201.5151,64.6743,201.3716,65.2104z M138.4438,64.4673c-0.1299-0.5381-0.2471-1.0806-0.3496-1.6274
			l0.8086-0.1509c0.0996,0.5342,0.2144,1.061,0.3403,1.5859L138.4438,64.4673z M202.0659,61.9556l-0.813-0.1284
			c0.0869-0.5332,0.1577-1.0693,0.2139-1.6089l0.8188,0.0864C202.2261,60.8599,202.1528,61.4092,202.0659,61.9556z
			 M137.8271,61.1978c-0.0737-0.5464-0.1353-1.0986-0.1812-1.6538l0.8188-0.0693c0.0464,0.5415,0.1045,1.0796,0.1782,1.6138
			L137.8271,61.1978z M202.4199,58.6479l-0.8218-0.0464c0.0308-0.5381,0.0464-1.0791,0.0498-1.623l0.8228,0.0063
			C202.4668,57.542,202.4512,58.0957,202.4199,58.6479z M137.5513,57.8818c-0.0112-0.3516-0.0181-0.7041-0.0161-1.0591
			l0.0049-0.6035l0.8223,0.0127l-0.0049,0.5923c-0.0015,0.3472,0.0049,0.6899,0.0166,1.0308L137.5513,57.8818z M201.6143,55.3584
			c-0.0254-0.5439-0.0645-1.0835-0.1172-1.6196l0.8188-0.0801c0.0527,0.5483,0.0918,1.1011,0.1201,1.6597L201.6143,55.3584z
			 M138.4331,54.6123l-0.8188-0.0581c0.0376-0.5552,0.0894-1.1079,0.1567-1.6567l0.8159,0.0996
			C138.5229,53.5313,138.4712,54.0698,138.4331,54.6123z M201.3018,52.1304c-0.082-0.5391-0.1758-1.0723-0.2817-1.5991
			l0.8066-0.1636c0.1089,0.5425,0.2051,1.0884,0.2871,1.6401L201.3018,52.1304z M138.8242,51.3931l-0.8086-0.1411
			c0.0957-0.5493,0.2031-1.0933,0.3267-1.6323l0.8032,0.1826C139.0249,50.3286,138.917,50.8589,138.8242,51.3931z M200.6577,48.9497
			c-0.1348-0.5249-0.2837-1.0454-0.4453-1.5591l0.7832-0.2471c0.1675,0.5288,0.3198,1.063,0.458,1.6025L200.6577,48.9497z
			 M139.542,48.2319l-0.79-0.2241c0.1509-0.5361,0.3154-1.0659,0.4951-1.5894l0.7769,0.2661
			C139.8501,47.1934,139.6899,47.709,139.542,48.2319z M199.6895,45.856c-0.188-0.5068-0.3896-1.0078-0.6025-1.502l0.7549-0.3252
			c0.2183,0.5078,0.4238,1.022,0.6177,1.542L199.6895,45.856z M140.585,45.1563l-0.7637-0.3047
			c0.207-0.5166,0.4258-1.0273,0.6572-1.5317l0.7476,0.3418C141.001,44.1533,140.7856,44.6528,140.585,45.1563z M198.4106,42.8828
			c-0.2412-0.4849-0.4917-0.9629-0.7534-1.4346l0.7158-0.4023c0.2715,0.4854,0.5288,0.9736,0.7734,1.4746L198.4106,42.8828z
			 M141.9419,42.2061l-0.729-0.3818c0.2588-0.4927,0.5278-0.978,0.8125-1.4565l0.7065,0.4189
			C142.457,41.252,142.1943,41.7261,141.9419,42.2061z M196.8296,40.0542c-0.2866-0.459-0.585-0.9077-0.895-1.3501l0.6714-0.4717
			c0.3188,0.4541,0.6274,0.9165,0.9204,1.3848L196.8296,40.0542z M143.5903,39.4092l-0.6831-0.4561
			c0.3062-0.4624,0.6235-0.9185,0.9531-1.3633l0.6616,0.4883C144.2021,38.5132,143.8911,38.9561,143.5903,39.4092z
			 M194.9692,37.3989c-0.332-0.4253-0.6758-0.8442-1.0303-1.252l0.6226-0.5381c0.3613,0.4189,0.7148,0.8481,1.0562,1.2861
			L194.9692,37.3989z M145.5181,36.7949l-0.6357-0.519c0.3521-0.4287,0.7153-0.8496,1.0898-1.2607l0.606,0.5537
			C146.2139,35.9683,145.8604,36.3779,145.5181,36.7949z M192.8472,34.9492c-0.3755-0.3916-0.7588-0.7739-1.1523-1.144
			l0.5649-0.5977c0.4028,0.3809,0.7959,0.7705,1.1821,1.1699L192.8472,34.9492z M147.6992,34.3936l-0.5776-0.5811
			c0.3926-0.3916,0.7959-0.7734,1.2085-1.1431l0.5488,0.6118C148.4756,33.6426,148.0825,34.0137,147.6992,34.3936z
			 M190.4888,32.7212c-0.4126-0.3496-0.833-0.6904-1.2632-1.0195l0.501-0.6519c0.4395,0.3394,0.873,0.6855,1.2949,1.0454
			L190.4888,32.7212z M150.1133,32.228l-0.5171-0.6392c0.4307-0.3481,0.8701-0.6865,1.3213-1.0122l0.4819,0.6641
			C150.9614,31.5586,150.5337,31.8896,150.1133,32.228z M187.9102,30.7461c-0.4463-0.3047-0.8979-0.6016-1.3589-0.8853
			l0.4302-0.7007c0.4741,0.2925,0.938,0.5938,1.395,0.9097L187.9102,30.7461z M152.7324,30.3164l-0.4502-0.687
			c0.4639-0.3022,0.9341-0.5938,1.415-0.874l0.4131,0.7104C153.644,29.7383,153.1826,30.021,152.7324,30.3164z M185.1494,29.0444
			c-0.4751-0.2603-0.9565-0.5073-1.4453-0.7446l0.3569-0.7388c0.5015,0.2417,0.9951,0.4951,1.4824,0.7607L185.1494,29.0444z
			 M155.5303,28.687l-0.376-0.7305c0.4902-0.2539,0.9893-0.4946,1.4951-0.7241l0.3403,0.7471
			C156.4961,28.2031,156.0103,28.4399,155.5303,28.687z M182.2222,27.6313c-0.499-0.208-1.0044-0.4043-1.5151-0.5889l0.2798-0.7734
			c0.5234,0.1875,1.0425,0.3906,1.5532,0.605L182.2222,27.6313z M158.4795,27.3511l-0.3022-0.7656
			c0.5171-0.2026,1.0386-0.3926,1.5674-0.5688l0.2598,0.7798C159.4888,26.9688,158.9805,27.1533,158.4795,27.3511z
			 M179.1646,26.5308c-0.5171-0.1572-1.0386-0.2998-1.5635-0.4307l0.1953-0.7979c0.542,0.1343,1.0757,0.2808,1.606,0.4424
			L179.1646,26.5308z M161.5557,26.3218l-0.2188-0.79c0.5332-0.1494,1.0708-0.2822,1.6128-0.4038l0.1797,0.8022
			C162.5996,26.0483,162.0747,26.1792,161.5557,26.3218z M176.0186,25.752c-0.5288-0.1025-1.0625-0.1909-1.6016-0.2661l0.1162-0.814
			c0.5503,0.0771,1.0977,0.1685,1.6416,0.2725L176.0186,25.752z M164.7207,25.6191l-0.1377-0.8096
			c0.5454-0.0933,1.0947-0.1704,1.6475-0.2344l0.0957,0.8154C165.7871,25.4551,165.251,25.5288,164.7207,25.6191z M172.8037,25.3022
			c-0.5327-0.0464-1.0737-0.0815-1.6157-0.1006l0.0283-0.8223c0.5586,0.0205,1.1118,0.0552,1.6616,0.1045L172.8037,25.3022z
			 M167.9429,25.2451l-0.0542-0.8208c0.5518-0.0352,1.106-0.0576,1.6641-0.0645l0.0093,0.8223
			C169.02,25.1885,168.4795,25.2095,167.9429,25.2451z"/>
	</g>
</g>
<g id="Wolken">
	<g>
		<path class="st69" d="M785.9746,192.7402c-0.2861-5.0923-4.8818-9.1411-10.5205-9.1411c-2.957,0-5.623,1.1138-7.5391,2.9028
			c-1.9355-2.1431-4.8623-3.5068-8.1348-3.5068c-3.3428,0-6.3174,1.4253-8.251,3.6406c-0.1641-0.0078-0.3262-0.022-0.4932-0.022
			c-3.3643,0-6.2617,1.9727-7.6172,4.8223h-2.6309c-4.3281,0-7.8379,3.5093-7.8379,7.8379c0,4.3276,3.5098,7.8374,7.8379,7.8374
			h15.1289c1.207,0.7588,2.6328,1.2031,4.1621,1.2031h24.7188c4.3291,0,7.8379-3.5083,7.8379-7.8369
			C792.6357,196.5503,789.7441,193.3076,785.9746,192.7402z"/>
		<path class="st5" d="M786.3438,195.2183c0.9971,1.3379,1.6133,3.1626,1.6133,5.1792s-0.6162,3.8398-1.6133,5.1792
			c1.9795-0.8862,3.3604-2.8706,3.3604-5.1792C789.7041,198.0894,788.3232,196.105,786.3438,195.2183z"/>
		<path class="st5" d="M753.0332,203.5132c0,0.7241-0.5869,1.3101-1.3086,1.3101H739.499c-0.7246,0-1.3105-0.5859-1.3105-1.3101l0,0
			c0-0.7241,0.5859-1.3076,1.3105-1.3076h12.2256C752.4463,202.2056,753.0332,202.7891,753.0332,203.5132L753.0332,203.5132z"/>
	</g>
	<g>
		<path class="st69" d="M556.5459,190.0005h-1.3682c-1.3643-2.6548-4.3086-4.4966-7.7295-4.4966
			c-2.3936,0-4.5557,0.9028-6.1084,2.3521c-1.5674-1.7334-3.9385-2.8413-6.5918-2.8413c-2.708,0-5.1182,1.1553-6.6836,2.9521
			c-0.1338-0.0083-0.2646-0.0205-0.3994-0.0205c-2.7256,0-5.0723,1.5991-6.1709,3.9072h-2.1318
			c-3.5078,0-6.3516,2.8447-6.3516,6.3506c0,3.5063,2.8438,6.3511,6.3516,6.3511h7.4951c1.3916,1.895,3.4551,3.0986,5.7646,3.0986
			h23.9238c4.1904,0,7.5859-3.9526,7.5859-8.8267S560.7363,190.0005,556.5459,190.0005z"/>
		<path class="st5" d="M558.7715,193.3242c1.001,1.3452,1.6211,3.1782,1.6211,5.2046s-0.6201,3.8594-1.6211,5.2026
			c1.9873-0.8901,3.376-2.8833,3.376-5.2026C562.1475,196.208,560.7588,194.2148,558.7715,193.3242z"/>
		<path class="st5" d="M522.6631,195.4561c0,0.4849-0.3926,0.8789-0.877,0.8789h-3.5107c-0.4844,0-0.877-0.394-0.877-0.8789l0,0
			c0-0.4834,0.3926-0.877,0.877-0.877h3.5107C522.2705,194.5791,522.6631,194.9727,522.6631,195.4561L522.6631,195.4561z"/>
	</g>
	<g>
		<path class="st69" d="M505.7881,140.3364h-7.2002c0.4121-1.272,0.6406-2.626,0.6406-4.0361
			c0-7.2466-5.876-13.1201-13.1201-13.1201c-3.7285,0-7.085,1.562-9.4727,4.0571c-2.2676,0.0718-4.375,0.7598-6.1611,1.9131
			c-1.3135-4.0493-5.1123-6.9805-9.5986-6.9805c-3.7471,0-7.0107,2.0483-8.751,5.083c-4.4771,0.269-8.23,3.1914-9.7256,7.2144
			c-0.5503-0.1187-1.1221-0.1865-1.7075-0.1865c-4.4585,0-8.0732,3.6157-8.0732,8.0752c0,4.46,3.6147,8.0737,8.0732,8.0737
			c0.6079,0,1.1987-0.0718,1.7671-0.2007c1.5117,3.6699,5.1211,6.2568,9.334,6.2568h25.2314c1.9336,0,3.7305-0.5547,5.2666-1.4946
			c1.4697,1.5391,3.5371,2.5034,5.8359,2.5034c2.9854,0,5.5869-1.6274,6.9844-4.0371h10.6768c3.6221,0,6.5605-2.9365,6.5605-6.561
			C512.3486,143.2744,509.4102,140.3364,505.7881,140.3364z"/>
		<path class="st5" d="M451.9722,133.6841c2.2231-3.2593,6.3853-5.459,11.1675-5.459c0.875,0,1.7305,0.0762,2.5586,0.2173
			c-1.4336-0.7822-3.0762-1.2251-4.8223-1.2251c-3.7471,0-7.0107,2.0479-8.751,5.0791c-2.9634,0.1802-5.6094,1.5225-7.4966,3.5742
			C446.7266,134.6147,449.2441,133.8223,451.9722,133.6841z"/>
		<path class="st5" d="M508.3125,144.8799c0,0.835-0.9063,1.5127-2.0205,1.5127h-5.0449c-1.1162,0-2.0186-0.6777-2.0186-1.5127l0,0
			c0-0.8379,0.9023-1.5156,2.0186-1.5156h5.0449C507.4063,143.3643,508.3125,144.042,508.3125,144.8799L508.3125,144.8799z"/>
	</g>
	<g>
		<path class="st69" d="M109.6045,64.7163h-7.1997c0.4121-1.271,0.6406-2.626,0.6406-4.0356c0-7.2466-5.876-13.1211-13.1206-13.1211
			c-3.728,0-7.0854,1.5615-9.4727,4.0566c-2.2661,0.0723-4.374,0.7612-6.1606,1.9141c-1.313-4.0488-5.1113-6.981-9.5996-6.981
			c-3.7461,0-7.0107,2.0488-8.751,5.083c-4.4766,0.27-8.23,3.1919-9.7246,7.2148c-0.5508-0.1187-1.1216-0.1865-1.709-0.1865
			c-4.458,0-8.0723,3.6157-8.0723,8.0757c0,4.4595,3.6143,8.0737,8.0723,8.0737c0.6089,0,1.1992-0.0732,1.7686-0.2017
			c1.5117,3.6699,5.1206,6.2563,9.333,6.2563h25.2314c1.9341,0,3.7319-0.5537,5.2666-1.4946
			c1.4707,1.5396,3.5386,2.5049,5.8359,2.5049c2.9858,0,5.5874-1.6284,6.9844-4.0381h10.6772c3.6226,0,6.5596-2.9355,6.5596-6.5605
			C116.1641,67.6543,113.2271,64.7163,109.6045,64.7163z"/>
		<path class="st5" d="M55.7896,58.0635c2.2212-3.2588,6.3843-5.458,11.1665-5.458c0.875,0,1.731,0.0752,2.5586,0.2168
			c-1.4336-0.7822-3.0757-1.2251-4.8228-1.2251c-3.7461,0-7.0107,2.0469-8.751,5.0796c-2.9634,0.1797-5.6084,1.5215-7.4966,3.5732
			C50.5425,58.9946,53.0596,58.2017,55.7896,58.0635z"/>
		<path class="st5" d="M112.1289,69.2593c0,0.835-0.9053,1.5122-2.0195,1.5122h-5.0464c-1.1157,0-2.0176-0.6772-2.0176-1.5122l0,0
			c0-0.8379,0.9019-1.5151,2.0176-1.5151h5.0464C111.2236,67.7441,112.1289,68.4214,112.1289,69.2593L112.1289,69.2593z"/>
	</g>
	<g>
		<path class="st69" d="M399.7563,68.0044h-7.2002c0.4121-1.2729,0.6401-2.6279,0.6401-4.0376
			c0-7.2471-5.876-13.1196-13.1206-13.1196c-3.728,0-7.0845,1.5605-9.4722,4.0552c-2.2656,0.0747-4.374,0.7632-6.1611,1.9155
			c-1.313-4.0498-5.1118-6.98-9.5986-6.98c-3.7466,0-7.0107,2.0469-8.751,5.0811c-4.478,0.2695-8.231,3.1914-9.7261,7.2144
			c-0.5503-0.1187-1.1216-0.1851-1.7075-0.1851c-4.459,0-8.0737,3.6143-8.0737,8.0742c0,4.4595,3.6147,8.0752,8.0737,8.0752
			c0.6084,0,1.1987-0.0737,1.7671-0.2026c1.5122,3.6719,5.1221,6.2578,9.334,6.2578h25.2319c1.9336,0,3.731-0.5542,5.2656-1.4956
			c1.4702,1.541,3.5381,2.5034,5.8359,2.5034c2.9854,0,5.5884-1.626,6.9844-4.0347h10.6782c3.6211,0,6.5581-2.939,6.5581-6.562
			C406.3145,70.9404,403.3774,68.0044,399.7563,68.0044z"/>
		<path class="st5" d="M345.9399,61.3501c2.2217-3.2573,6.3848-5.457,11.1675-5.457c0.875,0,1.73,0.0762,2.5591,0.2168
			c-1.4341-0.7822-3.0762-1.2271-4.8228-1.2271c-3.7466,0-7.0107,2.0493-8.751,5.0815c-2.9634,0.1797-5.6099,1.522-7.4976,3.5728
			C340.6938,62.2813,343.2109,61.4893,345.9399,61.3501z"/>
		<path class="st5" d="M402.2798,72.5459c0,0.835-0.9053,1.5142-2.019,1.5142h-5.0464c-1.1157,0-2.0181-0.6792-2.0181-1.5142l0,0
			c0-0.8364,0.9023-1.5132,2.0181-1.5132h5.0464C401.3745,71.0327,402.2798,71.7095,402.2798,72.5459L402.2798,72.5459z"/>
	</g>
	<g>
		<path class="st69" d="M872.5596,152.1187h-4.3047c0.2471-0.7588,0.3828-1.5718,0.3828-2.4131
			c0-4.3311-3.5117-7.8442-7.8438-7.8442c-2.2285,0-4.2344,0.9341-5.6631,2.4248c-1.3535,0.0449-2.6133,0.4556-3.6826,1.146
			c-0.7842-2.4209-3.0566-4.1733-5.7373-4.1733c-2.2393-0.0005-4.1904,1.2241-5.2314,3.0361
			c-2.6768,0.1646-4.9199,1.9092-5.8145,4.3145c-0.3271-0.0713-0.6699-0.1108-1.0195-0.1108c-2.6641,0-4.8271,2.1611-4.8271,4.8252
			c0,2.6689,2.1631,4.8286,4.8271,4.8286c0.3623,0,0.7168-0.0444,1.0547-0.1216c0.9053,2.1953,3.0625,3.7407,5.5801,3.7407h15.085
			c1.1543,0,2.2295-0.3306,3.1455-0.8921c0.8799,0.9194,2.1172,1.4961,3.4902,1.4961c1.7832,0,3.3408-0.9722,4.1748-2.4141h6.3838
			c2.165,0,3.9199-1.7554,3.9199-3.9209C876.4795,153.8745,874.7246,152.1187,872.5596,152.1187z"/>
		<path class="st5" d="M840.3877,148.1406c1.3281-1.9473,3.8174-3.2607,6.6758-3.2607c0.5234,0,1.0352,0.0444,1.5303,0.1289
			c-0.8584-0.4678-1.8389-0.7324-2.8828-0.7324c-2.2393,0-4.1904,1.2231-5.2314,3.0376c-1.7705,0.105-3.3525,0.9082-4.4824,2.1348
			C837.25,148.6973,838.7568,148.2256,840.3877,148.1406z"/>
		<path class="st5" d="M874.0674,154.833c0,0.501-0.541,0.9058-1.207,0.9058h-3.0176c-0.666,0-1.2051-0.4048-1.2051-0.9058l0,0
			c0-0.499,0.5391-0.9048,1.2051-0.9048h3.0176C873.5264,153.9282,874.0674,154.334,874.0674,154.833L874.0674,154.833z"/>
	</g>
	<g>
		<path class="st69" d="M224.4746,58.1118h-1.3672c-1.3643-2.6553-4.3086-4.4985-7.7295-4.4985
			c-2.394,0-4.5571,0.9023-6.1099,2.3535c-1.5659-1.7354-3.9375-2.8408-6.5913-2.8408c-2.708,0-5.1172,1.1533-6.6831,2.9497
			c-0.1328-0.0059-0.2642-0.0186-0.3994-0.0186c-2.7256,0-5.0732,1.5991-6.1714,3.9072h-2.1318
			c-3.5078,0-6.3511,2.8428-6.3511,6.3511c0,3.5063,2.8433,6.3491,6.3511,6.3491h7.4956c1.3916,1.8945,3.4546,3.1006,5.7651,3.1006
			h23.9229c4.1909,0,7.5859-3.9531,7.5859-8.8267C232.0605,62.0625,228.6655,58.1118,224.4746,58.1118z"/>
		<path class="st5" d="M226.6997,61.4351c1.002,1.3438,1.6216,3.1782,1.6216,5.2026c0,2.0264-0.6196,3.8618-1.6216,5.2036
			c1.9878-0.8887,3.3765-2.8838,3.3765-5.2036C230.0762,64.3174,228.6875,62.3242,226.6997,61.4351z"/>
		<path class="st5" d="M190.5918,63.5674c0,0.4849-0.3921,0.877-0.8765,0.877h-3.5107c-0.4854,0-0.8765-0.3921-0.8765-0.877l0,0
			c0-0.4854,0.3911-0.877,0.8765-0.877h3.5107C190.1997,62.6904,190.5918,63.082,190.5918,63.5674L190.5918,63.5674z"/>
	</g>
	<g>
		<path class="st69" d="M559.834,69.6196h-1.3682c-1.3643-2.6558-4.3086-4.499-7.7295-4.499c-2.3936,0-4.5557,0.9028-6.1084,2.354
			c-1.5664-1.7354-3.9385-2.8413-6.5918-2.8413c-2.708,0-5.1182,1.1538-6.6836,2.9502c-0.1328-0.0068-0.2646-0.019-0.3994-0.019
			c-2.7266,0-5.0732,1.5991-6.1719,3.9072h-2.1309c-3.5078,0-6.3506,2.8433-6.3506,6.3506c0,3.5063,2.8428,6.3496,6.3506,6.3496
			h7.4951c1.3926,1.895,3.4541,3.1001,5.7646,3.1001h23.9238c4.1904,0,7.5859-3.9521,7.5859-8.8262
			C567.4199,73.5698,564.0244,69.6196,559.834,69.6196z"/>
		<path class="st5" d="M562.0586,72.9429c1.002,1.3433,1.6221,3.1777,1.6221,5.2026c0,2.0264-0.6201,3.8608-1.6221,5.2031
			c1.9873-0.8887,3.377-2.8833,3.377-5.2031S564.0459,73.8315,562.0586,72.9429z"/>
		<path class="st5" d="M525.9502,75.0747c0,0.4849-0.3916,0.877-0.876,0.877h-3.5107c-0.4854,0-0.877-0.3921-0.877-0.877l0,0
			c0-0.4854,0.3916-0.877,0.877-0.877h3.5107C525.5586,74.1978,525.9502,74.5894,525.9502,75.0747L525.9502,75.0747z"/>
	</g>
</g>
<g class="st102">
	<g class="st75">
		<g>
			<rect x="840.6162" y="124.7593" class="st64" width="124.8008" height="308.6084"/>
			<rect x="850.8242" y="181.4907" class="st53" width="14.752" height="15.8809"/>
			<path class="st67" d="M865.5762,181.4907v15.8809h-14.752v-15.8809H865.5762L865.5762,181.4907z M866.709,180.355h-1.1328
				h-14.752h-1.1338v1.1357v15.8809v1.1377h1.1338h14.752h1.1328v-1.1377v-15.8809V180.355L866.709,180.355z"/>
			<rect x="857.6338" y="180.355" class="st67" width="1.1377" height="18.1543"/>
			<rect x="875.79" y="181.4907" class="st53" width="14.748" height="15.8809"/>
			<path class="st67" d="M890.5381,181.4907v15.8809H875.79v-15.8809H890.5381L890.5381,181.4907z M891.6709,180.355h-1.1328H875.79
				h-1.1377v1.1357v15.8809v1.1377h1.1377h14.748h1.1328v-1.1377v-15.8809V180.355L891.6709,180.355z"/>
			<rect x="882.5957" y="180.355" class="st67" width="1.1318" height="18.1543"/>
			<rect x="850.8242" y="220.0649" class="st53" width="14.752" height="15.8848"/>
			<path class="st67" d="M865.5762,220.0649v15.8848h-14.752v-15.8848H865.5762L865.5762,220.0649z M866.709,218.9312h-1.1328
				h-14.752h-1.1338v1.1338v15.8848v1.1338h1.1338h14.752h1.1328v-1.1338v-15.8848V218.9312L866.709,218.9312z"/>
			<rect x="857.6338" y="218.9312" class="st67" width="1.1377" height="18.1523"/>
			<rect x="875.79" y="220.0649" class="st53" width="14.748" height="15.8848"/>
			<path class="st67" d="M890.5381,220.0649v15.8848H875.79v-15.8848H890.5381L890.5381,220.0649z M891.6709,218.9312h-1.1328
				H875.79h-1.1377v1.1338v15.8848v1.1338h1.1377h14.748h1.1328v-1.1338v-15.8848V218.9312L891.6709,218.9312z"/>
			<rect x="882.5957" y="218.9312" class="st67" width="1.1318" height="18.1523"/>
		</g>
	</g>
</g>
</svg>
