<?xml version="1.0" encoding="utf-8"?>
<!-- Generator: Adobe Illustrator 16.0.0, SVG Export Plug-In . SVG Version: 6.00 Build 0)  -->
<!DOCTYPE svg PUBLIC "-//W3C//DTD SVG 1.1//EN" "http://www.w3.org/Graphics/SVG/1.1/DTD/svg11.dtd">
<svg version="1.1" id="Ebene_1" xmlns="http://www.w3.org/2000/svg" xmlns:xlink="http://www.w3.org/1999/xlink" x="0px" y="0px"
	 width="85.4956px" height="82.4961px" viewBox="0 0 85.4956 82.4961" style="enable-background:new 0 0 85.4956 82.4961;"
	 xml:space="preserve">
<style type="text/css">
<![CDATA[
	.st0{fill:#476F9E;}
	.st1{display:inline;fill:#4E4D4D;}
	.st2{fill:#E07900;}
	.st3{fill:url(#SVGID_11_);stroke:#000000;stroke-width:0.5;stroke-miterlimit:10;}
	.st4{fill:url(#SVGID_24_);stroke:#000000;stroke-width:0.5;stroke-miterlimit:10;}
	.st5{fill:#E8E8E5;}
	.st6{fill:#4E4D4D;}
	.st7{display:inline;fill:url(#SVGID_54_);stroke:#000000;stroke-width:0.2;stroke-miterlimit:10;}
	.st8{fill:url(#SVGID_45_);stroke:#000000;stroke-width:0.5;stroke-miterlimit:10;}
	.st9{fill:url(#SVGID_21_);stroke:#000000;stroke-width:0.2;stroke-miterlimit:10;}
	.st10{fill:url(#SVGID_9_);stroke:#000000;stroke-width:0.5;stroke-miterlimit:10;}
	.st11{fill:#B3946D;}
	.st12{display:none;fill:url(#SVGID_14_);}
	.st13{display:none;fill:url(#SVGID_15_);}
	.st14{display:none;fill:url(#SVGID_16_);}
	.st15{display:none;fill:url(#SVGID_18_);}
	.st16{display:none;fill:url(#SVGID_19_);}
	.st17{display:none;fill:url(#SVGID_28_);}
	.st18{display:none;fill:url(#SVGID_29_);}
	.st19{display:none;fill:url(#SVGID_30_);}
	.st20{display:none;fill:url(#SVGID_37_);}
	.st21{display:none;fill:url(#SVGID_38_);}
	.st22{display:none;fill:url(#SVGID_47_);}
	.st23{display:none;fill:url(#SVGID_48_);}
	.st24{display:none;fill:url(#SVGID_49_);}
	.st25{display:inline;fill:#8DB54C;}
	.st26{fill:#EDCEAB;}
	.st27{display:inline;fill:#8F6626;}
	.st28{fill:#EFD329;}
	.st29{display:none;fill:url(#SVGID_5_);}
	.st30{display:none;fill:url(#SVGID_6_);}
	.st31{fill:url(#SVGID_12_);stroke:#000000;stroke-width:0.5;stroke-miterlimit:10;}
	.st32{fill:url(#SVGID_25_);stroke:#000000;stroke-width:0.5;stroke-miterlimit:10;}
	.st33{fill:#8A5D3B;}
	.st34{fill:#BA4729;}
	.st35{fill:#57B049;}
	.st36{fill:url(#SVGID_20_);stroke:#000000;stroke-width:0.5;stroke-miterlimit:10;}
	.st37{display:inline;fill:#29405C;}
	.st38{display:inline;fill:url(#SVGID_55_);stroke:#000000;stroke-width:0.2;stroke-miterlimit:10;}
	.st39{fill:url(#SVGID_46_);stroke:#000000;stroke-width:0.5;stroke-miterlimit:10;}
	.st40{display:inline;fill:#C0282D;}
	.st41{fill:url(#SVGID_41_);stroke:#000000;stroke-width:0.5;stroke-miterlimit:10;}
	.st42{display:inline;fill:url(#SVGID_32_);}
	.st43{display:inline;fill:url(#SVGID_33_);}
	.st44{display:inline;fill:url(#SVGID_34_);}
	.st45{display:inline;fill:url(#SVGID_35_);}
	.st46{display:inline;fill:url(#SVGID_50_);}
	.st47{display:inline;fill:url(#SVGID_51_);}
	.st48{display:inline;fill:url(#SVGID_1_);stroke:#000000;stroke-width:0.2;stroke-miterlimit:10;}
	.st49{fill:#29405C;}
	.st50{fill:#F7E6D2;}
	.st51{display:inline;fill:#FFFFFF;}
	.st52{fill:#C24A2A;}
	.st53{fill:url(#SVGID_4_);}
	.st54{fill:url(#SVGID_13_);stroke:#000000;stroke-width:0.5;stroke-miterlimit:10;}
	.st55{fill:#C3996B;}
	.st56{fill:url(#SVGID_26_);stroke:#000000;stroke-width:0.5;stroke-miterlimit:10;}
	.st57{fill:url(#SVGID_39_);stroke:#000000;stroke-width:0.5;stroke-miterlimit:10;}
	.st58{display:inline;opacity:0.2;fill:#FFFBD4;}
	.st59{fill:#2DA34A;}
	.st60{display:inline;fill:url(#SVGID_56_);stroke:#000000;stroke-width:0.2;stroke-miterlimit:10;}
	.st61{fill:#FDC806;}
	.st62{fill:#603813;}
	.st63{fill:#FF6138;}
	.st64{fill:#FF8900;}
	.st65{fill:#FF9F30;}
	.st66{fill:#FFA28A;}
	.st67{fill:#FFC738;}
	.st68{fill:#FFFFFF;}
	.st69{fill:url(#SVGID_42_);stroke:#000000;stroke-width:0.5;stroke-miterlimit:10;}
	.st70{fill:none;}
	.st71{display:inline;fill:url(#SVGID_2_);stroke:#000000;stroke-width:0.2;stroke-miterlimit:10;}
	.st72{display:inline;fill:#6A8F2E;}
	.st73{fill:#9C9C87;}
	.st74{display:inline;}
	.st75{display:inline;fill:#EEE300;stroke:#398E35;stroke-width:0.2;stroke-miterlimit:10;}
	.st76{fill:url(#SVGID_27_);stroke:#000000;stroke-width:0.5;stroke-miterlimit:10;}
	.st77{display:inline;fill:url(#SVGID_31_);stroke:#000000;stroke-width:0.2;stroke-miterlimit:10;}
	.st78{fill:url(#SVGID_22_);stroke:#000000;stroke-width:0.5;stroke-miterlimit:10;}
	.st79{display:inline;opacity:0.25;fill:#5B2689;}
	.st80{fill:#00642B;}
	.st81{fill:#007AA3;}
	.st82{fill:#007C38;}
	.st83{fill:#0092C4;}
	.st84{fill:#009345;}
	.st85{fill:#00A1D9;}
	.st86{display:inline;fill:url(#SVGID_52_);stroke:#000000;stroke-width:0.2;stroke-miterlimit:10;}
	.st87{fill:#02A7B6;}
	.st88{fill:url(#SVGID_43_);stroke:#000000;stroke-width:0.5;stroke-miterlimit:10;}
	.st89{fill-rule:evenodd;clip-rule:evenodd;fill:#FFFFFF;}
	.st90{fill:#D17100;}
	.st91{fill:none;stroke:#FFFFFF;stroke-width:0.1;stroke-miterlimit:10;}
	.st92{fill:#04909C;}
	.st93{display:inline;fill:#A2AFBC;}
	.st94{display:inline;fill:url(#SVGID_3_);stroke:#000000;stroke-width:0.2;stroke-miterlimit:10;}
	.st95{fill:url(#SVGID_7_);stroke:#000000;stroke-width:0.5;stroke-miterlimit:10;}
	.st96{fill:#D48E3E;}
	.st97{fill:#076972;}
	.st98{fill:url(#SVGID_17_);}
	.st99{fill:url(#SVGID_36_);}
	.st100{fill:url(#SVGID_40_);}
	.st101{display:none;}
	.st102{fill:#754C28;}
	.st103{fill:url(#SVGID_10_);stroke:#000000;stroke-width:0.5;stroke-miterlimit:10;}
	.st104{fill:url(#SVGID_23_);stroke:#000000;stroke-width:0.5;stroke-miterlimit:10;}
	.st105{display:inline;fill:#7AC5FC;}
	.st106{display:inline;fill:url(#SVGID_53_);stroke:#000000;stroke-width:0.2;stroke-miterlimit:10;}
	.st107{fill:url(#SVGID_44_);stroke:#000000;stroke-width:0.5;stroke-miterlimit:10;}
	.st108{fill:url(#SVGID_8_);stroke:#000000;stroke-width:0.5;stroke-miterlimit:10;}
	.st109{display:inline;fill:none;stroke:#000000;stroke-width:0.2;stroke-miterlimit:10;}
]]>
</style>
<g id="Hintergrund" class="st101">
	<rect x="-323.4951" y="-15.1494" class="st105" width="1150.7407" height="424.6499"/>
</g>
<g class="st101">
	<path class="st58" d="M369.6108-306.106c-818.5674,0-1548.5674,210.1123-2024.0327,538.3242
		C-1292.2686,649.6616-522.0503,937.811,369.6108,937.811c891.6621,0,1661.8809-288.1494,2024.0303-705.5918
		C1918.1841-95.9927,1188.1792-306.106,369.6108-306.106z"/>
	<path class="st58" d="M369.6108-306.106c-572.8457,0-1102.311,102.9102-1531.5313,277.1748
		c210.4229,357.3223,816.5239,615.5283,1531.5313,615.5283c715.0146,0,1321.1084-258.2061,1531.5293-615.5293
		C1471.9302-203.1958,942.4614-306.106,369.6108-306.106z"/>
	<path class="st58" d="M369.6108-306.106c-381.8057,0-744.3379,45.7207-1070.7686,127.8037
		C-595.2466,95.5259-156.1099,300.8364,369.6108,300.8364c525.7227,0,964.8555-205.3105,1070.7744-479.1367
		C1113.9536-260.3853,751.4214-306.106,369.6108-306.106z"/>
	<path class="st58" d="M369.6108-306.106c-258.2119,0-507.6089,20.9136-742.9912,59.8394
		C-321.0181-44.8374-8.3413,109.9556,369.6108,109.9556c377.9541,0,690.6318-154.791,742.9951-356.2222
		C877.2231-285.1924,627.8306-306.106,369.6108-306.106z"/>
</g>
<g id="Sonne">
	<circle class="st67" cx="42.509" cy="41.6748" r="25.4807"/>
	<g>
		<path class="st67" d="M42.7881,72.6636h-0.1235c-0.5552,0-1.1064-0.0142-1.6543-0.0449l0.0459-0.8184
			c0.5308,0.0264,1.0688,0.0415,1.6084,0.0415h0.1235V72.6636z M46.0923,72.4746l-0.0933-0.8159
			c0.5361-0.0615,1.0688-0.1353,1.5952-0.2222l0.1353,0.811C47.1865,72.3379,46.6416,72.4126,46.0923,72.4746z M37.7231,72.2686
			c-0.5469-0.0898-1.0884-0.1919-1.627-0.3086l0.1772-0.8022c0.5215,0.1118,1.0493,0.2114,1.5811,0.2988L37.7231,72.2686z
			 M50.9565,71.5303l-0.2217-0.7915c0.5186-0.1465,1.0308-0.3042,1.5381-0.4756l0.2627,0.7793
			C52.0156,71.2183,51.4878,71.3828,50.9565,71.5303z M32.9121,71.0845c-0.5269-0.1772-1.0449-0.3662-1.5581-0.5688l0.3022-0.7642
			c0.499,0.1958,1.0059,0.3804,1.5156,0.5518L32.9121,71.0845z M55.604,69.8125l-0.3442-0.7451
			c0.4868-0.2261,0.9678-0.4658,1.439-0.7158l0.3857,0.7251C56.5996,69.3345,56.1064,69.5815,55.604,69.8125z M28.3477,69.1313
			c-0.4897-0.2559-0.9712-0.5264-1.4448-0.8091l0.4204-0.7061c0.4604,0.2764,0.9292,0.5376,1.4063,0.79L28.3477,69.1313z
			 M59.9146,67.3721l-0.4595-0.6807c0.4448-0.3018,0.8804-0.6133,1.3071-0.9375l0.498,0.6558
			C60.8198,66.7432,60.3716,67.064,59.9146,67.3721z M24.1606,66.4756c-0.4414-0.3301-0.8721-0.6729-1.2939-1.0283l0.5273-0.6289
			c0.4116,0.3447,0.833,0.6792,1.2617,1.0029L24.1606,66.4756z M63.7837,64.2725l-0.562-0.5996
			c0.3896-0.3687,0.77-0.7466,1.1416-1.1348l0.5933,0.5688C64.5762,63.5049,64.186,63.8945,63.7837,64.2725z M20.4526,63.1885
			c-0.3843-0.3945-0.7549-0.8027-1.1157-1.2197l0.6226-0.54c0.3521,0.4077,0.7124,0.8032,1.084,1.1924L20.4526,63.1885z
			 M67.1089,60.5972l-0.6523-0.502c0.3271-0.4253,0.6445-0.8599,0.9487-1.3018l0.6777,0.4658
			C67.769,59.7139,67.4453,60.1602,67.1089,60.5972z M17.3125,59.3545c-0.3154-0.4521-0.6157-0.9146-0.9058-1.3833l0.7007-0.4302
			c0.2808,0.4556,0.5737,0.9043,0.8794,1.3447L17.3125,59.3545z M69.8071,56.4375l-0.7231-0.3911
			c0.2559-0.4707,0.4966-0.9512,0.7256-1.4365l0.7451,0.3496C70.3193,55.4604,70.0679,55.9531,69.8071,56.4375z M14.8237,55.0688
			c-0.2354-0.4966-0.4585-0.9985-0.6689-1.5093l0.7578-0.3145c0.207,0.4976,0.4233,0.9868,0.6528,1.4702L14.8237,55.0688z
			 M71.8022,51.896l-0.7764-0.269c0.1758-0.5063,0.3364-1.0181,0.4858-1.5347l0.7896,0.228
			C72.1494,50.8511,71.9819,51.376,71.8022,51.896z M13.0615,50.4365c-0.1533-0.5278-0.2925-1.0605-0.4194-1.5967l0.7993-0.1904
			c0.123,0.5239,0.2603,1.0444,0.4097,1.5591L13.0615,50.4365z M73.0381,47.0962l-0.8086-0.1416
			c0.0898-0.5264,0.167-1.0562,0.231-1.5928l0.8149,0.0972C73.2119,46.0078,73.1318,46.5537,73.0381,47.0962z M12.0654,45.582
			c-0.0664-0.5439-0.1182-1.0933-0.1553-1.6455l0.8188-0.0571c0.0366,0.5391,0.0884,1.0742,0.1528,1.603L12.0654,45.582z
			 M73.4863,42.1631l-0.8223-0.0132l0.0024-0.3101c0-0.4326-0.0103-0.8667-0.0293-1.2974l0.8218-0.0381
			c0.019,0.4434,0.0288,0.8892,0.0288,1.3354L73.4863,42.1631z M12.6855,40.6616l-0.8218-0.0322
			c0.0205-0.5522,0.0576-1.1045,0.1084-1.6504l0.8193,0.0786C12.7397,39.5894,12.7065,40.1221,12.6855,40.6616z M72.3291,37.3384
			c-0.0801-0.5327-0.1768-1.0625-0.2847-1.5864l0.8057-0.1636c0.1108,0.5361,0.208,1.0791,0.291,1.6284L72.3291,37.3384z
			 M13.2607,35.8726L12.4546,35.71c0.1104-0.5435,0.2339-1.0811,0.3721-1.6108l0.7959,0.2051
			C13.4888,34.8213,13.3677,35.3447,13.2607,35.8726z M71.2231,32.6416c-0.1646-0.5107-0.3438-1.0166-0.5347-1.5156l0.7676-0.2954
			c0.1973,0.5137,0.3799,1.0332,0.5498,1.5601L71.2231,32.6416z M14.5972,31.2378l-0.7666-0.292
			c0.1958-0.5166,0.4058-1.0293,0.6289-1.5327l0.7515,0.332C14.9941,30.2363,14.7896,30.7344,14.5972,31.2378z M69.3765,28.188
			c-0.2456-0.4785-0.5024-0.9492-0.7725-1.4111l0.7104-0.4141c0.2754,0.4751,0.5425,0.9585,0.7949,1.4492L69.3765,28.188z
			 M16.6685,26.8745l-0.7119-0.4106c0.2773-0.479,0.5659-0.9473,0.8672-1.4097l0.6875,0.4497
			C17.2197,25.9531,16.9365,26.4092,16.6685,26.8745z M66.8364,24.0874c-0.3179-0.4316-0.6484-0.855-0.9883-1.2695l0.6357-0.522
			c0.3496,0.4258,0.687,0.8604,1.0142,1.3037L66.8364,24.0874z M19.4106,22.9043l-0.6362-0.5195
			c0.3481-0.4272,0.708-0.8462,1.0811-1.2539l0.6069,0.5552C20.0986,22.0811,19.7485,22.4893,19.4106,22.9043z M63.6748,20.4434
			c-0.3823-0.375-0.7764-0.7417-1.1787-1.0977l0.5459-0.6167c0.4116,0.3657,0.8159,0.7417,1.208,1.1265L63.6748,20.4434z
			 M22.748,19.4189l-0.5454-0.6133c0.4102-0.3662,0.833-0.7222,1.2646-1.0654l0.5103,0.6436
			C23.5586,18.7183,23.1494,19.063,22.748,19.4189z M59.9717,17.3447c-0.4365-0.3081-0.8843-0.6064-1.3379-0.8936l0.4399-0.6953
			c0.4668,0.2954,0.9243,0.6001,1.374,0.9214L59.9717,17.3447z M26.6006,16.5137l-0.4424-0.6938
			c0.4634-0.2954,0.9355-0.5796,1.4175-0.8511l0.4043,0.7163C27.5117,15.9502,27.0522,16.2241,26.6006,16.5137z M55.8237,14.8823
			c-0.4819-0.2373-0.9702-0.4585-1.4648-0.6709l0.3203-0.7559c0.5088,0.2163,1.0137,0.4443,1.5073,0.688L55.8237,14.8823z
			 M30.8618,14.2598l-0.3247-0.7578c0.5049-0.2153,1.0161-0.4189,1.5347-0.6099l0.2827,0.7734
			C31.8491,13.8501,31.353,14.0479,30.8618,14.2598z M51.3335,13.1138c-0.5117-0.1543-1.0303-0.2954-1.5542-0.4243l0.1963-0.7959
			c0.5366,0.1299,1.0679,0.2754,1.5957,0.4331L51.3335,13.1138z M35.4321,12.7197l-0.1992-0.7974
			c0.5352-0.1323,1.0742-0.2505,1.6172-0.355l0.1533,0.8076C36.4741,12.4741,35.9507,12.5903,35.4321,12.7197z M46.6152,12.0981
			c-0.5288-0.0703-1.064-0.1245-1.6006-0.1675l0.064-0.8188c0.5527,0.043,1.1001,0.1011,1.646,0.1709L46.6152,12.0981z
			 M40.1904,11.9399l-0.0674-0.8193c0.5474-0.0449,1.0962-0.0752,1.6504-0.0913l0.0259,0.8218
			C41.2583,11.8672,40.7222,11.8965,40.1904,11.9399z"/>
	</g>
	<g>
		<path class="st67" d="M42.5845,74.1426c-0.5781-0.0127-1.1626-0.0127-1.7393-0.042l0.043-0.8218
			c0.563,0.0288,1.1099,0.0352,1.6963,0.041c0.269,0,0.5361-0.0024,0.8022-0.0103l0.0234,0.8213
			C43.1353,74.1392,42.8608,74.1426,42.5845,74.1426z M45.0708,74.0415l-0.0635-0.8193c0.542-0.0435,1.0781-0.0972,1.6133-0.1685
			l0.106,0.8149C46.1792,73.9399,45.627,73.9976,45.0708,74.0415z M39.1851,73.9722c-0.5552-0.0566-1.104-0.1274-1.6494-0.2124
			l0.1255-0.812c0.5332,0.0835,1.0679,0.1528,1.6084,0.209L39.1851,73.9722z M48.3696,73.6128l-0.1475-0.8096
			c0.5337-0.0957,1.0615-0.2085,1.5864-0.3325l0.1895,0.7998C49.4604,73.3975,48.9165,73.5132,48.3696,73.6128z M35.8979,73.4648
			c-0.5439-0.1133-1.085-0.2393-1.6211-0.3813l0.2085-0.7935c0.5234,0.1372,1.0483,0.2617,1.5796,0.3716L35.8979,73.4648z
			 M51.6064,72.8447l-0.231-0.7891c0.522-0.1509,1.0366-0.3169,1.5449-0.4951l0.2729,0.7754
			C52.6694,72.519,52.1411,72.6895,51.6064,72.8447z M32.6777,72.6216c-0.5317-0.168-1.0557-0.3511-1.5747-0.5469l0.2886-0.769
			c0.5054,0.1909,1.0181,0.3682,1.5366,0.5327L32.6777,72.6216z M54.7446,71.7485l-0.3105-0.7607
			c0.5005-0.2036,0.9951-0.4224,1.4834-0.6504l0.3501,0.7451C55.7666,71.3169,55.2593,71.5386,54.7446,71.7485z M29.5581,71.4453
			c-0.5112-0.2217-1.0161-0.4575-1.5112-0.7065l0.3696-0.7349c0.4819,0.2417,0.9731,0.4717,1.4692,0.6899L29.5581,71.4453z
			 M57.7539,70.3354l-0.3887-0.7241c0.4771-0.2544,0.9468-0.521,1.4092-0.7988l0.4243,0.7031
			C58.7236,69.8008,58.2437,70.0747,57.7539,70.3354z M26.5767,69.9585c-0.4844-0.2764-0.9595-0.5615-1.4287-0.8569l0.4404-0.6934
			c0.4561,0.2881,0.9214,0.5674,1.3936,0.8345L26.5767,69.9585z M60.6006,68.6226l-0.4595-0.6821
			c0.4478-0.3018,0.8887-0.6152,1.3228-0.939l0.4912,0.6587C61.5122,67.9922,61.0605,68.313,60.6006,68.6226z M23.7661,68.1714
			c-0.4546-0.3203-0.897-0.6528-1.334-0.9961l0.5107-0.646c0.4233,0.334,0.8569,0.6582,1.2983,0.9717L23.7661,68.1714z
			 M63.2588,66.626l-0.5269-0.6333c0.416-0.3423,0.8237-0.6992,1.2202-1.0664l0.5586,0.6035
			C64.1016,65.9067,63.6846,66.2725,63.2588,66.626z M21.1509,66.1094c-0.417-0.3662-0.8252-0.7422-1.2246-1.127l0.5708-0.5913
			c0.3906,0.376,0.7886,0.7422,1.1963,1.1001L21.1509,66.1094z M65.7051,64.3701l-0.5879-0.5767
			c0.3789-0.3848,0.7466-0.7817,1.105-1.187l0.6167,0.5459C66.4707,63.5679,66.0933,63.9731,65.7051,64.3701z M18.7622,63.7935
			c-0.3789-0.4043-0.7471-0.8198-1.105-1.2451l0.6294-0.5298c0.3491,0.4136,0.707,0.8184,1.0762,1.2158L18.7622,63.7935z
			 M67.9097,61.8765l-0.6426-0.5132c0.3369-0.4238,0.665-0.854,0.9795-1.293l0.6675,0.478
			C68.5898,61.001,68.2563,61.4443,67.9097,61.8765z M16.6216,61.2476c-0.333-0.4395-0.6582-0.8901-0.9707-1.3481l0.6777-0.4653
			c0.3062,0.4473,0.6206,0.8857,0.9487,1.3174L16.6216,61.2476z M69.8491,59.1689l-0.6914-0.4448
			c0.2915-0.4526,0.5723-0.917,0.8423-1.3867l0.7124,0.4072C70.436,58.2271,70.1489,58.7021,69.8491,59.1689z M14.7485,58.4995
			c-0.2871-0.4722-0.5635-0.9541-0.8262-1.4414l0.7217-0.3887c0.2573,0.4746,0.5269,0.9414,0.8076,1.4028L14.7485,58.4995z
			 M71.5039,56.2773l-0.7358-0.3691c0.2461-0.4854,0.4771-0.9741,0.6973-1.4712l0.7515,0.3345
			C71.9902,55.2803,71.752,55.7832,71.5039,56.2773z M13.1714,55.5762c-0.2373-0.499-0.4619-1.0063-0.6743-1.519l0.7593-0.3145
			c0.208,0.4995,0.4263,0.9932,0.6577,1.48L13.1714,55.5762z M72.8511,53.2305l-0.7671-0.2954
			c0.1914-0.5044,0.3735-1.0161,0.542-1.5317l0.7803,0.2539C73.2339,52.187,73.0503,52.7109,72.8511,53.2305z M11.9004,52.5078
			c-0.186-0.52-0.3584-1.0479-0.5171-1.5811l0.7871-0.2363c0.1558,0.5205,0.3242,1.0342,0.5039,1.5415L11.9004,52.5078z
			 M73.8779,50.061l-0.793-0.2114c0.1392-0.5239,0.2651-1.0483,0.3789-1.5796l0.8022,0.1699
			C74.1528,48.9858,74.0215,49.5249,73.8779,50.061z M10.9502,49.3179c-0.1299-0.5381-0.2471-1.0806-0.3496-1.6274l0.8086-0.1509
			c0.0996,0.5342,0.2144,1.061,0.3403,1.5859L10.9502,49.3179z M74.5723,46.8062l-0.813-0.1284
			c0.0869-0.5332,0.1577-1.0693,0.2139-1.6089l0.8188,0.0864C74.7324,45.7104,74.6592,46.2598,74.5723,46.8062z M10.3335,46.0483
			c-0.0737-0.5464-0.1353-1.0986-0.1812-1.6538l0.8188-0.0693c0.0464,0.5415,0.1045,1.0796,0.1782,1.6138L10.3335,46.0483z
			 M74.9263,43.4985l-0.8218-0.0464c0.0308-0.5381,0.0464-1.0791,0.0498-1.623l0.8228,0.0063
			C74.9731,42.3926,74.9575,42.9463,74.9263,43.4985z M10.0576,42.7324c-0.0112-0.3516-0.0181-0.7041-0.0161-1.0591l0.0049-0.6035
			l0.8223,0.0127l-0.0049,0.5923c-0.0015,0.3472,0.0049,0.6899,0.0166,1.0308L10.0576,42.7324z M74.1206,40.209
			c-0.0254-0.5439-0.0645-1.0835-0.1172-1.6196l0.8188-0.0801c0.0527,0.5483,0.0918,1.1011,0.1201,1.6597L74.1206,40.209z
			 M10.9395,39.4629l-0.8188-0.0581c0.0376-0.5552,0.0894-1.1079,0.1567-1.6567l0.8159,0.0996
			C11.0293,38.3818,10.9775,38.9204,10.9395,39.4629z M73.8081,36.981c-0.082-0.5391-0.1758-1.0723-0.2817-1.5991l0.8066-0.1636
			c0.1089,0.5425,0.2051,1.0884,0.2871,1.6401L73.8081,36.981z M11.3306,36.2437l-0.8086-0.1411
			c0.0957-0.5493,0.2031-1.0933,0.3267-1.6323l0.8032,0.1826C11.5313,35.1792,11.4233,35.7095,11.3306,36.2437z M73.1641,33.8003
			c-0.1348-0.5249-0.2837-1.0454-0.4453-1.5591l0.7832-0.2471c0.1675,0.5288,0.3198,1.063,0.458,1.6025L73.1641,33.8003z
			 M12.0483,33.0825l-0.79-0.2241c0.1509-0.5361,0.3154-1.0659,0.4951-1.5894l0.7769,0.2661
			C12.3564,32.0439,12.1963,32.5596,12.0483,33.0825z M72.1958,30.7065c-0.188-0.5068-0.3896-1.0078-0.6025-1.502l0.7549-0.3252
			c0.2183,0.5078,0.4238,1.022,0.6177,1.542L72.1958,30.7065z M13.0913,30.0068l-0.7637-0.3047
			c0.207-0.5166,0.4258-1.0273,0.6572-1.5317l0.7476,0.3418C13.5073,29.0039,13.292,29.5034,13.0913,30.0068z M70.917,27.7334
			c-0.2412-0.4849-0.4917-0.9629-0.7534-1.4346l0.7158-0.4023c0.2715,0.4854,0.5288,0.9736,0.7734,1.4746L70.917,27.7334z
			 M14.4482,27.0566l-0.729-0.3818c0.2588-0.4927,0.5278-0.978,0.8125-1.4565l0.7065,0.4189
			C14.9634,26.1025,14.7007,26.5767,14.4482,27.0566z M69.3359,24.9048c-0.2866-0.459-0.585-0.9077-0.895-1.3501l0.6714-0.4717
			c0.3188,0.4541,0.6274,0.9165,0.9204,1.3848L69.3359,24.9048z M16.0967,24.2598l-0.6831-0.4561
			c0.3062-0.4624,0.6235-0.9185,0.9531-1.3633l0.6616,0.4883C16.7085,23.3638,16.3975,23.8066,16.0967,24.2598z M67.4756,22.2495
			c-0.332-0.4253-0.6758-0.8442-1.0303-1.252l0.6226-0.5381c0.3613,0.4189,0.7148,0.8481,1.0562,1.2861L67.4756,22.2495z
			 M18.0244,21.6455l-0.6357-0.519c0.3521-0.4287,0.7153-0.8496,1.0898-1.2607l0.606,0.5537
			C18.7202,20.8188,18.3667,21.2285,18.0244,21.6455z M65.3535,19.7998c-0.3755-0.3916-0.7588-0.7739-1.1523-1.144l0.5649-0.5977
			c0.4028,0.3809,0.7959,0.7705,1.1821,1.1699L65.3535,19.7998z M20.2056,19.2441l-0.5776-0.5811
			c0.3926-0.3916,0.7959-0.7734,1.2085-1.1431l0.5488,0.6118C20.9819,18.4932,20.5889,18.8643,20.2056,19.2441z M62.9951,17.5718
			c-0.4126-0.3496-0.833-0.6904-1.2632-1.0195l0.501-0.6519c0.4395,0.3394,0.873,0.6855,1.2949,1.0454L62.9951,17.5718z
			 M22.6196,17.0786l-0.5171-0.6392c0.4307-0.3481,0.8701-0.6865,1.3213-1.0122l0.4819,0.6641
			C23.4678,16.4092,23.04,16.7402,22.6196,17.0786z M60.4165,15.5967c-0.4463-0.3047-0.8979-0.6016-1.3589-0.8853l0.4302-0.7007
			c0.4741,0.2925,0.938,0.5938,1.395,0.9097L60.4165,15.5967z M25.2388,15.167l-0.4502-0.687
			c0.4639-0.3022,0.9341-0.5938,1.415-0.874l0.4131,0.7104C26.1504,14.5889,25.689,14.8716,25.2388,15.167z M57.6558,13.895
			c-0.4751-0.2603-0.9565-0.5073-1.4453-0.7446l0.3569-0.7388c0.5015,0.2417,0.9951,0.4951,1.4824,0.7607L57.6558,13.895z
			 M28.0366,13.5376l-0.376-0.7305c0.4902-0.2539,0.9893-0.4946,1.4951-0.7241l0.3403,0.7471
			C29.0024,13.0537,28.5166,13.2905,28.0366,13.5376z M54.7285,12.4819c-0.499-0.208-1.0044-0.4043-1.5151-0.5889l0.2798-0.7734
			c0.5234,0.1875,1.0425,0.3906,1.5532,0.605L54.7285,12.4819z M30.9858,12.2017l-0.3022-0.7656
			c0.5171-0.2026,1.0386-0.3926,1.5674-0.5688l0.2598,0.7798C31.9951,11.8193,31.4868,12.0039,30.9858,12.2017z M51.6709,11.3813
			c-0.5171-0.1572-1.0386-0.2998-1.5635-0.4307l0.1953-0.7979c0.542,0.1343,1.0757,0.2808,1.606,0.4424L51.6709,11.3813z
			 M34.062,11.1724l-0.2188-0.79c0.5332-0.1494,1.0708-0.2822,1.6128-0.4038l0.1797,0.8022
			C35.106,10.8989,34.5811,11.0298,34.062,11.1724z M48.5249,10.6025c-0.5288-0.1025-1.0625-0.1909-1.6016-0.2661l0.1162-0.814
			c0.5503,0.0771,1.0977,0.1685,1.6416,0.2725L48.5249,10.6025z M37.2271,10.4697l-0.1377-0.8096
			c0.5454-0.0933,1.0947-0.1704,1.6475-0.2344l0.0957,0.8154C38.2935,10.3057,37.7573,10.3794,37.2271,10.4697z M45.3101,10.1528
			c-0.5327-0.0464-1.0737-0.0815-1.6157-0.1006L43.7227,9.23c0.5586,0.0205,1.1118,0.0552,1.6616,0.1045L45.3101,10.1528z
			 M40.4492,10.0957L40.395,9.2749c0.5518-0.0352,1.106-0.0576,1.6641-0.0645l0.0093,0.8223
			C41.5264,10.0391,40.9858,10.0601,40.4492,10.0957z"/>
	</g>
</g>
<g id="Wolken" class="st101">
	<g class="st74">
		<path class="st68" d="M96.981,42.9624h-1.3672c-1.3643-2.6553-4.3086-4.4985-7.7295-4.4985c-2.394,0-4.5571,0.9023-6.1099,2.3535
			c-1.5659-1.7354-3.9375-2.8408-6.5913-2.8408c-2.708,0-5.1172,1.1533-6.6831,2.9497c-0.1328-0.0059-0.2642-0.0186-0.3994-0.0186
			c-2.7256,0-5.0732,1.5991-6.1714,3.9072h-2.1318c-3.5078,0-6.3511,2.8428-6.3511,6.3511c0,3.5063,2.8433,6.3491,6.3511,6.3491
			h7.4956c1.3916,1.8945,3.4546,3.1006,5.7651,3.1006H96.981c4.1909,0,7.5859-3.9531,7.5859-8.8267
			C104.5669,46.9131,101.1719,42.9624,96.981,42.9624z"/>
		<path class="st5" d="M63.0981,48.418c0,0.4849-0.3921,0.877-0.8765,0.877h-3.5107c-0.4854,0-0.8765-0.3921-0.8765-0.877l0,0
			c0-0.4854,0.3911-0.877,0.8765-0.877h3.5107C62.7061,47.541,63.0981,47.9326,63.0981,48.418L63.0981,48.418z"/>
	</g>
</g>
<g class="st101">
</g>
</svg>
