<?xml version="1.0" encoding="utf-8"?>
<!-- Generator: Adobe Illustrator 16.0.0, SVG Export Plug-In . SVG Version: 6.00 Build 0)  -->
<!DOCTYPE svg PUBLIC "-//W3C//DTD SVG 1.1//EN" "http://www.w3.org/Graphics/SVG/1.1/DTD/svg11.dtd">
<svg version="1.1" id="Ebene_1" xmlns="http://www.w3.org/2000/svg" xmlns:xlink="http://www.w3.org/1999/xlink" x="0px" y="0px"
	 width="1051.445px" height="506.845px" viewBox="0 0 1051.445 506.845" style="enable-background:new 0 0 1051.445 506.845;"
	 xml:space="preserve">
<style type="text/css">
<![CDATA[
	.st0{fill:#476F9E;}
	.st1{display:inline;fill:#4E4D4D;}
	.st2{fill:#E07900;}
	.st3{fill:url(#SVGID_11_);stroke:#000000;stroke-width:0.5;stroke-miterlimit:10;}
	.st4{fill:url(#SVGID_24_);stroke:#000000;stroke-width:0.5;stroke-miterlimit:10;}
	.st5{fill:#E8E8E5;}
	.st6{fill:#4E4D4D;}
	.st7{display:inline;fill:url(#SVGID_54_);stroke:#000000;stroke-width:0.2;stroke-miterlimit:10;}
	.st8{fill:url(#SVGID_45_);stroke:#000000;stroke-width:0.5;stroke-miterlimit:10;}
	.st9{fill:url(#SVGID_21_);stroke:#000000;stroke-width:0.2;stroke-miterlimit:10;}
	.st10{fill:url(#SVGID_9_);stroke:#000000;stroke-width:0.5;stroke-miterlimit:10;}
	.st11{fill:#B3946D;}
	.st12{display:none;fill:url(#SVGID_14_);}
	.st13{display:none;fill:url(#SVGID_15_);}
	.st14{display:none;fill:url(#SVGID_16_);}
	.st15{display:none;fill:url(#SVGID_18_);}
	.st16{display:none;fill:url(#SVGID_19_);}
	.st17{display:none;fill:url(#SVGID_28_);}
	.st18{display:none;fill:url(#SVGID_29_);}
	.st19{display:none;fill:url(#SVGID_30_);}
	.st20{display:none;fill:url(#SVGID_37_);}
	.st21{display:none;fill:url(#SVGID_38_);}
	.st22{display:none;fill:url(#SVGID_47_);}
	.st23{display:none;fill:url(#SVGID_48_);}
	.st24{display:none;fill:url(#SVGID_49_);}
	.st25{display:inline;fill:#8DB54C;}
	.st26{fill:#EDCEAB;}
	.st27{display:inline;fill:#8F6626;}
	.st28{fill:#EFD329;}
	.st29{display:none;fill:url(#SVGID_5_);}
	.st30{display:none;fill:url(#SVGID_6_);}
	.st31{fill:url(#SVGID_12_);stroke:#000000;stroke-width:0.5;stroke-miterlimit:10;}
	.st32{fill:url(#SVGID_25_);stroke:#000000;stroke-width:0.5;stroke-miterlimit:10;}
	.st33{fill:#8A5D3B;}
	.st34{fill:#BA4729;}
	.st35{fill:#57B049;}
	.st36{fill:url(#SVGID_20_);stroke:#000000;stroke-width:0.5;stroke-miterlimit:10;}
	.st37{display:inline;fill:#29405C;}
	.st38{display:inline;fill:url(#SVGID_55_);stroke:#000000;stroke-width:0.2;stroke-miterlimit:10;}
	.st39{fill:url(#SVGID_46_);stroke:#000000;stroke-width:0.5;stroke-miterlimit:10;}
	.st40{display:inline;fill:#C0282D;}
	.st41{fill:url(#SVGID_41_);stroke:#000000;stroke-width:0.5;stroke-miterlimit:10;}
	.st42{display:inline;fill:url(#SVGID_32_);}
	.st43{display:inline;fill:url(#SVGID_33_);}
	.st44{display:inline;fill:url(#SVGID_34_);}
	.st45{display:inline;fill:url(#SVGID_35_);}
	.st46{display:inline;fill:url(#SVGID_50_);}
	.st47{display:inline;fill:url(#SVGID_51_);}
	.st48{display:inline;fill:url(#SVGID_1_);stroke:#000000;stroke-width:0.2;stroke-miterlimit:10;}
	.st49{fill:#29405C;}
	.st50{fill:#F7E6D2;}
	.st51{display:inline;fill:#FFFFFF;}
	.st52{fill:#C24A2A;}
	.st53{fill:url(#SVGID_4_);}
	.st54{fill:url(#SVGID_13_);stroke:#000000;stroke-width:0.5;stroke-miterlimit:10;}
	.st55{fill:#C3996B;}
	.st56{fill:url(#SVGID_26_);stroke:#000000;stroke-width:0.5;stroke-miterlimit:10;}
	.st57{fill:url(#SVGID_39_);stroke:#000000;stroke-width:0.5;stroke-miterlimit:10;}
	.st58{display:inline;opacity:0.2;fill:#FFFBD4;}
	.st59{fill:#2DA34A;}
	.st60{display:inline;fill:url(#SVGID_56_);stroke:#000000;stroke-width:0.2;stroke-miterlimit:10;}
	.st61{fill:#FDC806;}
	.st62{fill:#603813;}
	.st63{fill:#FF6138;}
	.st64{fill:#FF8900;}
	.st65{fill:#FF9F30;}
	.st66{fill:#FFA28A;}
	.st67{fill:#FFC738;}
	.st68{fill:#FFFFFF;}
	.st69{fill:url(#SVGID_42_);stroke:#000000;stroke-width:0.5;stroke-miterlimit:10;}
	.st70{fill:none;}
	.st71{display:inline;fill:url(#SVGID_2_);stroke:#000000;stroke-width:0.2;stroke-miterlimit:10;}
	.st72{display:inline;fill:#6A8F2E;}
	.st73{fill:#9C9C87;}
	.st74{display:inline;}
	.st75{display:inline;fill:#EEE300;stroke:#398E35;stroke-width:0.2;stroke-miterlimit:10;}
	.st76{fill:url(#SVGID_27_);stroke:#000000;stroke-width:0.5;stroke-miterlimit:10;}
	.st77{display:inline;fill:url(#SVGID_31_);stroke:#000000;stroke-width:0.2;stroke-miterlimit:10;}
	.st78{fill:url(#SVGID_22_);stroke:#000000;stroke-width:0.5;stroke-miterlimit:10;}
	.st79{display:inline;opacity:0.25;fill:#5B2689;}
	.st80{fill:#00642B;}
	.st81{fill:#007AA3;}
	.st82{fill:#007C38;}
	.st83{fill:#0092C4;}
	.st84{fill:#009345;}
	.st85{fill:#00A1D9;}
	.st86{display:inline;fill:url(#SVGID_52_);stroke:#000000;stroke-width:0.2;stroke-miterlimit:10;}
	.st87{fill:#02A7B6;}
	.st88{fill:url(#SVGID_43_);stroke:#000000;stroke-width:0.5;stroke-miterlimit:10;}
	.st89{fill-rule:evenodd;clip-rule:evenodd;fill:#FFFFFF;}
	.st90{fill:#D17100;}
	.st91{fill:none;stroke:#FFFFFF;stroke-width:0.1;stroke-miterlimit:10;}
	.st92{fill:#04909C;}
	.st93{display:inline;fill:#A2AFBC;}
	.st94{display:inline;fill:url(#SVGID_3_);stroke:#000000;stroke-width:0.2;stroke-miterlimit:10;}
	.st95{fill:url(#SVGID_7_);stroke:#000000;stroke-width:0.5;stroke-miterlimit:10;}
	.st96{fill:#D48E3E;}
	.st97{fill:#076972;}
	.st98{fill:url(#SVGID_17_);}
	.st99{fill:url(#SVGID_36_);}
	.st100{fill:url(#SVGID_40_);}
	.st101{display:none;}
	.st102{fill:#754C28;}
	.st103{fill:url(#SVGID_10_);stroke:#000000;stroke-width:0.5;stroke-miterlimit:10;}
	.st104{fill:url(#SVGID_23_);stroke:#000000;stroke-width:0.5;stroke-miterlimit:10;}
	.st105{display:inline;fill:#7AC5FC;}
	.st106{display:inline;fill:url(#SVGID_53_);stroke:#000000;stroke-width:0.2;stroke-miterlimit:10;}
	.st107{fill:url(#SVGID_44_);stroke:#000000;stroke-width:0.5;stroke-miterlimit:10;}
	.st108{fill:url(#SVGID_8_);stroke:#000000;stroke-width:0.5;stroke-miterlimit:10;}
	.st109{display:inline;fill:none;stroke:#000000;stroke-width:0.2;stroke-miterlimit:10;}
]]>
</style>
<g id="Hintergrund" class="st101">
	<rect x="-935.464" class="st105" width="1150.741" height="424.65"/>
	<rect x="-935.464" y="299.713" class="st72" width="1150.741" height="207.132"/>
</g>
<g class="st101">
	<path class="st58" d="M-242.358-290.957c-818.567,0-1548.567,210.112-2024.033,538.324
		C-1904.238,664.811-1134.02,952.96-242.358,952.96c891.662,0,1661.881-288.149,2024.03-705.592
		C1306.215-80.843,576.21-290.957-242.358-290.957z"/>
	<path class="st58" d="M-242.358-290.957c-572.846,0-1102.311,102.91-1531.531,277.175
		c210.423,357.322,816.524,615.528,1531.531,615.528c715.015,0,1321.108-258.206,1531.529-615.529
		C859.961-188.046,330.492-290.957-242.358-290.957z"/>
	<path class="st58" d="M-242.358-290.957c-381.806,0-744.338,45.721-1070.769,127.804
		c105.911,273.828,545.048,479.139,1070.769,479.139c525.723,0,964.855-205.311,1070.774-479.137
		C501.984-245.236,139.452-290.957-242.358-290.957z"/>
	<path class="st58" d="M-242.358-290.957c-258.212,0-507.609,20.914-742.991,59.839c52.362,201.429,365.039,356.222,742.991,356.222
		c377.954,0,690.632-154.791,742.995-356.222C265.254-270.043,15.861-290.957-242.358-290.957z"/>
</g>
<g class="st101">
	<g>
		<g class="st74">
			<g>
				<linearGradient id="SVGID_1_" gradientUnits="userSpaceOnUse" x1="185.918" y1="377.6812" x2="185.918" y2="493.972">
					<stop  offset="0" style="stop-color:#3C3C3A"/>
					<stop  offset="1" style="stop-color:#000000"/>
				</linearGradient>
				<path style="display:none;fill:url(#SVGID_1_);" d="M322.449,479.575c0,7.61-7.744,13.785-17.298,13.785H66.676
					c-9.547,0-17.288-6.175-17.288-13.785v-85.572c0-7.603,7.741-13.771,17.288-13.771h238.476c9.554,0,17.298,6.169,17.298,13.771
					V479.575z"/>
				<linearGradient id="SVGID_2_" gradientUnits="userSpaceOnUse" x1="399.4043" y1="377.6812" x2="399.4043" y2="493.972">
					<stop  offset="0" style="stop-color:#3C3C3A"/>
					<stop  offset="1" style="stop-color:#000000"/>
				</linearGradient>
				<path style="display:none;fill:url(#SVGID_2_);" d="M461.014,479.575c0,7.61-7.735,13.785-17.283,13.785h-88.646
					c-9.553,0-17.291-6.175-17.291-13.785v-85.572c0-7.603,7.738-13.771,17.291-13.771h88.646c9.548,0,17.283,6.169,17.283,13.771
					V479.575z"/>
			</g>
		</g>
		<g class="st74">
			<g>
			</g>
		</g>
		<g class="st74">
			<g>
				
					<linearGradient id="SVGID_3_" gradientUnits="userSpaceOnUse" x1="-1214.6377" y1="378.1792" x2="-1214.6377" y2="494.47" gradientTransform="matrix(-1 0 0 1 -385.5957 0)">
					<stop  offset="0" style="stop-color:#3C3C3A"/>
					<stop  offset="1" style="stop-color:#000000"/>
				</linearGradient>
				<path style="display:none;fill:url(#SVGID_3_);" d="M692.511,480.074c0,7.612,7.742,13.785,17.293,13.785h238.485
					c9.538,0,17.283-6.172,17.283-13.785v-85.569c0-7.605-7.745-13.774-17.283-13.774H709.804c-9.551,0-17.293,6.169-17.293,13.774
					V480.074z"/>
				
					<linearGradient id="SVGID_4_" gradientUnits="userSpaceOnUse" x1="-1001.1563" y1="378.1792" x2="-1001.1563" y2="494.47" gradientTransform="matrix(-1 0 0 1 -385.5957 0)">
					<stop  offset="0" style="stop-color:#3C3C3A"/>
					<stop  offset="1" style="stop-color:#000000"/>
				</linearGradient>
				<path style="display:none;fill:url(#SVGID_4_);" d="M553.953,480.074c0,7.612,7.729,13.785,17.281,13.785h88.641
					c9.553,0,17.293-6.173,17.293-13.785v-85.569c0-7.605-7.74-13.774-17.293-13.774h-88.641c-9.553,0-17.281,6.169-17.281,13.774
					V480.074z"/>
			</g>
		</g>
		<g class="st74">
			<g>
				<path class="st49" d="M97.911,531.451c-0.486,0-0.971-0.207-1.313-0.604c-0.624-0.725-0.539-1.821,0.188-2.444l22.938-19.662
					l-16.218-19.46c-0.609-0.736-0.514-1.823,0.22-2.438c0.733-0.615,1.821-0.517,2.438,0.22l18.407,22.084L99.04,531.035
					C98.715,531.311,98.312,531.451,97.911,531.451z"/>
			</g>
		</g>
		<g class="st74">
			<g>
				<path class="st49" d="M814.617,531.451c-0.487,0-0.972-0.207-1.32-0.604c-0.619-0.725-0.537-1.82,0.191-2.444l22.938-19.662
					l-16.218-19.46c-0.609-0.736-0.514-1.823,0.224-2.438c0.729-0.615,1.825-0.517,2.435,0.22l18.407,22.084l-25.534,21.888
					C815.414,531.311,815.017,531.451,814.617,531.451z"/>
			</g>
		</g>
	</g>
	<g class="st74">
		<path class="st49" d="M1127.799,480.778H-948.86c-0.409,0-0.742-0.334-0.742-0.743c0-0.407,0.333-0.741,0.742-0.741h2076.659
			c0.409,0,0.742,0.334,0.742,0.743C1128.541,480.444,1128.208,480.778,1127.799,480.778z"/>
	</g>
	<g class="st74">
		<path class="st49" d="M1127.799,484.738H-948.86c-0.409,0-0.742-0.333-0.742-0.742s0.333-0.741,0.742-0.741h2076.659
			c0.409,0,0.742,0.332,0.742,0.741S1128.208,484.738,1127.799,484.738z"/>
	</g>
</g>
<g id="Wolken" class="st101">
	<g class="st74">
		<path class="st68" d="M46.512,192.74c-0.286-5.092-4.882-9.141-10.521-9.141c-2.957,0-5.623,1.114-7.539,2.903
			c-1.936-2.143-4.862-3.507-8.135-3.507c-3.343,0-6.317,1.425-8.251,3.641c-0.164-0.008-0.326-0.022-0.493-0.022
			c-3.364,0-6.262,1.973-7.617,4.822H1.325c-4.328,0-7.838,3.509-7.838,7.838c0,4.328,3.51,7.837,7.838,7.837h15.129
			c1.207,0.759,2.633,1.203,4.162,1.203h24.719c4.329,0,7.838-3.508,7.838-7.837C53.173,196.55,50.281,193.308,46.512,192.74z"/>
		<path class="st5" d="M46.881,195.218c0.997,1.338,1.613,3.163,1.613,5.179s-0.616,3.84-1.613,5.179
			c1.979-0.886,3.36-2.871,3.36-5.179C50.241,198.089,48.86,196.105,46.881,195.218z"/>
		<path class="st5" d="M13.57,203.513c0,0.724-0.587,1.31-1.309,1.31H0.036c-0.725,0-1.311-0.586-1.311-1.31l0,0
			c0-0.724,0.586-1.308,1.311-1.308h12.226C12.983,202.206,13.57,202.789,13.57,203.513L13.57,203.513z"/>
	</g>
	<g class="st74">
		<path class="st68" d="M133.097,152.119h-4.305c0.247-0.759,0.383-1.572,0.383-2.413c0-4.331-3.512-7.844-7.844-7.844
			c-2.229,0-4.234,0.934-5.663,2.425c-1.354,0.045-2.613,0.456-3.683,1.146c-0.784-2.421-3.057-4.173-5.737-4.173
			c-2.239,0-4.19,1.224-5.231,3.036c-2.677,0.165-4.92,1.909-5.814,4.314c-0.327-0.071-0.67-0.111-1.02-0.111
			c-2.664,0-4.827,2.161-4.827,4.825c0,2.669,2.163,4.829,4.827,4.829c0.362,0,0.717-0.044,1.055-0.122
			c0.905,2.195,3.063,3.741,5.58,3.741h15.085c1.154,0,2.229-0.331,3.146-0.892c0.88,0.919,2.117,1.496,3.49,1.496
			c1.783,0,3.341-0.972,4.175-2.414h6.384c2.165,0,3.92-1.755,3.92-3.921C137.017,153.875,135.262,152.119,133.097,152.119z"/>
		<path class="st5" d="M100.925,148.141c1.328-1.947,3.817-3.261,6.676-3.261c0.523,0,1.035,0.044,1.53,0.129
			c-0.858-0.468-1.839-0.732-2.883-0.732c-2.239,0-4.19,1.223-5.231,3.038c-1.771,0.105-3.353,0.908-4.482,2.135
			C97.787,148.697,99.294,148.226,100.925,148.141z"/>
		<path class="st5" d="M134.604,154.833c0,0.501-0.541,0.906-1.207,0.906h-3.018c-0.666,0-1.205-0.405-1.205-0.906l0,0
			c0-0.499,0.539-0.905,1.205-0.905h3.018C134.063,153.928,134.604,154.334,134.604,154.833L134.604,154.833z"/>
	</g>
</g>
<g>
	<g>
		<g>
			<rect x="541.192" y="257.198" class="st26" width="88.954" height="175.438"/>
			<rect x="558.579" y="275.35" class="st96" width="9.707" height="10.512"/>
			<path class="st50" d="M567.478,276.159v8.897h-8.088v-8.897H567.478L567.478,276.159z M568.286,275.35h-9.707v10.512h9.707
				V275.35L568.286,275.35z"/>
			<rect x="567.478" y="275.35" class="st96" width="9.7" height="10.512"/>
			<path class="st50" d="M576.372,276.159v8.897h-8.086v-8.897H576.372L576.372,276.159z M577.178,275.35h-9.7v10.512h9.7V275.35
				L577.178,275.35z"/>
			<rect x="576.372" y="275.35" class="st96" width="9.704" height="10.512"/>
			<path class="st50" d="M585.266,276.159v8.897h-8.088v-8.897H585.266L585.266,276.159z M586.076,275.35h-9.704v10.512h9.704
				V275.35L586.076,275.35z"/>
			<rect x="585.266" y="275.35" class="st96" width="9.708" height="10.512"/>
			<path class="st50" d="M594.162,276.159v8.897h-8.086v-8.897H594.162L594.162,276.159z M594.974,275.35h-9.708v10.512h9.708
				V275.35L594.974,275.35z"/>
			<rect x="594.162" y="275.35" class="st96" width="9.703" height="10.512"/>
			<path class="st50" d="M603.059,276.159v8.897h-8.085v-8.897H603.059L603.059,276.159z M603.865,275.35h-9.703v10.512h9.703
				V275.35L603.865,275.35z"/>
			<rect x="603.059" y="275.35" class="st96" width="9.702" height="10.512"/>
			<path class="st50" d="M611.95,276.159v8.897h-8.085v-8.897H611.95L611.95,276.159z M612.761,275.35h-9.702v10.512h9.702V275.35
				L612.761,275.35z"/>
			<rect x="558.579" y="296.374" class="st96" width="9.707" height="10.514"/>
			<path class="st50" d="M567.478,297.187v8.894h-8.088v-8.894H567.478L567.478,297.187z M568.286,296.374h-9.707v10.514h9.707
				V296.374L568.286,296.374z"/>
			<rect x="567.478" y="296.374" class="st96" width="9.7" height="10.514"/>
			<path class="st50" d="M576.372,297.187v8.894h-8.086v-8.894H576.372L576.372,297.187z M577.178,296.374h-9.7v10.514h9.7V296.374
				L577.178,296.374z"/>
			<rect x="576.372" y="296.374" class="st96" width="9.704" height="10.514"/>
			<path class="st50" d="M585.266,297.187v8.894h-8.088v-8.894H585.266L585.266,297.187z M586.076,296.374h-9.704v10.514h9.704
				V296.374L586.076,296.374z"/>
			<rect x="585.266" y="296.374" class="st96" width="9.708" height="10.514"/>
			<path class="st50" d="M594.162,297.187v8.894h-8.086v-8.894H594.162L594.162,297.187z M594.974,296.374h-9.708v10.514h9.708
				V296.374L594.974,296.374z"/>
			<rect x="594.162" y="296.374" class="st96" width="9.703" height="10.514"/>
			<path class="st50" d="M603.059,297.187v8.894h-8.085v-8.894H603.059L603.059,297.187z M603.865,296.374h-9.703v10.514h9.703
				V296.374L603.865,296.374z"/>
			<rect x="603.059" y="296.374" class="st96" width="9.702" height="10.514"/>
			<path class="st50" d="M611.95,297.187v8.894h-8.085v-8.894H611.95L611.95,297.187z M612.761,296.374h-9.702v10.514h9.702V296.374
				L612.761,296.374z"/>
			<rect x="558.579" y="317.399" class="st96" width="9.707" height="10.517"/>
			<path class="st50" d="M567.478,318.21v8.896h-8.088v-8.896H567.478L567.478,318.21z M568.286,317.399h-9.707v10.517h9.707
				V317.399L568.286,317.399z"/>
			<rect x="567.478" y="317.399" class="st96" width="9.7" height="10.517"/>
			<path class="st50" d="M576.372,318.21v8.896h-8.086v-8.896H576.372L576.372,318.21z M577.178,317.399h-9.7v10.517h9.7V317.399
				L577.178,317.399z"/>
			<rect x="576.372" y="317.399" class="st96" width="9.704" height="10.517"/>
			<path class="st50" d="M585.266,318.21v8.896h-8.088v-8.896H585.266L585.266,318.21z M586.076,317.399h-9.704v10.517h9.704
				V317.399L586.076,317.399z"/>
			<rect x="585.266" y="317.399" class="st96" width="9.708" height="10.517"/>
			<path class="st50" d="M594.162,318.21v8.896h-8.086v-8.896H594.162L594.162,318.21z M594.974,317.399h-9.708v10.517h9.708
				V317.399L594.974,317.399z"/>
			<rect x="594.162" y="317.399" class="st96" width="9.703" height="10.517"/>
			<path class="st50" d="M603.059,318.21v8.896h-8.085v-8.896H603.059L603.059,318.21z M603.865,317.399h-9.703v10.517h9.703
				V317.399L603.865,317.399z"/>
			<rect x="603.059" y="317.399" class="st96" width="9.702" height="10.517"/>
			<path class="st50" d="M611.95,318.21v8.896h-8.085v-8.896H611.95L611.95,318.21z M612.761,317.399h-9.702v10.517h9.702V317.399
				L612.761,317.399z"/>
			<rect x="558.579" y="338.424" class="st96" width="9.707" height="10.512"/>
			<path class="st50" d="M567.478,339.236v8.895h-8.088v-8.895H567.478L567.478,339.236z M568.286,338.424h-9.707v10.512h9.707
				V338.424L568.286,338.424z"/>
			<rect x="567.478" y="338.424" class="st96" width="9.7" height="10.512"/>
			<path class="st50" d="M576.372,339.236v8.895h-8.086v-8.895H576.372L576.372,339.236z M577.178,338.424h-9.7v10.512h9.7V338.424
				L577.178,338.424z"/>
			<rect x="576.372" y="338.424" class="st96" width="9.704" height="10.512"/>
			<path class="st50" d="M585.266,339.236v8.895h-8.088v-8.895H585.266L585.266,339.236z M586.076,338.424h-9.704v10.512h9.704
				V338.424L586.076,338.424z"/>
			<rect x="585.266" y="338.424" class="st96" width="9.708" height="10.512"/>
			<path class="st50" d="M594.162,339.236v8.895h-8.086v-8.895H594.162L594.162,339.236z M594.974,338.424h-9.708v10.512h9.708
				V338.424L594.974,338.424z"/>
			<rect x="594.162" y="338.424" class="st96" width="9.703" height="10.512"/>
			<path class="st50" d="M603.059,339.236v8.895h-8.085v-8.895H603.059L603.059,339.236z M603.865,338.424h-9.703v10.512h9.703
				V338.424L603.865,338.424z"/>
			<rect x="603.059" y="338.424" class="st96" width="9.702" height="10.512"/>
			<path class="st50" d="M611.95,339.236v8.895h-8.085v-8.895H611.95L611.95,339.236z M612.761,338.424h-9.702v10.512h9.702V338.424
				L612.761,338.424z"/>
			<rect x="558.579" y="359.453" class="st96" width="9.707" height="10.512"/>
			<path class="st50" d="M567.478,360.261v8.895h-8.088v-8.895H567.478L567.478,360.261z M568.286,359.453h-9.707v10.512h9.707
				V359.453L568.286,359.453z"/>
			<rect x="567.478" y="359.453" class="st96" width="9.7" height="10.512"/>
			<path class="st50" d="M576.372,360.261v8.895h-8.086v-8.895H576.372L576.372,360.261z M577.178,359.453h-9.7v10.512h9.7V359.453
				L577.178,359.453z"/>
			<rect x="576.372" y="359.453" class="st96" width="9.704" height="10.512"/>
			<path class="st50" d="M585.266,360.261v8.895h-8.088v-8.895H585.266L585.266,360.261z M586.076,359.453h-9.704v10.512h9.704
				V359.453L586.076,359.453z"/>
			<rect x="585.266" y="359.453" class="st96" width="9.708" height="10.512"/>
			<path class="st50" d="M594.162,360.261v8.895h-8.086v-8.895H594.162L594.162,360.261z M594.974,359.453h-9.708v10.512h9.708
				V359.453L594.974,359.453z"/>
			<rect x="594.162" y="359.453" class="st96" width="9.703" height="10.512"/>
			<path class="st50" d="M603.059,360.261v8.895h-8.085v-8.895H603.059L603.059,360.261z M603.865,359.453h-9.703v10.512h9.703
				V359.453L603.865,359.453z"/>
			<rect x="603.059" y="359.453" class="st96" width="9.702" height="10.512"/>
			<path class="st50" d="M611.95,360.261v8.895h-8.085v-8.895H611.95L611.95,360.261z M612.761,359.453h-9.702v10.512h9.702V359.453
				L612.761,359.453z"/>
			<rect x="558.579" y="380.478" class="st96" width="9.707" height="10.512"/>
			<path class="st50" d="M567.478,381.287v8.895h-8.088v-8.895H567.478L567.478,381.287z M568.286,380.478h-9.707v10.512h9.707
				V380.478L568.286,380.478z"/>
			<rect x="567.478" y="380.478" class="st96" width="9.7" height="10.512"/>
			<path class="st50" d="M576.372,381.287v8.895h-8.086v-8.895H576.372L576.372,381.287z M577.178,380.478h-9.7v10.512h9.7V380.478
				L577.178,380.478z"/>
			<rect x="576.372" y="380.478" class="st96" width="9.704" height="10.512"/>
			<path class="st50" d="M585.266,381.287v8.895h-8.088v-8.895H585.266L585.266,381.287z M586.076,380.478h-9.704v10.512h9.704
				V380.478L586.076,380.478z"/>
			<rect x="585.266" y="380.478" class="st96" width="9.708" height="10.512"/>
			<path class="st50" d="M594.162,381.287v8.895h-8.086v-8.895H594.162L594.162,381.287z M594.974,380.478h-9.708v10.512h9.708
				V380.478L594.974,380.478z"/>
			<rect x="594.162" y="380.478" class="st96" width="9.703" height="10.512"/>
			<path class="st50" d="M603.059,381.287v8.895h-8.085v-8.895H603.059L603.059,381.287z M603.865,380.478h-9.703v10.512h9.703
				V380.478L603.865,380.478z"/>
			<rect x="603.059" y="380.478" class="st96" width="9.702" height="10.512"/>
			<path class="st50" d="M611.95,381.287v8.895h-8.085v-8.895H611.95L611.95,381.287z M612.761,380.478h-9.702v10.512h9.702V380.478
				L612.761,380.478z"/>
			<rect x="558.579" y="401.501" class="st96" width="9.707" height="10.517"/>
			<path class="st50" d="M567.478,402.31v8.896h-8.088v-8.896H567.478L567.478,402.31z M568.286,401.501h-9.707v10.517h9.707
				V401.501L568.286,401.501z"/>
			<rect x="567.478" y="401.501" class="st96" width="9.7" height="10.517"/>
			<path class="st50" d="M576.372,402.31v8.896h-8.086v-8.896H576.372L576.372,402.31z M577.178,401.501h-9.7v10.517h9.7V401.501
				L577.178,401.501z"/>
			<rect x="576.372" y="401.501" class="st96" width="9.704" height="10.517"/>
			<path class="st50" d="M585.266,402.31v8.896h-8.088v-8.896H585.266L585.266,402.31z M586.076,401.501h-9.704v10.517h9.704
				V401.501L586.076,401.501z"/>
			<rect x="585.266" y="401.501" class="st96" width="9.708" height="10.517"/>
			<path class="st50" d="M594.162,402.31v8.896h-8.086v-8.896H594.162L594.162,402.31z M594.974,401.501h-9.708v10.517h9.708
				V401.501L594.974,401.501z"/>
			<rect x="594.162" y="401.501" class="st96" width="9.703" height="10.517"/>
			<path class="st50" d="M603.059,402.31v8.896h-8.085v-8.896H603.059L603.059,402.31z M603.865,401.501h-9.703v10.517h9.703
				V401.501L603.865,401.501z"/>
			<rect x="603.059" y="401.501" class="st96" width="9.702" height="10.517"/>
			<path class="st50" d="M611.95,402.31v8.896h-8.085v-8.896H611.95L611.95,402.31z M612.761,401.501h-9.702v10.517h9.702V401.501
				L612.761,401.501z"/>
		</g>
		<g>
			<rect x="458.856" y="171.913" class="st85" width="68.1" height="261.455"/>
			<polygon class="st85" points="526.956,171.913 458.856,171.913 458.856,150.023 492.908,135.428 526.956,150.023 			"/>
			<rect x="526.956" y="171.913" class="st83" width="32.833" height="261.455"/>
			<rect x="473.448" y="191.368" class="st81" width="37.7" height="10.945"/>
			<rect x="473.448" y="213.26" class="st81" width="37.7" height="10.941"/>
			<rect x="473.448" y="169.482" class="st81" width="37.7" height="10.942"/>
			<rect x="473.448" y="235.149" class="st81" width="37.7" height="10.941"/>
			<rect x="473.448" y="257.039" class="st81" width="37.7" height="10.94"/>
			<rect x="473.448" y="278.927" class="st81" width="37.7" height="10.941"/>
			<rect x="473.448" y="300.816" class="st81" width="37.7" height="10.944"/>
			<rect x="473.448" y="322.706" class="st81" width="37.7" height="10.941"/>
			<rect x="473.448" y="344.593" class="st81" width="37.7" height="10.945"/>
			<rect x="473.448" y="366.482" class="st81" width="37.7" height="10.945"/>
			<rect x="473.448" y="388.372" class="st81" width="37.7" height="10.942"/>
			<g>
				<rect x="539.118" y="191.368" class="st81" width="8.512" height="13.378"/>
				<rect x="539.118" y="213.26" class="st81" width="8.512" height="13.374"/>
				<rect x="539.118" y="235.149" class="st81" width="8.512" height="13.377"/>
				<rect x="539.118" y="257.039" class="st81" width="8.512" height="13.377"/>
				<rect x="539.118" y="278.927" class="st81" width="8.512" height="13.377"/>
				<rect x="539.118" y="300.816" class="st81" width="8.512" height="13.378"/>
				<rect x="539.118" y="322.706" class="st81" width="8.512" height="13.376"/>
				<rect x="539.118" y="344.593" class="st81" width="8.512" height="13.377"/>
				<rect x="539.118" y="366.482" class="st81" width="8.512" height="13.377"/>
				<rect x="539.118" y="388.372" class="st81" width="8.512" height="13.377"/>
			</g>
			<rect x="426.022" y="171.913" class="st83" width="32.834" height="261.455"/>
			<g>
				<rect x="438.185" y="191.368" class="st81" width="8.512" height="13.378"/>
				<rect x="438.185" y="213.26" class="st81" width="8.512" height="13.374"/>
				<rect x="438.185" y="235.149" class="st81" width="8.512" height="13.377"/>
				<rect x="438.185" y="257.039" class="st81" width="8.512" height="13.377"/>
				<rect x="438.185" y="278.927" class="st81" width="8.512" height="13.377"/>
				<rect x="438.185" y="300.816" class="st81" width="8.512" height="13.378"/>
				<rect x="438.185" y="322.706" class="st81" width="8.512" height="13.376"/>
				<rect x="438.185" y="344.593" class="st81" width="8.512" height="13.377"/>
				<rect x="438.185" y="366.482" class="st81" width="8.512" height="13.377"/>
				<rect x="438.185" y="388.372" class="st81" width="8.512" height="13.377"/>
			</g>
		</g>
		<g>
			<polygon class="st64" points="912.52,153.578 851.75,153.578 851.75,134.042 882.134,121.02 912.52,134.042 			"/>
			<g>
				<rect x="820.82" y="141.569" class="st64" width="122.628" height="294.083"/>
				<g>
					<rect x="875.078" y="166.6" class="st65" width="14.111" height="6.513"/>
					<rect x="875.078" y="178.535" class="st65" width="14.111" height="6.511"/>
					<rect x="875.078" y="190.472" class="st65" width="14.111" height="6.512"/>
					<rect x="875.078" y="202.412" class="st65" width="14.111" height="6.512"/>
					<rect x="875.078" y="214.35" class="st65" width="14.111" height="6.506"/>
					<rect x="875.078" y="226.283" class="st65" width="14.111" height="6.513"/>
					<rect x="875.078" y="238.222" class="st65" width="14.111" height="6.512"/>
					<rect x="875.078" y="250.156" class="st65" width="14.111" height="6.511"/>
					<rect x="875.078" y="262.093" class="st65" width="14.111" height="6.513"/>
					<rect x="875.078" y="274.033" class="st65" width="14.111" height="6.512"/>
					<rect x="875.078" y="285.972" class="st65" width="14.111" height="6.505"/>
					<rect x="875.078" y="297.906" class="st65" width="14.111" height="6.511"/>
					<rect x="875.078" y="309.843" class="st65" width="14.111" height="6.513"/>
					<rect x="875.078" y="321.783" class="st65" width="14.111" height="6.512"/>
					<rect x="875.078" y="333.716" class="st65" width="14.111" height="6.511"/>
					<rect x="875.078" y="345.656" class="st65" width="14.111" height="6.511"/>
					<rect x="875.078" y="357.593" class="st65" width="14.111" height="6.507"/>
					<rect x="875.078" y="369.527" class="st65" width="14.111" height="6.513"/>
					<rect x="875.078" y="381.466" class="st65" width="14.111" height="6.511"/>
					<rect x="875.078" y="393.404" class="st65" width="14.111" height="6.507"/>
					<rect x="875.078" y="405.337" class="st65" width="14.111" height="6.513"/>
				</g>
				<g>
					<g>
						<rect x="864.229" y="166.6" class="st2" width="2.169" height="9.766"/>
						<rect x="867.484" y="166.6" class="st2" width="2.17" height="9.766"/>
					</g>
					<g>
						<rect x="864.229" y="178.535" class="st2" width="2.169" height="9.77"/>
						<rect x="867.484" y="178.535" class="st2" width="2.17" height="9.77"/>
					</g>
					<g>
						<rect x="864.229" y="190.472" class="st2" width="2.169" height="9.771"/>
						<rect x="867.484" y="190.472" class="st2" width="2.17" height="9.771"/>
					</g>
					<g>
						<rect x="864.229" y="202.412" class="st2" width="2.169" height="9.765"/>
						<rect x="867.484" y="202.412" class="st2" width="2.17" height="9.765"/>
					</g>
					<g>
						<rect x="864.229" y="214.35" class="st2" width="2.169" height="9.766"/>
						<rect x="867.484" y="214.35" class="st2" width="2.17" height="9.766"/>
					</g>
					<g>
						<rect x="864.229" y="226.283" class="st2" width="2.169" height="9.771"/>
						<rect x="867.484" y="226.283" class="st2" width="2.17" height="9.771"/>
					</g>
					<g>
						<rect x="864.229" y="238.222" class="st2" width="2.169" height="9.765"/>
						<rect x="867.484" y="238.222" class="st2" width="2.17" height="9.765"/>
					</g>
					<g>
						<rect x="864.229" y="250.156" class="st2" width="2.169" height="9.771"/>
						<rect x="867.484" y="250.156" class="st2" width="2.17" height="9.771"/>
					</g>
					<g>
						<rect x="864.229" y="262.093" class="st2" width="2.169" height="9.771"/>
						<rect x="867.484" y="262.093" class="st2" width="2.17" height="9.771"/>
					</g>
					<g>
						<rect x="864.229" y="274.033" class="st2" width="2.169" height="9.765"/>
						<rect x="867.484" y="274.033" class="st2" width="2.17" height="9.765"/>
					</g>
					<g>
						<rect x="864.229" y="285.972" class="st2" width="2.169" height="9.765"/>
						<rect x="867.484" y="285.972" class="st2" width="2.17" height="9.765"/>
					</g>
					<g>
						<rect x="864.229" y="297.906" class="st2" width="2.169" height="9.764"/>
						<rect x="867.484" y="297.906" class="st2" width="2.17" height="9.764"/>
					</g>
					<g>
						<rect x="864.229" y="309.843" class="st2" width="2.169" height="9.765"/>
						<rect x="867.484" y="309.843" class="st2" width="2.17" height="9.765"/>
					</g>
					<g>
						<rect x="864.229" y="321.783" class="st2" width="2.169" height="9.765"/>
						<rect x="867.484" y="321.783" class="st2" width="2.17" height="9.765"/>
					</g>
					<g>
						<rect x="864.229" y="333.716" class="st2" width="2.169" height="9.771"/>
						<rect x="867.484" y="333.716" class="st2" width="2.17" height="9.771"/>
					</g>
					<g>
						<rect x="864.229" y="345.656" class="st2" width="2.169" height="9.764"/>
						<rect x="867.484" y="345.656" class="st2" width="2.17" height="9.764"/>
					</g>
					<g>
						<rect x="864.229" y="357.593" class="st2" width="2.169" height="9.765"/>
						<rect x="867.484" y="357.593" class="st2" width="2.17" height="9.765"/>
					</g>
					<g>
						<rect x="864.229" y="369.527" class="st2" width="2.169" height="9.771"/>
						<rect x="867.484" y="369.527" class="st2" width="2.17" height="9.771"/>
					</g>
					<g>
						<rect x="864.229" y="381.466" class="st2" width="2.169" height="9.764"/>
						<rect x="867.484" y="381.466" class="st2" width="2.17" height="9.764"/>
					</g>
					<g>
						<rect x="864.229" y="393.404" class="st2" width="2.169" height="9.765"/>
						<rect x="867.484" y="393.404" class="st2" width="2.17" height="9.765"/>
					</g>
					<g>
						<rect x="864.229" y="405.337" class="st2" width="2.169" height="9.771"/>
						<rect x="867.484" y="405.337" class="st2" width="2.17" height="9.771"/>
					</g>
				</g>
				<g>
					<g>
						<rect x="894.616" y="166.6" class="st2" width="2.169" height="9.766"/>
						<rect x="897.87" y="166.6" class="st2" width="2.171" height="9.766"/>
					</g>
					<g>
						<rect x="894.616" y="178.535" class="st2" width="2.169" height="9.77"/>
						<rect x="897.87" y="178.535" class="st2" width="2.171" height="9.77"/>
					</g>
					<g>
						<rect x="894.616" y="190.472" class="st2" width="2.169" height="9.771"/>
						<rect x="897.87" y="190.472" class="st2" width="2.171" height="9.771"/>
					</g>
					<g>
						<rect x="894.616" y="202.412" class="st2" width="2.169" height="9.765"/>
						<rect x="897.87" y="202.412" class="st2" width="2.171" height="9.765"/>
					</g>
					<g>
						<rect x="894.616" y="214.35" class="st2" width="2.169" height="9.766"/>
						<rect x="897.87" y="214.35" class="st2" width="2.171" height="9.766"/>
					</g>
					<g>
						<rect x="894.616" y="226.283" class="st2" width="2.169" height="9.771"/>
						<rect x="897.87" y="226.283" class="st2" width="2.171" height="9.771"/>
					</g>
					<g>
						<rect x="894.616" y="238.222" class="st2" width="2.169" height="9.765"/>
						<rect x="897.87" y="238.222" class="st2" width="2.171" height="9.765"/>
					</g>
					<g>
						<rect x="894.616" y="250.156" class="st2" width="2.169" height="9.771"/>
						<rect x="897.87" y="250.156" class="st2" width="2.171" height="9.771"/>
					</g>
					<g>
						<rect x="894.616" y="262.093" class="st2" width="2.169" height="9.771"/>
						<rect x="897.87" y="262.093" class="st2" width="2.171" height="9.771"/>
					</g>
					<g>
						<rect x="894.616" y="274.033" class="st2" width="2.169" height="9.765"/>
						<rect x="897.87" y="274.033" class="st2" width="2.171" height="9.765"/>
					</g>
					<g>
						<rect x="894.616" y="285.972" class="st2" width="2.169" height="9.765"/>
						<rect x="897.87" y="285.972" class="st2" width="2.171" height="9.765"/>
					</g>
					<g>
						<rect x="894.616" y="297.906" class="st2" width="2.169" height="9.764"/>
						<rect x="897.87" y="297.906" class="st2" width="2.171" height="9.764"/>
					</g>
					<g>
						<rect x="894.616" y="309.843" class="st2" width="2.169" height="9.765"/>
						<rect x="897.87" y="309.843" class="st2" width="2.171" height="9.765"/>
					</g>
					<g>
						<rect x="894.616" y="321.783" class="st2" width="2.169" height="9.765"/>
						<rect x="897.87" y="321.783" class="st2" width="2.171" height="9.765"/>
					</g>
					<g>
						<rect x="894.616" y="333.716" class="st2" width="2.169" height="9.771"/>
						<rect x="897.87" y="333.716" class="st2" width="2.171" height="9.771"/>
					</g>
					<g>
						<rect x="894.616" y="345.656" class="st2" width="2.169" height="9.764"/>
						<rect x="897.87" y="345.656" class="st2" width="2.171" height="9.764"/>
					</g>
					<g>
						<rect x="894.616" y="357.593" class="st2" width="2.169" height="9.765"/>
						<rect x="897.87" y="357.593" class="st2" width="2.171" height="9.765"/>
					</g>
					<g>
						<rect x="894.616" y="369.527" class="st2" width="2.169" height="9.771"/>
						<rect x="897.87" y="369.527" class="st2" width="2.171" height="9.771"/>
					</g>
					<g>
						<rect x="894.616" y="381.466" class="st2" width="2.169" height="9.764"/>
						<rect x="897.87" y="381.466" class="st2" width="2.171" height="9.764"/>
					</g>
					<g>
						<rect x="894.616" y="393.404" class="st2" width="2.169" height="9.765"/>
						<rect x="897.87" y="393.404" class="st2" width="2.171" height="9.765"/>
					</g>
					<g>
						<rect x="894.616" y="405.337" class="st2" width="2.169" height="9.771"/>
						<rect x="897.87" y="405.337" class="st2" width="2.171" height="9.771"/>
					</g>
				</g>
				<g>
					<g>
						<rect x="906.55" y="166.6" class="st90" width="7.596" height="6.513"/>
						<rect x="918.486" y="166.6" class="st90" width="14.111" height="6.513"/>
					</g>
					<g>
						<rect x="906.55" y="179.624" class="st90" width="7.596" height="6.506"/>
						<rect x="918.486" y="179.624" class="st90" width="14.111" height="6.506"/>
					</g>
					<g>
						<rect x="906.55" y="192.641" class="st90" width="7.596" height="6.512"/>
						<rect x="918.486" y="192.641" class="st90" width="14.111" height="6.512"/>
					</g>
					<g>
						<rect x="906.55" y="205.664" class="st90" width="7.596" height="6.513"/>
						<rect x="918.486" y="205.664" class="st90" width="14.111" height="6.513"/>
					</g>
					<g>
						<rect x="906.55" y="218.687" class="st90" width="7.596" height="6.512"/>
						<rect x="918.486" y="218.687" class="st90" width="14.111" height="6.512"/>
					</g>
					<g>
						<rect x="906.55" y="231.711" class="st90" width="7.596" height="6.511"/>
						<rect x="918.486" y="231.711" class="st90" width="14.111" height="6.511"/>
					</g>
					<g>
						<rect x="906.55" y="244.734" class="st90" width="7.596" height="6.511"/>
						<rect x="918.486" y="244.734" class="st90" width="14.111" height="6.511"/>
					</g>
					<g>
						<rect x="906.55" y="257.757" class="st90" width="7.596" height="6.512"/>
						<rect x="918.486" y="257.757" class="st90" width="14.111" height="6.512"/>
					</g>
					<g>
						<rect x="906.55" y="270.78" class="st90" width="7.596" height="6.506"/>
						<rect x="918.486" y="270.78" class="st90" width="14.111" height="6.506"/>
					</g>
					<g>
						<rect x="906.55" y="283.797" class="st90" width="7.596" height="6.513"/>
						<rect x="918.486" y="283.797" class="st90" width="14.111" height="6.513"/>
					</g>
					<g>
						<rect x="906.55" y="296.821" class="st90" width="7.596" height="6.512"/>
						<rect x="918.486" y="296.821" class="st90" width="14.111" height="6.512"/>
					</g>
					<g>
						<rect x="906.55" y="309.843" class="st90" width="7.596" height="6.513"/>
						<rect x="918.486" y="309.843" class="st90" width="14.111" height="6.513"/>
					</g>
					<g>
						<rect x="906.55" y="322.868" class="st90" width="7.596" height="6.511"/>
						<rect x="918.486" y="322.868" class="st90" width="14.111" height="6.511"/>
					</g>
					<g>
						<rect x="906.55" y="335.891" class="st90" width="7.596" height="6.505"/>
						<rect x="918.486" y="335.891" class="st90" width="14.111" height="6.505"/>
					</g>
					<g>
						<rect x="906.55" y="348.909" class="st90" width="7.596" height="6.511"/>
						<rect x="918.486" y="348.909" class="st90" width="14.111" height="6.511"/>
					</g>
					<g>
						<rect x="906.55" y="361.931" class="st90" width="7.596" height="6.511"/>
						<rect x="918.486" y="361.931" class="st90" width="14.111" height="6.511"/>
					</g>
					<g>
						<rect x="906.55" y="374.954" class="st90" width="7.596" height="6.513"/>
						<rect x="918.486" y="374.954" class="st90" width="14.111" height="6.513"/>
					</g>
					<g>
						<rect x="906.55" y="387.977" class="st90" width="7.596" height="6.512"/>
						<rect x="918.486" y="387.977" class="st90" width="14.111" height="6.512"/>
					</g>
					<g>
						<rect x="906.55" y="401.001" class="st90" width="7.596" height="6.511"/>
						<rect x="918.486" y="401.001" class="st90" width="14.111" height="6.511"/>
					</g>
				</g>
				<g>
					<g>
						<rect x="850.938" y="166.6" class="st90" width="7.596" height="6.513"/>
						<rect x="832.487" y="166.6" class="st90" width="14.106" height="6.513"/>
					</g>
					<g>
						<rect x="850.938" y="179.624" class="st90" width="7.596" height="6.506"/>
						<rect x="832.487" y="179.624" class="st90" width="14.106" height="6.506"/>
					</g>
					<g>
						<rect x="850.938" y="192.641" class="st90" width="7.596" height="6.512"/>
						<rect x="832.487" y="192.641" class="st90" width="14.106" height="6.512"/>
					</g>
					<g>
						<rect x="850.938" y="205.664" class="st90" width="7.596" height="6.513"/>
						<rect x="832.487" y="205.664" class="st90" width="14.106" height="6.513"/>
					</g>
					<g>
						<rect x="850.938" y="218.687" class="st90" width="7.596" height="6.512"/>
						<rect x="832.487" y="218.687" class="st90" width="14.106" height="6.512"/>
					</g>
					<g>
						<rect x="850.938" y="231.711" class="st90" width="7.596" height="6.511"/>
						<rect x="832.487" y="231.711" class="st90" width="14.106" height="6.511"/>
					</g>
					<g>
						<rect x="850.938" y="244.734" class="st90" width="7.596" height="6.511"/>
						<rect x="832.487" y="244.734" class="st90" width="14.106" height="6.511"/>
					</g>
					<g>
						<rect x="850.938" y="257.757" class="st90" width="7.596" height="6.512"/>
						<rect x="832.487" y="257.757" class="st90" width="14.106" height="6.512"/>
					</g>
					<g>
						<rect x="850.938" y="270.78" class="st90" width="7.596" height="6.506"/>
						<rect x="832.487" y="270.78" class="st90" width="14.106" height="6.506"/>
					</g>
					<g>
						<rect x="850.938" y="283.797" class="st90" width="7.596" height="6.513"/>
						<rect x="832.487" y="283.797" class="st90" width="14.106" height="6.513"/>
					</g>
					<g>
						<rect x="850.938" y="296.821" class="st90" width="7.596" height="6.512"/>
						<rect x="832.487" y="296.821" class="st90" width="14.106" height="6.512"/>
					</g>
					<g>
						<rect x="850.938" y="309.843" class="st90" width="7.596" height="6.513"/>
						<rect x="832.487" y="309.843" class="st90" width="14.106" height="6.513"/>
					</g>
					<g>
						<rect x="850.938" y="322.868" class="st90" width="7.596" height="6.511"/>
						<rect x="832.487" y="322.868" class="st90" width="14.106" height="6.511"/>
					</g>
					<g>
						<rect x="850.938" y="335.891" class="st90" width="7.596" height="6.505"/>
						<rect x="832.487" y="335.891" class="st90" width="14.106" height="6.505"/>
					</g>
					<g>
						<rect x="850.938" y="348.909" class="st90" width="7.596" height="6.511"/>
						<rect x="832.487" y="348.909" class="st90" width="14.106" height="6.511"/>
					</g>
					<g>
						<rect x="850.938" y="361.931" class="st90" width="7.596" height="6.511"/>
						<rect x="832.487" y="361.931" class="st90" width="14.106" height="6.511"/>
					</g>
					<g>
						<rect x="850.938" y="374.954" class="st90" width="7.596" height="6.513"/>
						<rect x="832.487" y="374.954" class="st90" width="14.106" height="6.513"/>
					</g>
					<g>
						<rect x="850.938" y="387.977" class="st90" width="7.596" height="6.512"/>
						<rect x="832.487" y="387.977" class="st90" width="14.106" height="6.512"/>
					</g>
					<g>
						<rect x="850.938" y="401.001" class="st90" width="7.596" height="6.511"/>
						<rect x="832.487" y="401.001" class="st90" width="14.106" height="6.511"/>
					</g>
				</g>
			</g>
		</g>
		<g>
			<rect x="101.153" y="124.759" class="st63" width="124.801" height="308.608"/>
			<rect x="225.954" y="198.509" class="st63" width="132.746" height="234.858"/>
			<rect x="166.959" y="203.045" class="st66" width="60.133" height="11.346"/>
			<rect x="165.823" y="241.62" class="st66" width="60.131" height="11.348"/>
			<rect x="165.823" y="280.196" class="st66" width="60.131" height="11.348"/>
			<rect x="165.823" y="318.774" class="st66" width="60.131" height="11.347"/>
			<rect x="165.823" y="357.35" class="st66" width="60.131" height="11.344"/>
			<rect x="111.361" y="181.491" class="st52" width="14.752" height="15.881"/>
			<path class="st66" d="M126.113,181.491v15.881h-14.752v-15.881H126.113L126.113,181.491z M127.246,180.355h-1.133h-14.752h-1.134
				v1.136v15.881v1.138h1.134h14.752h1.133v-1.138v-15.881V180.355L127.246,180.355z"/>
			<rect x="118.171" y="180.355" class="st66" width="1.138" height="18.154"/>
			<rect x="136.327" y="181.491" class="st52" width="14.748" height="15.881"/>
			<path class="st66" d="M151.075,181.491v15.881h-14.748v-15.881H151.075L151.075,181.491z M152.208,180.355h-1.133h-14.748h-1.138
				v1.136v15.881v1.138h1.138h14.748h1.133v-1.138v-15.881V180.355L152.208,180.355z"/>
			<rect x="143.133" y="180.355" class="st66" width="1.132" height="18.154"/>
			<rect x="164.689" y="181.491" class="st52" width="22.691" height="15.881"/>
			<path class="st66" d="M187.381,181.491v15.881h-22.691v-15.881h14.748H187.381z M188.516,180.355h-1.135h-22.691h-1.136v1.136
				v15.881v1.138h1.136h22.691h1.135v-1.138v-15.881V180.355L188.516,180.355z"/>
			<rect x="171.494" y="180.355" class="st66" width="1.136" height="18.154"/>
			<rect x="179.438" y="180.355" class="st66" width="1.136" height="18.154"/>
			<rect x="198.726" y="181.491" class="st52" width="14.748" height="15.881"/>
			<path class="st66" d="M213.474,181.491v15.881h-14.748v-15.881H213.474L213.474,181.491z M214.611,180.355h-1.138h-14.748h-1.134
				v1.136v15.881v1.138h1.134h14.748h1.138v-1.138v-15.881V180.355L214.611,180.355z"/>
			<rect x="205.535" y="180.355" class="st66" width="1.131" height="18.154"/>
			<rect x="111.361" y="220.065" class="st52" width="14.752" height="15.885"/>
			<path class="st66" d="M126.113,220.065v15.885h-14.752v-15.885H126.113L126.113,220.065z M127.246,218.931h-1.133h-14.752h-1.134
				v1.134v15.885v1.134h1.134h14.752h1.133v-1.134v-15.885V218.931L127.246,218.931z"/>
			<rect x="118.171" y="218.931" class="st66" width="1.138" height="18.152"/>
			<rect x="136.327" y="220.065" class="st52" width="14.748" height="15.885"/>
			<path class="st66" d="M151.075,220.065v15.885h-14.748v-15.885H151.075L151.075,220.065z M152.208,218.931h-1.133h-14.748h-1.138
				v1.134v15.885v1.134h1.138h14.748h1.133v-1.134v-15.885V218.931L152.208,218.931z"/>
			<rect x="143.133" y="218.931" class="st66" width="1.132" height="18.152"/>
			<rect x="164.689" y="220.065" class="st52" width="22.691" height="15.885"/>
			<path class="st66" d="M187.381,220.065v15.885h-22.691v-15.885h14.748H187.381z M188.516,218.931h-1.135h-22.691h-1.136v1.134
				v15.885v1.134h1.136h22.691h1.135v-1.134v-15.885V218.931L188.516,218.931z"/>
			<rect x="171.494" y="218.931" class="st66" width="1.136" height="18.152"/>
			<rect x="179.438" y="218.931" class="st66" width="1.136" height="18.152"/>
			<rect x="198.726" y="220.065" class="st52" width="14.748" height="15.885"/>
			<path class="st66" d="M213.474,220.065v15.885h-14.748v-15.885H213.474L213.474,220.065z M214.611,218.931h-1.138h-14.748h-1.134
				v1.134v15.885v1.134h1.134h14.748h1.138v-1.134v-15.885V218.931L214.611,218.931z"/>
			<rect x="205.535" y="218.931" class="st66" width="1.131" height="18.152"/>
			<rect x="111.361" y="258.638" class="st52" width="14.752" height="15.888"/>
			<path class="st66" d="M126.113,258.638v15.888h-14.752v-15.888H126.113L126.113,258.638z M127.246,257.505h-1.133h-14.752h-1.134
				v1.133v15.888v1.134h1.134h14.752h1.133v-1.134v-15.888V257.505L127.246,257.505z"/>
			<rect x="118.171" y="257.505" class="st66" width="1.138" height="18.154"/>
			<rect x="136.327" y="258.638" class="st52" width="14.748" height="15.888"/>
			<path class="st66" d="M151.075,258.638v15.888h-14.748v-15.888H151.075L151.075,258.638z M152.208,257.505h-1.133h-14.748h-1.138
				v1.133v15.888v1.134h1.138h14.748h1.133v-1.134v-15.888V257.505L152.208,257.505z"/>
			<rect x="143.133" y="257.505" class="st66" width="1.132" height="18.154"/>
			<rect x="164.689" y="258.638" class="st52" width="22.691" height="15.888"/>
			<path class="st66" d="M187.381,258.638v15.888h-22.691v-15.888h14.748H187.381z M188.516,257.505h-1.135h-22.691h-1.136v1.133
				v15.888v1.134h1.136h22.691h1.135v-1.134v-15.888V257.505L188.516,257.505z"/>
			<rect x="171.494" y="257.505" class="st66" width="1.136" height="18.154"/>
			<rect x="179.438" y="257.505" class="st66" width="1.136" height="18.154"/>
			<rect x="198.726" y="258.638" class="st52" width="14.748" height="15.888"/>
			<path class="st66" d="M213.474,258.638v15.888h-14.748v-15.888H213.474L213.474,258.638z M214.611,257.505h-1.138h-14.748h-1.134
				v1.133v15.888v1.134h1.134h14.748h1.138v-1.134v-15.888V257.505L214.611,257.505z"/>
			<rect x="205.535" y="257.505" class="st66" width="1.131" height="18.154"/>
			<rect x="111.361" y="297.215" class="st52" width="14.752" height="15.885"/>
			<path class="st66" d="M126.113,297.215V313.1h-14.752v-15.885H126.113L126.113,297.215z M127.246,296.082h-1.133h-14.752h-1.134
				v1.134V313.1v1.134h1.134h14.752h1.133V313.1v-15.885V296.082L127.246,296.082z"/>
			<rect x="118.171" y="296.082" class="st66" width="1.138" height="18.152"/>
			<rect x="136.327" y="297.215" class="st52" width="14.748" height="15.885"/>
			<path class="st66" d="M151.075,297.215V313.1h-14.748v-15.885H151.075L151.075,297.215z M152.208,296.082h-1.133h-14.748h-1.138
				v1.134V313.1v1.134h1.138h14.748h1.133V313.1v-15.885V296.082L152.208,296.082z"/>
			<rect x="143.133" y="296.082" class="st66" width="1.132" height="18.152"/>
			<rect x="164.689" y="297.215" class="st52" width="22.691" height="15.885"/>
			<path class="st66" d="M187.381,297.215V313.1h-22.691v-15.885h14.748H187.381z M188.516,296.082h-1.135h-22.691h-1.136v1.134
				V313.1v1.134h1.136h22.691h1.135V313.1v-15.885V296.082L188.516,296.082z"/>
			<rect x="171.494" y="296.082" class="st66" width="1.136" height="18.152"/>
			<rect x="179.438" y="296.082" class="st66" width="1.136" height="18.152"/>
			<rect x="198.726" y="297.215" class="st52" width="14.748" height="15.885"/>
			<path class="st66" d="M213.474,297.215V313.1h-14.748v-15.885H213.474L213.474,297.215z M214.611,296.082h-1.138h-14.748h-1.134
				v1.134V313.1v1.134h1.134h14.748h1.138V313.1v-15.885V296.082L214.611,296.082z"/>
			<rect x="205.535" y="296.082" class="st66" width="1.131" height="18.152"/>
			<rect x="111.361" y="335.792" class="st52" width="14.752" height="15.883"/>
			<path class="st66" d="M126.113,335.792v15.883h-14.752v-15.883H126.113L126.113,335.792z M127.246,334.655h-1.133h-14.752h-1.134
				v1.137v15.883v1.136h1.134h14.752h1.133v-1.136v-15.883V334.655L127.246,334.655z"/>
			<rect x="118.171" y="334.655" class="st66" width="1.138" height="18.155"/>
			<rect x="136.327" y="335.792" class="st52" width="14.748" height="15.883"/>
			<path class="st66" d="M151.075,335.792v15.883h-14.748v-15.883H151.075L151.075,335.792z M152.208,334.655h-1.133h-14.748h-1.138
				v1.137v15.883v1.136h1.138h14.748h1.133v-1.136v-15.883V334.655L152.208,334.655z"/>
			<rect x="143.133" y="334.655" class="st66" width="1.132" height="18.155"/>
			<rect x="164.689" y="335.792" class="st52" width="22.691" height="15.883"/>
			<path class="st66" d="M187.381,335.792v15.883h-22.691v-15.883h14.748H187.381z M188.516,334.655h-1.135h-22.691h-1.136v1.137
				v15.883v1.136h1.136h22.691h1.135v-1.136v-15.883V334.655L188.516,334.655z"/>
			<rect x="171.494" y="334.655" class="st66" width="1.136" height="18.155"/>
			<rect x="179.438" y="334.655" class="st66" width="1.136" height="18.155"/>
			<rect x="198.726" y="335.792" class="st52" width="14.748" height="15.883"/>
			<path class="st66" d="M213.474,335.792v15.883h-14.748v-15.883H213.474L213.474,335.792z M214.611,334.655h-1.138h-14.748h-1.134
				v1.137v15.883v1.136h1.134h14.748h1.138v-1.136v-15.883V334.655L214.611,334.655z"/>
			<rect x="205.535" y="334.655" class="st66" width="1.131" height="18.155"/>
			<rect x="111.361" y="374.368" class="st52" width="14.752" height="15.883"/>
			<path class="st66" d="M126.113,374.368v15.883h-14.752v-15.883H126.113L126.113,374.368z M127.246,373.232h-1.133h-14.752h-1.134
				v1.136v15.883v1.136h1.134h14.752h1.133v-1.136v-15.883V373.232L127.246,373.232z"/>
			<rect x="118.171" y="373.232" class="st66" width="1.138" height="18.154"/>
			<rect x="136.327" y="374.368" class="st52" width="14.748" height="15.883"/>
			<path class="st66" d="M151.075,374.368v15.883h-14.748v-15.883H151.075L151.075,374.368z M152.208,373.232h-1.133h-14.748h-1.138
				v1.136v15.883v1.136h1.138h14.748h1.133v-1.136v-15.883V373.232L152.208,373.232z"/>
			<rect x="143.133" y="373.232" class="st66" width="1.132" height="18.154"/>
			<rect x="164.689" y="374.368" class="st52" width="22.691" height="15.883"/>
			<path class="st66" d="M187.381,374.368v15.883h-22.691v-15.883h14.748H187.381z M188.516,373.232h-1.135h-22.691h-1.136v1.136
				v15.883v1.136h1.136h22.691h1.135v-1.136v-15.883V373.232L188.516,373.232z"/>
			<rect x="171.494" y="373.232" class="st66" width="1.136" height="18.154"/>
			<rect x="179.438" y="373.232" class="st66" width="1.136" height="18.154"/>
			<rect x="198.726" y="374.368" class="st52" width="14.748" height="15.883"/>
			<path class="st66" d="M213.474,374.368v15.883h-14.748v-15.883H213.474L213.474,374.368z M214.611,373.232h-1.138h-14.748h-1.134
				v1.136v15.883v1.136h1.134h14.748h1.138v-1.136v-15.883V373.232L214.611,373.232z"/>
			<rect x="205.535" y="373.232" class="st66" width="1.131" height="18.154"/>
			<rect x="290.628" y="241.62" class="st66" width="60.132" height="11.348"/>
			<rect x="290.628" y="280.196" class="st66" width="60.132" height="11.348"/>
			<rect x="290.628" y="318.774" class="st66" width="60.132" height="11.347"/>
			<rect x="290.628" y="357.35" class="st66" width="60.132" height="11.344"/>
			<rect x="241.84" y="220.065" class="st52" width="14.751" height="15.885"/>
			<path class="st66" d="M256.591,220.065v15.885H241.84v-15.885H256.591L256.591,220.065z M257.726,218.931h-1.135H241.84h-1.134
				v1.134v15.885v1.134h1.134h14.751h1.135v-1.134v-15.885V218.931L257.726,218.931z"/>
			<rect x="248.647" y="218.931" class="st66" width="1.136" height="18.152"/>
			<rect x="266.802" y="220.065" class="st52" width="14.748" height="15.885"/>
			<path class="st66" d="M281.55,220.065v15.885h-14.748v-15.885H281.55L281.55,220.065z M282.684,218.931h-1.134h-14.748h-1.136
				v1.134v15.885v1.134h1.136h14.748h1.134v-1.134v-15.885V218.931L282.684,218.931z"/>
			<rect x="273.609" y="218.931" class="st66" width="1.133" height="18.152"/>
			<rect x="295.164" y="220.065" class="st52" width="22.692" height="15.885"/>
			<path class="st66" d="M317.856,220.065v15.885h-22.692v-15.885h14.752H317.856z M318.99,218.931h-1.134h-22.692h-1.133v1.134
				v15.885v1.134h1.133h22.692h1.134v-1.134v-15.885V218.931L318.99,218.931z"/>
			<rect x="301.976" y="218.931" class="st66" width="1.133" height="18.152"/>
			<rect x="309.916" y="218.931" class="st66" width="1.134" height="18.152"/>
			<rect x="329.204" y="220.065" class="st52" width="14.748" height="15.885"/>
			<path class="st66" d="M343.952,220.065v15.885h-14.748v-15.885H343.952L343.952,220.065z M345.086,218.931h-1.134h-14.748h-1.137
				v1.134v15.885v1.134h1.137h14.748h1.134v-1.134v-15.885V218.931L345.086,218.931z"/>
			<rect x="336.012" y="218.931" class="st66" width="1.133" height="18.152"/>
			<rect x="241.84" y="258.638" class="st52" width="14.751" height="15.888"/>
			<path class="st66" d="M256.591,258.638v15.888H241.84v-15.888H256.591L256.591,258.638z M257.726,257.505h-1.135H241.84h-1.134
				v1.133v15.888v1.134h1.134h14.751h1.135v-1.134v-15.888V257.505L257.726,257.505z"/>
			<rect x="248.647" y="257.505" class="st66" width="1.136" height="18.154"/>
			<rect x="266.802" y="258.638" class="st52" width="14.748" height="15.888"/>
			<path class="st66" d="M281.55,258.638v15.888h-14.748v-15.888H281.55L281.55,258.638z M282.684,257.505h-1.134h-14.748h-1.136
				v1.133v15.888v1.134h1.136h14.748h1.134v-1.134v-15.888V257.505L282.684,257.505z"/>
			<rect x="273.609" y="257.505" class="st66" width="1.133" height="18.154"/>
			<rect x="295.164" y="258.638" class="st52" width="22.692" height="15.888"/>
			<path class="st66" d="M317.856,258.638v15.888h-22.692v-15.888h14.752H317.856z M318.99,257.505h-1.134h-22.692h-1.133v1.133
				v15.888v1.134h1.133h22.692h1.134v-1.134v-15.888V257.505L318.99,257.505z"/>
			<rect x="301.976" y="257.505" class="st66" width="1.133" height="18.154"/>
			<rect x="309.916" y="257.505" class="st66" width="1.134" height="18.154"/>
			<rect x="329.204" y="258.638" class="st52" width="14.748" height="15.888"/>
			<path class="st66" d="M343.952,258.638v15.888h-14.748v-15.888H343.952L343.952,258.638z M345.086,257.505h-1.134h-14.748h-1.137
				v1.133v15.888v1.134h1.137h14.748h1.134v-1.134v-15.888V257.505L345.086,257.505z"/>
			<rect x="336.012" y="257.505" class="st66" width="1.133" height="18.154"/>
			<rect x="241.84" y="297.215" class="st52" width="14.751" height="15.885"/>
			<path class="st66" d="M256.591,297.215V313.1H241.84v-15.885H256.591L256.591,297.215z M257.726,296.082h-1.135H241.84h-1.134
				v1.134V313.1v1.134h1.134h14.751h1.135V313.1v-15.885V296.082L257.726,296.082z"/>
			<rect x="248.647" y="296.082" class="st66" width="1.136" height="18.152"/>
			<rect x="266.802" y="297.215" class="st52" width="14.748" height="15.885"/>
			<path class="st66" d="M281.55,297.215V313.1h-14.748v-15.885H281.55L281.55,297.215z M282.684,296.082h-1.134h-14.748h-1.136
				v1.134V313.1v1.134h1.136h14.748h1.134V313.1v-15.885V296.082L282.684,296.082z"/>
			<rect x="273.609" y="296.082" class="st66" width="1.133" height="18.152"/>
			<rect x="295.164" y="297.215" class="st52" width="22.692" height="15.885"/>
			<path class="st66" d="M317.856,297.215V313.1h-22.692v-15.885h14.752H317.856z M318.99,296.082h-1.134h-22.692h-1.133v1.134
				V313.1v1.134h1.133h22.692h1.134V313.1v-15.885V296.082L318.99,296.082z"/>
			<rect x="301.976" y="296.082" class="st66" width="1.133" height="18.152"/>
			<rect x="309.916" y="296.082" class="st66" width="1.134" height="18.152"/>
			<rect x="329.204" y="297.215" class="st52" width="14.748" height="15.885"/>
			<path class="st66" d="M343.952,297.215V313.1h-14.748v-15.885H343.952L343.952,297.215z M345.086,296.082h-1.134h-14.748h-1.137
				v1.134V313.1v1.134h1.137h14.748h1.134V313.1v-15.885V296.082L345.086,296.082z"/>
			<rect x="336.012" y="296.082" class="st66" width="1.133" height="18.152"/>
			<rect x="241.84" y="335.792" class="st52" width="14.751" height="15.883"/>
			<path class="st66" d="M256.591,335.792v15.883H241.84v-15.883H256.591L256.591,335.792z M257.726,334.655h-1.135H241.84h-1.134
				v1.137v15.883v1.136h1.134h14.751h1.135v-1.136v-15.883V334.655L257.726,334.655z"/>
			<rect x="248.647" y="334.655" class="st66" width="1.136" height="18.155"/>
			<rect x="266.802" y="335.792" class="st52" width="14.748" height="15.883"/>
			<path class="st66" d="M281.55,335.792v15.883h-14.748v-15.883H281.55L281.55,335.792z M282.684,334.655h-1.134h-14.748h-1.136
				v1.137v15.883v1.136h1.136h14.748h1.134v-1.136v-15.883V334.655L282.684,334.655z"/>
			<rect x="273.609" y="334.655" class="st66" width="1.133" height="18.155"/>
			<rect x="295.164" y="335.792" class="st52" width="22.692" height="15.883"/>
			<path class="st66" d="M317.856,335.792v15.883h-22.692v-15.883h14.752H317.856z M318.99,334.655h-1.134h-22.692h-1.133v1.137
				v15.883v1.136h1.133h22.692h1.134v-1.136v-15.883V334.655L318.99,334.655z"/>
			<rect x="301.976" y="334.655" class="st66" width="1.133" height="18.155"/>
			<rect x="309.916" y="334.655" class="st66" width="1.134" height="18.155"/>
			<rect x="329.204" y="335.792" class="st52" width="14.748" height="15.883"/>
			<path class="st66" d="M343.952,335.792v15.883h-14.748v-15.883H343.952L343.952,335.792z M345.086,334.655h-1.134h-14.748h-1.137
				v1.137v15.883v1.136h1.137h14.748h1.134v-1.136v-15.883V334.655L345.086,334.655z"/>
			<rect x="336.012" y="334.655" class="st66" width="1.133" height="18.155"/>
			<rect x="241.84" y="374.368" class="st52" width="14.751" height="15.883"/>
			<path class="st66" d="M256.591,374.368v15.883H241.84v-15.883H256.591L256.591,374.368z M257.726,373.232h-1.135H241.84h-1.134
				v1.136v15.883v1.136h1.134h14.751h1.135v-1.136v-15.883V373.232L257.726,373.232z"/>
			<rect x="248.647" y="373.232" class="st66" width="1.136" height="18.154"/>
			<rect x="266.802" y="374.368" class="st52" width="14.748" height="15.883"/>
			<path class="st66" d="M281.55,374.368v15.883h-14.748v-15.883H281.55L281.55,374.368z M282.684,373.232h-1.134h-14.748h-1.136
				v1.136v15.883v1.136h1.136h14.748h1.134v-1.136v-15.883V373.232L282.684,373.232z"/>
			<rect x="273.609" y="373.232" class="st66" width="1.133" height="18.154"/>
			<rect x="295.164" y="374.368" class="st52" width="22.692" height="15.883"/>
			<path class="st66" d="M317.856,374.368v15.883h-22.692v-15.883h14.752H317.856z M318.99,373.232h-1.134h-22.692h-1.133v1.136
				v15.883v1.136h1.133h22.692h1.134v-1.136v-15.883V373.232L318.99,373.232z"/>
			<rect x="301.976" y="373.232" class="st66" width="1.133" height="18.154"/>
			<rect x="309.916" y="373.232" class="st66" width="1.134" height="18.154"/>
			<rect x="329.204" y="374.368" class="st52" width="14.748" height="15.883"/>
			<path class="st66" d="M343.952,374.368v15.883h-14.748v-15.883H343.952L343.952,374.368z M345.086,373.232h-1.134h-14.748h-1.137
				v1.136v15.883v1.136h1.137h14.748h1.134v-1.136v-15.883V373.232L345.086,373.232z"/>
			<rect x="336.012" y="373.232" class="st66" width="1.133" height="18.154"/>
			<rect x="225.954" y="198.509" class="st34" width="5.674" height="234.858"/>
		</g>
		<rect x="82.495" y="433.425" class="st73" width="883.454" height="29.688"/>
	</g>
	<g>
		<rect x="722.625" y="83.91" class="st87" width="55.795" height="351.655"/>
		<rect x="739.492" y="83.91" class="st92" width="22.061" height="351.655"/>
		<g>
			<rect x="742.088" y="113.841" class="st87" width="16.867" height="7.787"/>
			<rect x="742.088" y="128.114" class="st87" width="16.867" height="7.784"/>
			<rect x="742.088" y="142.389" class="st87" width="16.867" height="7.784"/>
			<rect x="742.088" y="156.663" class="st87" width="16.867" height="7.786"/>
			<rect x="742.088" y="170.937" class="st87" width="16.867" height="7.785"/>
			<rect x="742.088" y="185.208" class="st87" width="16.867" height="7.788"/>
			<rect x="742.088" y="199.483" class="st87" width="16.867" height="7.788"/>
			<rect x="742.088" y="213.759" class="st87" width="16.867" height="7.783"/>
			<rect x="742.088" y="228.032" class="st87" width="16.867" height="7.784"/>
			<rect x="742.088" y="242.303" class="st87" width="16.867" height="7.788"/>
			<rect x="742.088" y="256.58" class="st87" width="16.867" height="7.785"/>
			<rect x="742.088" y="270.852" class="st87" width="16.867" height="7.785"/>
			<rect x="742.088" y="285.125" class="st87" width="16.867" height="7.788"/>
			<rect x="742.088" y="299.401" class="st87" width="16.867" height="7.788"/>
			<rect x="742.088" y="313.677" class="st87" width="16.867" height="7.783"/>
			<rect x="742.088" y="327.95" class="st87" width="16.867" height="7.784"/>
			<rect x="742.088" y="342.222" class="st87" width="16.867" height="7.787"/>
			<rect x="742.088" y="356.498" class="st87" width="16.867" height="7.788"/>
			<rect x="742.088" y="370.77" class="st87" width="16.867" height="7.785"/>
			<rect x="742.088" y="385.043" class="st87" width="16.867" height="7.786"/>
			<rect x="742.088" y="399.319" class="st87" width="16.867" height="7.784"/>
		</g>
		<g>
			<g>
				<rect x="731.708" y="113.841" class="st97" width="2.596" height="11.677"/>
				<rect x="735.6" y="113.841" class="st97" width="2.594" height="11.677"/>
			</g>
			<g>
				<rect x="731.708" y="128.114" class="st97" width="2.596" height="11.681"/>
				<rect x="735.6" y="128.114" class="st97" width="2.594" height="11.681"/>
			</g>
			<g>
				<rect x="731.708" y="142.389" class="st97" width="2.596" height="11.678"/>
				<rect x="735.6" y="142.389" class="st97" width="2.594" height="11.678"/>
			</g>
			<g>
				<rect x="731.708" y="156.663" class="st97" width="2.596" height="11.678"/>
				<rect x="735.6" y="156.663" class="st97" width="2.594" height="11.678"/>
			</g>
			<g>
				<rect x="731.708" y="170.937" class="st97" width="2.596" height="11.679"/>
				<rect x="735.6" y="170.937" class="st97" width="2.594" height="11.679"/>
			</g>
			<g>
				<rect x="731.708" y="185.208" class="st97" width="2.596" height="11.682"/>
				<rect x="735.6" y="185.208" class="st97" width="2.594" height="11.682"/>
			</g>
			<g>
				<rect x="731.708" y="199.483" class="st97" width="2.596" height="11.678"/>
				<rect x="735.6" y="199.483" class="st97" width="2.594" height="11.678"/>
			</g>
			<g>
				<rect x="731.708" y="213.759" class="st97" width="2.596" height="11.677"/>
				<rect x="735.6" y="213.759" class="st97" width="2.594" height="11.677"/>
			</g>
			<g>
				<rect x="731.708" y="228.032" class="st97" width="2.596" height="11.678"/>
				<rect x="735.6" y="228.032" class="st97" width="2.594" height="11.678"/>
			</g>
			<g>
				<rect x="731.708" y="242.303" class="st97" width="2.596" height="11.68"/>
				<rect x="735.6" y="242.303" class="st97" width="2.594" height="11.68"/>
			</g>
			<g>
				<rect x="731.708" y="256.58" class="st97" width="2.596" height="11.679"/>
				<rect x="735.6" y="256.58" class="st97" width="2.594" height="11.679"/>
			</g>
			<g>
				<rect x="731.708" y="270.852" class="st97" width="2.596" height="11.682"/>
				<rect x="735.6" y="270.852" class="st97" width="2.594" height="11.682"/>
			</g>
			<g>
				<rect x="731.708" y="285.125" class="st97" width="2.596" height="11.681"/>
				<rect x="735.6" y="285.125" class="st97" width="2.594" height="11.681"/>
			</g>
			<g>
				<rect x="731.708" y="299.401" class="st97" width="2.596" height="11.678"/>
				<rect x="735.6" y="299.401" class="st97" width="2.594" height="11.678"/>
			</g>
			<g>
				<rect x="731.708" y="313.677" class="st97" width="2.596" height="11.678"/>
				<rect x="735.6" y="313.677" class="st97" width="2.594" height="11.678"/>
			</g>
			<g>
				<rect x="731.708" y="327.95" class="st97" width="2.596" height="11.678"/>
				<rect x="735.6" y="327.95" class="st97" width="2.594" height="11.678"/>
			</g>
			<g>
				<rect x="731.708" y="342.222" class="st97" width="2.596" height="11.679"/>
				<rect x="735.6" y="342.222" class="st97" width="2.594" height="11.679"/>
			</g>
			<g>
				<rect x="731.708" y="356.498" class="st97" width="2.596" height="11.679"/>
				<rect x="735.6" y="356.498" class="st97" width="2.594" height="11.679"/>
			</g>
			<g>
				<rect x="731.708" y="370.77" class="st97" width="2.596" height="11.681"/>
				<rect x="735.6" y="370.77" class="st97" width="2.594" height="11.681"/>
			</g>
			<g>
				<rect x="731.708" y="385.043" class="st97" width="2.596" height="11.678"/>
				<rect x="735.6" y="385.043" class="st97" width="2.594" height="11.678"/>
			</g>
			<g>
				<rect x="731.708" y="399.319" class="st97" width="2.596" height="11.678"/>
				<rect x="735.6" y="399.319" class="st97" width="2.594" height="11.678"/>
			</g>
		</g>
		<g>
			<g>
				<rect x="762.852" y="113.841" class="st97" width="2.595" height="11.677"/>
				<rect x="766.744" y="113.841" class="st97" width="2.595" height="11.677"/>
			</g>
			<g>
				<rect x="762.852" y="128.114" class="st97" width="2.595" height="11.681"/>
				<rect x="766.744" y="128.114" class="st97" width="2.595" height="11.681"/>
			</g>
			<g>
				<rect x="762.852" y="142.389" class="st97" width="2.595" height="11.678"/>
				<rect x="766.744" y="142.389" class="st97" width="2.595" height="11.678"/>
			</g>
			<g>
				<rect x="762.852" y="156.663" class="st97" width="2.595" height="11.678"/>
				<rect x="766.744" y="156.663" class="st97" width="2.595" height="11.678"/>
			</g>
			<g>
				<rect x="762.852" y="170.937" class="st97" width="2.595" height="11.679"/>
				<rect x="766.744" y="170.937" class="st97" width="2.595" height="11.679"/>
			</g>
			<g>
				<rect x="762.852" y="185.208" class="st97" width="2.595" height="11.682"/>
				<rect x="766.744" y="185.208" class="st97" width="2.595" height="11.682"/>
			</g>
			<g>
				<rect x="762.852" y="199.483" class="st97" width="2.595" height="11.678"/>
				<rect x="766.744" y="199.483" class="st97" width="2.595" height="11.678"/>
			</g>
			<g>
				<rect x="762.852" y="213.759" class="st97" width="2.595" height="11.677"/>
				<rect x="766.744" y="213.759" class="st97" width="2.595" height="11.677"/>
			</g>
			<g>
				<rect x="762.852" y="228.032" class="st97" width="2.595" height="11.678"/>
				<rect x="766.744" y="228.032" class="st97" width="2.595" height="11.678"/>
			</g>
			<g>
				<rect x="762.852" y="242.303" class="st97" width="2.595" height="11.68"/>
				<rect x="766.744" y="242.303" class="st97" width="2.595" height="11.68"/>
			</g>
			<g>
				<rect x="762.852" y="256.58" class="st97" width="2.595" height="11.679"/>
				<rect x="766.744" y="256.58" class="st97" width="2.595" height="11.679"/>
			</g>
			<g>
				<rect x="762.852" y="270.852" class="st97" width="2.595" height="11.682"/>
				<rect x="766.744" y="270.852" class="st97" width="2.595" height="11.682"/>
			</g>
			<g>
				<rect x="762.852" y="285.125" class="st97" width="2.595" height="11.681"/>
				<rect x="766.744" y="285.125" class="st97" width="2.595" height="11.681"/>
			</g>
			<g>
				<rect x="762.852" y="299.401" class="st97" width="2.595" height="11.678"/>
				<rect x="766.744" y="299.401" class="st97" width="2.595" height="11.678"/>
			</g>
			<g>
				<rect x="762.852" y="313.677" class="st97" width="2.595" height="11.678"/>
				<rect x="766.744" y="313.677" class="st97" width="2.595" height="11.678"/>
			</g>
			<g>
				<rect x="762.852" y="327.95" class="st97" width="2.595" height="11.678"/>
				<rect x="766.744" y="327.95" class="st97" width="2.595" height="11.678"/>
			</g>
			<g>
				<rect x="762.852" y="342.222" class="st97" width="2.595" height="11.679"/>
				<rect x="766.744" y="342.222" class="st97" width="2.595" height="11.679"/>
			</g>
			<g>
				<rect x="762.852" y="356.498" class="st97" width="2.595" height="11.679"/>
				<rect x="766.744" y="356.498" class="st97" width="2.595" height="11.679"/>
			</g>
			<g>
				<rect x="762.852" y="370.77" class="st97" width="2.595" height="11.681"/>
				<rect x="766.744" y="370.77" class="st97" width="2.595" height="11.681"/>
			</g>
			<g>
				<rect x="762.852" y="385.043" class="st97" width="2.595" height="11.678"/>
				<rect x="766.744" y="385.043" class="st97" width="2.595" height="11.678"/>
			</g>
			<g>
				<rect x="762.852" y="399.319" class="st97" width="2.595" height="11.678"/>
				<rect x="766.744" y="399.319" class="st97" width="2.595" height="11.678"/>
			</g>
		</g>
		<rect x="770.636" y="99.565" class="st92" width="42.821" height="336.087"/>
		<rect x="687.588" y="99.565" class="st92" width="42.822" height="336.087"/>
		<g>
			<g>
				<rect x="775.826" y="113.841" class="st87" width="9.086" height="7.787"/>
				<rect x="790.1" y="113.841" class="st87" width="16.871" height="7.787"/>
			</g>
			<g>
				<rect x="775.826" y="129.413" class="st87" width="9.086" height="7.785"/>
				<rect x="790.1" y="129.413" class="st87" width="16.871" height="7.785"/>
			</g>
			<g>
				<rect x="775.826" y="144.984" class="st87" width="9.086" height="7.788"/>
				<rect x="790.1" y="144.984" class="st87" width="16.871" height="7.788"/>
			</g>
			<g>
				<rect x="775.826" y="160.555" class="st87" width="9.086" height="7.785"/>
				<rect x="790.1" y="160.555" class="st87" width="16.871" height="7.785"/>
			</g>
			<g>
				<rect x="775.826" y="176.126" class="st87" width="9.086" height="7.785"/>
				<rect x="790.1" y="176.128" class="st87" width="16.871" height="7.783"/>
			</g>
			<g>
				<rect x="775.826" y="191.696" class="st87" width="9.086" height="7.787"/>
				<rect x="790.1" y="191.696" class="st87" width="16.871" height="7.787"/>
			</g>
			<g>
				<rect x="775.826" y="207.271" class="st87" width="9.086" height="7.783"/>
				<rect x="790.1" y="207.271" class="st87" width="16.871" height="7.783"/>
			</g>
			<g>
				<rect x="775.826" y="222.839" class="st87" width="9.086" height="7.787"/>
				<rect x="790.1" y="222.839" class="st87" width="16.871" height="7.787"/>
			</g>
			<g>
				<rect x="775.826" y="238.414" class="st87" width="9.086" height="7.784"/>
				<rect x="790.1" y="238.414" class="st87" width="16.871" height="7.784"/>
			</g>
			<g>
				<rect x="775.826" y="253.983" class="st87" width="9.086" height="7.786"/>
				<rect x="790.1" y="253.983" class="st87" width="16.871" height="7.786"/>
			</g>
			<g>
				<rect x="775.826" y="269.557" class="st87" width="9.086" height="7.785"/>
				<rect x="790.1" y="269.557" class="st87" width="16.871" height="7.785"/>
			</g>
			<g>
				<rect x="775.826" y="285.125" class="st87" width="9.086" height="7.788"/>
				<rect x="790.1" y="285.125" class="st87" width="16.871" height="7.788"/>
			</g>
			<g>
				<rect x="775.826" y="300.7" class="st87" width="9.086" height="7.788"/>
				<rect x="790.1" y="300.7" class="st87" width="16.871" height="7.788"/>
			</g>
			<g>
				<rect x="775.826" y="316.271" class="st87" width="9.086" height="7.785"/>
				<rect x="790.1" y="316.271" class="st87" width="16.871" height="7.785"/>
			</g>
			<g>
				<rect x="775.826" y="331.842" class="st87" width="9.086" height="7.785"/>
				<rect x="790.1" y="331.842" class="st87" width="16.871" height="7.785"/>
			</g>
			<g>
				<rect x="775.826" y="347.412" class="st87" width="9.086" height="7.787"/>
				<rect x="790.1" y="347.412" class="st87" width="16.871" height="7.787"/>
			</g>
			<g>
				<rect x="775.826" y="362.987" class="st87" width="9.086" height="7.783"/>
				<rect x="790.1" y="362.987" class="st87" width="16.871" height="7.783"/>
			</g>
			<g>
				<rect x="775.826" y="378.555" class="st87" width="9.086" height="7.787"/>
				<rect x="790.1" y="378.555" class="st87" width="16.871" height="7.787"/>
			</g>
			<g>
				<rect x="775.826" y="394.129" class="st87" width="9.086" height="7.784"/>
				<rect x="790.1" y="394.129" class="st87" width="16.871" height="7.784"/>
			</g>
		</g>
		<g>
			<g>
				<rect x="714.838" y="113.841" class="st87" width="9.084" height="7.787"/>
				<rect x="692.777" y="113.841" class="st87" width="16.871" height="7.787"/>
			</g>
			<g>
				<rect x="714.838" y="129.413" class="st87" width="9.084" height="7.785"/>
				<rect x="692.777" y="129.413" class="st87" width="16.871" height="7.785"/>
			</g>
			<g>
				<rect x="714.838" y="144.984" class="st87" width="9.084" height="7.788"/>
				<rect x="692.777" y="144.984" class="st87" width="16.871" height="7.788"/>
			</g>
			<g>
				<rect x="714.838" y="160.555" class="st87" width="9.084" height="7.785"/>
				<rect x="692.777" y="160.555" class="st87" width="16.871" height="7.785"/>
			</g>
			<g>
				<rect x="714.838" y="176.126" class="st87" width="9.084" height="7.785"/>
				<rect x="692.777" y="176.126" class="st87" width="16.871" height="7.785"/>
			</g>
			<g>
				<rect x="714.838" y="191.696" class="st87" width="9.084" height="7.787"/>
				<rect x="692.777" y="191.696" class="st87" width="16.871" height="7.787"/>
			</g>
			<g>
				<rect x="714.838" y="207.271" class="st87" width="9.084" height="7.783"/>
				<rect x="692.777" y="207.271" class="st87" width="16.871" height="7.783"/>
			</g>
			<g>
				<rect x="714.838" y="222.839" class="st87" width="9.084" height="7.787"/>
				<rect x="692.777" y="222.839" class="st87" width="16.871" height="7.787"/>
			</g>
			<g>
				<rect x="714.838" y="238.414" class="st87" width="9.084" height="7.784"/>
				<rect x="692.777" y="238.414" class="st87" width="16.871" height="7.784"/>
			</g>
			<g>
				<rect x="714.838" y="253.983" class="st87" width="9.084" height="7.786"/>
				<rect x="692.777" y="253.983" class="st87" width="16.871" height="7.786"/>
			</g>
			<g>
				<rect x="714.838" y="269.557" class="st87" width="9.084" height="7.785"/>
				<rect x="692.777" y="269.557" class="st87" width="16.871" height="7.785"/>
			</g>
			<g>
				<rect x="714.838" y="285.125" class="st87" width="9.084" height="7.788"/>
				<rect x="692.777" y="285.125" class="st87" width="16.871" height="7.788"/>
			</g>
			<g>
				<rect x="714.838" y="300.7" class="st87" width="9.084" height="7.788"/>
				<rect x="692.777" y="300.7" class="st87" width="16.871" height="7.788"/>
			</g>
			<g>
				<rect x="714.838" y="316.271" class="st87" width="9.084" height="7.785"/>
				<rect x="692.777" y="316.271" class="st87" width="16.871" height="7.785"/>
			</g>
			<g>
				<rect x="714.838" y="331.842" class="st87" width="9.084" height="7.785"/>
				<rect x="692.777" y="331.842" class="st87" width="16.871" height="7.785"/>
			</g>
			<g>
				<rect x="714.838" y="347.412" class="st87" width="9.084" height="7.787"/>
				<rect x="692.777" y="347.412" class="st87" width="16.871" height="7.787"/>
			</g>
			<g>
				<rect x="714.838" y="362.987" class="st87" width="9.084" height="7.783"/>
				<rect x="692.777" y="362.987" class="st87" width="16.871" height="7.783"/>
			</g>
			<g>
				<rect x="714.838" y="378.555" class="st87" width="9.084" height="7.787"/>
				<rect x="692.777" y="378.555" class="st87" width="16.871" height="7.787"/>
			</g>
			<g>
				<rect x="714.838" y="394.129" class="st87" width="9.084" height="7.784"/>
				<rect x="692.777" y="394.129" class="st87" width="16.871" height="7.784"/>
			</g>
		</g>
	</g>
</g>
<g class="st101">
	<path class="st51" d="M701.037,57.901c1.253-2.862,4.104-4.867,7.429-4.867c1.205,0,2.339,0.282,3.37,0.756
		c1.497-1.296,3.385-2.144,5.466-2.332c2.056-6.605,8.214-11.401,15.497-11.401c3.18-7.622,10.693-12.98,19.468-12.98
		c8.185,0,15.265,4.674,18.764,11.486c1.286,0.101,2.56,0.255,3.803,0.501c2.599-2.399,6.065-3.875,9.882-3.875
		c2.855,0,5.508,0.833,7.758,2.25c1.681-0.395,3.42-0.627,5.222-0.627c1.675,0,3.306,0.193,4.878,0.539
		c0-0.18-0.014-0.359-0.014-0.539c0-20.308,15.549-36.974,35.388-38.77c10.663-16.681,29.331-27.745,50.597-27.745
		c16.679,0,31.764,6.806,42.642,17.786c2.352-1.004,4.935-1.563,7.651-1.563c10.23,0,18.602,7.895,19.389,17.92
		c13.311,0.63,24.499,9.25,28.885,21.192c2.606-1.149,5.48-1.801,8.51-1.801c8.355,0,15.555,4.873,18.967,11.916
		c1.736-0.363,3.529-0.56,5.366-0.56c13.235,0,24.136,9.911,25.735,22.713H701.037z"/>
	<path class="st79" d="M708.466,53.034c1.205,0,2.339,0.282,3.37,0.756c1.497-1.296,3.385-2.144,5.466-2.332
		c2.056-6.605,8.214-11.401,15.497-11.401c2.13-5.109,6.215-9.191,11.318-11.334c1.125,3.933,2.389,7.758,3.281,11.334
		c1.623,4.867,9.736,11.355,16.224,9.732c19.468,0,37.315,3.245,58.404-3.242c14.604-3.246,19.472-21.094,14.604-35.695
		c14.599,40.561,69.113,39.721,98.313,17.006c6.489-4.865,5.507-13.616,0.639-20.106c-7.022-6.062-13.245-5.743-19.46-3.386
		c3.543-11.815-3.238-24.482-13.449-32.38c10.99,2.654,20.811,8.324,28.511,16.098c2.352-1.004,4.935-1.563,7.651-1.563
		c10.23,0,18.602,7.895,19.389,17.92c13.311,0.63,24.499,9.25,28.885,21.192c2.606-1.149,5.48-1.801,8.51-1.801
		c8.355,0,15.555,4.873,18.967,11.916c1.736-0.363,3.529-0.56,5.366-0.56c13.235,0,24.136,9.911,25.735,22.713h-344.65
		C702.29,55.039,705.141,53.034,708.466,53.034z"/>
</g>
</svg>
