<svg id="hautfarbe_Bild" data-name="hautfarbe Bild" xmlns="http://www.w3.org/2000/svg" viewBox="0 0 159.97 577.88"><defs><style>.cls-1{fill:#dfaf89;}.cls-2{fill:#221409;}.cls-3{fill:#9e7268;}.cls-4{fill:#b48d6e;}.cls-5{fill:#b4806e;}.cls-6{fill:#3f3f3f;}.cls-7{fill:#5d3026;}.cls-8{fill:#b87133;}.cls-9{fill:#b97134;}.cls-10{fill:#1b1a19;}.cls-11{fill:#1b1b1a;}</style></defs><title>frau1</title><path class="cls-1" d="M160.32,226.08a0.57,0.57,0,0,0-.23.19c-0.09,1.57-.21,3.13-0.24,4.7a34,34,0,0,0-.25,4.58c-0.38.78,0,1.67-.28,2.4-0.34.94,0.09,1.95-.44,2.82,0.18,0.91-.26,1.76-0.25,2.66a7.11,7.11,0,0,1-.22,1.22,3.51,3.51,0,0,1-.19,1.24,13.93,13.93,0,0,0-.25,1.57,12,12,0,0,0-.28,2.17c0,0.29-.17.57-0.23,0.86a3.36,3.36,0,0,1-.18.89,9.58,9.58,0,0,0-.26,1.68c-0.17.69-.4,1.38-0.5,2.07s-0.34,1.32-.43,2c-0.12.87-.36,1.7-0.56,2.54-0.33,1.38-.72,2.74-1.08,4.11-0.25,1-.52,1.94-0.83,2.9-0.49,1.56-.94,3.13-1.45,4.68-0.39,1.16-.86,2.28-1.28,3.43s-0.89,2.27-1.32,3.41c-0.28.73-.61,1.43-0.92,2.14-0.95,2.17-1.93,4.33-3,6.41a79,79,0,0,1-4.39,7.3c-0.68,1-1.35,2-2,3a3.14,3.14,0,0,1-.42.43,2.15,2.15,0,0,0-.58,2.39,11.29,11.29,0,0,1,.58,3.25,9.09,9.09,0,0,0,.23,1.58c0.08,0.49-.22,1,0.23,1.47a0.38,0.38,0,0,1,0,.23,33,33,0,0,0,.24,4.1,27.89,27.89,0,0,1,0,4.07c-0.14,1.09-.05,2.2-0.24,3.26-0.14.82-.06,1.64-0.23,2.42-0.27,1.22-.33,2.46-0.66,3.68a19.48,19.48,0,0,1-1,3.56,6.22,6.22,0,0,1-.74,2.45c-0.25.77-.62,1.5-0.95,2.25a1.69,1.69,0,0,0-.23.5,18.73,18.73,0,0,0-.25,3.5,73.66,73.66,0,0,1,.23,9.5c0,3.24,0,6.48,0,9.72s-0.2,6.42.05,9.6,0.11,6.42.17,9.62,0,6.56,0,9.84-0.2,6.49.05,9.72c0.27,3.53.12,7.06,0.17,10.58s0,7.2,0,10.8,0,7.12,0,10.68c0,0.72-.31,1.35-0.27,2.06a6.66,6.66,0,0,1,0,2.15,20.51,20.51,0,0,0-.22,2.79,8.62,8.62,0,0,1-.42,2.22,1.55,1.55,0,0,0,0,.58,3.09,3.09,0,0,1-.22,1.35,10.78,10.78,0,0,1-.21,1.23c-0.23.43-.06,1-0.25,1.57a9.51,9.51,0,0,0-.27,2,5.33,5.33,0,0,0-.24,1.82c-0.55.47,0.08,1.25-.45,1.74a0.9,0.9,0,0,0,0,.46,2.86,2.86,0,0,1-.22,1.35c-0.2.38,0,.87-0.21,1.35a5.48,5.48,0,0,0-.26,1.68,32.82,32.82,0,0,1-.57,3.63,35.32,35.32,0,0,1-.64,3.68,15,15,0,0,0-.27,2.17c-0.05.37-.16,0.73-0.23,1.1s-0.17.81-.24,1.22a3.33,3.33,0,0,1-.19,1.12c-0.23.44-.06,1-0.25,1.57s-0.11,1.46-.3,2.16c-0.33,1.25-.27,2.55-0.68,3.79a12.58,12.58,0,0,0-.27,2.17c-0.05.37-.18,0.73-0.23,1.1s-0.14.67-.2,1c-0.11.55-.15,1.13-0.27,1.69-0.15.75-.17,1.53-0.26,2.3,0,0.37-.16.73-0.23,1.1s-0.17.81-.24,1.22a3.7,3.7,0,0,1-.2,1.12,15.45,15.45,0,0,0-.25,1.57,13,13,0,0,0-.28,2.17c-0.05.37-.18,0.73-0.23,1.1a7.29,7.29,0,0,1-.21,1,12.29,12.29,0,0,0-.23,1.82c-0.13,1.22-.37,2.43-0.58,3.63a25.7,25.7,0,0,1-.64,3.44c-0.22.68-.1,1.47-0.28,2.17-0.33,1.25-.18,2.58-0.7,3.79a5.07,5.07,0,0,1-.27,2.06,11,11,0,0,1-.41,2.22c-0.19.51-.09,1.12-0.25,1.69a17,17,0,0,0-.27,2.29c0,0.37-.16.73-0.23,1.1s-0.17.81-.24,1.22a3.31,3.31,0,0,1-.19,1.12c-0.23.44-.06,1-0.25,1.57a11.13,11.13,0,0,0-.28,2.17c-0.05.37-.18,0.73-0.23,1.1a6.87,6.87,0,0,1-.21,1,11.43,11.43,0,0,0-.23,1.81c-0.14,1.22-.37,2.43-0.58,3.63a21.41,21.41,0,0,1-.64,3.44c-0.23.67-.12,1.46-0.29,2.17A6.75,6.75,0,0,0,119,534c-0.53.52,0.06,1.33-.48,1.84a9.78,9.78,0,0,1-.21,1.7,30.51,30.51,0,0,1-.56,3.63,35.46,35.46,0,0,1-.64,3.68,15,15,0,0,0-.27,2.17c-0.05.37-.16,0.73-0.23,1.1s-0.16.81-.24,1.22a1.26,1.26,0,0,1-.24,1.1c0,1.29-.46,2.57-0.22,3.85a3.5,3.5,0,0,0,.74,1.73,11.75,11.75,0,0,0,6.14,3.44c1.14,0.3,2.3.41,3.42,0.71,1.45,0.39,2.9.11,4.4,0.25a9.11,9.11,0,0,0,5.38.9c0.65,1,1.34,1.92,2,2.91a17.93,17.93,0,0,1,2,4.56c0.24,0.82.42,1.67,0.61,2.51,0.5,2.15.1,4.33,0.27,6.56H97.71l0-.5-0.94-.69V555.21l0.95-.82v-1q0-5.64,0-11.28a5.65,5.65,0,0,1,.14-1.86c0.2-.55-0.17-1.2.34-1.66a8.25,8.25,0,0,1,.25-2.06,6.21,6.21,0,0,1,.22-1.1,1.37,1.37,0,0,1,.23-1.11,0.69,0.69,0,0,0,0-.35,3.66,3.66,0,0,1,.21-1.47c0.17-.4-0.12-0.93.26-1.34a0.71,0.71,0,0,0,0-.35,5,5,0,0,1,.21-1.71c0.18-.48-0.12-1.09.27-1.57-0.18-.87.29-1.68,0.26-2.54a8.68,8.68,0,0,1,.22-1.58c0.08-.53-0.2-1.11.24-1.58a0.27,0.27,0,0,0,0-.12c0.08-1,.15-2.09.24-3.14,0.05-.57.17-1.13,0.23-1.7a2.67,2.67,0,0,1,.24-1.58,0.18,0.18,0,0,0,0-.12c-0.18-1.22.28-2.4,0.26-3.62a31.43,31.43,0,0,0,.22-3.38c0.41-.86.08-1.79,0.27-2.65,0.24-1.09,0-2.21.26-3.26s0-2.21.23-3.26c0.26-1.22,0-2.45.24-3.62s0-2.61.24-3.86c0.3-1.5,0-3,.24-4.46,0.3-1.7,0-3.4.24-5.06,0.32-2,0-4,.24-5.9,0.36-2.61,0-5.23.24-7.82,0.36-3.29.13-6.58,0.19-9.86s0-6.64,0-10v-10c0-3,0-6.08,0-9.12,0-.94-0.35-1.83-0.27-2.78s0-2,0-3a14.84,14.84,0,0,0,0-2.87c-0.38-1.89,0-3.8-.24-5.66s0-3.64-.26-5.42c-0.21-1.42,0-2.84-.21-4.22s0-2.84-.27-4.22c-0.19-1.14,0-2.28-.22-3.38s0-2.44-.26-3.62a27.69,27.69,0,0,1-.2-2.79c0-.53-0.19-1.05-0.23-1.58a6.79,6.79,0,0,0,0-1.67,7,7,0,0,1-.2-2.31,12.64,12.64,0,0,1-.27-1.82,2.23,2.23,0,0,0-.21-1.7,0.55,0.55,0,0,1,0-.24c-0.08-1.21-.14-2.42-0.25-3.62a8.47,8.47,0,0,1-.24-1.58,5.25,5.25,0,0,0-.19-1.59,25.21,25.21,0,0,1-.28-3c0-.49-0.15-1-0.24-1.46s0.21-1-.22-1.35a0.64,0.64,0,0,1,0-.35,5.14,5.14,0,0,0-.21-1.59,4.76,4.76,0,0,0-.27-1.57,10.47,10.47,0,0,0-.25-2.54c0-.41-0.18-0.81-0.22-1.22a6.31,6.31,0,0,0-.21-1.23,13.44,13.44,0,0,1-.28-2.17c-0.05-.37-0.18-0.73-0.23-1.1s-0.14-.67-0.2-1c-0.11-.55-0.13-1.13-0.27-1.69a6.28,6.28,0,0,0-.29-1.67c-0.34-.54-0.06-1.12-0.39-1.66a4.82,4.82,0,0,1-.27-1.43c-0.26-1.37-.57-2.71-0.93-4.05-0.27-1-.51-2-0.75-3.05-0.35-1.53-.85-3-1.32-4.5A35.15,35.15,0,0,0,91,332.24a8.74,8.74,0,0,0-2.9-3.34,2.32,2.32,0,0,1-.35-0.34H85.6c-0.4.31-.81,0.6-1.19,0.92a12.2,12.2,0,0,0-2.79,4,39.68,39.68,0,0,0-2.4,6.2c-0.66,2.1-1.18,4.24-1.72,6.37-0.41,1.59-.77,3.2-1.11,4.8-0.21,1-.37,2-0.57,3a32.36,32.36,0,0,1-.65,3.2,13.3,13.3,0,0,0-.27,2.17c-0.05.37-.17,0.73-0.23,1.1a1.2,1.2,0,0,1-.24,1,0.69,0.69,0,0,0,0,.35,3.64,3.64,0,0,1-.21,1.47c-0.17.4,0.12,0.93-.26,1.34a0.71,0.71,0,0,0,0,.35,5,5,0,0,1-.21,1.71c-0.18.48,0.12,1.09-.27,1.57,0.19,0.87-.29,1.67-0.26,2.54a8.28,8.28,0,0,1-.22,1.58c-0.08.53,0.22,1.11-.24,1.58a0.26,0.26,0,0,0,0,.12c-0.08,1-.15,2.09-0.24,3.14,0,0.53-.14,1.06-0.24,1.58s0.25,1.11-.22,1.59a0.34,0.34,0,0,0,0,.23c0.18,1.26-.4,2.49-0.23,3.74a14.3,14.3,0,0,1-.26,1.58,4.7,4.7,0,0,1,0,1.67,18.11,18.11,0,0,0-.23,2.55c-0.24,1.13,0,2.29-.26,3.38s0,2.12-.22,3.14c-0.25,1.29,0,2.61-.26,3.86s0,2.36-.22,3.51c-0.3,1.61,0,3.24-.26,4.82s0,3.16-.22,4.7c-0.32,2.09,0,4.2-.25,6.26-0.34,2.54.05,5.07-.23,7.58-0.37,3.25-.14,6.5-0.2,9.74s0,6.48,0,9.72v9.84c0,3.24,0,6.48,0,9.72,0,0.94.34,1.83,0.27,2.78s0,2,0,3a14.88,14.88,0,0,0,0,2.87c0.37,1.85,0,3.71.24,5.54s0,3.72.27,5.54c0.2,1.42,0,2.84.21,4.22s0,2.84.27,4.22a23.56,23.56,0,0,1,.17,3.27,11.26,11.26,0,0,1,.27,1.82,4.65,4.65,0,0,0,0,1.91,25.11,25.11,0,0,1,.23,2.79c0.22,1.09.05,2.2,0.26,3.26a13.32,13.32,0,0,1,.18,2.31,11.78,11.78,0,0,1,.27,1.82,2.22,2.22,0,0,0,.21,1.7,0.55,0.55,0,0,1,0,.24,31.11,31.11,0,0,0,.27,3.61c0.16,0.86.05,1.73,0.25,2.54a16,16,0,0,0,.24,2.05,19,19,0,0,1,.22,2c0.21,0.65.09,1.32,0.25,1.94s0.05,1.27.25,1.81,0,1.2.23,1.7a5.69,5.69,0,0,1,.21,1.71c0,0.33.16,0.65,0.23,1a1.29,1.29,0,0,0,.21,1,0.53,0.53,0,0,1,0,.34c-0.05,1.32.54,2.56,0.48,3.88,0.36,0.44.1,1,.27,1.45s0.07,0.94.23,1.34a7.23,7.23,0,0,1,.2,2.79c0,3.56,0,7.12,0,10.68v1.06l1,0.75v21.46l-0.94.73-0.06.5H32.4c0-1.51,0-3.06,0-4.6a15.77,15.77,0,0,1,.8-4.36A13.62,13.62,0,0,1,34.84,565c0.79-1.24,1.58-2.48,2.35-3.69,0.71,0,1.3,0,1.9,0a6.84,6.84,0,0,0,3.17-.75,2.23,2.23,0,0,1,1-.22h1.44a12.07,12.07,0,0,0,3.29-.46c0.51-.13,1-0.12,1.58-0.23A14.52,14.52,0,0,0,55,557.49a4.43,4.43,0,0,0,2.22-2.86,8.45,8.45,0,0,0,0-2.8,4.2,4.2,0,0,0-.38-1.87,29.84,29.84,0,0,0-.52-3.64c-0.11-1.05-.36-2.1-0.47-3.16s-0.35-1.94-.5-2.92a6.76,6.76,0,0,0-.23-1.45c-0.18-.46-0.09-0.93-0.23-1.35-0.37-1.12-.32-2.31-0.67-3.44a9.66,9.66,0,0,1-.22-1.82c-0.13-1.22-.37-2.43-0.58-3.63a25.48,25.48,0,0,0-.64-3.44c-0.22-.68-0.1-1.47-0.28-2.17-0.32-1.25-.19-2.58-0.7-3.79a5.06,5.06,0,0,0-.27-2.06,11.45,11.45,0,0,0-.41-2.22c-0.19-.51-0.1-1.12-0.25-1.69a18.5,18.5,0,0,1-.27-2.29c0-.37-0.16-0.73-0.23-1.1s-0.17-.81-0.24-1.22a3.32,3.32,0,0,0-.19-1.12c-0.23-.44-0.06-1-0.25-1.57a11.16,11.16,0,0,1-.28-2.17c-0.05-.37-0.18-0.73-0.23-1.1a6.87,6.87,0,0,0-.21-1,11.42,11.42,0,0,1-.23-1.81c-0.14-1.22-.37-2.43-0.58-3.63a21.48,21.48,0,0,0-.64-3.44c-0.23-.67-0.12-1.46-0.29-2.17a6.76,6.76,0,0,1-.22-1.95c-0.53-.52.06-1.33-0.48-1.84a5.45,5.45,0,0,0-.25-1.94,14.52,14.52,0,0,0-.44-2.34c-0.17-.5,0-1-0.23-1.58a11.59,11.59,0,0,1-.29-2.29c0-.37-0.16-0.73-0.23-1.1a3,3,0,0,0-.16-1c-0.26-.48.07-1.15-0.32-1.66a17.9,17.9,0,0,0-.53-3.63,18.21,18.21,0,0,0-.67-3.67,5.08,5.08,0,0,0-.27-2.06,9.82,9.82,0,0,0-.41-2.22c-0.19-.47-0.06-1-0.24-1.58s-0.07-1.49-.31-2.16-0.12-1.42-.41-2.11a7.06,7.06,0,0,1-.23-1.81c-0.14-1.22-.37-2.43-0.58-3.63a25.44,25.44,0,0,0-.64-3.44,13,13,0,0,1-.27-2.29c0-.37-0.17-0.73-0.23-1.1a10.31,10.31,0,0,0-.19-1.11,8.83,8.83,0,0,1-.26-1.69,31,31,0,0,0-.56-3.63c-0.22-1.22-.38-2.46-0.62-3.68a12.24,12.24,0,0,1-.31-3.25,16,16,0,0,0-.21-2.06,8.38,8.38,0,0,0,0-2,7.44,7.44,0,0,1-.19-2.43q0-14.28,0-28.56c0.5-4.92.17-9.85,0.23-14.78s0-9.84,0-14.76c0.48-2.35.18-4.73,0.23-7.1s0-4.72,0-7.08v-7.2c0-2.36,0-4.72,0-7.08,0-1.26.41-2.48,0.25-3.74-0.1-.8-0.18-1.61-0.26-2.28-0.43-1-.83-1.87-1.18-2.77a12.81,12.81,0,0,1-1-3.2c-0.42-.36-0.21-0.93-0.45-1.38a10.46,10.46,0,0,1-.28-1.44,23,23,0,0,1-.66-3.55c-0.19-1.06-.22-2.17-0.34-3.25-0.17-1.42-.15-2.82-0.18-4.23s0-2.8,0-4.2c0-1.13.17-2.26,0.29-3.38a22.89,22.89,0,0,1,.43-3.16,1.46,1.46,0,0,0,.23-0.86,1.59,1.59,0,0,1,.23-0.86,6.17,6.17,0,0,0,0-1,52.1,52.1,0,0,1-4.78-6.59,47.89,47.89,0,0,1-2.66-4.53c-0.71-1.39-1.45-2.76-2.15-4.15a28.14,28.14,0,0,1-1.59-3.42c-0.4-1.16-.94-2.26-1.35-3.4-0.48-1.32-1-2.63-1.48-3.94s-1-2.62-1.39-4a11.75,11.75,0,0,0-.45-1.61,11.92,11.92,0,0,1-.51-1.71,13.19,13.19,0,0,0-.47-1.6c-0.53-1.29-.72-2.66-1.12-4a29.84,29.84,0,0,1-.76-3.41c-0.08-.45-0.14-0.9-0.25-1.34a8.1,8.1,0,0,0-.41-1.39c-0.19-.43,0-0.87-0.25-1.34a6.89,6.89,0,0,1-.28-1.68c-0.16-1.13-.42-2.25-0.55-3.39a4.44,4.44,0,0,0-.24-1.56,8.24,8.24,0,0,1-.22-1.48c-0.26-.61,0-1.28-0.26-1.81s0-1.27-.23-1.83a7,7,0,0,1-.22-2,8.84,8.84,0,0,1-.25-1.58,2.09,2.09,0,0,0-.22-1.58,0.21,0.21,0,0,1,0-.12c0.09-1.46-.4-2.88-0.25-4.34,0.1-.9-0.34-1.74-0.25-2.66a8.91,8.91,0,0,0,0-2.63,27.17,27.17,0,0,1-.2-4.95c0-1.64,0-3.28,0-4.92,0-.84,0-1.68,0-2.52s0.36-1.82.27-2.78a8.5,8.5,0,0,1,0-2.75,22,22,0,0,0,.21-3.39c0-.49.15-1,0.23-1.46s-0.22-1,.23-1.47a0.51,0.51,0,0,0,0-.23c0.08-1.21.15-2.41,0.25-3.62,0-.45.17-0.89,0.23-1.34a3.3,3.3,0,0,1,.22-1.36,3.33,3.33,0,0,0,0-1.06,10,10,0,0,0,.22-1c0-1.28.54-2.48,0.49-3.76,0.5-.57.12-1.32,0.44-2s0.08-1.4.31-2c0.31-.85.16-1.81,0.69-2.59-0.12-1,.41-1.93.52-2.92a24.57,24.57,0,0,1,.85-3.23c0.28-1.09.5-2.19,0.8-3.27s0.67-2,.94-3c0.36-1.29.73-2.57,1.21-3.82s0.88-2.36,1.3-3.54,0.83-2.29,1.34-3.41c0.32-.7.55-1.45,0.88-2.16,1-2.15,1.94-4.33,3.07-6.41a85,85,0,0,1,4.46-7.4c1-1.41,2-2.78,3-4.15,0.61-.81,1.42-1.47,2-2.3a24.39,24.39,0,0,1,2.65-2.85,46.15,46.15,0,0,1,7-5.6,8.68,8.68,0,0,1,1.11-.55v-0.93a1.84,1.84,0,0,0,.59,0c0.94-.43,1.87-0.9,2.81-1.32s1.91-.8,2.86-1.19a0.62,0.62,0,0,1,.19-0.11,13.86,13.86,0,0,0,2.54-.26c5.08,0,10.16,0,15.24,0h1.2v-17a20.81,20.81,0,0,0-2-1.73,5.57,5.57,0,0,1-.8-0.64c-1.14-1.12-2.29-2.23-3.39-3.39a33.7,33.7,0,0,1-2.84-3.62c-0.52-.73-1-1.51-1.46-2.27a50.29,50.29,0,0,1-2.63-4.79c-1.33-2.81-2.26-5.78-3.34-8.69a35.72,35.72,0,0,0-.79-3.53c-0.16-1.18-.53-2.34-0.71-3.54a11.33,11.33,0,0,0-.57-2.7,15.87,15.87,0,0,1-3.28-2.33A14.92,14.92,0,0,1,48.1,67.4a22.31,22.31,0,0,1-1.89-3.66,13,13,0,0,1-.38-3.32c0-1.17.86-2,1.26-2.94L49,56.35l4.66,0.22A3,3,0,0,0,54,55.26a15.27,15.27,0,0,1,.42-2.58,9.48,9.48,0,0,0,.22-1.7c0.08-.56.27-1.11,0.31-1.69s0.36-1.1.39-1.62a25.54,25.54,0,0,1,.82-3.52A30.28,30.28,0,0,1,57.27,41c0.55-1.65,1.31-3.22,1.91-4.85,0.66-1.8,1.76-3.34,2.54-5.07A19.55,19.55,0,0,1,63.81,28a28.7,28.7,0,0,1,3.39-4.12c0.92-.89,1.81-1.81,2.74-2.73h33.41c1.27,1.27,2.67,2.53,3.89,3.94a39.87,39.87,0,0,1,2.48,3.27c0.58,0.84,1,1.76,1.69,2.55a6.15,6.15,0,0,1,.52,1c0.5,0.91,1.08,1.79,1.51,2.74,0.64,1.41,1.21,2.86,1.8,4.29,0.5,1.2.86,2.44,1.32,3.65a4.64,4.64,0,0,1,.56,2.17c0.49,0.57.3,1.39,0.72,2,0,1.5.78,2.87,0.72,4.38,0.35,0.49,0,1.14.28,1.56a4.41,4.41,0,0,1,.2,1.48,3.24,3.24,0,0,1,.24,1.22,10,10,0,0,0,0,1.17c0.62,0.38,1.11-.22,1.69-0.15a13.14,13.14,0,0,0,1.68,0h1.73l1.75,1.05,1.07,1.75c0,0.8,0,1.64,0,2.48a10.41,10.41,0,0,1-1.69,5.18,16.37,16.37,0,0,1-2.91,3.58,13.84,13.84,0,0,1-3.52,2.49,44.77,44.77,0,0,1-.79,4.78c-0.38,1.4-.64,2.83-1.07,4.23-0.5,1.63-1.07,3.24-1.55,4.89a22.48,22.48,0,0,1-1.06,2.68A29,29,0,0,1,113,92.92c-0.75,1.25-1.39,2.56-2.19,3.79s-1.65,2.34-2.43,3.54a13.91,13.91,0,0,1-1.68,1.94c-0.8.84-1.64,1.64-2.45,2.47a17.69,17.69,0,0,1-2.94,2.47,5.51,5.51,0,0,0-.76.73V124.8h0.91c1.64,0,3.28,0,4.92,0a14.07,14.07,0,0,0,3.25-.27,21.23,21.23,0,0,1,3.63-.2c0.47,0,.84.34,1.34,0.26a1.27,1.27,0,0,1,1.22.21,0.52,0.52,0,0,0,.23,0c1,0.08,2.09.15,3.14,0.25a2.48,2.48,0,0,1,1.09.25,21.7,21.7,0,0,0,2.33,1.05c0.93,0.46,1.87.9,2.81,1.32a1.44,1.44,0,0,0,.51,0v0.72c1.1,0.78,2.09,1.53,3.13,2.23a34.84,34.84,0,0,1,6.13,5.45c1.09,1.19,2.08,2.48,3.11,3.72a69.29,69.29,0,0,1,4.19,6c0.75,1.11,1.41,2.28,2.06,3.46,0.92,1.66,1.81,3.32,2.62,5,0.53,1.1,1.1,2.2,1.55,3.32s0.92,2.18,1.31,3.3,0.92,2.42,1.38,3.62,0.86,2.44,1.27,3.67,0.8,2.55,1.16,3.84c0.24,0.86.44,1.74,0.74,2.57s0.41,1.66.67,2.48a25.69,25.69,0,0,1,.63,2.49,25.06,25.06,0,0,1,.54,2.53c0.11,1,.64,1.81.51,2.8a1.11,1.11,0,0,1,.25,1,5.89,5.89,0,0,1,.22,1c0,0.7.43,1.34,0.25,2.06,0.52,0.52.14,1.24,0.43,1.86a8.14,8.14,0,0,1,.3,2.28c0.05,0.41.17,0.81,0.23,1.22a1.63,1.63,0,0,0,.24,1.22,0.26,0.26,0,0,1,0,.12c0.08,1,.15,2,0.24,3,0.05,0.57.17,1.13,0.23,1.7a7.19,7.19,0,0,0,.2,1.72,7.42,7.42,0,0,1,.05,1.9c0,0.77.18,1.53,0.22,2.3a11.76,11.76,0,0,0,0,2.39,13.87,13.87,0,0,1,.2,2.91c0,0.18,0,.35.24,0.35v14.16ZM48.44,209.76A13.66,13.66,0,0,1,45,205.35a34.93,34.93,0,0,1-2.4-5.48c-0.46-1.33-.89-2.68-1.23-4a42,42,0,0,1-1.25-6,6.33,6.33,0,0,0-.36-1.19,6.63,6.63,0,0,1-.16,1,1.84,1.84,0,0,0-.2.89,5.08,5.08,0,0,0-.22.86,21.19,21.19,0,0,1-.47,3.76,28.23,28.23,0,0,0-.26,2.9,1,1,0,0,1,0,.36c-0.55,1-.15,2-0.42,3.06s0,2.32-.27,3.49c-0.19.9,0,1.84-.23,2.78a18.26,18.26,0,0,0,0,2.75c0,0.89-.28,1.75-0.25,2.66,0.06,1.36,0,2.72,0,4.08,0,2.08,0,4.16,0,6.24a41.8,41.8,0,0,0,.2,6.26c0.23,1.3-.08,2.65.24,4,0.21,0.89.05,1.84,0.22,2.78,0.21,1.18,0,2.41.27,3.62a6.41,6.41,0,0,0,.26,2.06,28.66,28.66,0,0,0,.45,4,10.8,10.8,0,0,1,.28,3,0.42,0.42,0,0,0,0,.23c0.58,1.2.45,2.53,0.67,3.79a13.74,13.74,0,0,1,.52,3.15c0.49,0.34,0,.93.34,1.3s0,1,.34,1.43a2.91,2.91,0,0,1,.24,1.31c0.11,1.34.83,2.54,0.77,3.89a12.73,12.73,0,0,1,.88,3.11,17.6,17.6,0,0,1,.82,3.28,4.7,4.7,0,0,0,.56,1.3,84.92,84.92,0,0,1,12.38-19.87,3.4,3.4,0,0,1,0-1.43,7.72,7.72,0,0,0,.39-2,6.41,6.41,0,0,0,0-2.5c-0.1-.88.33-1.68,0.27-2.54-0.13-1.72.15-3.45-.21-5.19a14.31,14.31,0,0,1,0-2.87,1.53,1.53,0,0,0,0-.81,1.53,1.53,0,0,1-.21-1,7,7,0,0,1-.23-1c0-.81-0.11-1.61-0.21-2.42a18,18,0,0,1-.52-3.27,9.17,9.17,0,0,1-.54-1.94c-0.23-.63-0.4-1.28-0.59-1.91s-0.37-1.29-.57-1.93a35.59,35.59,0,0,0-1.92-5.08,39.39,39.39,0,0,0-3.52-6.54H48.44Zm80.14,61.37c0.16-.63.26-1.1,0.39-1.56,0.31-1.07.65-2.14,0.88-3.23a15.83,15.83,0,0,0,.73-3.42,6.23,6.23,0,0,0,.57-2,7.66,7.66,0,0,0,.38-2.13c0.51-.43,0-1.17.48-1.6a5.15,5.15,0,0,1,.25-1.7,9.24,9.24,0,0,1,.26-2.29c0.32-1.05.32-2.16,0.67-3.2a5.69,5.69,0,0,0,0-1.19,11.08,11.08,0,0,1,.23-1.22c0.07-.33.19-0.65,0.23-1a3.3,3.3,0,0,1,0-1.06,2.74,2.74,0,0,0,.19-1.71,11.59,11.59,0,0,1,.27-1.82c0.05-1.25.15-2.49,0.23-3.74a0.51,0.51,0,0,1,0-.23c0.46-.43.15-1,0.23-1.47a14.2,14.2,0,0,0,.23-1.46c0.11-1.56,0-3.13.2-4.71,0.26-2,0-4.08.25-6.14a37.41,37.41,0,0,0,0-5.15,34.26,34.26,0,0,0-.19-5.07,19.11,19.11,0,0,1,0-3.71c0-1.22-.41-2.4-0.25-3.62,0.19-1.5-.31-3-0.24-4.46a0.22,0.22,0,0,0,0-.12,2,2,0,0,1-.22-1.58c0.08-.61-0.3-1.12-0.26-1.7,0.11-1.34-.43-2.64-0.24-4a0.37,0.37,0,0,0,0-.24c-0.44-.52,0-1.21-0.27-1.69a4.57,4.57,0,0,1-.2-1.72c0-.11,0-0.22,0-0.36H133a1.94,1.94,0,0,1,0,1c-0.45.43,0,1-.36,1.44a3.75,3.75,0,0,0-.33,1.41c-0.2,1-.59,2-0.82,3s-0.6,1.75-.85,2.64a19.91,19.91,0,0,0-1,2.59c-1.3,2.45-2.46,5-4.71,6.82h-0.42c-0.38.62-.78,1.21-1.11,1.83a51.8,51.8,0,0,0-2.72,5.59c-0.38,1-.83,2-1.12,3s-0.66,2.05-1,3.08-0.56,1.93-.82,2.89a27,27,0,0,0-.61,3,5.73,5.73,0,0,1-.24,1.56,3.34,3.34,0,0,0-.19,1c-0.07.37-.19,0.73-0.23,1.1a18.28,18.28,0,0,1-.2,2.19,20.63,20.63,0,0,0-.28,3.49c0,0.92,0,1.84,0,2.76,0.1,2-.21,4.1.2,6.15a34.47,34.47,0,0,1,.28,3.61,2.73,2.73,0,0,0,.61,1.65,30.39,30.39,0,0,1,2.18,2.71c0.63,0.81,1.18,1.67,1.79,2.49,0.83,1.12,1.53,2.33,2.31,3.47,1.09,1.58,1.93,3.29,2.91,4.93C127.1,267.78,127.75,269.41,128.57,271.13Z" transform="translate(-8.72)"/><path class="cls-2" d="M88.8,0A0.61,0.61,0,0,0,89,.22,30,30,0,0,1,97,1.94a38.11,38.11,0,0,1,9.71,4.87A35.31,35.31,0,0,1,113,12.08c1.45,1.58,3.07,3,4.39,4.7,1.7,2.16,3.25,4.45,4.74,6.76a61.86,61.86,0,0,1,4.43,8.54,20.12,20.12,0,0,1,1.24,3.9,15.53,15.53,0,0,0,6.85,9.88l0.59,0.41a0.78,0.78,0,0,1,.1.2l-3.51,2.69c0.21,1.64.45,3.25,0.63,4.87s0.32,3.28.49,4.92c0.12,1.17.36,2.33,0.37,3.5q0,4-.15,8.07a45.59,45.59,0,0,1-.48,5c-0.41,2.65-1,5.28-1.41,7.92a58.21,58.21,0,0,1-2.86,10.25c-0.49,1.34-1,2.68-1.49,4a1.14,1.14,0,0,0-.07,1,33.41,33.41,0,0,0,4.41,8.26c0.85,1.12,1.7,2.25,2.64,3.29a32.46,32.46,0,0,0,6.2,5.48,35.36,35.36,0,0,0,6.25,3.3,39,39,0,0,0,6.79,1.9,21.28,21.28,0,0,0,3.18.26c0.88,0,1.76,0,2.64,0a37.36,37.36,0,0,0,7.25-.77c0.76-.12,1.55-0.13,2.45-0.21a3.47,3.47,0,0,1-.41.81c-2.09,2.19-4.09,4.47-6.31,6.52a67.42,67.42,0,0,1-12.11,8.94c-3,1.75-6.28,3.15-9.42,4.74a0.72,0.72,0,0,1-1-.27c-1.25-1.55-2.41-3.19-3.75-4.66a42.49,42.49,0,0,0-3.9-3.67c-1.42-1.22-2.93-2.33-4.42-3.47-0.3-.23-0.68-0.36-1-0.57s-0.53-.42,0-0.86c-2.39-1-4.69-1.88-7-2.78a5.12,5.12,0,0,0-1.16-.15l-3-.4a7.81,7.81,0,0,0-.94-0.08c-1.44,0-2.88-.05-4.32,0-1,0-1.93.25-2.9,0.39a2.64,2.64,0,0,1-.34.07h-6V107.9a38.3,38.3,0,0,0,7.09-6.66,44.84,44.84,0,0,0,6.53-10.56,56.28,56.28,0,0,0,3.84-11.5c0.39-1.78.66-3.59,1-5.39a2.15,2.15,0,0,1,1.35-1.48A13.3,13.3,0,0,0,124.23,69a21,21,0,0,0,1.87-2.77A10.42,10.42,0,0,0,127.54,62a5.93,5.93,0,0,0-.15-2.5,3.82,3.82,0,0,0-2-2.78,8,8,0,0,0-3.23-.78,11.45,11.45,0,0,0-2.52.43L119.32,55c-2.64.35-5.14,0.81-7.67,1s-5,0-7.41,0a41.57,41.57,0,0,1,1,4.09,9.68,9.68,0,0,1-1.15,6.12,4.43,4.43,0,0,1-.72,1,2.51,2.51,0,0,1-4,0,6.7,6.7,0,0,1-1.66-3.39,10.13,10.13,0,0,1,1.67-8.66c-16.71-4.84-27-15.76-30.91-32.73a27.69,27.69,0,0,0-4.41,4.87,46.23,46.23,0,0,0-4.82,8.2,57.12,57.12,0,0,0-3.86,11.13c-0.4,1.73-.83,3.46-1.17,5.21-0.17.84-.17,1.72-0.27,2.58-0.08.66-.2,1.31-0.31,2a8,8,0,0,1-2-.26,3.81,3.81,0,0,0-2.5.12,3.84,3.84,0,0,0-2.75,1.86,8.47,8.47,0,0,0-.83,2.74A6.94,6.94,0,0,0,46,63.34a12,12,0,0,0,1.81,3.84,18.15,18.15,0,0,0,3,3.59c0.89,0.8,1.93,1.42,2.87,2.17a1.54,1.54,0,0,1,.58.89,58.45,58.45,0,0,0,3.43,13.59,50,50,0,0,0,5.75,11.09A46.19,46.19,0,0,0,70.14,106a28.88,28.88,0,0,0,2.55,1.92v16.81c-0.3,0-.61.07-0.91,0.07-4.32,0-8.64,0-13,0a1.92,1.92,0,0,1-1.54-.68A65.42,65.42,0,0,1,49,113.53,79.84,79.84,0,0,1,44.72,106,66.78,66.78,0,0,1,38.6,84.63c-0.19-2-.46-4-0.45-6a16.1,16.1,0,0,0-.23-2c-0.24-2-.48-4-0.71-5.94a7.31,7.31,0,0,1,0-.84c0-2.48,0-5,0-7.44,0-1.78,0-3.57.25-5.34a92.56,92.56,0,0,1,2.65-14.55A84.39,84.39,0,0,1,43,34c1-2.58,2.3-5.07,3.56-7.55a60.69,60.69,0,0,1,5-7.83,57.54,57.54,0,0,1,7.65-8.28,37.15,37.15,0,0,1,6.58-4.82,38.23,38.23,0,0,1,9.43-4.1A26.69,26.69,0,0,1,81.14.23,1.34,1.34,0,0,0,81.6,0h7.2Zm15.6,60.61a1.81,1.81,0,1,0-1.84,2A2.09,2.09,0,0,0,104.4,60.61Z" transform="translate(-8.72)"/><path class="cls-3" d="M71.28,88.32l-0.5-.72c1.67,0,3.2,0,4.72,0a16.15,16.15,0,0,0,5.57-1.28A11.67,11.67,0,0,0,85.8,83a24.86,24.86,0,0,0,1.91,2.83,2.9,2.9,0,0,0,4.13,0c0.28-.28.52-0.6,0.78-0.89a13.15,13.15,0,0,0,8.17,4.35c-1.15.22-2.29,0.46-3.44,0.67a48.48,48.48,0,0,1-9.17.7c-1.73,0-3.46-.09-5.18-0.24-1.88-.16-3.77-0.34-5.63-0.69C75.31,89.39,73.3,88.82,71.28,88.32Z" transform="translate(-8.72)"/><path class="cls-4" d="M82.47,73.45c2.88,0.24,5.4.14,7.59-1.69a4.63,4.63,0,0,0,1.19-4.64,4.79,4.79,0,0,0-3.6-3.05,7.14,7.14,0,0,1-.89-0.3c-0.51-1.91.25-3.45,1.39-4.9,0.48-.62,1-1.24,1.43-1.87a2.38,2.38,0,0,1,2.24-1,2,2,0,0,1-.62,2.27,3.35,3.35,0,0,0-1,2.32c-0.3,2.57,1.16,3.93,3.16,5a3.2,3.2,0,0,1,1.57,2.53,6.62,6.62,0,0,1-6.42,8.29,7.43,7.43,0,0,1-4.85-1.52A7.74,7.74,0,0,1,82.47,73.45Z" transform="translate(-8.72)"/><path class="cls-5" d="M71.28,88.32c2,0.49,4,1.07,6.08,1.45,1.85,0.35,3.74.53,5.63,0.69,1.72,0.15,3.45.23,5.18,0.24a48.48,48.48,0,0,0,9.17-.7c1.15-.21,2.29-0.45,3.44-0.67l1.72,0.3a15.44,15.44,0,0,1-3.64,2.26,22.42,22.42,0,0,1-5.94,1.79,27.79,27.79,0,0,1-2.92.37c-1.4.06-2.8,0.06-4.2,0A25.12,25.12,0,0,1,77,92.17a21.91,21.91,0,0,1-5-3.05A5.61,5.61,0,0,1,71.28,88.32Z" transform="translate(-8.72)"/><path class="cls-2" d="M77.23,61.34c-0.37,1.41-.68,2.84-1.15,4.23A4.7,4.7,0,0,1,75,67.23a2.44,2.44,0,0,1-3.78,0A6.78,6.78,0,0,1,69.52,64a10.42,10.42,0,0,1,.54-7.11A6.16,6.16,0,0,1,71.33,55a2.3,2.3,0,0,1,3.5,0,9.76,9.76,0,0,1,1.48,2.27,5.42,5.42,0,0,1,.47,1.59c0.14,0.78.2,1.58,0.3,2.37Zm-1.15-.73a1.81,1.81,0,1,0-1.83,2A2.09,2.09,0,0,0,76.08,60.6Z" transform="translate(-8.72)"/><path class="cls-2" d="M79.34,52.5c-0.79-.12-1.4-0.22-2-0.3a15.91,15.91,0,0,0-9.19,1.49,8,8,0,0,0-4.42,4.92A6.24,6.24,0,0,1,65,52.51a9.65,9.65,0,0,1,13.93-.6A4.38,4.38,0,0,1,79.34,52.5Z" transform="translate(-8.72)"/><path class="cls-4" d="M122.57,57.17a6.23,6.23,0,0,1,2.85,3.16,6,6,0,0,1-1.07,6.08c-1.49,1.79-5.12,3.42-7.35,3.11,2.6-1.1,4.71-2.52,5.75-5A9,9,0,0,0,122.57,57.17Z" transform="translate(-8.72)"/><path class="cls-4" d="M51.23,57.45c-2,4.64-.88,9.55,5.26,12.26a8.71,8.71,0,0,1-4.95-1.25A11.57,11.57,0,0,1,49,66.19,0.58,0.58,0,0,1,48.87,66c-0.46-2-1.61-4.06-.17-6.15a4.47,4.47,0,0,1,.4-0.58c0.64-.67,1.29-1.32,1.94-2Z" transform="translate(-8.72)"/><path class="cls-6" d="M108.87,117.6c1.42,0.57,2.83,1.19,4.28,1.71,4.38,1.58,8.77,3.13,13.16,4.69,0.22,0.08.42,0.18,0.67,0.29l-0.82,2.77q-3.73,10.19-7.45,20.39-5,13.86-10.05,27.74-4.7,13-9.36,26.08c-1.63,4.55-3.23,9.12-4.86,13.67-1.32,3.69-2.67,7.36-4,11s-2.63,7.21-3.93,10.82c-1.39,3.84-2.78,7.67-4.14,11.52-0.45,1.27-.81,2.58-1.21,3.87l-3,7.89,17.27,6.23c-1,2.94-2,5.68-3,8.42q-3.08,8.55-6.18,17.1-1.36,3.77-2.75,7.53c-0.81,2.21-1.66,4.4-2.45,6.62-0.68,1.91-1.26,3.86-2,5.77-1.76,4.83-3.59,9.64-5.34,14.47-1,2.65-1.8,5.35-2.77,8s-2.05,5.19-3,7.82c-2.5,7-5,14-7.49,21.16a9.07,9.07,0,0,1-1.56-.27c-3.19-1.15-6.36-2.33-9.55-3.49-2.66-1-5.31-2-8-2.89-2.25-.79-4.53-1.52-6.8-2.28a4.15,4.15,0,0,0-.85-0.57c-4.28-1.55-8.57-3.06-12.86-4.6-3.61-1.3-7.21-2.62-10.82-3.91a10.26,10.26,0,0,0-1.35-.29v-0.72a9.17,9.17,0,0,0,.52-1q1.75-4.79,3.47-9.59,3-8.41,6.06-16.82c1.27-3.54,2.5-7.09,3.78-10.62,2-5.6,4.11-11.18,6.13-16.78Q33.87,274.93,39,260.54q2-5.7,4.12-11.38l0.46-1.25C43.85,248,44,248,44.15,248l10,3.64c0.41,0.15.84,0.22,1.26,0.32l3.81,0.25c0.21-.49.39-0.84,0.52-1.21,0.52-1.43,1-2.87,1.53-4.29q5.16-14.2,10.33-28.4,2.72-7.5,5.41-15l7.07-19.63q2.48-6.88,4.94-13.77c0.78-2.18,1.51-4.38,2.26-6.56,0.25-.53.54-1.05,0.74-1.6q4.16-11.49,8.29-23c1.52-4.21,3.07-8.4,4.57-12.62,1-2.86,2-5.73,3-8.6h1Z" transform="translate(-8.72)"/><path class="cls-7" d="M34.59,354.25c2.27,0.76,4.54,1.49,6.8,2.28,2.67,0.94,5.33,1.92,8,2.89,3.18,1.16,6.36,2.35,9.55,3.49a9.07,9.07,0,0,0,1.56.27C63,356,65.47,349,68,342c0.94-2.63,2-5.2,3-7.82s1.8-5.35,2.77-8c1.76-4.83,3.58-9.64,5.34-14.47,0.7-1.91,1.27-3.86,2-5.77,0.79-2.22,1.64-4.41,2.45-6.62q1.38-3.76,2.75-7.53,3.1-8.55,6.18-17.1c1-2.74,1.94-5.48,3-8.42l-17.27-6.23,3-7.89H99.29l18.26,0h4.3c1.12,1.81,2.28,3.58,3.34,5.41a110.59,110.59,0,0,1,11.32,28.79c1,4.18,1.91,8.42,2.63,12.66,0.65,3.85,1.07,7.75,1.43,11.64q0.53,5.61.72,11.24c0.09,2.76-.08,5.52-0.14,8.29,0,0.52,0,1-.08,1.56-0.19,3.11-.3,6.23-0.6,9.33-0.32,3.34-.7,6.69-1.27,10-0.66,3.85-1.54,7.66-2.34,11.48-0.25,1.21-.58,2.4-0.89,3.64H37.16Z" transform="translate(-8.72)"/><path class="cls-8" d="M117.55,252.15l-18.26,0H81.14c0.4-1.29.76-2.6,1.21-3.87,1.36-3.85,2.75-7.68,4.14-11.52q2-5.41,3.93-10.82c1.34-3.68,2.69-7.35,4-11,1.63-4.55,3.23-9.12,4.86-13.67q4.67-13,9.36-26.08,5-13.88,10.05-27.74,3.71-10.2,7.45-20.39a24.56,24.56,0,0,1,2.14,1.23A53.76,53.76,0,0,1,143,144.88a108.26,108.26,0,0,1,10.65,24.48,156.44,156.44,0,0,1,4.72,21.17c0.5,3.2.86,6.42,1.21,9.63a159.86,159.86,0,0,1,.76,21.24c-0.09,4.16-.39,8.31-0.7,12.46-0.22,2.9-.57,5.8-1,8.69-0.43,3.16-1,6.3-1.48,9.51H132.49a211.41,211.41,0,0,0,.87-61.67l-0.28-.09a5,5,0,0,0-.35.86,57.82,57.82,0,0,1-3.68,11.51,14.92,14.92,0,0,1-4.76,6.22,3,3,0,0,0-.76.9,57.65,57.65,0,0,0-5.79,14.57A75,75,0,0,0,116,236.3c-0.16,1.67.13,3.37,0,5a51.7,51.7,0,0,0,.53,9A5.66,5.66,0,0,0,117.55,252.15Z" transform="translate(-8.72)"/><path class="cls-9" d="M97.53,552.13c0-3.73-.06-7.46,0-11.19a32.81,32.81,0,0,1,.55-4c0.61-4.18,1.25-8.36,1.82-12.55q0.66-4.8,1.18-9.62c0.23-2.11.35-4.23,0.53-6.34,0.21-2.51.44-5,.65-7.52,0.11-1.36.22-2.71,0.29-4.07,0.27-5.24.52-10.48,0.8-15.72,0-1,.17-1.91.26-2.94h24.19l-12,73.51c-3.93.19-7.87-.25-11.82,0.43A37.83,37.83,0,0,1,97.53,552.13Z" transform="translate(-8.72)"/><path class="cls-9" d="M56.87,551.65c-0.67-4.1-1.36-8.21-2-12.31-0.35-2.21-.62-4.43-1-6.64-0.44-2.72-1-5.43-1.42-8.15-0.54-3.23-1-6.47-1.56-9.7-0.62-3.78-1.28-7.56-1.89-11.35-0.85-5.28-1.67-10.57-2.52-15.86-0.4-2.48-.87-5-1.3-7.43-0.11-.67-0.18-1.35-0.27-2.09H69.06c0.11,1.1.26,2.2,0.31,3.3,0.11,2.24.14,4.48,0.26,6.72,0.19,3.27.43,6.55,0.65,9.82,0.09,1.32.16,2.64,0.27,4,0.38,4.42.74,8.85,1.19,13.26s0.92,8.74,1.51,13.09c0.48,3.56,1.17,7.09,1.75,10.64a13.1,13.1,0,0,1,.17,2c0,3.73,0,7.46,0,11.19-0.44,0-.88,0-1.32,0-3.58-.15-7.17-0.35-10.75-0.47C61,551.62,59,551.66,56.87,551.65Z" transform="translate(-8.72)"/><path class="cls-10" d="M97.53,552.13a37.83,37.83,0,0,0,6.47,0c3.94-.68,7.88-0.24,11.82-0.43,0.52,0,.62.28,0.77,0.71a20.5,20.5,0,0,0,1,2.07l0.36-.1v-3.05h3.23v5.51a19.29,19.29,0,0,0,6.32,2.05,39.62,39.62,0,0,0,9.43.75c1.91-.12,3.8-0.39,5.7-0.58a2.16,2.16,0,0,1,.92,0c6.52,2.44,10.66,7,12.16,13.85a21.55,21.55,0,0,1,.34,2.73c0,0.55,0,1.11,0,1.73-0.46,0-.81.07-1.15,0.07H150.7l-51.14.25c-0.87,0-1.74-.11-2.71-0.17a12.82,12.82,0,0,1-.27-1.75c0-2.61,0-5.21,0-7.82,0-3.81,0-7.62,0-11.43,0-1.4.17-2.79,0.26-4.24Z" transform="translate(-8.72)"/><path class="cls-11" d="M56.87,551.65c2.09,0,4.17,0,6.26,0,3.59,0.12,7.17.31,10.75,0.47,0.44,0,.88,0,1.32,0l0.92,0.1v25.18a26.25,26.25,0,0,1-2.69.27q-20,0-39.95,0c-5.17,0-10.34-.16-15.51-0.24H17a18.27,18.27,0,0,1,2-9.37,17.38,17.38,0,0,1,10-8.71,4,4,0,0,1,1.7-.17,48.21,48.21,0,0,0,9,.45,32.57,32.57,0,0,0,10.74-2.11l1.37-.61v-5.57h3.27v3.08c0.94-.28,1-1.06,1.35-1.64Z" transform="translate(-8.72)"/><path class="cls-8" d="M55.45,252c1.36-1.9.93-4.16,1.16-6.25,0.25-2.26,0-4.56.12-6.84a42.88,42.88,0,0,0-.6-8.73,57.65,57.65,0,0,0-7-20.52,2.61,2.61,0,0,0-.62-0.72,18.54,18.54,0,0,1-5.55-8,54.44,54.44,0,0,1-3.43-11.85,1.54,1.54,0,0,0-.39-0.76,204.84,204.84,0,0,0,.31,63.75H14.81c-0.47-2.73-1-5.43-1.39-8.15-0.52-4-.87-8.08-1.3-12.13-0.74-7-.48-14-0.44-21a91.72,91.72,0,0,1,.65-9.21c0.47-4.4,1-8.81,1.68-13.18a148.22,148.22,0,0,1,3.75-16.72,113.12,113.12,0,0,1,5-14.13,82.89,82.89,0,0,1,11.51-19.75,46.92,46.92,0,0,1,10.32-9.65c0.6-.4,1.26-0.7,1.85-1.11a1.49,1.49,0,0,0,.49-0.89c2.86-1.09,5.51-3,8.85-3-0.29,1.49-.56,2.88-0.83,4.27a26,26,0,0,0-.27,8,29.71,29.71,0,0,0,2.26,8.9,32.11,32.11,0,0,0,13.67,15,30.41,30.41,0,0,0,12.48,4c2.49,0.22,5,.07,7.53.09l0.72,0c-0.75,2.19-1.49,4.38-2.26,6.56q-2.45,6.89-4.94,13.77L77,203.36q-2.7,7.5-5.41,15-5.16,14.2-10.33,28.4c-0.52,1.43-1,2.86-1.53,4.29-0.13.37-.31,0.72-0.52,1.21Z" transform="translate(-8.72)"/></svg>