<?xml version="1.0" encoding="utf-8"?>
<!-- Generator: Adobe Illustrator 16.0.0, SVG Export Plug-In . SVG Version: 6.00 Build 0)  -->
<!DOCTYPE svg PUBLIC "-//W3C//DTD SVG 1.1//EN" "http://www.w3.org/Graphics/SVG/1.1/DTD/svg11.dtd">
<svg version="1.1" id="Ebene_1" xmlns="http://www.w3.org/2000/svg" xmlns:xlink="http://www.w3.org/1999/xlink" x="0px" y="0px"
	 width="154.561px" height="154.08px" viewBox="0 0 154.561 154.08" style="enable-background:new 0 0 154.561 154.08;"
	 xml:space="preserve">
<style type="text/css">
<![CDATA[
	.st0{fill-rule:evenodd;clip-rule:evenodd;fill:none;}
	.st1{fill-rule:evenodd;clip-rule:evenodd;}
]]>
</style>
<g>
	<path class="st0" d="M155.04,154.32c-51.6,0-103.2,0-154.8,0c0-51.36,0-102.72,0-154.08c51.6,0,103.199,0,154.8,0
		C155.04,51.6,155.04,102.96,155.04,154.32z M77.616,153.57c42.058-0.053,76.282-34.267,76.303-76.278
		c0.021-41.981-34.34-76.384-76.311-76.405C35.55,0.867,1.061,35.316,1.127,77.28C1.193,119.322,35.583,153.623,77.616,153.57z"/>
	<path class="st1" d="M77.616,153.57c-42.033,0.053-76.423-34.248-76.489-76.29C1.061,35.316,35.55,0.867,77.608,0.887
		c41.971,0.021,76.331,34.424,76.311,76.405C153.898,119.304,119.674,153.518,77.616,153.57z M27.441,118.505
		c12.414,15.612,36.208,27.774,61.935,22.514c25.279-5.169,42.289-20.313,50.168-44.937c5.806-18.145,3.087-35.565-6.311-52.147
		c-2.61,1.842-5.02,3.542-7.399,5.221c0.044,0.175,0.052,0.251,0.081,0.318c0.064,0.146,0.138,0.288,0.21,0.43
		c6.563,12.831,8.348,26.282,5.134,40.344c-1.782,7.8-5.096,14.929-9.853,21.367c-2.816,3.812-8.356,3.652-10.859-0.273
		c-1.555-2.438-1.35-5.085,0.545-7.813c7.956-11.455,10.542-23.972,7.187-37.565c-0.767-3.104-2.032-6.085-3.122-9.281
		c-2.244,1.58-4.146,2.967-6.104,4.269c-0.729,0.485-0.854,0.924-0.575,1.754c3.563,10.57,3.288,21.075-1.024,31.345
		c-1.394,3.318-3.395,6.399-5.291,9.483c-1.127,1.834-3.021,2.458-5.131,2.044c-1.921-0.377-3.203-1.583-3.757-3.466
		c-0.494-1.682-0.113-3.22,0.907-4.639c4.867-6.769,7.081-14.335,6.579-22.645c-0.142-2.355-0.671-4.687-1.05-7.215
		c-0.608,0.404-0.943,0.615-1.267,0.843c-3.529,2.485-7.021,5.027-10.606,7.43c-1.161,0.778-1.775,1.615-1.614,3.006
		c0.046,0.394-0.008,0.799-0.023,1.198c-0.233,5.787-1.266,11.409-3.412,16.812c-0.271,0.683-0.447,1.451-0.452,2.182
		c-0.034,6.239-0.011,12.479-0.024,18.719c-0.005,2.237-1.64,3.681-3.631,3.119c-0.73-0.206-1.399-0.748-2.007-1.246
		c-7.45-6.11-14.884-12.242-22.324-18.366c-0.39-0.32-0.797-0.619-1.197-0.929C44.554,106.442,36.034,112.448,27.441,118.505z
		 M85.213,64.864c3.273-2.31,6.552-4.623,9.82-6.93c-2.24-3.641-2.092-6.263,0.364-8.079c2.533-1.873,5.094-1.17,7.954,2.217
		c1.855-1.307,3.696-2.643,5.584-3.91c0.685-0.46,0.996-0.934,1.037-1.812c0.182-3.831,3.648-6.797,7.37-6.005
		c1.817,0.387,2.984-0.105,4.271-1.12c1.317-1.037,2.732-1.95,4.104-2.919c0.438-0.311,0.873-0.627,1.312-0.944
		c-21.024-25.045-60.715-32.396-90.413-8.413C9.313,49,6.719,85.854,21.517,109.76c5.725-4.037,11.447-8.071,17.168-12.106
		c-3.324-0.227-6.553-0.219-9.781-0.229c-3.9-0.012-6.649-2.711-6.66-6.619c-0.024-9.038-0.027-18.077,0.002-27.116
		c0.012-3.836,2.774-6.545,6.603-6.553c6.559-0.013,13.119,0.016,19.677-0.033c0.645-0.005,1.412-0.275,1.91-0.682
		c8.886-7.258,17.745-14.551,26.593-21.856c1.105-0.912,2.254-1.394,3.622-0.748c1.388,0.654,1.678,1.886,1.673,3.302
		c-0.022,6.159-0.013,12.318-0.005,18.478c0.001,0.433-0.007,0.894,0.129,1.295C83.34,59.53,84.269,62.155,85.213,64.864z"/>
	<path class="st0" d="M27.441,118.505c8.592-6.057,17.112-12.063,25.71-18.124c0.4,0.31,0.808,0.608,1.197,0.929
		c7.439,6.124,14.874,12.256,22.324,18.366c0.608,0.498,1.277,1.04,2.007,1.246c1.991,0.562,3.626-0.882,3.631-3.119
		c0.014-6.239-0.01-12.479,0.024-18.719c0.005-0.73,0.182-1.499,0.452-2.182c2.146-5.402,3.179-11.024,3.412-16.812
		c0.016-0.399,0.069-0.805,0.023-1.198c-0.161-1.391,0.453-2.228,1.614-3.006c3.585-2.403,7.077-4.945,10.606-7.43
		c0.323-0.228,0.658-0.438,1.267-0.843c0.379,2.528,0.908,4.859,1.05,7.215c0.502,8.31-1.712,15.876-6.579,22.645
		c-1.021,1.419-1.401,2.957-0.907,4.639c0.554,1.883,1.836,3.089,3.757,3.466c2.11,0.414,4.004-0.21,5.131-2.044
		c1.896-3.084,3.897-6.165,5.291-9.483c4.313-10.271,4.588-20.775,1.024-31.345c-0.279-0.83-0.153-1.269,0.575-1.754
		c1.958-1.302,3.86-2.689,6.104-4.269c1.09,3.196,2.355,6.177,3.122,9.281c3.355,13.593,0.77,26.11-7.187,37.565
		c-1.895,2.729-2.1,5.376-0.545,7.813c2.503,3.926,8.043,4.085,10.859,0.273c4.757-6.438,8.07-13.567,9.853-21.367
		c3.214-14.062,1.429-27.513-5.134-40.344c-0.072-0.142-0.146-0.284-0.21-0.43c-0.029-0.067-0.037-0.143-0.081-0.318
		c2.38-1.68,4.789-3.379,7.399-5.221c9.397,16.582,12.116,34.002,6.311,52.147c-7.879,24.623-24.889,39.768-50.168,44.937
		C63.649,146.279,39.855,134.117,27.441,118.505z"/>
	<path class="st0" d="M85.213,64.864c-0.944-2.709-1.873-5.334-2.764-7.973c-0.136-0.401-0.128-0.862-0.129-1.295
		c-0.008-6.159-0.018-12.318,0.005-18.478c0.005-1.416-0.285-2.647-1.673-3.302c-1.368-0.646-2.517-0.164-3.622,0.748
		c-8.848,7.306-17.707,14.598-26.593,21.856c-0.498,0.407-1.266,0.677-1.91,0.682c-6.559,0.049-13.118,0.02-19.677,0.033
		c-3.828,0.008-6.59,2.716-6.603,6.553c-0.029,9.039-0.026,18.078-0.002,27.116c0.011,3.908,2.76,6.607,6.66,6.619
		c3.228,0.01,6.457,0.002,9.781,0.229c-5.722,4.035-11.443,8.069-17.168,12.106C6.719,85.854,9.313,49,36.617,26.951
		c29.698-23.983,69.388-16.632,90.413,8.413c-0.438,0.316-0.873,0.633-1.312,0.944c-1.371,0.969-2.786,1.882-4.104,2.919
		c-1.287,1.015-2.454,1.507-4.271,1.12c-3.722-0.792-7.188,2.174-7.37,6.005c-0.041,0.878-0.353,1.352-1.037,1.812
		c-1.888,1.268-3.729,2.604-5.584,3.91c-2.86-3.387-5.421-4.09-7.954-2.217c-2.456,1.816-2.604,4.438-0.364,8.079
		C91.765,60.241,88.486,62.554,85.213,64.864z"/>
</g>
</svg>
