<?xml version="1.0" encoding="utf-8"?>
<!-- Generator: Adobe Illustrator 16.0.0, SVG Export Plug-In . SVG Version: 6.00 Build 0)  -->
<!DOCTYPE svg PUBLIC "-//W3C//DTD SVG 1.1//EN" "http://www.w3.org/Graphics/SVG/1.1/DTD/svg11.dtd">
<svg version="1.1" id="Ebene_1" xmlns="http://www.w3.org/2000/svg" xmlns:xlink="http://www.w3.org/1999/xlink" x="0px" y="0px"
	 width="154.561px" height="154.08px" viewBox="0 0 154.561 154.08" style="enable-background:new 0 0 154.561 154.08;"
	 xml:space="preserve">
<style type="text/css">
<![CDATA[
	.st0{fill-rule:evenodd;clip-rule:evenodd;fill:none;}
	.st1{fill-rule:evenodd;clip-rule:evenodd;}
]]>
</style>
<g>
	<path class="st0" d="M155.04,154.32c-51.6,0-103.2,0-154.8,0c0-51.36,0-102.72,0-154.08c51.6,0,103.2,0,154.8,0
		C155.04,51.6,155.04,102.96,155.04,154.32z M77.64,0.887C35.626,0.837,1.213,35.129,1.126,77.129
		c-0.086,41.976,34.24,76.349,76.338,76.441c42.044,0.093,76.41-34.18,76.454-76.247C153.963,35.345,119.626,0.938,77.64,0.887z"/>
	<path class="st1" d="M77.64,0.887c41.986,0.05,76.323,34.458,76.279,76.436c-0.044,42.067-34.41,76.34-76.454,76.247
		c-42.098-0.093-76.424-34.466-76.338-76.441C1.213,35.129,35.626,0.837,77.64,0.887z M77.486,142.252
		c36.047-0.434,64.839-28.486,64.903-64.908c0.064-35.892-28.2-64.846-64.776-64.932c-36.081-0.084-64.945,28.396-64.961,64.864
		C12.637,113.42,41.161,141.753,77.486,142.252z"/>
	<path class="st0" d="M77.486,142.252c-36.325-0.499-64.85-28.832-64.834-64.976c0.016-36.468,28.88-64.948,64.961-64.864
		c36.576,0.085,64.841,29.04,64.776,64.932C142.325,113.766,113.533,141.818,77.486,142.252z M22.237,77.256
		c0,4.518-0.022,9.036,0.006,13.555c0.025,3.905,2.763,6.607,6.663,6.613c6.518,0.01,13.035-0.019,19.552,0.034
		c0.681,0.006,1.491,0.287,2.016,0.716c8.887,7.254,17.744,14.544,26.591,21.847c1.07,0.884,2.191,1.347,3.518,0.757
		c1.396-0.619,1.746-1.826,1.741-3.255c-0.021-6.197-0.017-12.395,0.005-18.593c0.002-0.581,0.09-1.204,0.313-1.734
		c2.189-5.215,3.221-10.679,3.517-16.294c0.435-8.227-0.437-16.262-3.667-23.936c-0.161-0.384-0.168-0.854-0.169-1.283
		c-0.01-5.958-0.019-11.915,0.001-17.873c0.005-1.597,0.051-3.192-1.695-4.006c-1.731-0.807-2.94,0.216-4.175,1.235
		c-8.692,7.176-17.393,14.342-26.117,21.478c-0.442,0.361-1.131,0.588-1.708,0.591c-6.517,0.041-13.036,0.112-19.551-0.01
		c-3.514-0.066-6.993,2.725-6.87,6.843C22.339,68.376,22.237,72.817,22.237,77.256z M132.822,77.113
		c0.1-0.019,0.199-0.037,0.3-0.057c-0.535-4.065-0.858-8.173-1.65-12.188c-1.588-8.047-4.891-15.401-9.745-22.026
		c-1.612-2.201-3.883-3.027-6.547-2.505c-2.474,0.485-4.126,2.028-4.922,4.409c-0.825,2.468,0.059,4.551,1.441,6.61
		c7.152,10.656,9.581,22.312,7.03,34.911c-1.307,6.456-4.045,12.31-7.904,17.663c-2.231,3.095-1.535,7.114,1.434,9.229
		c2.988,2.129,6.969,1.443,9.207-1.637C128.921,101.264,132.672,89.779,132.822,77.113z M110.903,77.102
		c0.022-4.512-0.679-8.915-2.005-13.209c-1.446-4.682-3.536-9.069-6.497-12.989c-2.192-2.901-6.469-2.682-8.292,0.372
		c-1.26,2.108-0.799,4.073,0.529,6.03c5.23,7.701,7.193,16.162,5.72,25.381c-0.864,5.414-2.97,10.312-6.148,14.77
		c-1.83,2.565-1.408,5.653,0.933,7.317c2.362,1.68,5.404,1.066,7.231-1.483C107.982,95.462,110.787,86.719,110.903,77.102z"/>
	<path class="st1" d="M22.237,77.256c0-4.438,0.102-8.88-0.03-13.314c-0.123-4.118,3.356-6.909,6.87-6.843
		c6.515,0.122,13.034,0.05,19.551,0.01c0.576-0.003,1.266-0.23,1.708-0.591c8.725-7.136,17.425-14.302,26.117-21.478
		c1.234-1.02,2.443-2.042,4.175-1.235c1.746,0.814,1.7,2.409,1.695,4.006c-0.02,5.958-0.011,11.915-0.001,17.873
		c0.001,0.43,0.008,0.899,0.169,1.283c3.23,7.673,4.102,15.708,3.667,23.936c-0.296,5.615-1.327,11.079-3.517,16.294
		c-0.223,0.53-0.311,1.153-0.313,1.734c-0.021,6.198-0.026,12.396-0.005,18.593c0.005,1.429-0.346,2.636-1.741,3.255
		c-1.326,0.59-2.447,0.127-3.518-0.757c-8.847-7.303-17.704-14.593-26.591-21.847c-0.525-0.429-1.335-0.71-2.016-0.716
		c-6.517-0.053-13.035-0.024-19.552-0.034c-3.899-0.006-6.638-2.708-6.663-6.613C22.215,86.292,22.237,81.773,22.237,77.256z"/>
	<path class="st1" d="M132.822,77.113c-0.15,12.666-3.901,24.15-11.356,34.41c-2.238,3.08-6.219,3.766-9.207,1.637
		c-2.969-2.115-3.665-6.135-1.434-9.229c3.859-5.354,6.598-11.207,7.904-17.663c2.551-12.599,0.122-24.255-7.03-34.911
		c-1.383-2.059-2.267-4.142-1.441-6.61c0.796-2.381,2.448-3.924,4.922-4.409c2.664-0.522,4.935,0.304,6.547,2.505
		c4.854,6.625,8.157,13.979,9.745,22.026c0.792,4.015,1.115,8.123,1.65,12.188C133.021,77.076,132.922,77.095,132.822,77.113z"/>
	<path class="st1" d="M110.903,77.102c-0.116,9.617-2.921,18.36-8.529,26.188c-1.827,2.55-4.869,3.163-7.231,1.483
		c-2.341-1.664-2.763-4.752-0.933-7.317c3.179-4.458,5.284-9.355,6.148-14.77c1.474-9.22-0.489-17.681-5.72-25.381
		c-1.328-1.957-1.789-3.921-0.529-6.03c1.823-3.054,6.1-3.273,8.292-0.372c2.961,3.919,5.051,8.307,6.497,12.989
		C110.225,68.187,110.926,72.59,110.903,77.102z"/>
</g>
</svg>
